<svg width="676" height="35" viewBox="0 0 676 35" fill="none" xmlns="http://www.w3.org/2000/svg">
<path d="M15.1041 29.702C15.1041 28.1687 14.5507 27.402 13.4441 27.402C12.8574 27.402 12.4307 27.5687 12.1641 27.902C11.9907 28.142 11.7774 28.262 11.5241 28.262H10.4041C10.2041 28.262 10.0441 28.202 9.92405 28.082C9.80405 27.962 9.74405 27.802 9.74405 27.602V20.882C9.74405 20.682 9.80405 20.522 9.92405 20.402C10.0441 20.282 10.2041 20.222 10.4041 20.222H16.3241C16.5241 20.222 16.6841 20.282 16.8041 20.402C16.9241 20.522 16.9841 20.682 16.9841 20.882V21.742C16.9841 21.942 16.9241 22.102 16.8041 22.222C16.6841 22.342 16.5241 22.402 16.3241 22.402H12.7841C12.5841 22.402 12.4241 22.462 12.3041 22.582C12.1841 22.702 12.1241 22.862 12.1241 23.062V25.302C12.1241 25.5287 12.2107 25.5953 12.3841 25.502C12.7574 25.3153 13.2041 25.222 13.7241 25.222C14.2574 25.222 14.7774 25.342 15.2841 25.582C15.7907 25.8087 16.2107 26.1287 16.5441 26.542C17.1841 27.342 17.5041 28.3953 17.5041 29.702C17.5041 31.1153 17.1174 32.2353 16.3441 33.062C15.5441 33.9153 14.4374 34.342 13.0241 34.342C12.3041 34.342 11.6107 34.182 10.9441 33.862C10.2907 33.542 9.74405 33.102 9.30405 32.542C9.17072 32.3953 9.12405 32.242 9.16405 32.082C9.20405 31.922 9.30405 31.7887 9.46405 31.682L10.3841 31.102C10.5041 31.022 10.6441 30.982 10.8041 30.982C10.9774 30.982 11.1507 31.082 11.3241 31.282C11.8441 31.802 12.4441 32.062 13.1241 32.062C13.8174 32.062 14.3174 31.8487 14.6241 31.422C14.9441 30.982 15.1041 30.4087 15.1041 29.702Z" fill="white"/>
<path d="M0.0801392 33.862V33.502C0.0801392 31.902 0.753472 30.3553 2.10014 28.862C2.50014 28.4353 2.89347 28.0353 3.28014 27.662C3.66681 27.2887 4.04014 26.9153 4.40014 26.542C4.77347 26.1553 5.08014 25.7553 5.32014 25.342C5.56014 24.9287 5.68681 24.562 5.70014 24.242C5.72681 23.6153 5.59347 23.1487 5.30014 22.842C4.99347 22.5353 4.58014 22.382 4.06014 22.382C3.54014 22.382 3.17347 22.5353 2.96014 22.842C2.76014 23.1487 2.63347 23.462 2.58014 23.782C2.50014 24.3287 2.26014 24.602 1.86014 24.602H0.800139C0.600139 24.602 0.440139 24.542 0.320139 24.422C0.200139 24.302 0.146806 24.1487 0.160139 23.962C0.266806 22.8153 0.646806 21.8953 1.30014 21.202C1.99347 20.4687 2.90681 20.102 4.04014 20.102C5.68014 20.102 6.86681 20.7353 7.60014 22.002C7.94681 22.6287 8.10681 23.342 8.08014 24.142C8.05347 24.9287 7.90681 25.5753 7.64014 26.082C7.37347 26.5887 7.07347 27.022 6.74014 27.382C6.20681 27.9553 5.70014 28.4753 5.22014 28.942C4.02014 30.1153 3.26681 30.9353 2.96014 31.402C2.84014 31.5887 2.82014 31.742 2.90014 31.862C2.99347 31.982 3.15347 32.042 3.38014 32.042H7.14014C7.34014 32.042 7.50014 32.102 7.62014 32.222C7.74014 32.342 7.80014 32.502 7.80014 32.702V33.562C7.80014 33.762 7.74014 33.922 7.62014 34.042C7.50014 34.162 7.34014 34.222 7.14014 34.222H0.440139C0.200139 34.222 0.0801392 34.102 0.0801392 33.862Z" fill="white"/>
<path d="M17.064 13.302C16.4774 14.7153 15.3174 15.422 13.584 15.422C12.4907 15.422 11.644 15.1487 11.044 14.602C10.444 14.042 10.024 13.2353 9.78404 12.182C9.54404 11.1153 9.42404 9.79535 9.42404 8.22201C9.42404 6.86201 9.49071 5.80201 9.62404 5.04201C9.90404 3.48201 10.3707 2.42201 11.024 1.86201C11.6774 1.28868 12.5507 1.00201 13.644 1.00201C14.7507 1.00201 15.5974 1.28201 16.184 1.84201C16.7707 2.38868 17.184 3.18868 17.424 4.24201C17.6774 5.29535 17.804 6.62201 17.804 8.22201C17.804 9.59535 17.7374 10.6553 17.604 11.402C17.4707 12.1353 17.2907 12.7687 17.064 13.302ZM13.624 13.142C14.384 13.142 14.8774 12.742 15.104 11.942C15.3174 11.182 15.424 9.94201 15.424 8.22201C15.424 5.90201 15.2307 4.44868 14.844 3.86201C14.5774 3.47535 14.1707 3.28201 13.624 3.28201C12.8374 3.28201 12.344 3.68868 12.144 4.50201C12.0774 4.72868 12.004 5.08868 11.924 5.58201C11.844 6.06201 11.804 6.94201 11.804 8.22201C11.804 10.4887 12.0107 11.9287 12.424 12.542C12.6907 12.942 13.0907 13.142 13.624 13.142Z" fill="white"/>
<path d="M0.0801392 14.862V14.502C0.0801392 12.902 0.753472 11.3553 2.10014 9.86199C2.50014 9.43532 2.89347 9.03532 3.28014 8.66199C3.66681 8.28866 4.04014 7.91532 4.40014 7.54199C4.77347 7.15532 5.08014 6.75532 5.32014 6.34199C5.56014 5.92866 5.68681 5.56199 5.70014 5.24199C5.72681 4.61532 5.59347 4.14866 5.30014 3.84199C4.99347 3.53532 4.58014 3.38199 4.06014 3.38199C3.54014 3.38199 3.17347 3.53532 2.96014 3.84199C2.76014 4.14866 2.63347 4.46199 2.58014 4.78199C2.50014 5.32866 2.26014 5.60199 1.86014 5.60199H0.800139C0.600139 5.60199 0.440139 5.54199 0.320139 5.42199C0.200139 5.30199 0.146806 5.14866 0.160139 4.96199C0.266806 3.81532 0.646806 2.89532 1.30014 2.20199C1.99347 1.46866 2.90681 1.10199 4.04014 1.10199C5.68014 1.10199 6.86681 1.73532 7.60014 3.00199C7.94681 3.62866 8.10681 4.34199 8.08014 5.14199C8.05347 5.92866 7.90681 6.57532 7.64014 7.08199C7.37347 7.58866 7.07347 8.02199 6.74014 8.38199C6.20681 8.95532 5.70014 9.47532 5.22014 9.94199C4.02014 11.1153 3.26681 11.9353 2.96014 12.402C2.84014 12.5887 2.82014 12.742 2.90014 12.862C2.99347 12.982 3.15347 13.042 3.38014 13.042H7.14014C7.34014 13.042 7.50014 13.102 7.62014 13.222C7.74014 13.342 7.80014 13.502 7.80014 13.702V14.562C7.80014 14.762 7.74014 14.922 7.62014 15.042C7.50014 15.162 7.34014 15.222 7.14014 15.222H0.440139C0.200139 15.222 0.0801392 15.102 0.0801392 14.862Z" fill="white"/>
<path d="M117.179 23.624C117.179 19.944 115.851 18.104 113.195 18.104C111.787 18.104 110.763 18.504 110.123 19.304C109.707 19.88 109.195 20.168 108.587 20.168H105.899C105.419 20.168 105.035 20.024 104.747 19.736C104.459 19.448 104.315 19.064 104.315 18.584V2.45601C104.315 1.97601 104.459 1.59201 104.747 1.30401C105.035 1.01601 105.419 0.872009 105.899 0.872009H120.107C120.587 0.872009 120.971 1.01601 121.259 1.30401C121.547 1.59201 121.691 1.97601 121.691 2.45601V4.52001C121.691 5.00001 121.547 5.38401 121.259 5.67201C120.971 5.96001 120.587 6.10401 120.107 6.10401H111.611C111.131 6.10401 110.747 6.24801 110.459 6.53601C110.171 6.82401 110.027 7.20801 110.027 7.68801V13.064C110.027 13.608 110.235 13.768 110.651 13.544C111.547 13.096 112.619 12.872 113.867 12.872C115.147 12.872 116.395 13.16 117.611 13.736C118.827 14.28 119.835 15.048 120.635 16.04C122.171 17.96 122.939 20.488 122.939 23.624C122.939 27.016 122.011 29.704 120.155 31.688C118.235 33.736 115.579 34.76 112.187 34.76C110.459 34.76 108.795 34.376 107.195 33.608C105.627 32.84 104.315 31.784 103.259 30.44C102.939 30.088 102.827 29.72 102.923 29.336C103.019 28.952 103.259 28.632 103.643 28.376L105.851 26.984C106.139 26.792 106.475 26.696 106.859 26.696C107.275 26.696 107.691 26.936 108.107 27.416C109.355 28.664 110.795 29.288 112.427 29.288C114.091 29.288 115.291 28.776 116.027 27.752C116.795 26.696 117.179 25.32 117.179 23.624Z" fill="white"/>
<path d="M81.1213 33.608V32.744C81.1213 28.904 82.7373 25.192 85.9693 21.608C86.9293 20.584 87.8733 19.624 88.8013 18.728C89.7293 17.832 90.6253 16.936 91.4893 16.04C92.3853 15.112 93.1213 14.152 93.6973 13.16C94.2733 12.168 94.5773 11.288 94.6093 10.52C94.6733 9.01599 94.3533 7.89599 93.6493 7.15999C92.9133 6.42399 91.9213 6.05599 90.6733 6.05599C89.4253 6.05599 88.5453 6.42399 88.0333 7.15999C87.5533 7.89599 87.2493 8.64799 87.1213 9.41599C86.9293 10.728 86.3533 11.384 85.3933 11.384H82.8493C82.3693 11.384 81.9853 11.24 81.6973 10.952C81.4093 10.664 81.2813 10.296 81.3133 9.84799C81.5693 7.09598 82.4813 4.88798 84.0493 3.22398C85.7133 1.46398 87.9053 0.583984 90.6253 0.583984C94.5613 0.583984 97.4093 2.10399 99.1693 5.14399C100.001 6.64799 100.385 8.35998 100.321 10.28C100.257 12.168 99.9053 13.72 99.2653 14.936C98.6253 16.152 97.9053 17.192 97.1053 18.056C95.8253 19.432 94.6093 20.68 93.4573 21.8C90.5773 24.616 88.7693 26.584 88.0333 27.704C87.7453 28.152 87.6973 28.52 87.8893 28.808C88.1133 29.096 88.4973 29.24 89.0413 29.24H98.0653C98.5453 29.24 98.9293 29.384 99.2173 29.672C99.5053 29.96 99.6493 30.344 99.6493 30.824V32.888C99.6493 33.368 99.5053 33.752 99.2173 34.04C98.9293 34.328 98.5453 34.472 98.0653 34.472H81.9853C81.4093 34.472 81.1213 34.184 81.1213 33.608Z" fill="white"/>
<path d="M77.5348 31.16C77.5348 32.216 77.1508 33.128 76.3828 33.896C75.6148 34.632 74.6868 35 73.5988 35C72.5428 35 71.6308 34.632 70.8628 33.896C70.1268 33.128 69.7588 32.2 69.7588 31.112C69.7588 30.024 70.1268 29.112 70.8628 28.376C71.5988 27.64 72.5108 27.272 73.5988 27.272C74.7188 27.272 75.6468 27.656 76.3828 28.424C77.1508 29.16 77.5348 30.072 77.5348 31.16Z" fill="white"/>
<path d="M63.6171 29.864C62.2091 33.256 59.4251 34.952 55.2651 34.952C52.6411 34.952 50.6091 34.296 49.1691 32.984C47.7291 31.64 46.7211 29.704 46.1451 27.176C45.5691 24.616 45.2811 21.448 45.2811 17.672C45.2811 14.408 45.4411 11.864 45.7611 10.04C46.4331 6.29599 47.5531 3.75199 49.1211 2.40799C50.6891 1.03199 52.7851 0.343994 55.4091 0.343994C58.0651 0.343994 60.0971 1.01599 61.5051 2.35999C62.9131 3.67199 63.9051 5.59199 64.4811 8.11999C65.0891 10.648 65.3931 13.832 65.3931 17.672C65.3931 20.968 65.2331 23.512 64.9131 25.304C64.5931 27.064 64.1611 28.584 63.6171 29.864ZM55.3611 29.48C57.1851 29.48 58.3691 28.52 58.9131 26.6C59.4251 24.776 59.6811 21.8 59.6811 17.672C59.6811 12.104 59.2171 8.61599 58.2891 7.208C57.6491 6.28 56.6731 5.816 55.3611 5.816C53.4731 5.816 52.2891 6.792 51.8091 8.74399C51.6491 9.28799 51.4731 10.152 51.2811 11.336C51.0891 12.488 50.9931 14.6 50.9931 17.672C50.9931 23.112 51.4891 26.568 52.4811 28.04C53.1211 29 54.0811 29.48 55.3611 29.48Z" fill="white"/>
<path d="M31.9363 32.888V11.096C31.9363 9.87997 31.5523 9.27198 30.7843 9.27198C30.4643 9.27198 30.0323 9.44797 29.4883 9.79998L27.6643 11C27.3443 11.224 26.9763 11.336 26.5603 11.336C26.1763 11.336 25.8083 11.064 25.4563 10.52L24.1123 8.35997C23.5683 7.46397 23.7443 6.74397 24.6403 6.19997L32.8963 1.06397C33.1523 0.903975 33.4243 0.823975 33.7123 0.823975H36.0643C36.5443 0.823975 36.9283 0.967975 37.2163 1.25597C37.5043 1.54397 37.6483 1.92797 37.6483 2.40797V32.888C37.6483 33.368 37.5043 33.752 37.2163 34.04C36.9283 34.328 36.5443 34.472 36.0643 34.472H33.5203C33.0403 34.472 32.6563 34.328 32.3683 34.04C32.0803 33.752 31.9363 33.368 31.9363 32.888Z" fill="white"/>
<path d="M129.851 27.4475H139.617C139.807 27.4475 139.959 27.3905 140.073 27.2765C140.187 27.1625 140.244 27.0105 140.244 26.8205V24.1605C140.244 23.9705 140.301 23.8185 140.415 23.7045C140.529 23.5905 140.681 23.5335 140.871 23.5335H141.897C142.087 23.5335 142.239 23.5905 142.353 23.7045C142.467 23.8185 142.524 23.9705 142.524 24.1605V33.2045C142.524 33.3945 142.467 33.5465 142.353 33.6605C142.239 33.7745 142.087 33.8315 141.897 33.8315H140.871C140.681 33.8315 140.529 33.7745 140.415 33.6605C140.301 33.5465 140.244 33.3945 140.244 33.2045V30.5635C140.244 30.3735 140.187 30.2215 140.073 30.1075C139.959 29.9935 139.807 29.9365 139.617 29.9365H129.851C129.661 29.9365 129.509 29.8795 129.395 29.7655C129.281 29.6515 129.224 29.4995 129.224 29.3095V28.0745C129.224 27.8845 129.281 27.7325 129.395 27.6185C129.509 27.5045 129.661 27.4475 129.851 27.4475Z" fill="white"/>
<path d="M130.06 12.9388L142.125 17.4608C142.391 17.5621 142.524 17.7585 142.524 18.0498V19.3608C142.524 19.6521 142.391 19.8485 142.125 19.9498L130.06 24.4718C129.806 24.5731 129.604 24.5668 129.452 24.4528C129.3 24.3515 129.224 24.1678 129.224 23.9018V22.4388C129.224 22.1475 129.363 21.9575 129.642 21.8688L131.447 21.2418C131.725 21.1531 131.865 20.9631 131.865 20.6718V16.6628C131.865 16.3715 131.725 16.1815 131.447 16.0928L129.642 15.4658C129.363 15.3771 129.224 15.1871 129.224 14.8958V13.5088C129.224 13.2428 129.3 13.0528 129.452 12.9388C129.604 12.8375 129.806 12.8375 130.06 12.9388ZM134.145 17.8978V19.4748C134.145 19.7281 134.214 19.9055 134.354 20.0068C134.506 20.1208 134.708 20.1335 134.962 20.0448L137.261 19.2658C137.78 19.0885 138.04 18.8985 138.04 18.6958C138.04 18.4931 137.78 18.2968 137.261 18.1068L134.962 17.3088C134.708 17.2201 134.506 17.2265 134.354 17.3278C134.214 17.4418 134.145 17.6318 134.145 17.8978Z" fill="white"/>
<path d="M128.939 6.74615C128.939 5.66948 129.16 4.67515 129.604 3.76315C130.06 2.85115 130.769 2.12915 131.732 1.59715C131.884 1.50848 132.029 1.48948 132.169 1.54015C132.321 1.59082 132.441 1.69215 132.53 1.84415L133.081 2.87015C133.144 2.99682 133.176 3.13615 133.176 3.28815C133.176 3.44015 133.074 3.58582 132.872 3.72515C132.302 4.14315 131.896 4.58648 131.656 5.05515C131.415 5.52382 131.295 6.11915 131.295 6.84115C131.295 7.51248 131.371 7.98748 131.523 8.26615C131.687 8.54482 131.877 8.74115 132.093 8.85515C132.308 8.96915 132.574 9.02615 132.891 9.02615C133.22 9.02615 133.505 8.95648 133.746 8.81715C134.1 8.57648 134.43 7.94315 134.734 6.91715C134.835 6.54982 134.943 6.11282 135.057 5.60615C135.183 5.09948 135.348 4.62448 135.551 4.18115C135.753 3.75048 136.013 3.37048 136.33 3.04115C136.988 2.35715 137.843 2.01515 138.895 2.01515C140.174 2.01515 141.175 2.48382 141.897 3.42115C142.555 4.25715 142.885 5.32748 142.885 6.63215C142.885 8.69682 142.087 10.2928 140.491 11.4201C140.199 11.6101 139.94 11.5595 139.712 11.2681L138.914 10.1851C138.825 10.0838 138.781 9.95715 138.781 9.80515C138.781 9.66582 138.825 9.55815 138.914 9.48215C139.015 9.41882 139.091 9.36181 139.142 9.31115L139.37 9.14015C139.762 8.74748 140.054 8.36748 140.244 8.00015C140.434 7.63282 140.529 7.24015 140.529 6.82215C140.529 6.41682 140.503 6.09382 140.453 5.85315C140.402 5.61248 140.32 5.39715 140.206 5.20715C139.952 4.78915 139.553 4.58015 139.009 4.58015C138.553 4.58015 138.198 4.78915 137.945 5.20715C137.666 5.66315 137.425 6.28382 137.223 7.06915C137.033 7.85448 136.83 8.50048 136.615 9.00715C136.412 9.52648 136.152 9.98248 135.836 10.3751C135.126 11.2111 134.17 11.6291 132.967 11.6291C131.586 11.6291 130.554 11.1478 129.87 10.1851C129.249 9.32382 128.939 8.17748 128.939 6.74615Z" fill="white"/>
<path d="M148.885 19.184V16.16C148.885 15.68 149.029 15.296 149.317 15.008C149.605 14.72 149.989 14.576 150.469 14.576H162.901C163.381 14.576 163.765 14.72 164.053 15.008C164.341 15.296 164.485 15.68 164.485 16.16V19.184C164.485 19.664 164.341 20.048 164.053 20.336C163.765 20.624 163.381 20.768 162.901 20.768H150.469C149.989 20.768 149.605 20.624 149.317 20.336C149.029 20.048 148.885 19.664 148.885 19.184Z" fill="white"/>
<path d="M260.787 34.952C255.667 34.952 252.403 32.312 250.995 27.032C250.195 24.216 250.003 20.136 250.419 14.792C250.675 11.784 251.315 9.07999 252.339 6.67999C253.427 4.08799 255.139 2.24799 257.475 1.16C258.691 0.615994 260.067 0.343994 261.603 0.343994C263.171 0.343994 264.659 0.695994 266.067 1.39999C267.475 2.10399 268.643 3.01599 269.571 4.13599C269.859 4.48799 269.971 4.85599 269.907 5.23999C269.843 5.59199 269.635 5.89599 269.283 6.15199L267.315 7.68799C267.027 7.87999 266.707 7.97599 266.355 7.97599C266.035 7.97599 265.683 7.75199 265.299 7.30399C264.371 6.21599 263.235 5.67199 261.891 5.67199C260.579 5.67199 259.539 5.976 258.771 6.58399C258.035 7.19199 257.459 7.95999 257.043 8.88799C256.403 10.264 255.987 12.28 255.795 14.936C255.763 15.416 255.875 15.656 256.131 15.656C256.291 15.656 256.499 15.576 256.755 15.416C257.203 15.032 257.827 14.728 258.627 14.504C259.427 14.28 260.339 14.168 261.363 14.168C262.419 14.168 263.523 14.424 264.675 14.936C265.859 15.448 266.867 16.152 267.699 17.048C269.363 18.904 270.195 21.288 270.195 24.2C270.195 27.24 269.395 29.768 267.795 31.784C266.067 33.896 263.731 34.952 260.787 34.952ZM260.403 29.48C261.779 29.48 262.819 28.936 263.523 27.848C264.099 26.952 264.387 25.736 264.387 24.2C264.387 22.056 263.699 20.568 262.323 19.736C261.843 19.448 261.251 19.304 260.547 19.304C259.235 19.304 258.211 19.752 257.475 20.648C256.739 21.512 256.387 22.664 256.419 24.104C256.419 26.504 257.107 28.136 258.483 29C258.995 29.32 259.635 29.48 260.403 29.48Z" fill="white"/>
<path d="M227.802 33.608V32.744C227.802 28.904 229.418 25.192 232.65 21.608C233.61 20.584 234.554 19.624 235.482 18.728C236.41 17.832 237.306 16.936 238.17 16.04C239.066 15.112 239.802 14.152 240.378 13.16C240.954 12.168 241.258 11.288 241.29 10.52C241.354 9.01599 241.034 7.89599 240.33 7.15999C239.594 6.42399 238.602 6.05599 237.354 6.05599C236.106 6.05599 235.226 6.42399 234.714 7.15999C234.234 7.89599 233.93 8.64799 233.802 9.41599C233.61 10.728 233.034 11.384 232.074 11.384H229.53C229.05 11.384 228.666 11.24 228.378 10.952C228.09 10.664 227.962 10.296 227.994 9.84799C228.25 7.09598 229.162 4.88798 230.73 3.22398C232.394 1.46398 234.586 0.583984 237.306 0.583984C241.242 0.583984 244.09 2.10399 245.85 5.14399C246.682 6.64799 247.066 8.35998 247.002 10.28C246.938 12.168 246.586 13.72 245.946 14.936C245.306 16.152 244.586 17.192 243.786 18.056C242.506 19.432 241.29 20.68 240.138 21.8C237.258 24.616 235.45 26.584 234.714 27.704C234.426 28.152 234.378 28.52 234.57 28.808C234.794 29.096 235.178 29.24 235.722 29.24H244.746C245.226 29.24 245.61 29.384 245.898 29.672C246.186 29.96 246.33 30.344 246.33 30.824V32.888C246.33 33.368 246.186 33.752 245.898 34.04C245.61 34.328 245.226 34.472 244.746 34.472H228.666C228.09 34.472 227.802 34.184 227.802 33.608Z" fill="white"/>
<path d="M224.215 31.16C224.215 32.216 223.831 33.128 223.063 33.896C222.295 34.632 221.367 35 220.279 35C219.223 35 218.311 34.632 217.543 33.896C216.807 33.128 216.439 32.2 216.439 31.112C216.439 30.024 216.807 29.112 217.543 28.376C218.279 27.64 219.191 27.272 220.279 27.272C221.399 27.272 222.327 27.656 223.063 28.424C223.831 29.16 224.215 30.072 224.215 31.16Z" fill="white"/>
<path d="M210.298 29.864C208.89 33.256 206.106 34.952 201.946 34.952C199.322 34.952 197.29 34.296 195.85 32.984C194.41 31.64 193.402 29.704 192.826 27.176C192.25 24.616 191.962 21.448 191.962 17.672C191.962 14.408 192.122 11.864 192.442 10.04C193.114 6.29599 194.234 3.75199 195.802 2.40799C197.37 1.03199 199.466 0.343994 202.09 0.343994C204.746 0.343994 206.778 1.01599 208.186 2.35999C209.594 3.67199 210.586 5.59199 211.162 8.11999C211.77 10.648 212.074 13.832 212.074 17.672C212.074 20.968 211.914 23.512 211.594 25.304C211.274 27.064 210.842 28.584 210.298 29.864ZM202.042 29.48C203.866 29.48 205.05 28.52 205.594 26.6C206.106 24.776 206.362 21.8 206.362 17.672C206.362 12.104 205.898 8.61599 204.97 7.208C204.33 6.28 203.354 5.816 202.042 5.816C200.154 5.816 198.97 6.792 198.49 8.74399C198.33 9.28799 198.154 10.152 197.962 11.336C197.77 12.488 197.674 14.6 197.674 17.672C197.674 23.112 198.17 26.568 199.162 28.04C199.802 29 200.762 29.48 202.042 29.48Z" fill="white"/>
<path d="M178.617 32.888V11.096C178.617 9.87997 178.233 9.27198 177.465 9.27198C177.145 9.27198 176.713 9.44797 176.169 9.79998L174.345 11C174.025 11.224 173.657 11.336 173.241 11.336C172.857 11.336 172.489 11.064 172.137 10.52L170.793 8.35997C170.249 7.46397 170.425 6.74397 171.321 6.19997L179.577 1.06397C179.833 0.903975 180.105 0.823975 180.393 0.823975H182.745C183.225 0.823975 183.609 0.967975 183.897 1.25597C184.185 1.54397 184.329 1.92797 184.329 2.40797V32.888C184.329 33.368 184.185 33.752 183.897 34.04C183.609 34.328 183.225 34.472 182.745 34.472H180.201C179.721 34.472 179.337 34.328 179.049 34.04C178.761 33.752 178.617 33.368 178.617 32.888Z" fill="white"/>
<path d="M277.107 24.0511H289.153C289.343 24.0511 289.495 24.1081 289.609 24.2221C289.723 24.3361 289.78 24.4881 289.78 24.6781V26.1981C289.78 26.4135 289.685 26.5845 289.495 26.7111L282.503 31.3281C282.047 31.6321 281.819 31.8855 281.819 32.0881C281.819 32.3415 282.161 32.4681 282.845 32.4681H289.153C289.343 32.4681 289.495 32.5251 289.609 32.6391C289.723 32.7531 289.78 32.9051 289.78 33.0951V34.3301C289.78 34.5201 289.723 34.6721 289.609 34.7861C289.495 34.9001 289.343 34.9571 289.153 34.9571H277.107C276.917 34.9571 276.765 34.9001 276.651 34.7861C276.537 34.6721 276.48 34.5201 276.48 34.3301V32.9431C276.48 32.7151 276.575 32.5378 276.765 32.4111L284.042 27.6611C284.498 27.3571 284.726 27.1038 284.726 26.9011C284.726 26.6478 284.384 26.5211 283.7 26.5211H277.107C276.917 26.5211 276.765 26.4641 276.651 26.3501C276.537 26.2361 276.48 26.0841 276.48 25.8941V24.6781C276.48 24.4881 276.537 24.3361 276.651 24.2221C276.765 24.1081 276.917 24.0511 277.107 24.0511Z" fill="white"/>
<path d="M281.477 22.2251C277.981 22.2251 276.233 20.5024 276.233 17.0571C276.233 13.5991 277.981 11.8701 281.477 11.8701H289.153C289.343 11.8701 289.495 11.9271 289.609 12.0411C289.723 12.1551 289.78 12.3071 289.78 12.4971V13.7321C289.78 13.9221 289.723 14.0741 289.609 14.1881C289.495 14.3021 289.343 14.3591 289.153 14.3591H281.61C279.622 14.3591 278.627 15.2584 278.627 17.0571C278.627 18.0324 278.893 18.7227 279.425 19.1281C279.97 19.5334 280.698 19.7361 281.61 19.7361H289.153C289.343 19.7361 289.495 19.7931 289.609 19.9071C289.723 20.0211 289.78 20.1731 289.78 20.3631V21.5981C289.78 21.7881 289.723 21.9401 289.609 22.0541C289.495 22.1681 289.343 22.2251 289.153 22.2251H281.477Z" fill="white"/>
<path d="M276.195 5.62042C276.195 4.54375 276.417 3.54942 276.86 2.63742C277.316 1.72542 278.026 1.00342 278.988 0.471416C279.14 0.382749 279.286 0.363749 279.425 0.414416C279.577 0.465083 279.698 0.566416 279.786 0.718416L280.337 1.74442C280.401 1.87108 280.432 2.01042 280.432 2.16242C280.432 2.31442 280.331 2.46008 280.128 2.59942C279.558 3.01742 279.153 3.46075 278.912 3.92942C278.672 4.39808 278.551 4.99342 278.551 5.71542C278.551 6.38675 278.627 6.86175 278.779 7.14042C278.944 7.41908 279.134 7.61542 279.349 7.72942C279.565 7.84342 279.831 7.90042 280.147 7.90042C280.477 7.90042 280.762 7.83075 281.002 7.69142C281.357 7.45075 281.686 6.81742 281.99 5.79142C282.092 5.42408 282.199 4.98708 282.313 4.48042C282.44 3.97375 282.605 3.49875 282.807 3.05542C283.01 2.62475 283.27 2.24475 283.586 1.91542C284.245 1.23142 285.1 0.889416 286.151 0.889416C287.431 0.889416 288.431 1.35808 289.153 2.29542C289.812 3.13142 290.141 4.20175 290.141 5.50642C290.141 7.57108 289.343 9.16708 287.747 10.2944C287.456 10.4844 287.196 10.4337 286.968 10.1424L286.17 9.05942C286.082 8.95808 286.037 8.83142 286.037 8.67942C286.037 8.54008 286.082 8.43242 286.17 8.35642C286.272 8.29308 286.348 8.23608 286.398 8.18542L286.626 8.01442C287.019 7.62175 287.31 7.24175 287.5 6.87442C287.69 6.50708 287.785 6.11442 287.785 5.69642C287.785 5.29108 287.76 4.96808 287.709 4.72742C287.659 4.48675 287.576 4.27142 287.462 4.08142C287.209 3.66342 286.81 3.45442 286.265 3.45442C285.809 3.45442 285.455 3.66342 285.201 4.08142C284.923 4.53742 284.682 5.15808 284.479 5.94342C284.289 6.72875 284.087 7.37475 283.871 7.88142C283.669 8.40075 283.409 8.85675 283.092 9.24942C282.383 10.0854 281.427 10.5034 280.223 10.5034C278.843 10.5034 277.81 10.0221 277.126 9.05942C276.506 8.19808 276.195 7.05175 276.195 5.62042Z" fill="white"/>
<path d="M328.141 33.376C325.617 33.376 323.558 32.9712 321.963 32.1616C320.367 31.352 319.57 30.3068 319.57 29.026C319.57 28.446 319.742 27.9083 320.088 27.4129C320.433 26.9174 320.915 26.4885 321.534 26.126L323.784 28.2647C323.57 28.3614 323.338 28.4701 323.088 28.591C322.838 28.7118 322.641 28.8568 322.498 29.026C322.808 29.4126 323.522 29.751 324.641 30.041C325.76 30.331 326.927 30.476 328.141 30.476C329.356 30.476 330.528 30.331 331.659 30.041C332.79 29.751 333.51 29.4126 333.82 29.026C333.653 28.8326 333.439 28.6756 333.177 28.5547C332.915 28.4339 332.665 28.3251 332.427 28.2285L334.641 26.0535C335.308 26.4401 335.82 26.8812 336.177 27.3766C336.534 27.872 336.713 28.4218 336.713 29.026C336.713 30.3068 335.915 31.352 334.32 32.1616C332.725 32.9712 330.665 33.376 328.141 33.376ZM328.177 25.401C330.534 23.6368 332.308 21.8666 333.498 20.0904C334.689 18.3141 335.284 16.5318 335.284 14.7435C335.284 12.2785 334.51 10.4176 332.963 9.16098C331.415 7.90431 329.808 7.27598 328.141 7.27598C326.475 7.27598 324.867 7.90431 323.32 9.16098C321.772 10.4176 320.998 12.2785 320.998 14.7435C320.998 16.3626 321.582 18.0483 322.748 19.8004C323.915 21.5524 325.725 23.4193 328.177 25.401ZM328.141 29.026C324.784 26.5126 322.278 24.0718 320.623 21.7035C318.969 19.3351 318.141 17.0151 318.141 14.7435C318.141 13.0276 318.445 11.5233 319.052 10.2304C319.659 8.93743 320.439 7.85598 321.391 6.98598C322.344 6.11598 323.415 5.46348 324.606 5.02848C325.796 4.59348 326.975 4.37598 328.141 4.37598C329.308 4.37598 330.487 4.59348 331.677 5.02848C332.867 5.46348 333.939 6.11598 334.891 6.98598C335.844 7.85598 336.623 8.93743 337.231 10.2304C337.838 11.5233 338.141 13.0276 338.141 14.7435C338.141 17.0151 337.314 19.3351 335.659 21.7035C334.004 24.0718 331.498 26.5126 328.141 29.026ZM328.141 17.426C328.927 17.426 329.6 17.142 330.159 16.5741C330.719 16.0062 330.998 15.3235 330.998 14.526C330.998 13.7285 330.719 13.0458 330.159 12.4779C329.6 11.9099 328.927 11.626 328.141 11.626C327.356 11.626 326.683 11.9099 326.123 12.4779C325.564 13.0458 325.284 13.7285 325.284 14.526C325.284 15.3235 325.564 16.0062 326.123 16.5741C326.683 17.142 327.356 17.426 328.141 17.426Z" fill="white"/>
<path d="M587.036 33.548C587.012 33.404 586.988 33.2599 586.964 33.1159C586.964 32.9959 586.928 32.792 586.856 32.504C586.736 31.808 586.544 30.992 586.28 30.056C586.112 29.576 586.281 29.336 586.785 29.336H589.089C589.593 29.336 589.94 29.264 590.132 29.12C590.348 28.952 590.456 28.64 590.456 28.184V27.4279C590.456 26.948 590.216 26.708 589.736 26.708H583.184C582.776 26.708 582.536 26.78 582.464 26.924C582.416 27.068 582.524 27.248 582.788 27.464C583.58 28.064 584.097 28.484 584.337 28.724L584.912 29.2999C585.176 29.5639 585.296 29.8519 585.272 30.1639C585.272 30.4519 585.152 30.704 584.912 30.92C584.696 31.136 584.505 31.328 584.337 31.496L583.76 32.072C583.376 32.456 583.04 32.8039 582.752 33.1159C582.488 33.4519 582.213 33.62 581.924 33.62C581.661 33.62 581.42 33.488 581.204 33.224C579.788 31.808 578.552 30.704 577.496 29.912C576.896 29.456 576.836 28.964 577.316 28.436L577.748 27.968C578.108 27.584 578.228 27.284 578.108 27.068C578.012 26.828 577.701 26.708 577.173 26.708H570.836C570.476 26.708 570.188 26.6 569.972 26.384C569.756 26.168 569.648 25.88 569.648 25.52V23.648C569.648 23.288 569.756 23 569.972 22.784C570.188 22.568 570.476 22.4599 570.836 22.4599H589.88C590.264 22.4599 590.456 22.2679 590.456 21.8839C590.456 21.4999 590.264 21.3079 589.88 21.3079H574.832C574.472 21.3079 574.184 21.1999 573.968 20.9839C573.752 20.7679 573.645 20.4799 573.645 20.1199V9.57195C573.645 9.21195 573.752 8.92395 573.968 8.70795C574.184 8.49195 574.472 8.38395 574.832 8.38395H583.184C583.616 8.38395 583.832 8.16795 583.832 7.73595C583.832 7.30395 583.616 7.08795 583.184 7.08795H571.34C570.98 7.08795 570.692 6.97995 570.476 6.76395C570.26 6.54795 570.152 6.25995 570.152 5.89995V4.38795C570.152 4.02795 570.26 3.73995 570.476 3.52395C570.692 3.30795 570.98 3.19995 571.34 3.19995H582.824C583.496 3.19995 583.832 2.86395 583.832 2.19195C583.832 1.49595 584.18 1.14795 584.876 1.14795H587.972C588.644 1.14795 588.98 1.49595 588.98 2.19195C588.98 2.86395 589.328 3.19995 590.024 3.19995H601.365C601.725 3.19995 602.013 3.30795 602.229 3.52395C602.445 3.73995 602.552 4.02795 602.552 4.38795V5.89995C602.552 6.25995 602.445 6.54795 602.229 6.76395C602.013 6.97995 601.725 7.08795 601.365 7.08795H589.628C589.196 7.08795 588.98 7.30395 588.98 7.73595C588.98 8.16795 589.196 8.38395 589.628 8.38395H597.944C598.304 8.38395 598.592 8.49195 598.808 8.70795C599.024 8.92395 599.132 9.21195 599.132 9.57195V20.1199C599.132 20.4799 599.024 20.7679 598.808 20.9839C598.592 21.1999 598.304 21.3079 597.944 21.3079H596.36C595.976 21.3079 595.785 21.4999 595.785 21.8839C595.785 22.2679 595.976 22.4599 596.36 22.4599H601.58C601.94 22.4599 602.228 22.568 602.444 22.784C602.66 23 602.768 23.288 602.768 23.648V25.52C602.768 25.88 602.66 26.168 602.444 26.384C602.228 26.6 601.94 26.708 601.58 26.708H596.972C596.612 26.708 596.324 26.816 596.108 27.0319C595.892 27.248 595.785 27.536 595.785 27.896V30.2C595.785 31.736 595.28 32.84 594.272 33.512C593.48 34.088 592.256 34.376 590.6 34.376H587.936C587.408 34.376 587.108 34.1 587.036 33.548ZM579.512 13.316H583.257C583.64 13.316 583.832 13.124 583.832 12.74C583.832 12.356 583.64 12.164 583.257 12.164H579.512C579.128 12.164 578.936 12.356 578.936 12.74C578.936 13.124 579.128 13.316 579.512 13.316ZM589.556 13.316H593.264C593.648 13.316 593.84 13.124 593.84 12.74C593.84 12.356 593.648 12.164 593.264 12.164H589.556C589.172 12.164 588.98 12.356 588.98 12.74C588.98 13.124 589.172 13.316 589.556 13.316ZM579.548 17.528H583.257C583.64 17.528 583.832 17.336 583.832 16.952C583.832 16.5439 583.64 16.3399 583.257 16.3399H579.548C579.14 16.3399 578.936 16.5439 578.936 16.952C578.936 17.336 579.14 17.528 579.548 17.528ZM589.592 17.528H593.264C593.648 17.528 593.84 17.336 593.84 16.952C593.84 16.5439 593.648 16.3399 593.264 16.3399H589.592C589.184 16.3399 588.98 16.5439 588.98 16.952C588.98 17.336 589.184 17.528 589.592 17.528Z" fill="white"/>
<path d="M532.28 6.22396V4.49596C532.28 4.13596 532.388 3.84796 532.604 3.63196C532.82 3.41596 533.108 3.30796 533.468 3.30796H544.592C544.928 3.30796 545.204 3.19996 545.42 2.98396C545.636 2.76796 545.744 2.49196 545.744 2.15596C545.744 1.79596 545.852 1.50796 546.068 1.29196C546.284 1.07596 546.572 0.967957 546.932 0.967957H550.172C550.508 0.967957 550.784 1.07596 551 1.29196C551.216 1.50796 551.324 1.79596 551.324 2.15596C551.324 2.49196 551.432 2.76796 551.648 2.98396C551.864 3.19996 552.152 3.30796 552.512 3.30796H563.564C563.924 3.30796 564.212 3.41596 564.428 3.63196C564.644 3.84796 564.752 4.13596 564.752 4.49596V6.22396C564.752 6.58396 564.644 6.87196 564.428 7.08796C564.212 7.30396 563.924 7.41196 563.564 7.41196H533.468C533.108 7.41196 532.82 7.30396 532.604 7.08796C532.388 6.87196 532.28 6.58396 532.28 6.22396ZM538.904 15.332V9.71596C538.904 9.35596 539.012 9.06796 539.228 8.85196C539.444 8.63596 539.732 8.52796 540.092 8.52796H557.048C557.408 8.52796 557.696 8.63596 557.912 8.85196C558.128 9.06796 558.236 9.35596 558.236 9.71596V15.332C558.236 15.692 558.128 15.98 557.912 16.196C557.696 16.412 557.408 16.52 557.048 16.52H540.092C539.732 16.52 539.444 16.412 539.228 16.196C539.012 15.98 538.904 15.692 538.904 15.332ZM544.484 13.136H552.656C553.112 13.136 553.34 12.908 553.34 12.452C553.34 11.996 553.112 11.768 552.656 11.768H544.484C544.028 11.768 543.8 11.996 543.8 12.452C543.8 12.908 544.028 13.136 544.484 13.136ZM555.896 32.792L555.788 32.18L555.68 31.712C555.56 30.992 555.176 30.632 554.528 30.632H541.712C541.352 30.632 541.064 30.524 540.848 30.308C540.632 30.092 540.524 29.804 540.524 29.444V23.828C540.524 23.468 540.632 23.18 540.848 22.964C541.064 22.748 541.352 22.64 541.712 22.64H555.392C555.752 22.64 556.04 22.748 556.256 22.964C556.472 23.18 556.58 23.468 556.58 23.828V28.76C556.58 29.072 556.736 29.228 557.048 29.228H557.48C557.912 29.228 558.236 29.168 558.452 29.048C558.692 28.928 558.812 28.628 558.812 28.148V22.712C558.812 22.352 558.704 22.064 558.488 21.848C558.272 21.632 557.984 21.524 557.624 21.524H539.588C539.228 21.524 538.94 21.632 538.724 21.848C538.508 22.064 538.4 22.352 538.4 22.712V32.936C538.4 33.296 538.292 33.584 538.076 33.8C537.86 34.016 537.572 34.124 537.212 34.124H534.476C534.116 34.124 533.828 34.016 533.612 33.8C533.396 33.584 533.288 33.296 533.288 32.936V18.86C533.288 18.5 533.396 18.212 533.612 17.996C533.828 17.78 534.116 17.672 534.476 17.672H562.7C563.06 17.672 563.348 17.78 563.564 17.996C563.78 18.212 563.888 18.5 563.888 18.86V30.056C563.888 32.168 562.892 33.428 560.9 33.836C560.3 33.956 559.652 34.016 558.956 34.016H556.868C556.34 34.016 556.04 33.74 555.968 33.188C555.944 33.068 555.92 32.936 555.896 32.792ZM545.924 27.212H551.108C551.564 27.212 551.792 26.984 551.792 26.528C551.792 26.072 551.564 25.844 551.108 25.844H545.924C545.468 25.844 545.24 26.072 545.24 26.528C545.24 26.984 545.468 27.212 545.924 27.212Z" fill="white"/>
<path d="M519.068 31.8919C516.5 31.8919 514.208 31.6159 512.192 31.0639C509.888 30.4159 508.232 29.2399 507.224 27.5359C506.696 26.6239 506.432 25.5799 506.432 24.4039C506.432 23.2039 506.6 22.1839 506.936 21.3439C507.296 20.5039 507.776 19.7359 508.376 19.0399C509.408 17.8639 510.908 16.8079 512.876 15.8719C513.188 15.7279 513.344 15.5239 513.344 15.2599C513.344 15.1639 513.332 15.0559 513.308 14.9359C512.588 12.1759 512.192 9.21195 512.12 6.04395C512.12 5.44395 512.132 4.92795 512.156 4.49595C512.18 4.06395 512.276 3.72795 512.444 3.48795C512.684 3.15195 513.044 2.98395 513.524 2.98395H516.476C516.956 2.98395 517.316 3.11595 517.556 3.37995C517.796 3.61995 517.916 3.93195 517.916 4.31595C517.916 4.38795 517.904 4.54395 517.88 4.78395C517.856 4.99995 517.844 5.29995 517.844 5.68395C517.844 7.98795 518.036 10.3999 518.42 12.9199C518.492 13.3039 518.696 13.4959 519.032 13.4959C519.152 13.4959 519.26 13.4839 519.356 13.4599C520.484 13.0999 522.14 12.6679 524.324 12.1639C524.732 12.0199 525.092 12.0559 525.404 12.2719C525.716 12.4879 525.92 12.8119 526.016 13.2439L526.448 15.9799C526.472 16.0759 526.484 16.1839 526.484 16.3039C526.484 16.5919 526.4 16.8559 526.232 17.096C526.016 17.3839 525.668 17.5639 525.188 17.6359C524.732 17.6839 524.072 17.7799 523.208 17.9239C521.144 18.2839 519.212 18.788 517.412 19.436C516.404 19.796 515.504 20.204 514.712 20.66C512.936 21.668 512.048 22.7479 512.048 23.8999C512.048 24.9319 512.888 25.6879 514.568 26.1679C515.744 26.5039 517.1 26.672 518.636 26.672C521.3 26.672 524.108 26.288 527.06 25.52C527.18 25.496 527.3 25.4839 527.42 25.4839C527.564 25.4839 527.708 25.5439 527.852 25.6639C527.996 25.7599 528.068 25.9279 528.068 26.1679C528.068 26.2879 528.044 26.408 527.996 26.528C527.972 26.624 527.948 26.744 527.924 26.888C527.924 27.008 527.9 27.1879 527.852 27.4279C527.684 28.3159 527.6 28.928 527.6 29.264V29.9479C527.6 30.2599 527.504 30.548 527.312 30.812C527.144 31.052 526.868 31.1959 526.484 31.2439C523.796 31.6759 521.324 31.8919 519.068 31.8919Z" fill="white"/>
<path d="M504.02 8.05999C503.756 8.27599 503.42 8.38399 503.012 8.38399C502.628 8.38399 502.316 8.20399 502.076 7.84399C501.764 7.45999 501.44 7.07599 501.104 6.69199C500.84 6.35599 500.564 6.04399 500.276 5.75599V5.71999C499.988 5.38399 499.844 5.03599 499.844 4.67599C499.844 4.31599 500.024 3.97999 500.384 3.66799L500.996 3.19999C501.284 3.00799 501.56 2.91199 501.824 2.91199C502.112 2.91199 502.34 3.00799 502.508 3.19999C502.652 3.39199 502.844 3.60799 503.084 3.84799L504.344 5.32399C504.536 5.51599 504.704 5.74399 504.848 6.00799C505.016 6.22399 505.112 6.45199 505.136 6.69199C505.136 7.02799 504.968 7.31599 504.632 7.55599L504.02 8.05999ZM500.924 10.544C500.66 10.76 500.324 10.868 499.916 10.868C499.532 10.868 499.208 10.7 498.944 10.364C498.32 9.49999 497.864 8.92399 497.576 8.63599C497.024 8.08399 496.748 7.61599 496.748 7.23199C496.748 6.82399 496.928 6.46399 497.288 6.15199L497.864 5.68399C498.152 5.49199 498.428 5.39599 498.692 5.39599C498.98 5.39599 499.22 5.51599 499.412 5.75599C499.652 5.99599 499.844 6.19999 499.988 6.36799L501.248 7.80799C501.416 8.02399 501.584 8.25199 501.752 8.49199C501.92 8.70799 502.004 8.94799 502.004 9.21199C502.004 9.52399 501.836 9.81199 501.5 10.076L500.924 10.544ZM480.908 9.89599V7.08799C480.908 6.60799 481.052 6.24799 481.34 6.00799C481.58 5.83999 481.832 5.75599 482.096 5.75599C482.192 5.75599 482.324 5.77999 482.492 5.82799C482.684 5.85199 482.876 5.87599 483.068 5.89999C483.26 5.92399 483.668 5.97199 484.292 6.04399C485.228 6.13999 486.476 6.18799 488.036 6.18799C490.412 6.18799 492.644 6.00799 494.732 5.64799C494.852 5.64799 494.972 5.64799 495.092 5.64799C495.524 5.64799 495.848 5.79199 496.064 6.07999C496.208 6.29599 496.28 6.57199 496.28 6.90799V9.78799C496.28 10.1 496.184 10.376 495.992 10.616C495.824 10.856 495.452 11.036 494.876 11.156C493.892 11.372 492.464 11.504 490.592 11.552C489.488 11.552 488.636 11.552 488.036 11.552C485.78 11.552 483.752 11.432 481.952 11.192C481.64 11.144 481.388 11 481.196 10.76C481.004 10.496 480.908 10.208 480.908 9.89599ZM481.16 21.524C481.712 21.524 482.156 21.836 482.492 22.46C482.972 23.228 483.584 23.732 484.328 23.972C485.072 24.212 486.104 24.332 487.424 24.332C488.744 24.332 490.352 24.224 492.248 24.008C494.072 23.816 495.884 23.48 497.684 23C497.804 22.976 497.924 22.964 498.044 22.964C498.332 22.964 498.548 23.072 498.692 23.288C498.812 23.432 498.872 23.636 498.872 23.9C498.872 24.788 498.932 25.52 499.052 26.096C499.196 26.648 499.28 26.996 499.304 27.14C499.328 27.26 499.352 27.38 499.376 27.5C499.4 27.596 499.412 27.68 499.412 27.752C499.412 27.824 499.412 27.872 499.412 27.896C499.412 28.4 499.136 28.724 498.584 28.868C496.808 29.324 495.128 29.612 493.544 29.732C491.984 29.828 490.688 29.9 489.656 29.948C488.648 29.972 487.64 29.984 486.632 29.984C485.648 29.984 484.688 29.912 483.752 29.768C482.816 29.6 481.964 29.312 481.196 28.904C479.564 28.088 478.34 26.684 477.524 24.692C477.38 24.38 477.368 24.08 477.488 23.792C477.608 23.48 477.824 23.24 478.136 23.072L480.368 21.776C480.656 21.608 480.92 21.524 481.16 21.524Z" fill="white"/>
<path d="M465.608 31.316C464.336 31.724 463.112 31.928 461.936 31.928C460.784 31.928 459.716 31.832 458.732 31.64C457.748 31.472 456.836 31.172 455.996 30.74C454.076 29.708 453.116 28.136 453.116 26.024C453.116 24.464 453.68 23.192 454.808 22.208C455.864 21.296 457.148 20.84 458.66 20.84C461.636 20.84 463.724 22.172 464.924 24.836C465.068 25.196 465.248 25.376 465.464 25.376C465.752 25.376 466.016 25.004 466.256 24.26C466.472 23.612 466.58 22.988 466.58 22.388C466.58 21.788 466.448 21.236 466.184 20.732C465.92 20.204 465.584 19.76 465.176 19.4C464.264 18.656 463.196 18.284 461.972 18.284C460.772 18.284 459.668 18.404 458.66 18.644C457.652 18.884 456.728 19.388 455.888 20.156L453.26 22.316C452.996 22.556 452.696 22.676 452.36 22.676C452.024 22.676 451.712 22.52 451.424 22.208L449.696 20.372C449.384 20.036 449.228 19.7 449.228 19.364C449.228 18.932 449.48 18.548 449.984 18.212C453.128 16.292 456.392 13.352 459.776 9.39197C459.896 9.24797 459.98 9.11597 460.028 8.99597C460.004 8.99597 459.956 8.99597 459.884 8.99597C459.86 8.99597 459.26 9.10397 458.084 9.31996C456.716 9.58397 455.324 9.77597 453.908 9.89597C453.812 9.89597 453.74 9.89597 453.692 9.89597C453.428 9.89597 453.188 9.82397 452.972 9.67997C452.684 9.46397 452.516 9.17597 452.468 8.81596L451.928 6.25997C451.928 6.13997 451.928 6.03197 451.928 5.93597C451.928 5.55197 452.06 5.25197 452.324 5.03597C452.54 4.91597 452.816 4.85597 453.152 4.85597H453.656C456.128 4.85597 458.792 4.56797 461.648 3.99196C462.56 3.82397 463.196 3.69197 463.556 3.59597C463.916 3.49997 464.216 3.45197 464.456 3.45197C464.72 3.45197 464.972 3.52397 465.212 3.66796L467.552 5.21597C467.864 5.40797 468.068 5.67197 468.164 6.00797C468.212 6.12797 468.236 6.23597 468.236 6.33196C468.236 6.57197 468.152 6.79997 467.984 7.01597C466.76 9.17597 464.876 11.552 462.332 14.144L463.052 14.108C465.788 14.108 467.972 14.828 469.604 16.268C471.38 17.78 472.268 19.844 472.268 22.46C472.268 25.412 471.188 27.764 469.028 29.516C468.044 30.284 466.904 30.884 465.608 31.316ZM458.768 25.34C458.552 25.34 458.396 25.376 458.3 25.448C458.204 25.52 458.156 25.64 458.156 25.808C458.156 25.976 458.216 26.12 458.336 26.24C458.672 26.552 459.392 26.768 460.496 26.888C460.328 26.48 460.124 26.12 459.884 25.808C459.644 25.496 459.272 25.34 458.768 25.34Z" fill="white"/>
<path d="M424.28 7.052L425.36 7.088H426.512C427.592 7.088 428.744 7.064 429.968 7.016C430.184 7.016 430.352 6.944 430.472 6.8C430.616 6.656 430.688 6.5 430.688 6.332C430.688 6.308 430.688 6.284 430.688 6.26V5.036L430.652 4.172C430.652 3.74 430.784 3.416 431.048 3.2C431.264 3.032 431.54 2.948 431.876 2.948H434.54C434.948 2.948 435.284 3.08 435.548 3.344C435.812 3.608 435.944 3.944 435.944 4.352V5.936C435.944 6.176 436.004 6.356 436.124 6.476C436.268 6.596 436.412 6.656 436.556 6.656C436.58 6.656 436.88 6.644 437.456 6.62C438.032 6.572 438.62 6.512 439.22 6.44C439.82 6.344 440.228 6.296 440.444 6.296C440.66 6.272 440.864 6.248 441.056 6.224C441.248 6.176 441.392 6.152 441.488 6.152C441.776 6.152 442.04 6.248 442.28 6.44C442.616 6.704 442.784 7.088 442.784 7.592V9.716C442.784 10.052 442.676 10.34 442.46 10.58C442.244 10.82 441.968 10.976 441.632 11.048C439.904 11.264 438.176 11.42 436.448 11.516C436.28 11.54 436.16 11.588 436.088 11.66C436.04 11.732 436.016 11.84 436.016 11.984L436.052 12.668V13.352C436.076 13.472 436.1 13.556 436.124 13.604C436.172 13.652 436.232 13.676 436.304 13.676C436.376 13.676 436.436 13.676 436.484 13.676C438.212 13.508 439.46 13.328 440.228 13.136C440.636 13.04 440.996 12.992 441.308 12.992C441.62 12.992 441.86 13.064 442.028 13.208C442.34 13.448 442.496 13.832 442.496 14.36V16.772C442.496 17.084 442.424 17.348 442.28 17.564C442.112 17.852 441.836 18.032 441.452 18.104C440.132 18.392 438.608 18.596 436.88 18.716C436.664 18.74 436.496 18.824 436.376 18.968C436.28 19.088 436.232 19.232 436.232 19.4L436.268 21.668C436.292 22.052 436.472 22.292 436.808 22.388C439.136 23.132 441.584 24.272 444.152 25.808C444.488 26 444.656 26.252 444.656 26.564C444.656 26.852 444.536 27.104 444.296 27.32C443.888 27.656 443.348 28.352 442.676 29.408C442.604 29.504 442.532 29.612 442.46 29.732C442.412 29.828 442.328 29.972 442.208 30.164C442.064 30.428 441.836 30.56 441.524 30.56C441.236 30.56 441.008 30.5 440.84 30.38C439.976 29.708 439.292 29.204 438.788 28.868C438.164 28.484 437.696 28.22 437.384 28.076C437.072 27.932 436.868 27.86 436.772 27.86C436.46 27.86 436.232 28.112 436.088 28.616C435.272 31.256 433.1 32.588 429.572 32.612C426.884 32.612 424.892 32.024 423.596 30.848C422.396 29.744 421.796 28.364 421.796 26.708C421.796 26.684 421.796 26.66 421.796 26.636V26.6C421.844 25.352 422.252 24.32 423.02 23.504C423.788 22.688 424.592 22.112 425.432 21.776C426.608 21.32 427.832 21.092 429.104 21.092C429.224 21.092 429.716 21.116 430.58 21.164L430.976 21.2C430.976 21.2 430.988 21.2 431.012 21.2L430.94 19.22C430.94 19.148 430.928 19.112 430.904 19.112C430.904 19.088 430.88 19.076 430.832 19.076L430.4 19.112H429.5C428.204 19.112 427.256 19.04 426.656 18.896C425.408 18.632 424.472 18.164 423.848 17.492C423.032 16.628 422.624 15.908 422.624 15.332C422.624 14.852 422.888 14.492 423.416 14.252L425.72 13.064C425.864 13.016 425.996 12.992 426.116 12.992C426.428 12.992 426.68 13.124 426.872 13.388C427.016 13.58 427.172 13.736 427.34 13.856C427.412 13.928 427.616 13.988 427.952 14.036C428.288 14.084 428.828 14.108 429.572 14.108H430.364L430.76 14.072C430.808 14.072 430.832 14.072 430.832 14.072C430.832 14.048 430.832 14.024 430.832 14L430.796 12.668C430.796 12.428 430.748 12.248 430.652 12.128C430.556 12.008 430.376 11.948 430.112 11.948C430.112 11.948 429.668 11.96 428.78 11.984C427.316 12.056 426.2 12.092 425.432 12.092H424.388C424.004 12.092 423.68 11.972 423.416 11.732C423.176 11.492 423.056 11.18 423.056 10.796C423.008 9.236 422.984 8.444 422.984 8.42C422.984 8.012 423.104 7.688 423.344 7.448C423.584 7.184 423.896 7.052 424.28 7.052ZM426.908 26.672C426.908 27.368 427.604 27.716 428.996 27.716C429.644 27.716 430.148 27.608 430.508 27.392C430.892 27.176 431.084 26.804 431.084 26.276V25.916C431.084 25.892 431.084 25.88 431.084 25.88H431.048L430.148 25.736C429.788 25.712 429.332 25.7 428.78 25.7C428.252 25.7 427.808 25.796 427.448 25.988C427.088 26.18 426.908 26.408 426.908 26.672Z" fill="white"/>
<path d="M385.94 31.8199V10.0399C385.94 9.67994 386.048 9.39194 386.264 9.17594C386.48 8.95994 386.768 8.85194 387.128 8.85194H390.224C390.584 8.85194 390.872 8.95994 391.088 9.17594C391.304 9.39194 391.412 9.67994 391.412 10.0399V26.6359C391.412 26.9959 391.52 27.2839 391.736 27.4999C391.952 27.7159 392.24 27.8239 392.6 27.8239H396.632C396.992 27.8239 397.28 27.7159 397.496 27.4999C397.712 27.2839 397.82 26.9959 397.82 26.6359V3.73994C397.82 3.37994 397.928 3.09194 398.144 2.87594C398.36 2.65994 398.648 2.55194 399.008 2.55194H402.104C402.464 2.55194 402.752 2.65994 402.968 2.87594C403.184 3.09194 403.292 3.37994 403.292 3.73994V26.6359C403.292 26.9959 403.4 27.2839 403.616 27.4999C403.832 27.7159 404.12 27.8239 404.48 27.8239H408.512C408.872 27.8239 409.16 27.7159 409.376 27.4999C409.592 27.2839 409.7 26.9959 409.7 26.6359V10.0399C409.7 9.67994 409.808 9.39194 410.024 9.17594C410.24 8.95994 410.528 8.85194 410.888 8.85194H413.984C414.344 8.85194 414.632 8.95994 414.848 9.17594C415.064 9.39194 415.172 9.67994 415.172 10.0399V31.8199C415.172 32.1799 415.064 32.4679 414.848 32.6839C414.632 32.8999 414.344 33.0079 413.984 33.0079H387.128C386.768 33.0079 386.48 32.8999 386.264 32.6839C386.048 32.4679 385.94 32.1799 385.94 31.8199Z" fill="white"/>
<path d="M369.128 33.008V26.384C369.128 26.024 369.02 25.736 368.804 25.52C368.588 25.304 368.3 25.196 367.94 25.196H363.656C363.296 25.196 363.008 25.088 362.792 24.872C362.576 24.656 362.468 24.368 362.468 24.008V21.344C362.468 20.696 362.264 20.624 361.856 21.128C361.808 21.224 361.76 21.284 361.712 21.308L361.46 21.74C361.388 21.812 361.316 21.896 361.244 21.992C361.196 22.088 361.124 22.196 361.028 22.316C360.956 22.436 360.848 22.592 360.704 22.784C360.584 22.976 360.416 23.072 360.2 23.072C359.984 23.072 359.816 23.024 359.696 22.928L358.184 21.812C357.992 21.692 357.848 21.632 357.752 21.632C357.512 21.632 357.392 21.824 357.392 22.208V32.864C357.392 33.224 357.284 33.512 357.068 33.728C356.852 33.944 356.564 34.052 356.204 34.052H353.54C353.18 34.052 352.892 33.944 352.676 33.728C352.46 33.512 352.352 33.224 352.352 32.864V23.504C352.352 23 352.16 22.904 351.776 23.216L350.624 24.116C350.456 24.236 350.276 24.296 350.084 24.296C349.916 24.296 349.76 24.176 349.616 23.936C349.328 23.528 348.944 23.024 348.464 22.424C348.296 22.256 348.14 22.1 347.996 21.956C347.852 21.788 347.708 21.632 347.564 21.488C346.988 20.912 347 20.408 347.6 19.976C348.224 19.52 348.848 19.04 349.472 18.536C350.12 18.032 350.744 17.504 351.344 16.952C352.64 15.776 353.696 14.612 354.512 13.46C354.872 12.98 354.956 12.584 354.764 12.272C354.596 11.96 354.212 11.804 353.612 11.804H349.472C349.112 11.804 348.824 11.696 348.608 11.48C348.392 11.264 348.284 10.976 348.284 10.616V8.52797C348.284 8.16797 348.392 7.87997 348.608 7.66397C348.824 7.44797 349.112 7.33997 349.472 7.33997H351.164C351.524 7.33997 351.812 7.23197 352.028 7.01597C352.244 6.79997 352.352 6.51197 352.352 6.15197V2.47997C352.352 2.11997 352.46 1.83197 352.676 1.61597C352.892 1.39997 353.18 1.29197 353.54 1.29197H356.204C356.564 1.29197 356.852 1.39997 357.068 1.61597C357.284 1.83197 357.392 2.11997 357.392 2.47997V6.15197C357.392 6.51197 357.5 6.79997 357.716 7.01597C357.932 7.23197 358.22 7.33997 358.58 7.33997H360.38C360.692 7.33997 360.944 7.43597 361.136 7.62797L361.964 8.34797C362.3 8.63597 362.468 8.55197 362.468 8.09597C362.468 7.63997 362.696 7.41197 363.152 7.41197H367.94C368.3 7.41197 368.588 7.30397 368.804 7.08797C369.02 6.87197 369.128 6.58397 369.128 6.22397V2.40797C369.128 2.04797 369.236 1.75997 369.452 1.54397C369.668 1.32797 369.956 1.21997 370.316 1.21997H372.8C373.16 1.21997 373.448 1.32797 373.664 1.54397C373.88 1.75997 373.988 2.04797 373.988 2.40797V6.22397C373.988 6.58397 374.096 6.87197 374.312 7.08797C374.528 7.30397 374.816 7.41197 375.176 7.41197H379.568C379.928 7.41197 380.216 7.51997 380.432 7.73597C380.648 7.95197 380.756 8.23997 380.756 8.59997V24.008C380.756 24.368 380.648 24.656 380.432 24.872C380.216 25.088 379.928 25.196 379.568 25.196H375.176C374.816 25.196 374.528 25.304 374.312 25.52C374.096 25.736 373.988 26.024 373.988 26.384V33.008C373.988 33.368 373.88 33.656 373.664 33.872C373.448 34.088 373.16 34.196 372.8 34.196H370.316C369.956 34.196 369.668 34.088 369.452 33.872C369.236 33.656 369.128 33.368 369.128 33.008ZM362.468 17.564V13.388C362.468 12.14 362.3 11.516 361.964 11.516C361.676 11.516 361.256 11.996 360.704 12.956C360.272 13.676 359.78 14.444 359.228 15.26C359.036 15.548 358.964 15.848 359.012 16.16C359.06 16.472 359.228 16.724 359.516 16.916C359.876 17.108 360.176 17.288 360.416 17.456C361.232 18.032 361.748 18.32 361.964 18.32C362.3 18.32 362.468 18.068 362.468 17.564ZM373.988 13.172C373.988 13.796 374.288 14.108 374.888 14.108C375.512 14.108 375.824 13.796 375.824 13.172V12.884C375.824 12.284 375.512 11.984 374.888 11.984C374.288 11.984 373.988 12.284 373.988 12.884V13.172ZM368.264 14.108C368.528 14.108 368.732 14.036 368.876 13.892C369.044 13.724 369.128 13.508 369.128 13.244V12.848C369.128 12.584 369.044 12.38 368.876 12.236C368.732 12.068 368.528 11.984 368.264 11.984C368 11.984 367.784 12.068 367.616 12.236C367.472 12.38 367.4 12.584 367.4 12.848V13.244C367.4 13.508 367.472 13.724 367.616 13.892C367.784 14.036 368 14.108 368.264 14.108ZM373.988 19.724C373.988 20.348 374.288 20.66 374.888 20.66C375.512 20.66 375.824 20.348 375.824 19.724V19.4C375.824 18.8 375.512 18.5 374.888 18.5C374.288 18.5 373.988 18.8 373.988 19.4V19.724ZM368.264 20.66C368.528 20.66 368.732 20.588 368.876 20.444C369.044 20.276 369.128 20.06 369.128 19.796V19.364C369.128 19.1 369.044 18.896 368.876 18.752C368.732 18.584 368.528 18.5 368.264 18.5C368 18.5 367.784 18.584 367.616 18.752C367.472 18.896 367.4 19.1 367.4 19.364V19.796C367.4 20.06 367.472 20.276 367.616 20.444C367.784 20.588 368 20.66 368.264 20.66Z" fill="white"/>
<path d="M654.405 15.222V3.17595C654.405 2.98595 654.462 2.83395 654.576 2.71995C654.69 2.60595 654.842 2.54895 655.032 2.54895H662.841C663.031 2.54895 663.183 2.60595 663.297 2.71995C663.411 2.83395 663.468 2.98595 663.468 3.17595V4.20195C663.468 4.39195 663.411 4.54395 663.297 4.65795C663.183 4.77195 663.031 4.82895 662.841 4.82895H657.502C657.312 4.82895 657.16 4.88595 657.046 4.99995C656.932 5.11395 656.875 5.26595 656.875 5.45595V7.29895C656.875 7.48895 656.932 7.64095 657.046 7.75495C657.16 7.86895 657.312 7.92595 657.502 7.92595H662.271C662.461 7.92595 662.613 7.98295 662.727 8.09695C662.841 8.21095 662.898 8.36295 662.898 8.55295V9.57895C662.898 9.76895 662.841 9.92095 662.727 10.035C662.613 10.149 662.461 10.206 662.271 10.206H657.502C657.312 10.206 657.16 10.263 657.046 10.377C656.932 10.491 656.875 10.643 656.875 10.833V12.942C656.875 13.132 656.932 13.284 657.046 13.398C657.16 13.512 657.312 13.569 657.502 13.569H663.05C663.24 13.569 663.392 13.626 663.506 13.74C663.62 13.854 663.677 14.006 663.677 14.196V15.222C663.677 15.412 663.62 15.564 663.506 15.678C663.392 15.792 663.24 15.849 663.05 15.849H655.032C654.842 15.849 654.69 15.792 654.576 15.678C654.462 15.564 654.405 15.412 654.405 15.222Z" fill="white"/>
<path d="M639.729 15.222V3.17595C639.729 2.98595 639.786 2.83395 639.9 2.71995C640.014 2.60595 640.166 2.54895 640.356 2.54895H641.838C642.078 2.54895 642.256 2.65028 642.37 2.85295L645.277 7.88795C645.454 8.16662 645.631 8.30595 645.809 8.30595C645.999 8.30595 646.176 8.16662 646.341 7.88795L649.21 2.85295C649.324 2.65028 649.501 2.54895 649.742 2.54895H651.243C651.433 2.54895 651.585 2.60595 651.699 2.71995C651.813 2.83395 651.87 2.98595 651.87 3.17595V15.222C651.87 15.412 651.813 15.564 651.699 15.678C651.585 15.792 651.433 15.849 651.243 15.849H649.989C649.799 15.849 649.647 15.792 649.533 15.678C649.419 15.564 649.362 15.412 649.362 15.222V9.21795C649.362 8.44528 649.241 8.05895 649.001 8.05895C648.785 8.05895 648.519 8.35028 648.203 8.93295L646.683 11.669C646.569 11.8843 646.391 11.992 646.151 11.992H645.429C645.188 11.992 645.011 11.8843 644.897 11.669L643.377 8.93295C643.06 8.35028 642.794 8.05895 642.579 8.05895C642.338 8.05895 642.218 8.44528 642.218 9.21795V15.222C642.218 15.412 642.161 15.564 642.047 15.678C641.933 15.792 641.781 15.849 641.591 15.849H640.356C640.166 15.849 640.014 15.792 639.9 15.678C639.786 15.564 639.729 15.412 639.729 15.222Z" fill="white"/>
<path d="M631.547 16.1719C630.534 16.1719 629.635 15.9883 628.849 15.6209C628.077 15.2409 627.431 14.7343 626.911 14.1009C625.835 12.7963 625.296 11.1623 625.296 9.19893C625.296 7.21026 625.841 5.56359 626.93 4.25893C628.07 2.87826 629.616 2.18793 631.566 2.18793C633.53 2.18793 635.081 2.89093 636.221 4.29693C637.285 5.57626 637.817 7.21026 637.817 9.19893C637.817 11.2003 637.273 12.8469 636.183 14.1389C635.031 15.4943 633.485 16.1719 631.547 16.1719ZM631.585 13.7779C632.231 13.7779 632.782 13.6449 633.238 13.3789C633.707 13.1129 634.093 12.7709 634.397 12.3529C634.967 11.5296 635.252 10.4783 635.252 9.19893C635.252 7.89426 634.967 6.83026 634.397 6.00693C633.726 5.06959 632.782 4.60093 631.566 4.60093C630.35 4.60093 629.407 5.08226 628.735 6.04493C628.165 6.89359 627.88 7.94493 627.88 9.19893C627.88 10.4529 628.178 11.5043 628.773 12.3529C629.445 13.3029 630.382 13.7779 631.585 13.7779Z" fill="white"/>
<path d="M612.769 15.222V3.17595C612.769 2.98595 612.826 2.83395 612.94 2.71995C613.054 2.60595 613.206 2.54895 613.396 2.54895H614.612C614.802 2.54895 614.954 2.60595 615.068 2.71995C615.182 2.83395 615.239 2.98595 615.239 3.17595V7.07095C615.239 7.26095 615.296 7.41295 615.41 7.52695C615.524 7.64095 615.676 7.69795 615.866 7.69795H620.293C620.483 7.69795 620.635 7.64095 620.749 7.52695C620.863 7.41295 620.92 7.26095 620.92 7.07095V3.17595C620.92 2.98595 620.977 2.83395 621.091 2.71995C621.205 2.60595 621.357 2.54895 621.547 2.54895H622.782C622.972 2.54895 623.124 2.60595 623.238 2.71995C623.352 2.83395 623.409 2.98595 623.409 3.17595V15.222C623.409 15.412 623.352 15.564 623.238 15.678C623.124 15.792 622.972 15.849 622.782 15.849H621.547C621.357 15.849 621.205 15.792 621.091 15.678C620.977 15.564 620.92 15.412 620.92 15.222V10.605C620.92 10.415 620.863 10.263 620.749 10.149C620.635 10.035 620.483 9.97795 620.293 9.97795H615.866C615.676 9.97795 615.524 10.035 615.41 10.149C615.296 10.263 615.239 10.415 615.239 10.605V15.222C615.239 15.412 615.182 15.564 615.068 15.678C614.954 15.792 614.802 15.849 614.612 15.849H613.396C613.206 15.849 613.054 15.792 612.94 15.678C612.826 15.564 612.769 15.412 612.769 15.222Z" fill="white"/>
<path d="M666.648 32.206V20.16C666.648 19.97 666.705 19.818 666.819 19.704C666.933 19.59 667.085 19.533 667.275 19.533H675.084C675.274 19.533 675.426 19.59 675.54 19.704C675.654 19.818 675.711 19.97 675.711 20.16V21.186C675.711 21.376 675.654 21.528 675.54 21.642C675.426 21.756 675.274 21.813 675.084 21.813H669.745C669.555 21.813 669.403 21.87 669.289 21.984C669.175 22.098 669.118 22.25 669.118 22.44V24.283C669.118 24.473 669.175 24.625 669.289 24.739C669.403 24.853 669.555 24.91 669.745 24.91H674.514C674.704 24.91 674.856 24.967 674.97 25.081C675.084 25.195 675.141 25.347 675.141 25.537V26.563C675.141 26.753 675.084 26.905 674.97 27.019C674.856 27.133 674.704 27.19 674.514 27.19H669.745C669.555 27.19 669.403 27.247 669.289 27.361C669.175 27.475 669.118 27.627 669.118 27.817V29.926C669.118 30.116 669.175 30.268 669.289 30.382C669.403 30.496 669.555 30.553 669.745 30.553H675.293C675.483 30.553 675.635 30.61 675.749 30.724C675.863 30.838 675.92 30.99 675.92 31.18V32.206C675.92 32.396 675.863 32.548 675.749 32.662C675.635 32.776 675.483 32.833 675.293 32.833H667.275C667.085 32.833 666.933 32.776 666.819 32.662C666.705 32.548 666.648 32.396 666.648 32.206Z" fill="white"/>
<path d="M664.37 30.7999C663.8 31.5979 663.085 32.1933 662.223 32.5859C661.362 32.9659 660.437 33.1559 659.449 33.1559C658.461 33.1559 657.575 32.9723 656.789 32.6049C656.017 32.2249 655.371 31.7183 654.851 31.0849C653.775 29.7803 653.236 28.1463 653.236 26.1829C653.236 24.1943 653.781 22.5476 654.87 21.2429C656.01 19.8623 657.556 19.1719 659.506 19.1719C661.584 19.1719 663.211 19.9636 664.389 21.5469C664.503 21.6863 664.541 21.8383 664.503 22.0029C664.465 22.1549 664.358 22.2816 664.18 22.3829L663.059 23.0289C662.958 23.0796 662.825 23.1049 662.66 23.1049C662.496 23.1049 662.337 23.0099 662.185 22.8199C661.514 21.9966 660.621 21.5849 659.506 21.5849C658.29 21.5849 657.347 22.0663 656.675 23.0289C656.105 23.8776 655.82 24.9289 655.82 26.1829C655.82 27.4369 656.118 28.4883 656.713 29.3369C657.385 30.2869 658.316 30.7619 659.506 30.7619C660.583 30.7619 661.476 30.3439 662.185 29.5079C662.35 29.3179 662.502 29.2229 662.641 29.2229C662.793 29.2229 662.933 29.2546 663.059 29.3179L664.18 29.9639C664.345 30.0653 664.446 30.1983 664.484 30.3629C664.522 30.5149 664.484 30.6606 664.37 30.7999Z" fill="white"/>
<path d="M648.873 32.206V20.16C648.873 19.97 648.93 19.818 649.044 19.704C649.158 19.59 649.31 19.533 649.5 19.533H650.716C650.906 19.533 651.058 19.59 651.172 19.704C651.286 19.818 651.343 19.97 651.343 20.16V32.206C651.343 32.396 651.286 32.548 651.172 32.662C651.058 32.776 650.906 32.833 650.716 32.833H649.5C649.31 32.833 649.158 32.776 649.044 32.662C648.93 32.548 648.873 32.396 648.873 32.206Z" fill="white"/>
<path d="M638.037 32.206V20.16C638.037 19.97 638.094 19.818 638.208 19.704C638.322 19.59 638.474 19.533 638.664 19.533H646.644C646.834 19.533 646.986 19.59 647.1 19.704C647.214 19.818 647.271 19.97 647.271 20.16V21.186C647.271 21.376 647.214 21.528 647.1 21.642C646.986 21.756 646.834 21.813 646.644 21.813H641.134C640.944 21.813 640.792 21.87 640.678 21.984C640.564 22.098 640.507 22.25 640.507 22.44V24.283C640.507 24.473 640.564 24.625 640.678 24.739C640.792 24.853 640.944 24.91 641.134 24.91H646.074C646.264 24.91 646.416 24.967 646.53 25.081C646.644 25.195 646.701 25.347 646.701 25.537V26.563C646.701 26.753 646.644 26.905 646.53 27.019C646.416 27.133 646.264 27.19 646.074 27.19H641.134C640.944 27.19 640.792 27.247 640.678 27.361C640.564 27.475 640.507 27.627 640.507 27.817V32.206C640.507 32.396 640.45 32.548 640.336 32.662C640.222 32.776 640.07 32.833 639.88 32.833H638.664C638.474 32.833 638.322 32.776 638.208 32.662C638.094 32.548 638.037 32.396 638.037 32.206Z" fill="white"/>
<path d="M627.201 32.206V20.16C627.201 19.97 627.258 19.818 627.372 19.704C627.486 19.59 627.638 19.533 627.828 19.533H635.808C635.998 19.533 636.15 19.59 636.264 19.704C636.378 19.818 636.435 19.97 636.435 20.16V21.186C636.435 21.376 636.378 21.528 636.264 21.642C636.15 21.756 635.998 21.813 635.808 21.813H630.298C630.108 21.813 629.956 21.87 629.842 21.984C629.728 22.098 629.671 22.25 629.671 22.44V24.283C629.671 24.473 629.728 24.625 629.842 24.739C629.956 24.853 630.108 24.91 630.298 24.91H635.238C635.428 24.91 635.58 24.967 635.694 25.081C635.808 25.195 635.865 25.347 635.865 25.537V26.563C635.865 26.753 635.808 26.905 635.694 27.019C635.58 27.133 635.428 27.19 635.238 27.19H630.298C630.108 27.19 629.956 27.247 629.842 27.361C629.728 27.475 629.671 27.627 629.671 27.817V32.206C629.671 32.396 629.614 32.548 629.5 32.662C629.386 32.776 629.234 32.833 629.044 32.833H627.828C627.638 32.833 627.486 32.776 627.372 32.662C627.258 32.548 627.201 32.396 627.201 32.206Z" fill="white"/>
<path d="M619.02 33.1559C618.006 33.1559 617.107 32.9723 616.322 32.6049C615.549 32.2249 614.903 31.7183 614.384 31.0849C613.307 29.7803 612.769 28.1463 612.769 26.1829C612.769 24.1943 613.313 22.5476 614.403 21.2429C615.543 19.8623 617.088 19.1719 619.039 19.1719C621.002 19.1719 622.554 19.8749 623.694 21.2809C624.758 22.5603 625.29 24.1943 625.29 26.1829C625.29 28.1843 624.745 29.8309 623.656 31.1229C622.503 32.4783 620.958 33.1559 619.02 33.1559ZM619.058 30.7619C619.704 30.7619 620.255 30.6289 620.711 30.3629C621.179 30.0969 621.566 29.7549 621.87 29.3369C622.44 28.5136 622.725 27.4623 622.725 26.1829C622.725 24.8783 622.44 23.8143 621.87 22.9909C621.198 22.0536 620.255 21.5849 619.039 21.5849C617.823 21.5849 616.879 22.0663 616.208 23.0289C615.638 23.8776 615.353 24.9289 615.353 26.1829C615.353 27.4369 615.65 28.4883 616.246 29.3369C616.917 30.2869 617.854 30.7619 619.058 30.7619Z" fill="white"/>
</svg>
