<svg width="229" height="48" viewBox="0 0 229 48" fill="none" xmlns="http://www.w3.org/2000/svg">
<path d="M160.851 46.0768C160.818 45.8821 160.786 45.6874 160.753 45.4927C160.753 45.3305 160.721 45.0871 160.656 44.7626C160.591 44.4381 160.51 44.065 160.413 43.6431C160.315 43.2537 160.218 42.8319 160.121 42.3776L159.829 41.3555C159.601 40.7065 159.829 40.382 160.51 40.382H162.846C163.43 40.382 163.836 40.3009 164.063 40.1386C164.323 39.9439 164.453 39.5383 164.453 38.9218V34.5899C164.453 34.1031 164.307 33.7137 164.015 33.4217C163.723 33.1296 163.333 32.9836 162.846 32.9836H150.045C149.559 32.9836 149.169 32.8376 148.877 32.5456C148.585 32.2535 148.439 31.8641 148.439 31.3774V28.9924C148.439 28.7977 148.358 28.749 148.196 28.8464C148.033 28.9437 147.871 28.9113 147.709 28.749C147.32 28.1974 146.703 27.4673 145.859 26.5587C145.632 26.364 145.421 26.1693 145.227 25.9746C145.032 25.78 144.821 25.6015 144.594 25.4392C143.847 24.7254 143.896 24.1088 144.74 23.5896C146.589 22.5513 148.39 21.302 150.143 19.8418C150.532 19.4848 150.548 19.1279 150.191 18.771L148.877 17.4081C148.682 17.2459 148.488 17.2459 148.293 17.4081L147.758 17.8948C147.53 18.0571 147.368 18.0409 147.271 17.8462C146.395 16.678 145.421 15.6072 144.35 14.6337C143.604 14.0496 143.588 13.4169 144.302 12.7355C147.287 10.3667 150.029 6.84597 152.528 2.17331C152.982 1.32964 153.631 1.0376 154.475 1.29719L158.904 2.61137C159.099 2.67627 159.131 2.88719 159.001 3.24413L158.952 3.2928V3.34148L158.904 3.39015L158.806 3.63352C158.742 3.69841 158.725 3.76331 158.758 3.82821C158.79 3.89311 158.855 3.92556 158.952 3.92556H165.475C165.799 3.92556 166.172 4.05535 166.594 4.31494C166.886 4.54209 166.967 4.47719 166.838 4.12025L166.546 3.19545C166.416 2.90341 166.529 2.72494 166.886 2.66004L171.559 1.68658C172.468 1.49188 173.1 1.86505 173.457 2.80607C173.555 3.26035 173.668 3.63351 173.798 3.92556C173.928 4.18515 173.993 4.34739 173.993 4.41229C174.025 4.44474 174.058 4.49341 174.09 4.55831L174.333 5.28841C174.398 5.41821 174.447 5.53178 174.479 5.62913C174.901 6.4728 175.112 6.42413 175.112 5.48311V5.33709C175.112 4.8828 175.258 4.50964 175.55 4.2176C175.842 3.92555 176.232 3.77953 176.718 3.77953H187.621C188.043 3.77953 188.384 3.90933 188.643 4.16892L189.471 4.89902C190.12 5.45066 190.233 6.09964 189.812 6.84596C187.702 10.3505 185.755 13.352 183.971 15.8506C183.711 16.2075 183.598 16.5807 183.63 16.9701C183.695 17.3594 183.906 17.6839 184.263 17.9435C186.307 19.5984 188.465 20.9775 190.736 22.0808C191.385 22.4053 191.434 22.8109 190.882 23.2976C189.812 24.2062 188.546 25.7637 187.086 27.9703C187.021 28.1001 186.924 28.1325 186.794 28.0676C186.664 28.0027 186.599 28.0352 186.599 28.165V31.3774C186.599 31.8641 186.453 32.2535 186.161 32.5456C185.869 32.8376 185.48 32.9836 184.993 32.9836H173.263C172.776 32.9836 172.386 33.1296 172.094 33.4217C171.802 33.7137 171.656 34.1031 171.656 34.5899V41.5502C171.656 43.6269 170.991 45.1358 169.661 46.0768C168.557 46.8231 166.886 47.1963 164.647 47.1963H162.068C161.354 47.1963 160.948 46.8231 160.851 46.0768ZM164.696 17.3108H170.878C171.851 17.3108 172.451 17.0836 172.678 16.6293C172.906 16.1751 172.711 15.5261 172.094 14.6824C170.861 12.9302 169.79 11.0806 168.882 9.13362C168.493 8.28995 168.087 7.86811 167.665 7.86811C167.243 7.86811 166.821 8.3224 166.4 9.23097C165.329 11.5348 164.307 13.352 163.333 14.6824C162.814 15.4936 162.668 16.1426 162.895 16.6293C163.122 17.0836 163.723 17.3108 164.696 17.3108ZM158.563 10.6425L158.952 10.0584L159.245 9.47433C159.472 9.08495 159.342 8.89025 158.855 8.89025H155.983C155.789 8.89025 155.643 8.97137 155.545 9.13362C155.448 9.29586 155.48 9.42566 155.643 9.52301L156.86 10.3018L157.638 10.8859C158.028 11.1779 158.336 11.0968 158.563 10.6425ZM179.249 11.4699L180.223 9.9124C180.482 9.49056 180.353 9.27964 179.833 9.27964H178.373C177.789 9.27964 177.416 9.42566 177.254 9.7177C177.092 10.0097 177.124 10.318 177.351 10.6425C177.578 10.9345 177.789 11.2104 177.984 11.4699C178.179 11.7295 178.389 11.8593 178.617 11.8593C178.876 11.8593 179.087 11.7295 179.249 11.4699ZM154.475 15.8992L155.059 15.2665C155.253 15.0718 155.253 14.8933 155.059 14.7311C154.864 14.5688 154.685 14.439 154.523 14.3417C154.393 14.2119 154.247 14.0659 154.085 13.9036L152.966 13.1248C152.739 13.0275 152.56 13.0437 152.43 13.1735L152.236 13.4656C151.814 13.8225 151.733 14.0821 151.992 14.2443L153.89 15.8992C154.085 16.0939 154.28 16.0939 154.475 15.8992ZM155.837 26.6074H182.024C183.452 26.6074 183.598 26.1693 182.462 25.2932C182.137 25.0336 181.813 24.7903 181.488 24.5631C181.196 24.336 180.872 24.0764 180.515 23.7843C179.833 23.2327 179.071 22.5675 178.227 21.7887C177.903 21.5291 177.676 21.3993 177.546 21.3993C177.254 21.3993 177.108 21.6589 177.108 22.1781C177.108 22.6648 176.962 23.0542 176.67 23.3463C176.41 23.6383 176.053 23.7843 175.599 23.7843H159.147C158.336 23.7843 157.93 23.3787 157.93 22.5675C157.93 21.7563 157.638 21.6427 157.054 22.2268C156.697 22.5513 156.34 22.8758 155.983 23.2003C155.659 23.4923 155.318 23.8006 154.961 24.1251C154.02 24.9038 153.615 25.5204 153.744 25.9746C153.907 26.3965 154.604 26.6074 155.837 26.6074ZM153.988 44.1785C153.469 44.4381 152.966 44.6977 152.479 44.9573C152.025 45.2169 151.619 45.4116 151.262 45.5414C150.938 45.7036 150.581 45.7848 150.191 45.7848C149.802 45.7848 149.429 45.5089 149.072 44.9573C148.747 44.4057 148.423 43.9189 148.098 43.4971C147.806 43.0753 147.547 42.7508 147.32 42.5236C147.125 42.264 146.93 42.0044 146.735 41.7449C146.086 40.9661 146.232 40.3658 147.174 39.9439C149.477 38.9705 152.317 37.2182 155.691 34.6872C155.886 34.525 156.097 34.3303 156.324 34.1031C156.584 33.8435 156.908 33.7137 157.298 33.7137C157.719 33.7137 158.076 33.876 158.368 34.2005L160.948 36.7315C161.305 37.056 161.484 37.4129 161.484 37.8023C161.484 38.1917 161.305 38.5649 160.948 38.9218C159.196 40.674 156.876 42.4263 153.988 44.1785ZM184.311 45.7361C180.904 44.1461 177.611 41.8746 174.431 38.9218C174.074 38.5649 173.895 38.1917 173.895 37.8023C173.895 37.4129 174.074 37.0398 174.431 36.6828L176.767 34.3952C177.092 34.0707 177.465 33.9084 177.887 33.9084C178.308 33.9084 178.682 34.0707 179.006 34.3952C182.056 36.699 185.123 38.5486 188.205 39.9439C189.114 40.3658 189.244 40.9499 188.595 41.6962C188.238 42.0856 187.848 42.6048 187.427 43.2537C187.005 43.9027 186.648 44.4543 186.356 44.9086C185.739 45.8172 185.058 46.093 184.311 45.7361Z" fill="white"/>
<path d="M127.071 43.4969C123.599 43.4969 120.5 43.1238 117.775 42.3774C114.66 41.5013 112.421 39.9113 111.058 37.6074C110.344 36.3744 109.987 34.9628 109.987 33.3728C109.987 31.7504 110.214 30.3713 110.668 29.2356C111.155 28.0999 111.804 27.0615 112.615 26.1205C114.011 24.5305 116.039 23.1027 118.699 21.8372C119.121 21.6425 119.332 21.3667 119.332 21.0098C119.332 20.88 119.316 20.734 119.284 20.5717C118.31 16.8401 117.775 12.8326 117.677 8.54936C117.677 7.73813 117.694 7.04048 117.726 6.4564C117.758 5.87232 117.888 5.41803 118.115 5.09354C118.44 4.63925 118.927 4.41211 119.576 4.41211H123.567C124.216 4.41211 124.703 4.59058 125.027 4.94752C125.352 5.27201 125.514 5.69385 125.514 6.21303C125.514 6.31038 125.498 6.52129 125.465 6.84578C125.433 7.13783 125.416 7.54344 125.416 8.06262C125.416 11.1777 125.676 14.4388 126.195 17.846C126.293 18.3652 126.568 18.6248 127.023 18.6248C127.185 18.6248 127.331 18.6085 127.461 18.5761C128.986 18.0894 131.225 17.5053 134.178 16.8239C134.729 16.6292 135.216 16.6778 135.638 16.9699C136.06 17.2619 136.336 17.7 136.465 18.2841L137.049 21.9832C137.082 22.113 137.098 22.2591 137.098 22.4213C137.098 22.8107 136.985 23.1676 136.757 23.4921C136.465 23.8815 135.995 24.1249 135.346 24.2222C134.729 24.2871 133.837 24.4169 132.669 24.6116C129.878 25.0983 127.266 25.7798 124.832 26.6559C123.469 27.1426 122.253 27.6943 121.182 28.3108C118.781 29.6737 117.58 31.1339 117.58 32.6914C117.58 34.0867 118.716 35.1089 120.987 35.7578C122.577 36.2121 124.411 36.4393 126.487 36.4393C130.089 36.4393 133.886 35.9201 137.877 34.8817C138.039 34.8493 138.201 34.833 138.364 34.833C138.558 34.833 138.753 34.9142 138.948 35.0764C139.142 35.2062 139.24 35.4333 139.24 35.7578C139.24 35.9201 139.207 36.0823 139.142 36.2446C139.11 36.3744 139.077 36.5366 139.045 36.7313C139.045 36.8936 139.013 37.1369 138.948 37.4614C138.721 38.662 138.607 39.4895 138.607 39.9438V40.8686C138.607 41.2904 138.477 41.6798 138.218 42.0367C137.99 42.3612 137.617 42.5559 137.098 42.6208C133.464 43.2049 130.122 43.4969 127.071 43.4969Z" fill="white"/>
<path d="M109.646 11.2752C109.289 11.5673 108.835 11.7133 108.283 11.7133C107.764 11.7133 107.342 11.4699 107.018 10.9832C106.596 10.464 106.158 9.94484 105.704 9.42566C105.347 8.97137 104.974 8.54953 104.584 8.16015V8.11147C104.195 7.65719 104 7.18668 104 6.69994C104 6.21321 104.243 5.75892 104.73 5.33708L105.558 4.70433C105.947 4.44474 106.32 4.31494 106.677 4.31494C107.067 4.31494 107.375 4.44474 107.602 4.70433C107.797 4.96392 108.056 5.25596 108.381 5.58045L110.084 7.57606C110.344 7.83566 110.571 8.14392 110.766 8.50086C110.993 8.7929 111.123 9.10117 111.155 9.42566C111.155 9.87994 110.928 10.2693 110.474 10.5938L109.646 11.2752ZM105.46 14.6337C105.103 14.9258 104.649 15.0718 104.097 15.0718C103.578 15.0718 103.14 14.8446 102.783 14.3904C101.94 13.2222 101.323 12.4434 100.934 12.054C100.187 11.3077 99.8142 10.6749 99.8142 10.1558C99.8142 9.60413 100.058 9.11739 100.544 8.69555L101.323 8.0628C101.712 7.80321 102.086 7.67341 102.443 7.67341C102.832 7.67341 103.156 7.83566 103.416 8.16015C103.741 8.48464 104 8.76045 104.195 8.9876L105.898 10.9345C106.126 11.2266 106.353 11.5348 106.58 11.8593C106.807 12.1514 106.921 12.4759 106.921 12.8328C106.921 13.2546 106.693 13.644 106.239 14.001L105.46 14.6337ZM78.3978 13.7576V9.96106C78.3978 9.31209 78.5925 8.82535 78.9819 8.50086C79.3064 8.27372 79.6471 8.16015 80.004 8.16015C80.1338 8.16015 80.3123 8.19259 80.5394 8.25749C80.799 8.28994 81.0586 8.32239 81.3182 8.35484C81.5778 8.38729 82.1295 8.45219 82.9731 8.54953C84.2386 8.67933 85.926 8.74423 88.0352 8.74423C91.2476 8.74423 94.2654 8.50086 97.0885 8.01412C97.2507 8.01412 97.4129 8.01412 97.5752 8.01412C98.1593 8.01412 98.5973 8.20882 98.8894 8.59821C99.0841 8.89025 99.1814 9.26341 99.1814 9.7177V13.6116C99.1814 14.0334 99.0516 14.4066 98.792 14.7311C98.5649 15.0556 98.0619 15.2989 97.2831 15.4612C95.9527 15.7532 94.022 15.9317 91.491 15.9966C89.9983 15.9966 88.8464 15.9966 88.0352 15.9966C84.985 15.9966 82.243 15.8343 79.8094 15.5098C79.3875 15.4449 79.0468 15.2502 78.7872 14.9258C78.5276 14.5688 78.3978 14.1794 78.3978 13.7576ZM78.7385 29.4791C79.4849 29.4791 80.0852 29.901 80.5394 30.7446C81.1884 31.783 82.0159 32.4644 83.0218 32.7889C84.0277 33.1134 85.423 33.2757 87.2077 33.2757C88.9924 33.2757 91.1665 33.1296 93.73 32.8376C96.1961 32.578 98.646 32.1237 101.08 31.4747C101.242 31.4423 101.404 31.4261 101.566 31.4261C101.956 31.4261 102.248 31.5721 102.443 31.8641C102.605 32.0588 102.686 32.3346 102.686 32.6916C102.686 33.8922 102.767 34.8819 102.929 35.6607C103.124 36.407 103.238 36.8775 103.27 37.0722C103.302 37.2344 103.335 37.3967 103.367 37.5589C103.4 37.6887 103.416 37.8023 103.416 37.8996C103.416 37.997 103.416 38.0619 103.416 38.0943C103.416 38.7758 103.043 39.2138 102.297 39.4085C99.8953 40.0251 97.6239 40.4144 95.4822 40.5767C93.373 40.7065 91.6208 40.8038 90.2255 40.8687C88.8626 40.9012 87.4998 40.9174 86.1369 40.9174C84.8065 40.9174 83.5085 40.8201 82.243 40.6254C80.9775 40.3982 79.8256 40.0088 78.7872 39.4572C76.5807 38.3539 74.9258 36.4557 73.8225 33.7624C73.6278 33.3406 73.6116 32.935 73.7738 32.5456C73.9361 32.1237 74.2281 31.7992 74.65 31.5721L77.6677 29.8198C78.0571 29.5927 78.414 29.4791 78.7385 29.4791Z" fill="white"/>
<path d="M58.685 42.7182C56.9652 43.2698 55.3103 43.5457 53.7203 43.5457C52.1627 43.5457 50.7188 43.4159 49.3884 43.1563C48.0579 42.9291 46.8249 42.5235 45.6892 41.9394C43.0932 40.5441 41.7953 38.4187 41.7953 35.5632C41.7953 33.454 42.5578 31.7342 44.0829 30.4038C45.5107 29.1707 47.2467 28.5542 49.291 28.5542C53.3147 28.5542 56.1378 30.3551 57.7602 33.957C57.9549 34.4437 58.1983 34.6871 58.4903 34.6871C58.8797 34.6871 59.2366 34.1841 59.5611 33.1782C59.8532 32.3021 59.9992 31.4584 59.9992 30.6472C59.9992 29.836 59.8207 29.0896 59.4638 28.4082C59.1068 27.6943 58.6526 27.094 58.1009 26.6073C56.8679 25.6014 55.4239 25.0984 53.769 25.0984C52.1465 25.0984 50.6539 25.2606 49.291 25.5851C47.9282 25.9096 46.6789 26.5911 45.5431 27.6294L41.99 30.5498C41.633 30.8743 41.2274 31.0366 40.7731 31.0366C40.3189 31.0366 39.897 30.8256 39.5076 30.4038L37.1713 27.9215C36.7495 27.4672 36.5385 27.0129 36.5385 26.5586C36.5385 25.9745 36.8793 25.4553 37.5607 25.0011C41.8115 22.4051 46.2246 18.4301 50.7999 13.076C50.9621 12.8814 51.0757 12.7029 51.1406 12.5406C51.1082 12.5406 51.0433 12.5406 50.9459 12.5406C50.9135 12.5406 50.1022 12.6867 48.5122 12.9787C46.6626 13.3356 44.7806 13.5952 42.8661 13.7575C42.7363 13.7575 42.639 13.7575 42.5741 13.7575C42.2171 13.7575 41.8926 13.6601 41.6006 13.4654C41.2112 13.1734 40.9841 12.784 40.9192 12.2973L40.1891 8.84145C40.1891 8.67921 40.1891 8.53319 40.1891 8.40339C40.1891 7.88421 40.3675 7.4786 40.7245 7.18656C41.0165 7.02431 41.3897 6.94319 41.844 6.94319H42.5254C45.8676 6.94319 49.4695 6.5538 53.3309 5.77502C54.564 5.54788 55.4239 5.36941 55.9106 5.23962C56.3973 5.10982 56.803 5.04492 57.1275 5.04492C57.4844 5.04492 57.8251 5.14227 58.1496 5.33696L61.3134 7.42992C61.7352 7.68951 62.011 8.04645 62.1408 8.50074C62.2057 8.66299 62.2382 8.80901 62.2382 8.9388C62.2382 9.26329 62.1246 9.57156 61.8975 9.8636C60.2426 12.784 57.6953 15.9965 54.2557 19.5009L55.2292 19.4523C58.9284 19.4523 61.8812 20.4257 64.0878 22.3727C66.489 24.417 67.6896 27.2076 67.6896 30.7445C67.6896 34.7357 66.2294 37.9157 63.309 40.2845C61.9786 41.3229 60.4373 42.1341 58.685 42.7182ZM49.437 34.6384C49.145 34.6384 48.9341 34.6871 48.8043 34.7844C48.6745 34.8818 48.6096 35.044 48.6096 35.2712C48.6096 35.4983 48.6907 35.693 48.853 35.8552C49.3072 36.2771 50.2807 36.5691 51.7734 36.7314C51.5462 36.1797 51.2704 35.693 50.9459 35.2712C50.6214 34.8493 50.1185 34.6384 49.437 34.6384Z" fill="white"/>
<path d="M4.268 9.91255L5.72821 9.96122H7.28576C8.74597 9.96122 10.3035 9.92877 11.9584 9.86388C12.2505 9.86388 12.4776 9.76653 12.6399 9.57183C12.8345 9.37714 12.9319 9.16622 12.9319 8.93908C12.9319 8.90663 12.9319 8.87418 12.9319 8.84173V7.18683L12.8832 6.01867C12.8832 5.43459 13.0617 4.99653 13.4186 4.70449C13.7107 4.47734 14.0838 4.36377 14.5381 4.36377H18.14C18.6916 4.36377 19.1459 4.54224 19.5028 4.89918C19.8598 5.25612 20.0382 5.7104 20.0382 6.26204V8.40367C20.0382 8.72816 20.1194 8.97153 20.2816 9.13377C20.4763 9.29602 20.671 9.37714 20.8657 9.37714C20.8981 9.37714 21.3037 9.36091 22.0825 9.32847C22.8613 9.26357 23.6563 9.18245 24.4675 9.0851C25.2787 8.9553 25.8304 8.8904 26.1224 8.8904C26.4145 8.85796 26.6903 8.82551 26.9499 8.79306C27.2095 8.72816 27.4042 8.69571 27.534 8.69571C27.9233 8.69571 28.2803 8.82551 28.6048 9.0851C29.0591 9.44204 29.2862 9.96122 29.2862 10.6426V13.5144C29.2862 13.9687 29.1402 14.3581 28.8481 14.6825C28.5561 15.007 28.1829 15.218 27.7286 15.3153C25.3923 15.6073 23.056 15.8183 20.7197 15.9481C20.4925 15.9805 20.3303 16.0454 20.2329 16.1428C20.168 16.2401 20.1356 16.3861 20.1356 16.5808L20.1843 17.5056V18.4304C20.2167 18.5927 20.2491 18.7062 20.2816 18.7711C20.3465 18.836 20.4276 18.8685 20.525 18.8685C20.6223 18.8685 20.7034 18.8685 20.7683 18.8685C23.1047 18.6413 24.792 18.398 25.8304 18.1384C26.382 18.0086 26.8688 17.9437 27.2906 17.9437C27.7124 17.9437 28.0369 18.041 28.2641 18.2357C28.6859 18.5602 28.8968 19.0794 28.8968 19.7933V23.0544C28.8968 23.4762 28.7995 23.8332 28.6048 24.1252C28.3776 24.5146 28.0045 24.758 27.4853 24.8553C25.7006 25.2447 23.6401 25.5205 21.3037 25.6828C21.0117 25.7152 20.7846 25.8288 20.6223 26.0235C20.4925 26.1857 20.4276 26.3804 20.4276 26.6076L20.4763 29.674C20.5087 30.1932 20.7521 30.5177 21.2064 30.6475C24.354 31.6534 27.6638 33.1947 31.1358 35.2714C31.5901 35.531 31.8172 35.8717 31.8172 36.2936C31.8172 36.683 31.655 37.0237 31.3305 37.3157C30.7789 37.77 30.0488 38.711 29.1402 40.1388C29.0428 40.2686 28.9455 40.4146 28.8481 40.5768C28.7832 40.7066 28.6697 40.9013 28.5074 41.1609C28.3127 41.5179 28.0045 41.6963 27.5826 41.6963C27.1932 41.6963 26.885 41.6152 26.6578 41.453C25.4897 40.5444 24.5649 39.863 23.8834 39.4087C23.0398 38.8895 22.407 38.5326 21.9852 38.3379C21.5633 38.1432 21.2875 38.0458 21.1577 38.0458C20.7359 38.0458 20.4276 38.3865 20.2329 39.068C19.1297 42.6374 16.193 44.4383 11.423 44.4707C7.78872 44.4707 5.09545 43.6757 3.34321 42.0857C1.72076 40.5931 0.909531 38.7273 0.909531 36.4883C0.909531 36.4558 0.909531 36.4234 0.909531 36.3909V36.3423C0.974429 34.6549 1.52606 33.2596 2.56443 32.1563C3.6028 31.0531 4.68984 30.2743 5.82556 29.82C7.41556 29.2035 9.07046 28.8952 10.7903 28.8952C10.9525 28.8952 11.6177 28.9277 12.7859 28.9926L13.3213 29.0412C13.3213 29.0412 13.3375 29.0412 13.37 29.0412L13.2726 26.3642C13.2726 26.2668 13.2564 26.2182 13.2239 26.2182C13.2239 26.1857 13.1915 26.1695 13.1266 26.1695L12.5425 26.2182H11.3257C9.57342 26.2182 8.29168 26.1208 7.48046 25.9261C5.79311 25.5692 4.5276 24.9364 3.68392 24.0279C2.58065 22.8597 2.02902 21.8862 2.02902 21.1075C2.02902 20.4585 2.38596 19.9717 3.09984 19.6472L6.21495 18.041C6.40964 17.9761 6.58811 17.9437 6.75035 17.9437C7.17219 17.9437 7.51291 18.1221 7.7725 18.4791C7.96719 18.7387 8.17811 18.9496 8.40526 19.1118C8.5026 19.2092 8.77842 19.2903 9.23271 19.3552C9.68699 19.4201 10.4171 19.4526 11.423 19.4526H12.4938L13.0292 19.4039C13.0941 19.4039 13.1266 19.4039 13.1266 19.4039C13.1266 19.3714 13.1266 19.339 13.1266 19.3065L13.0779 17.5056C13.0779 17.1811 13.013 16.9378 12.8832 16.7755C12.7534 16.6133 12.5101 16.5321 12.1531 16.5321C12.1531 16.5321 11.5528 16.5484 10.3522 16.5808C8.37281 16.6782 6.86393 16.7268 5.82556 16.7268H4.41402C3.89484 16.7268 3.45678 16.5646 3.09984 16.2401C2.77535 15.9156 2.6131 15.4938 2.6131 14.9746C2.54821 12.8654 2.51576 11.7946 2.51576 11.7621C2.51576 11.2105 2.678 10.7724 3.00249 10.448C3.32698 10.091 3.74882 9.91255 4.268 9.91255ZM7.82117 36.4396C7.82117 37.3806 8.7622 37.8511 10.6442 37.8511C11.5204 37.8511 12.2018 37.7051 12.6885 37.4131C13.2077 37.121 13.4673 36.6181 13.4673 35.9042V35.4175C13.4673 35.385 13.4673 35.3688 13.4673 35.3688H13.4186L12.2018 35.1741C11.7151 35.1416 11.0985 35.1254 10.3522 35.1254C9.63832 35.1254 9.03801 35.2552 8.55127 35.5148C8.06454 35.7744 7.82117 36.0827 7.82117 36.4396Z" fill="white"/>
<path d="M225.535 25.2554C226.045 25.2554 226.485 25.4445 226.839 25.811H226.84L226.853 25.8237H226.852C227.219 26.1775 227.408 26.6184 227.408 27.1284C227.408 27.6314 227.213 28.0732 226.847 28.4399C226.489 28.7972 226.045 28.977 225.535 28.9771H219.693V31.9097C219.723 31.9068 219.754 31.9037 219.785 31.9009L219.788 31.8999C219.994 31.8827 220.231 31.8745 220.497 31.8745C221.956 31.8745 223.268 32.1855 224.426 32.814H224.427C225.602 33.4269 226.516 34.307 227.165 35.4487H227.166C227.834 36.5792 228.163 37.8903 228.163 39.3696C228.163 40.6506 227.82 41.8411 227.138 42.9331C226.474 44.005 225.572 44.8631 224.438 45.5063L224.436 45.5073C223.312 46.1372 222.078 46.4506 220.741 46.4507C219.704 46.4507 218.735 46.3087 217.838 46.021C216.955 45.7377 216.113 45.3627 215.312 44.896V44.895C215.033 44.7505 214.812 44.5371 214.653 44.2603L214.648 44.2515C214.492 43.9589 214.414 43.6436 214.414 43.312C214.414 42.8147 214.597 42.3802 214.951 42.0259C215.321 41.6562 215.772 41.4634 216.287 41.4634C216.717 41.4634 217.097 41.585 217.396 41.8521C217.798 42.1478 218.262 42.3718 218.791 42.5229C219.322 42.6582 219.97 42.729 220.741 42.729C221.399 42.7289 222.007 42.5799 222.572 42.2837C223.141 41.9694 223.585 41.5551 223.909 41.0386L223.912 41.0327L224.031 40.8384C224.289 40.3805 224.416 39.8923 224.416 39.3696C224.416 38.1594 224.059 37.2497 223.377 36.5972C222.691 35.9404 221.76 35.5972 220.546 35.5972C219.818 35.5972 219.097 35.7048 218.382 35.9224L218.373 35.9253L218.365 35.9272C218.15 35.9811 217.943 36.0103 217.747 36.0103C217.243 36.0102 216.806 35.8423 216.461 35.4976L216.453 35.4907V35.4897C216.11 35.1263 215.947 34.6657 215.947 34.1372V27.2261C215.947 26.6733 216.131 26.1943 216.509 25.8169L216.516 25.811C216.904 25.4419 217.378 25.2554 217.918 25.2554H225.535Z" fill="white" stroke="white" stroke-width="0.679884"/>
<path d="M205.834 24.6953C207.087 24.6954 208.224 24.9756 209.236 25.542C210.248 26.1081 211.04 26.8991 211.606 27.9111H211.605C212.188 28.9073 212.476 30.0285 212.476 31.2656C212.476 32.5317 212.05 33.7362 211.219 34.873C210.409 36.0024 209.159 37.1466 207.488 38.3096L207.484 38.3125C206.992 38.6457 206.4 39.093 205.707 39.6572C205.014 40.2211 204.51 40.6794 204.186 41.0342L204.185 41.0352C203.843 41.4082 203.577 41.7539 203.381 42.0713H210.871C211.381 42.0713 211.825 42.2521 212.182 42.6094C212.54 42.9667 212.72 43.4111 212.72 43.9209C212.719 44.4302 212.54 44.8782 212.188 45.249L212.182 45.2559C211.828 45.6103 211.393 45.7939 210.895 45.7939H200.918C200.358 45.7939 199.872 45.6233 199.491 45.2627C199.107 44.8992 198.923 44.4247 198.923 43.8721C198.923 43.0017 199.215 42.0603 199.767 41.0557L199.77 41.0518C200.335 40.0558 200.968 39.2023 201.675 38.4961C201.898 38.2728 202.233 37.9801 202.674 37.6211C202.928 37.4041 203.184 37.1961 203.439 36.9951C202.772 36.7905 202.15 36.492 201.576 36.0967L201.572 36.0938C200.8 35.5448 200.189 34.8562 199.742 34.0312L199.741 34.0283C199.291 33.1804 199.068 32.241 199.068 31.2168C199.068 29.9792 199.349 28.8573 199.916 27.8604L199.919 27.8564C200.502 26.8608 201.312 26.0864 202.34 25.5381C203.383 24.9741 204.551 24.6953 205.834 24.6953ZM205.834 28.417C204.88 28.417 204.15 28.6877 203.609 29.2002L203.605 29.2031C203.068 29.6984 202.791 30.3579 202.791 31.2168C202.791 31.6971 202.931 32.1515 203.22 32.5859C203.515 33.0269 203.896 33.3793 204.369 33.6455C204.839 33.8939 205.326 34.0166 205.834 34.0166C206.269 34.0165 206.681 33.9221 207.073 33.7334L207.078 33.7314C207.473 33.5481 207.818 33.2565 208.112 32.8447C208.564 32.1889 208.755 31.667 208.755 31.2656C208.755 30.3859 208.482 29.708 207.957 29.1973L207.954 29.1934C207.446 28.6855 206.752 28.4171 205.834 28.417Z" fill="white" stroke="white" stroke-width="0.679884"/>
<path d="M221.398 1.35254C222.879 1.35254 224.165 1.77998 225.237 2.64453H225.237C226.304 3.48867 227.098 4.70047 227.633 6.25488C228.167 7.8081 228.431 9.6398 228.431 11.7432C228.431 13.9107 228.168 15.7985 227.634 17.3994V17.4004C227.1 18.9871 226.306 20.2316 225.24 21.1084C224.168 21.9902 222.881 22.4268 221.398 22.4268C219.915 22.4267 218.628 21.99 217.556 21.1084C216.49 20.2316 215.697 18.9871 215.162 17.4004L215.161 17.3994C214.628 15.7986 214.365 13.9107 214.365 11.7432C214.365 9.63986 214.628 7.80807 215.162 6.25488C215.664 4.7967 216.394 3.63918 217.363 2.80469L217.561 2.64258C218.632 1.77939 219.917 1.35258 221.398 1.35254ZM221.398 5.07422C220.877 5.07426 220.428 5.21081 220.038 5.47754C219.646 5.74637 219.297 6.15991 218.999 6.73926C218.402 7.90399 218.087 9.56213 218.087 11.7432C218.087 14.0061 218.401 15.7404 219.002 16.9727C219.301 17.5767 219.651 18.0077 220.043 18.2871C220.432 18.5641 220.88 18.7041 221.398 18.7041C221.915 18.7041 222.363 18.5641 222.752 18.2871C223.145 18.0075 223.496 17.5763 223.794 16.9717C224.394 15.7569 224.708 14.0232 224.708 11.7432C224.708 9.56218 224.395 7.90399 223.797 6.73926C223.5 6.15974 223.15 5.74638 222.757 5.47754C222.367 5.21082 221.918 5.07422 221.398 5.07422Z" fill="white" stroke="white" stroke-width="0.679884"/>
<path d="M205.834 0.865723C207.087 0.865777 208.224 1.14605 209.236 1.7124C210.248 2.27847 211.04 3.06952 211.606 4.08154H211.605C212.188 5.07775 212.476 6.19886 212.476 7.43604C212.476 8.70211 212.05 9.9066 211.219 11.0435C210.409 12.1728 209.159 13.317 207.488 14.48L207.484 14.4829C206.992 14.8161 206.4 15.2634 205.707 15.8276C205.014 16.3915 204.51 16.8498 204.186 17.2046L204.185 17.2056C203.843 17.5786 203.577 17.9243 203.381 18.2417H210.871C211.381 18.2417 211.825 18.4225 212.182 18.7798C212.54 19.1371 212.72 19.5815 212.72 20.0913C212.719 20.6006 212.54 21.0486 212.188 21.4194L212.182 21.4263C211.828 21.7808 211.393 21.9644 210.895 21.9644H200.918C200.358 21.9644 199.872 21.7937 199.491 21.4331C199.107 21.0696 198.923 20.5951 198.923 20.0425C198.923 19.1721 199.215 18.2307 199.767 17.2261L199.77 17.2222C200.335 16.2262 200.968 15.3727 201.675 14.6665C201.898 14.4432 202.233 14.1505 202.674 13.7915C202.928 13.5746 203.184 13.3665 203.439 13.1655C202.772 12.9609 202.15 12.6624 201.576 12.2671L201.572 12.2642C200.8 11.7152 200.189 11.0266 199.742 10.2017L199.741 10.1987C199.291 9.35082 199.068 8.41142 199.068 7.38721C199.068 6.14959 199.349 5.02773 199.916 4.03076L199.919 4.02686C200.502 3.03117 201.312 2.25681 202.34 1.7085C203.383 1.14447 204.551 0.865723 205.834 0.865723ZM205.834 4.5874C204.88 4.5874 204.15 4.85812 203.609 5.37061L203.605 5.37354C203.068 5.86877 202.791 6.52834 202.791 7.38721C202.791 7.86754 202.931 8.32194 203.22 8.75635C203.515 9.19732 203.896 9.54974 204.369 9.81592C204.839 10.0643 205.326 10.187 205.834 10.187C206.269 10.187 206.681 10.0925 207.073 9.90381L207.078 9.90186C207.473 9.71847 207.818 9.42692 208.112 9.01514C208.564 8.35932 208.755 7.83746 208.755 7.43604C208.755 6.55627 208.482 5.87842 207.957 5.36768L207.954 5.36377C207.446 4.85593 206.752 4.58747 205.834 4.5874Z" fill="white" stroke="white" stroke-width="0.679884"/>
</svg>
