<svg width="291" height="35" viewBox="0 0 291 35" fill="none" xmlns="http://www.w3.org/2000/svg">
<path d="M15.9434 29.608C15.9434 28.0747 15.3901 27.308 14.2834 27.308C13.6967 27.308 13.2701 27.4747 13.0034 27.808C12.8301 28.048 12.6167 28.168 12.3634 28.168H11.2434C11.0434 28.168 10.8834 28.108 10.7634 27.988C10.6434 27.868 10.5834 27.708 10.5834 27.508V20.788C10.5834 20.588 10.6434 20.428 10.7634 20.308C10.8834 20.188 11.0434 20.128 11.2434 20.128H17.1634C17.3634 20.128 17.5234 20.188 17.6434 20.308C17.7634 20.428 17.8234 20.588 17.8234 20.788V21.648C17.8234 21.848 17.7634 22.008 17.6434 22.128C17.5234 22.248 17.3634 22.308 17.1634 22.308H13.6234C13.4234 22.308 13.2634 22.368 13.1434 22.488C13.0234 22.608 12.9634 22.768 12.9634 22.968V25.208C12.9634 25.4347 13.0501 25.5013 13.2234 25.408C13.5967 25.2213 14.0434 25.128 14.5634 25.128C15.0967 25.128 15.6167 25.248 16.1234 25.488C16.6301 25.7147 17.0501 26.0347 17.3834 26.448C18.0234 27.248 18.3434 28.3013 18.3434 29.608C18.3434 31.0213 17.9567 32.1413 17.1834 32.968C16.3834 33.8213 15.2767 34.248 13.8634 34.248C13.1434 34.248 12.4501 34.088 11.7834 33.768C11.1301 33.448 10.5834 33.008 10.1434 32.448C10.0101 32.3013 9.96341 32.148 10.0034 31.988C10.0434 31.828 10.1434 31.6947 10.3034 31.588L11.2234 31.008C11.3434 30.928 11.4834 30.888 11.6434 30.888C11.8167 30.888 11.9901 30.988 12.1634 31.188C12.6834 31.708 13.2834 31.968 13.9634 31.968C14.6567 31.968 15.1567 31.7547 15.4634 31.328C15.7834 30.888 15.9434 30.3147 15.9434 29.608Z" fill="white"/>
<path d="M0.919495 33.768V33.408C0.919495 31.808 1.59283 30.2613 2.93949 28.768C3.33949 28.3413 3.73283 27.9413 4.11949 27.568C4.50616 27.1947 4.87949 26.8213 5.23949 26.448C5.61283 26.0613 5.91949 25.6613 6.15949 25.248C6.39949 24.8347 6.52616 24.468 6.53949 24.148C6.56616 23.5213 6.43283 23.0547 6.13949 22.748C5.83283 22.4413 5.41949 22.288 4.89949 22.288C4.37949 22.288 4.01283 22.4413 3.79949 22.748C3.59949 23.0547 3.47283 23.368 3.41949 23.688C3.33949 24.2347 3.09949 24.508 2.69949 24.508H1.63949C1.43949 24.508 1.27949 24.448 1.15949 24.328C1.03949 24.208 0.986161 24.0547 0.999495 23.868C1.10616 22.7213 1.48616 21.8013 2.13949 21.108C2.83283 20.3747 3.74616 20.008 4.87949 20.008C6.51949 20.008 7.70616 20.6413 8.4395 21.908C8.78616 22.5347 8.94616 23.248 8.91949 24.048C8.89283 24.8347 8.74616 25.4813 8.4795 25.988C8.21283 26.4947 7.91283 26.928 7.57949 27.288C7.04616 27.8613 6.5395 28.3813 6.05949 28.848C4.85949 30.0213 4.10616 30.8413 3.79949 31.308C3.67949 31.4947 3.65949 31.648 3.73949 31.768C3.83283 31.888 3.99283 31.948 4.21949 31.948H7.9795C8.17949 31.948 8.33949 32.008 8.45949 32.128C8.57949 32.248 8.63949 32.408 8.63949 32.608V33.468C8.63949 33.668 8.57949 33.828 8.45949 33.948C8.33949 34.068 8.17949 34.128 7.9795 34.128H1.27949C1.03949 34.128 0.919495 34.008 0.919495 33.768Z" fill="white"/>
<path d="M17.9034 13.208C17.3167 14.6214 16.1567 15.328 14.4234 15.328C13.3301 15.328 12.4834 15.0547 11.8834 14.508C11.2834 13.948 10.8634 13.1414 10.6234 12.088C10.3834 11.0214 10.2634 9.70135 10.2634 8.12802C10.2634 6.76802 10.3301 5.70802 10.4634 4.94802C10.7434 3.38802 11.2101 2.32802 11.8634 1.76802C12.5167 1.19469 13.3901 0.90802 14.4834 0.90802C15.5901 0.90802 16.4367 1.18802 17.0234 1.74802C17.6101 2.29469 18.0234 3.09469 18.2634 4.14802C18.5167 5.20135 18.6434 6.52802 18.6434 8.12802C18.6434 9.50135 18.5767 10.5614 18.4434 11.308C18.3101 12.0414 18.1301 12.6747 17.9034 13.208ZM14.4634 13.048C15.2234 13.048 15.7167 12.648 15.9434 11.848C16.1567 11.088 16.2634 9.84802 16.2634 8.12802C16.2634 5.80802 16.0701 4.35469 15.6834 3.76802C15.4167 3.38135 15.0101 3.18802 14.4634 3.18802C13.6767 3.18802 13.1834 3.59469 12.9834 4.40802C12.9167 4.63469 12.8434 4.99469 12.7634 5.48802C12.6834 5.96802 12.6434 6.84802 12.6434 8.12802C12.6434 10.3947 12.8501 11.8347 13.2634 12.448C13.5301 12.848 13.9301 13.048 14.4634 13.048Z" fill="white"/>
<path d="M0.919495 14.768V14.408C0.919495 12.808 1.59283 11.2613 2.93949 9.768C3.33949 9.34133 3.73283 8.94133 4.11949 8.568C4.50616 8.19466 4.87949 7.82133 5.23949 7.448C5.61283 7.06133 5.91949 6.66133 6.15949 6.248C6.39949 5.83466 6.52616 5.468 6.53949 5.148C6.56616 4.52133 6.43283 4.05466 6.13949 3.748C5.83283 3.44133 5.41949 3.288 4.89949 3.288C4.37949 3.288 4.01283 3.44133 3.79949 3.748C3.59949 4.05466 3.47283 4.368 3.41949 4.688C3.33949 5.23466 3.09949 5.508 2.69949 5.508H1.63949C1.43949 5.508 1.27949 5.448 1.15949 5.328C1.03949 5.208 0.986161 5.05466 0.999495 4.868C1.10616 3.72133 1.48616 2.80133 2.13949 2.108C2.83283 1.37466 3.74616 1.008 4.87949 1.008C6.51949 1.008 7.70616 1.64133 8.4395 2.908C8.78616 3.53466 8.94616 4.248 8.91949 5.048C8.89283 5.83466 8.74616 6.48133 8.4795 6.988C8.21283 7.49466 7.91283 7.928 7.57949 8.288C7.04616 8.86133 6.5395 9.38133 6.05949 9.848C4.85949 11.0213 4.10616 11.8413 3.79949 12.308C3.67949 12.4947 3.65949 12.648 3.73949 12.768C3.83283 12.888 3.99283 12.948 4.21949 12.948H7.9795C8.17949 12.948 8.33949 13.008 8.45949 13.128C8.57949 13.248 8.63949 13.408 8.63949 13.608V14.468C8.63949 14.668 8.57949 14.828 8.45949 14.948C8.33949 15.068 8.17949 15.128 7.9795 15.128H1.27949C1.03949 15.128 0.919495 15.008 0.919495 14.768Z" fill="white"/>
<path d="M118.302 23.28C118.302 19.6 116.974 17.76 114.318 17.76C112.91 17.76 111.886 18.16 111.246 18.96C110.83 19.536 110.318 19.824 109.71 19.824H107.022C106.542 19.824 106.158 19.68 105.87 19.392C105.582 19.104 105.438 18.72 105.438 18.24V2.11201C105.438 1.63202 105.582 1.24802 105.87 0.960015C106.158 0.672015 106.542 0.528015 107.022 0.528015H121.23C121.71 0.528015 122.094 0.672015 122.382 0.960015C122.67 1.24802 122.814 1.63202 122.814 2.11201V4.17602C122.814 4.65602 122.67 5.04002 122.382 5.32802C122.094 5.61602 121.71 5.76002 121.23 5.76002H112.734C112.254 5.76002 111.87 5.90402 111.582 6.19202C111.294 6.48002 111.15 6.86402 111.15 7.34402V12.72C111.15 13.264 111.358 13.424 111.774 13.2C112.67 12.752 113.742 12.528 114.99 12.528C116.27 12.528 117.518 12.816 118.734 13.392C119.95 13.936 120.958 14.704 121.758 15.696C123.294 17.616 124.062 20.144 124.062 23.28C124.062 26.672 123.134 29.36 121.278 31.344C119.358 33.392 116.702 34.416 113.31 34.416C111.582 34.416 109.918 34.032 108.318 33.264C106.75 32.496 105.438 31.44 104.382 30.096C104.062 29.744 103.95 29.376 104.046 28.992C104.142 28.608 104.382 28.288 104.766 28.032L106.974 26.64C107.262 26.448 107.598 26.352 107.982 26.352C108.398 26.352 108.814 26.592 109.23 27.072C110.478 28.32 111.918 28.944 113.55 28.944C115.214 28.944 116.414 28.432 117.15 27.408C117.918 26.352 118.302 24.976 118.302 23.28Z" fill="white"/>
<path d="M82.2445 33.264V32.4C82.2445 28.56 83.8605 24.848 87.0925 21.264C88.0525 20.24 88.9965 19.28 89.9245 18.384C90.8525 17.488 91.7485 16.592 92.6125 15.696C93.5085 14.768 94.2445 13.808 94.8205 12.816C95.3965 11.824 95.7005 10.944 95.7325 10.176C95.7965 8.67199 95.4765 7.55199 94.7725 6.81599C94.0365 6.07999 93.0445 5.71199 91.7965 5.71199C90.5485 5.71199 89.6685 6.07999 89.1565 6.81599C88.6765 7.55199 88.3725 8.30399 88.2445 9.07199C88.0525 10.384 87.4765 11.04 86.5165 11.04H83.9725C83.4925 11.04 83.1085 10.896 82.8205 10.608C82.5325 10.32 82.4045 9.95199 82.4365 9.50399C82.6925 6.75199 83.6045 4.54399 85.1725 2.87999C86.8365 1.11999 89.0285 0.23999 91.7485 0.23999C95.6845 0.23999 98.5325 1.75999 100.293 4.79999C101.125 6.30399 101.509 8.01599 101.445 9.93599C101.381 11.824 101.029 13.376 100.389 14.592C99.7485 15.808 99.0285 16.848 98.2285 17.712C96.9485 19.088 95.7325 20.336 94.5805 21.456C91.7005 24.272 89.8925 26.24 89.1565 27.36C88.8685 27.808 88.8205 28.176 89.0125 28.464C89.2365 28.752 89.6205 28.896 90.1645 28.896H99.1885C99.6685 28.896 100.053 29.04 100.341 29.328C100.629 29.616 100.773 30 100.773 30.48V32.544C100.773 33.024 100.629 33.408 100.341 33.696C100.053 33.984 99.6685 34.128 99.1885 34.128H83.1085C82.5325 34.128 82.2445 33.84 82.2445 33.264Z" fill="white"/>
<path d="M78.658 30.816C78.658 31.872 78.274 32.784 77.506 33.552C76.738 34.288 75.81 34.656 74.722 34.656C73.666 34.656 72.754 34.288 71.986 33.552C71.25 32.784 70.882 31.856 70.882 30.768C70.882 29.68 71.25 28.768 71.986 28.032C72.722 27.296 73.634 26.928 74.722 26.928C75.842 26.928 76.77 27.312 77.506 28.08C78.274 28.816 78.658 29.728 78.658 30.816Z" fill="white"/>
<path d="M64.7402 29.52C63.3322 32.912 60.5482 34.608 56.3882 34.608C53.7642 34.608 51.7322 33.952 50.2922 32.64C48.8522 31.296 47.8442 29.36 47.2682 26.832C46.6922 24.272 46.4042 21.104 46.4042 17.328C46.4042 14.064 46.5642 11.52 46.8842 9.696C47.5562 5.952 48.6762 3.408 50.2442 2.064C51.8122 0.688 53.9082 0 56.5322 0C59.1882 0 61.2202 0.672 62.6282 2.016C64.0362 3.328 65.0282 5.248 65.6042 7.776C66.2122 10.304 66.5162 13.488 66.5162 17.328C66.5162 20.624 66.3562 23.168 66.0362 24.96C65.7162 26.72 65.2842 28.24 64.7402 29.52ZM56.4842 29.136C58.3082 29.136 59.4922 28.176 60.0362 26.256C60.5482 24.432 60.8042 21.456 60.8042 17.328C60.8042 11.76 60.3402 8.272 59.4122 6.864C58.7722 5.936 57.7962 5.472 56.4842 5.472C54.5962 5.472 53.4122 6.448 52.9322 8.4C52.7722 8.944 52.5962 9.808 52.4042 10.992C52.2122 12.144 52.1162 14.256 52.1162 17.328C52.1162 22.768 52.6122 26.224 53.6042 27.696C54.2442 28.656 55.2042 29.136 56.4842 29.136Z" fill="white"/>
<path d="M33.0595 32.544V10.752C33.0595 9.53598 32.6755 8.92798 31.9075 8.92798C31.5875 8.92798 31.1555 9.10398 30.6115 9.45598L28.7875 10.656C28.4675 10.88 28.0995 10.992 27.6835 10.992C27.2995 10.992 26.9315 10.72 26.5795 10.176L25.2355 8.01598C24.6915 7.11998 24.8675 6.39998 25.7635 5.85598L34.0195 0.71998C34.2755 0.55998 34.5475 0.47998 34.8355 0.47998H37.1875C37.6675 0.47998 38.0515 0.623981 38.3395 0.911981C38.6275 1.19998 38.7715 1.58398 38.7715 2.06398V32.544C38.7715 33.024 38.6275 33.408 38.3395 33.696C38.0515 33.984 37.6675 34.128 37.1875 34.128H34.6435C34.1635 34.128 33.7795 33.984 33.4915 33.696C33.2035 33.408 33.0595 33.024 33.0595 32.544Z" fill="white"/>
<path d="M151.299 23.952V20.928C151.299 20.448 151.443 20.064 151.731 19.776C152.019 19.488 152.403 19.344 152.883 19.344H165.316C165.796 19.344 166.179 19.488 166.467 19.776C166.755 20.064 166.9 20.448 166.9 20.928V23.952C166.9 24.432 166.755 24.816 166.467 25.104C166.179 25.392 165.796 25.536 165.316 25.536H152.883C152.403 25.536 152.019 25.392 151.731 25.104C151.443 24.816 151.299 24.432 151.299 23.952Z" fill="white"/>
<path d="M130.047 27.0424H139.813C140.003 27.0424 140.155 26.9854 140.269 26.8714C140.383 26.7574 140.44 26.6054 140.44 26.4154V23.7554C140.44 23.5654 140.497 23.4134 140.611 23.2994C140.725 23.1854 140.877 23.1284 141.067 23.1284H142.093C142.283 23.1284 142.435 23.1854 142.549 23.2994C142.663 23.4134 142.72 23.5654 142.72 23.7554V32.7994C142.72 32.9894 142.663 33.1414 142.549 33.2554C142.435 33.3694 142.283 33.4264 142.093 33.4264H141.067C140.877 33.4264 140.725 33.3694 140.611 33.2554C140.497 33.1414 140.44 32.9894 140.44 32.7994V30.1584C140.44 29.9684 140.383 29.8164 140.269 29.7024C140.155 29.5884 140.003 29.5314 139.813 29.5314H130.047C129.857 29.5314 129.705 29.4744 129.591 29.3604C129.477 29.2464 129.42 29.0944 129.42 28.9044V27.6694C129.42 27.4794 129.477 27.3274 129.591 27.2134C129.705 27.0994 129.857 27.0424 130.047 27.0424Z" fill="white"/>
<path d="M130.256 12.5336L142.321 17.0556C142.587 17.157 142.72 17.3533 142.72 17.6446V18.9556C142.72 19.247 142.587 19.4433 142.321 19.5446L130.256 24.0666C130.002 24.168 129.8 24.1616 129.648 24.0476C129.496 23.9463 129.42 23.7626 129.42 23.4966V22.0336C129.42 21.7423 129.559 21.5523 129.838 21.4636L131.643 20.8366C131.921 20.748 132.061 20.558 132.061 20.2666V16.2576C132.061 15.9663 131.921 15.7763 131.643 15.6876L129.838 15.0606C129.559 14.972 129.42 14.782 129.42 14.4906V13.1036C129.42 12.8376 129.496 12.6476 129.648 12.5336C129.8 12.4323 130.002 12.4323 130.256 12.5336ZM134.341 17.4926V19.0696C134.341 19.323 134.41 19.5003 134.55 19.6016C134.702 19.7156 134.904 19.7283 135.158 19.6396L137.457 18.8606C137.976 18.6833 138.236 18.4933 138.236 18.2906C138.236 18.088 137.976 17.8916 137.457 17.7016L135.158 16.9036C134.904 16.815 134.702 16.8213 134.55 16.9226C134.41 17.0366 134.341 17.2266 134.341 17.4926Z" fill="white"/>
<path d="M129.135 6.341C129.135 5.26433 129.356 4.27 129.8 3.358C130.256 2.446 130.965 1.724 131.928 1.192C132.08 1.10333 132.225 1.08433 132.365 1.135C132.517 1.18566 132.637 1.287 132.726 1.439L133.277 2.465C133.34 2.59166 133.372 2.731 133.372 2.883C133.372 3.035 133.27 3.18066 133.068 3.32C132.498 3.738 132.092 4.18133 131.852 4.65C131.611 5.11866 131.491 5.714 131.491 6.436C131.491 7.10733 131.567 7.58233 131.719 7.861C131.883 8.13966 132.073 8.336 132.289 8.45C132.504 8.564 132.77 8.621 133.087 8.621C133.416 8.621 133.701 8.55133 133.942 8.412C134.296 8.17133 134.626 7.538 134.93 6.512C135.031 6.14466 135.139 5.70766 135.253 5.201C135.379 4.69433 135.544 4.21933 135.747 3.776C135.949 3.34533 136.209 2.96533 136.526 2.636C137.184 1.952 138.039 1.61 139.091 1.61C140.37 1.61 141.371 2.07866 142.093 3.016C142.751 3.852 143.081 4.92233 143.081 6.227C143.081 8.29166 142.283 9.88766 140.687 11.015C140.395 11.205 140.136 11.1543 139.908 10.863L139.11 9.78C139.021 9.67866 138.977 9.552 138.977 9.4C138.977 9.26066 139.021 9.153 139.11 9.077C139.211 9.01366 139.287 8.95666 139.338 8.906L139.566 8.735C139.958 8.34233 140.25 7.96233 140.44 7.595C140.63 7.22766 140.725 6.835 140.725 6.417C140.725 6.01166 140.699 5.68866 140.649 5.448C140.598 5.20733 140.516 4.992 140.402 4.802C140.148 4.384 139.749 4.175 139.205 4.175C138.749 4.175 138.394 4.384 138.141 4.802C137.862 5.258 137.621 5.87866 137.419 6.664C137.229 7.44933 137.026 8.09533 136.811 8.602C136.608 9.12133 136.348 9.57733 136.032 9.97C135.322 10.806 134.366 11.224 133.163 11.224C131.782 11.224 130.75 10.7427 130.066 9.78C129.445 8.91866 129.135 7.77233 129.135 6.341Z" fill="white"/>
<path d="M262.23 34.608C257.11 34.608 253.846 31.968 252.438 26.688C251.638 23.872 251.446 19.792 251.862 14.448C252.118 11.44 252.758 8.736 253.782 6.336C254.87 3.744 256.582 1.904 258.918 0.816001C260.134 0.272 261.51 0 263.046 0C264.614 0 266.102 0.352 267.51 1.056C268.918 1.76 270.086 2.672 271.014 3.792C271.302 4.144 271.414 4.512 271.35 4.896C271.286 5.248 271.078 5.552 270.726 5.808L268.758 7.344C268.47 7.536 268.15 7.632 267.798 7.632C267.478 7.632 267.126 7.408 266.742 6.96C265.814 5.872 264.678 5.328 263.334 5.328C262.022 5.328 260.982 5.632 260.214 6.24C259.478 6.848 258.902 7.616 258.486 8.544C257.846 9.92 257.43 11.936 257.238 14.592C257.206 15.072 257.318 15.312 257.574 15.312C257.734 15.312 257.942 15.232 258.198 15.072C258.646 14.688 259.27 14.384 260.07 14.16C260.87 13.936 261.782 13.824 262.806 13.824C263.862 13.824 264.966 14.08 266.118 14.592C267.302 15.104 268.31 15.808 269.142 16.704C270.806 18.56 271.638 20.944 271.638 23.856C271.638 26.896 270.838 29.424 269.238 31.44C267.51 33.552 265.174 34.608 262.23 34.608ZM261.846 29.136C263.222 29.136 264.262 28.592 264.966 27.504C265.542 26.608 265.83 25.392 265.83 23.856C265.83 21.712 265.142 20.224 263.766 19.392C263.286 19.104 262.694 18.96 261.99 18.96C260.678 18.96 259.654 19.408 258.918 20.304C258.182 21.168 257.83 22.32 257.862 23.76C257.862 26.16 258.55 27.792 259.926 28.656C260.438 28.976 261.078 29.136 261.846 29.136Z" fill="white"/>
<path d="M229.245 33.264V32.4C229.245 28.56 230.861 24.848 234.093 21.264C235.053 20.24 235.997 19.28 236.925 18.384C237.853 17.488 238.749 16.592 239.613 15.696C240.509 14.768 241.245 13.808 241.821 12.816C242.397 11.824 242.701 10.944 242.733 10.176C242.797 8.67199 242.477 7.55199 241.773 6.81599C241.037 6.07999 240.045 5.71199 238.797 5.71199C237.549 5.71199 236.669 6.07999 236.157 6.81599C235.677 7.55199 235.373 8.30399 235.245 9.07199C235.053 10.384 234.477 11.04 233.517 11.04H230.973C230.493 11.04 230.109 10.896 229.821 10.608C229.533 10.32 229.405 9.95199 229.437 9.50399C229.693 6.75199 230.605 4.54399 232.173 2.87999C233.837 1.11999 236.029 0.23999 238.749 0.23999C242.685 0.23999 245.533 1.75999 247.293 4.79999C248.125 6.30399 248.509 8.01599 248.445 9.93599C248.381 11.824 248.029 13.376 247.389 14.592C246.749 15.808 246.029 16.848 245.229 17.712C243.949 19.088 242.733 20.336 241.581 21.456C238.701 24.272 236.893 26.24 236.157 27.36C235.869 27.808 235.821 28.176 236.013 28.464C236.237 28.752 236.621 28.896 237.165 28.896H246.189C246.669 28.896 247.053 29.04 247.341 29.328C247.629 29.616 247.773 30 247.773 30.48V32.544C247.773 33.024 247.629 33.408 247.341 33.696C247.053 33.984 246.669 34.128 246.189 34.128H230.109C229.533 34.128 229.245 33.84 229.245 33.264Z" fill="white"/>
<path d="M225.658 30.816C225.658 31.872 225.274 32.784 224.506 33.552C223.738 34.288 222.81 34.656 221.722 34.656C220.666 34.656 219.754 34.288 218.986 33.552C218.25 32.784 217.882 31.856 217.882 30.768C217.882 29.68 218.25 28.768 218.986 28.032C219.722 27.296 220.634 26.928 221.722 26.928C222.842 26.928 223.77 27.312 224.506 28.08C225.274 28.816 225.658 29.728 225.658 30.816Z" fill="white"/>
<path d="M211.74 29.52C210.332 32.912 207.548 34.608 203.388 34.608C200.764 34.608 198.732 33.952 197.292 32.64C195.852 31.296 194.844 29.36 194.268 26.832C193.692 24.272 193.404 21.104 193.404 17.328C193.404 14.064 193.564 11.52 193.884 9.696C194.556 5.952 195.676 3.408 197.244 2.064C198.812 0.688 200.908 0 203.532 0C206.188 0 208.22 0.672 209.628 2.016C211.036 3.328 212.028 5.248 212.604 7.776C213.212 10.304 213.516 13.488 213.516 17.328C213.516 20.624 213.356 23.168 213.036 24.96C212.716 26.72 212.284 28.24 211.74 29.52ZM203.484 29.136C205.308 29.136 206.492 28.176 207.036 26.256C207.548 24.432 207.804 21.456 207.804 17.328C207.804 11.76 207.34 8.272 206.412 6.864C205.772 5.936 204.796 5.472 203.484 5.472C201.596 5.472 200.412 6.448 199.932 8.4C199.772 8.944 199.596 9.808 199.404 10.992C199.212 12.144 199.116 14.256 199.116 17.328C199.116 22.768 199.612 26.224 200.604 27.696C201.244 28.656 202.204 29.136 203.484 29.136Z" fill="white"/>
<path d="M180.06 32.544V10.752C180.06 9.53598 179.676 8.92798 178.908 8.92798C178.588 8.92798 178.156 9.10398 177.612 9.45598L175.788 10.656C175.468 10.88 175.1 10.992 174.684 10.992C174.3 10.992 173.932 10.72 173.58 10.176L172.236 8.01598C171.692 7.11998 171.868 6.39998 172.764 5.85598L181.02 0.71998C181.276 0.55998 181.548 0.47998 181.836 0.47998H184.188C184.668 0.47998 185.052 0.623981 185.34 0.911981C185.628 1.19998 185.772 1.58398 185.772 2.06398V32.544C185.772 33.024 185.628 33.408 185.34 33.696C185.052 33.984 184.668 34.128 184.188 34.128H181.644C181.164 34.128 180.78 33.984 180.492 33.696C180.204 33.408 180.06 33.024 180.06 32.544Z" fill="white"/>
<path d="M277.046 23.9674H289.092C289.282 23.9674 289.434 24.0244 289.548 24.1384C289.662 24.2524 289.719 24.4044 289.719 24.5944V26.1144C289.719 26.3297 289.624 26.5007 289.434 26.6274L282.442 31.2444C281.986 31.5484 281.758 31.8017 281.758 32.0044C281.758 32.2577 282.1 32.3844 282.784 32.3844H289.092C289.282 32.3844 289.434 32.4414 289.548 32.5554C289.662 32.6694 289.719 32.8214 289.719 33.0114V34.2464C289.719 34.4364 289.662 34.5884 289.548 34.7024C289.434 34.8164 289.282 34.8734 289.092 34.8734H277.046C276.856 34.8734 276.704 34.8164 276.59 34.7024C276.476 34.5884 276.419 34.4364 276.419 34.2464V32.8594C276.419 32.6314 276.514 32.4541 276.704 32.3274L283.981 27.5774C284.437 27.2734 284.665 27.0201 284.665 26.8174C284.665 26.5641 284.323 26.4374 283.639 26.4374H277.046C276.856 26.4374 276.704 26.3804 276.59 26.2664C276.476 26.1524 276.419 26.0004 276.419 25.8104V24.5944C276.419 24.4044 276.476 24.2524 276.59 24.1384C276.704 24.0244 276.856 23.9674 277.046 23.9674Z" fill="white"/>
<path d="M281.416 22.1413C277.92 22.1413 276.172 20.4187 276.172 16.9733C276.172 13.5153 277.92 11.7863 281.416 11.7863H289.092C289.282 11.7863 289.434 11.8433 289.548 11.9573C289.662 12.0713 289.719 12.2233 289.719 12.4133V13.6483C289.719 13.8383 289.662 13.9903 289.548 14.1043C289.434 14.2183 289.282 14.2753 289.092 14.2753H281.549C279.561 14.2753 278.566 15.1747 278.566 16.9733C278.566 17.9487 278.832 18.639 279.364 19.0443C279.909 19.4496 280.637 19.6523 281.549 19.6523H289.092C289.282 19.6523 289.434 19.7093 289.548 19.8233C289.662 19.9373 289.719 20.0893 289.719 20.2793V21.5143C289.719 21.7043 289.662 21.8563 289.548 21.9703C289.434 22.0843 289.282 22.1413 289.092 22.1413H281.416Z" fill="white"/>
<path d="M276.135 5.53668C276.135 4.46001 276.356 3.46568 276.8 2.55368C277.256 1.64168 277.965 0.919676 278.928 0.387676C279.08 0.299009 279.225 0.280009 279.365 0.330676C279.517 0.381343 279.637 0.482676 279.726 0.634676L280.277 1.66068C280.34 1.78734 280.372 1.92668 280.372 2.07868C280.372 2.23068 280.27 2.37634 280.068 2.51568C279.498 2.93368 279.092 3.37701 278.852 3.84568C278.611 4.31434 278.491 4.90968 278.491 5.63168C278.491 6.30301 278.567 6.77801 278.719 7.05668C278.883 7.33534 279.073 7.53168 279.289 7.64568C279.504 7.75968 279.77 7.81668 280.087 7.81668C280.416 7.81668 280.701 7.74701 280.942 7.60768C281.296 7.36701 281.626 6.73368 281.93 5.70768C282.031 5.34034 282.139 4.90334 282.253 4.39668C282.379 3.89001 282.544 3.41501 282.747 2.97168C282.949 2.54101 283.209 2.16101 283.526 1.83168C284.184 1.14768 285.039 0.805676 286.091 0.805676C287.37 0.805676 288.371 1.27434 289.093 2.21168C289.751 3.04768 290.081 4.11801 290.081 5.42268C290.081 7.48734 289.283 9.08334 287.687 10.2107C287.395 10.4007 287.136 10.35 286.908 10.0587L286.11 8.97568C286.021 8.87434 285.977 8.74768 285.977 8.59568C285.977 8.45634 286.021 8.34868 286.11 8.27268C286.211 8.20934 286.287 8.15234 286.338 8.10168L286.566 7.93068C286.958 7.53801 287.25 7.15801 287.44 6.79068C287.63 6.42334 287.725 6.03068 287.725 5.61268C287.725 5.20734 287.699 4.88434 287.649 4.64368C287.598 4.40301 287.516 4.18768 287.402 3.99768C287.148 3.57968 286.749 3.37068 286.205 3.37068C285.749 3.37068 285.394 3.57968 285.141 3.99768C284.862 4.45368 284.621 5.07434 284.419 5.85968C284.229 6.64501 284.026 7.29101 283.811 7.79768C283.608 8.31701 283.348 8.77301 283.032 9.16568C282.322 10.0017 281.366 10.4197 280.163 10.4197C278.782 10.4197 277.75 9.93834 277.066 8.97568C276.445 8.11434 276.135 6.96801 276.135 5.53668Z" fill="white"/>
</svg>
