<svg width="134" height="44" viewBox="0 0 134 44" fill="none" xmlns="http://www.w3.org/2000/svg">
<rect width="134" height="26" fill="white"/>
<path d="M4.45 17.676V17.352C4.45 15.912 5.056 14.52 6.268 13.176C6.628 12.792 6.982 12.432 7.33 12.096C7.678 11.76 8.014 11.424 8.338 11.088C8.674 10.74 8.95 10.38 9.166 10.008C9.382 9.636 9.496 9.306 9.508 9.018C9.532 8.454 9.412 8.034 9.148 7.758C8.872 7.482 8.5 7.344 8.032 7.344C7.564 7.344 7.234 7.482 7.042 7.758C6.862 8.034 6.748 8.316 6.7 8.604C6.628 9.096 6.412 9.342 6.052 9.342H5.098C4.918 9.342 4.774 9.288 4.666 9.18C4.558 9.072 4.51 8.934 4.522 8.766C4.618 7.734 4.96 6.906 5.548 6.282C6.172 5.622 6.994 5.292 8.014 5.292C9.49 5.292 10.558 5.862 11.218 7.002C11.53 7.566 11.674 8.208 11.65 8.928C11.626 9.636 11.494 10.218 11.254 10.674C11.014 11.13 10.744 11.52 10.444 11.844C9.964 12.36 9.508 12.828 9.076 13.248C7.996 14.304 7.318 15.042 7.042 15.462C6.934 15.63 6.916 15.768 6.988 15.876C7.072 15.984 7.216 16.038 7.42 16.038H10.804C10.984 16.038 11.128 16.092 11.236 16.2C11.344 16.308 11.398 16.452 11.398 16.632V17.406C11.398 17.586 11.344 17.73 11.236 17.838C11.128 17.946 10.984 18 10.804 18H4.774C4.558 18 4.45 17.892 4.45 17.676ZM19.7355 16.272C19.2075 17.544 18.1635 18.18 16.6035 18.18C15.6195 18.18 14.8575 17.934 14.3175 17.442C13.7775 16.938 13.3995 16.212 13.1835 15.264C12.9675 14.304 12.8595 13.116 12.8595 11.7C12.8595 10.476 12.9195 9.522 13.0395 8.838C13.2915 7.434 13.7115 6.48 14.2995 5.976C14.8875 5.46 15.6735 5.202 16.6575 5.202C17.6535 5.202 18.4155 5.454 18.9435 5.958C19.4715 6.45 19.8435 7.17 20.0595 8.118C20.2875 9.066 20.4015 10.26 20.4015 11.7C20.4015 12.936 20.3415 13.89 20.2215 14.562C20.1015 15.222 19.9395 15.792 19.7355 16.272ZM16.6395 16.128C17.3235 16.128 17.7675 15.768 17.9715 15.048C18.1635 14.364 18.2595 13.248 18.2595 11.7C18.2595 9.612 18.0855 8.304 17.7375 7.776C17.4975 7.428 17.1315 7.254 16.6395 7.254C15.9315 7.254 15.4875 7.62 15.3075 8.352C15.2475 8.556 15.1815 8.88 15.1095 9.324C15.0375 9.756 15.0015 10.548 15.0015 11.7C15.0015 13.74 15.1875 15.036 15.5595 15.588C15.7995 15.948 16.1595 16.128 16.6395 16.128ZM21.5887 17.676V17.352C21.5887 15.912 22.1947 14.52 23.4067 13.176C23.7667 12.792 24.1207 12.432 24.4687 12.096C24.8167 11.76 25.1527 11.424 25.4767 11.088C25.8127 10.74 26.0887 10.38 26.3047 10.008C26.5207 9.636 26.6347 9.306 26.6467 9.018C26.6707 8.454 26.5507 8.034 26.2867 7.758C26.0107 7.482 25.6387 7.344 25.1707 7.344C24.7027 7.344 24.3727 7.482 24.1807 7.758C24.0007 8.034 23.8867 8.316 23.8387 8.604C23.7667 9.096 23.5507 9.342 23.1907 9.342H22.2367C22.0567 9.342 21.9127 9.288 21.8047 9.18C21.6967 9.072 21.6487 8.934 21.6607 8.766C21.7567 7.734 22.0987 6.906 22.6867 6.282C23.3107 5.622 24.1327 5.292 25.1527 5.292C26.6287 5.292 27.6967 5.862 28.3567 7.002C28.6687 7.566 28.8127 8.208 28.7887 8.928C28.7647 9.636 28.6327 10.218 28.3927 10.674C28.1527 11.13 27.8827 11.52 27.5827 11.844C27.1027 12.36 26.6467 12.828 26.2147 13.248C25.1347 14.304 24.4567 15.042 24.1807 15.462C24.0727 15.63 24.0547 15.768 24.1267 15.876C24.2107 15.984 24.3547 16.038 24.5587 16.038H27.9427C28.1227 16.038 28.2667 16.092 28.3747 16.2C28.4827 16.308 28.5367 16.452 28.5367 16.632V17.406C28.5367 17.586 28.4827 17.73 28.3747 17.838C28.2667 17.946 28.1227 18 27.9427 18H21.9127C21.6967 18 21.5887 17.892 21.5887 17.676ZM35.1102 13.932C35.1102 12.552 34.6122 11.862 33.6162 11.862C33.0882 11.862 32.7042 12.012 32.4642 12.312C32.3082 12.528 32.1162 12.636 31.8882 12.636H30.8802C30.7002 12.636 30.5562 12.582 30.4482 12.474C30.3402 12.366 30.2862 12.222 30.2862 12.042V5.994C30.2862 5.814 30.3402 5.67 30.4482 5.562C30.5562 5.454 30.7002 5.4 30.8802 5.4H36.2082C36.3882 5.4 36.5322 5.454 36.6402 5.562C36.7482 5.67 36.8022 5.814 36.8022 5.994V6.768C36.8022 6.948 36.7482 7.092 36.6402 7.2C36.5322 7.308 36.3882 7.362 36.2082 7.362H33.0222C32.8422 7.362 32.6982 7.416 32.5902 7.524C32.4822 7.632 32.4282 7.776 32.4282 7.956V9.972C32.4282 10.176 32.5062 10.236 32.6622 10.152C32.9982 9.984 33.4002 9.9 33.8682 9.9C34.3482 9.9 34.8162 10.008 35.2722 10.224C35.7282 10.428 36.1062 10.716 36.4062 11.088C36.9822 11.808 37.2702 12.756 37.2702 13.932C37.2702 15.204 36.9222 16.212 36.2262 16.956C35.5062 17.724 34.5102 18.108 33.2382 18.108C32.5902 18.108 31.9662 17.964 31.3662 17.676C30.7782 17.388 30.2862 16.992 29.8902 16.488C29.7702 16.356 29.7282 16.218 29.7642 16.074C29.8002 15.93 29.8902 15.81 30.0342 15.714L30.8622 15.192C30.9702 15.12 31.0962 15.084 31.2402 15.084C31.3962 15.084 31.5522 15.174 31.7082 15.354C32.1762 15.822 32.7162 16.056 33.3282 16.056C33.9522 16.056 34.4022 15.864 34.6782 15.48C34.9662 15.084 35.1102 14.568 35.1102 13.932ZM41.5308 16.758C41.5308 17.154 41.3868 17.496 41.0988 17.784C40.8108 18.06 40.4628 18.198 40.0548 18.198C39.6588 18.198 39.3168 18.06 39.0288 17.784C38.7528 17.496 38.6148 17.148 38.6148 16.74C38.6148 16.332 38.7528 15.99 39.0288 15.714C39.3048 15.438 39.6468 15.3 40.0548 15.3C40.4748 15.3 40.8228 15.444 41.0988 15.732C41.3868 16.008 41.5308 16.35 41.5308 16.758ZM45.6658 17.406V9.234C45.6658 8.778 45.5218 8.55 45.2338 8.55C45.1138 8.55 44.9518 8.616 44.7478 8.748L44.0638 9.198C43.9438 9.282 43.8058 9.324 43.6498 9.324C43.5058 9.324 43.3678 9.222 43.2358 9.018L42.7318 8.208C42.5278 7.872 42.5938 7.602 42.9298 7.398L46.0258 5.472C46.1218 5.412 46.2238 5.382 46.3318 5.382H47.2138C47.3938 5.382 47.5378 5.436 47.6458 5.544C47.7538 5.652 47.8078 5.796 47.8078 5.976V17.406C47.8078 17.586 47.7538 17.73 47.6458 17.838C47.5378 17.946 47.3938 18 47.2138 18H46.2598C46.0798 18 45.9358 17.946 45.8278 17.838C45.7198 17.73 45.6658 17.586 45.6658 17.406ZM57.5461 16.272C57.0181 17.544 55.9741 18.18 54.4141 18.18C53.4301 18.18 52.6681 17.934 52.1281 17.442C51.5881 16.938 51.2101 16.212 50.9941 15.264C50.7781 14.304 50.6701 13.116 50.6701 11.7C50.6701 10.476 50.7301 9.522 50.8501 8.838C51.1021 7.434 51.5221 6.48 52.1101 5.976C52.6981 5.46 53.4841 5.202 54.4681 5.202C55.4641 5.202 56.2261 5.454 56.7541 5.958C57.2821 6.45 57.6541 7.17 57.8701 8.118C58.0981 9.066 58.2121 10.26 58.2121 11.7C58.2121 12.936 58.1521 13.89 58.0321 14.562C57.9121 15.222 57.7501 15.792 57.5461 16.272ZM54.4501 16.128C55.1341 16.128 55.5781 15.768 55.7821 15.048C55.9741 14.364 56.0701 13.248 56.0701 11.7C56.0701 9.612 55.8961 8.304 55.5481 7.776C55.3081 7.428 54.9421 7.254 54.4501 7.254C53.7421 7.254 53.2981 7.62 53.1181 8.352C53.0581 8.556 52.9921 8.88 52.9201 9.324C52.8481 9.756 52.8121 10.548 52.8121 11.7C52.8121 13.74 52.9981 15.036 53.3701 15.588C53.6101 15.948 53.9701 16.128 54.4501 16.128ZM62.7652 16.758C62.7652 17.154 62.6212 17.496 62.3332 17.784C62.0452 18.06 61.6972 18.198 61.2892 18.198C60.8932 18.198 60.5512 18.06 60.2632 17.784C59.9872 17.496 59.8492 17.148 59.8492 16.74C59.8492 16.332 59.9872 15.99 60.2632 15.714C60.5392 15.438 60.8812 15.3 61.2892 15.3C61.7092 15.3 62.0572 15.444 62.3332 15.732C62.6212 16.008 62.7652 16.35 62.7652 16.758ZM64.1102 17.676V17.352C64.1102 15.912 64.7162 14.52 65.9282 13.176C66.2882 12.792 66.6422 12.432 66.9902 12.096C67.3382 11.76 67.6742 11.424 67.9982 11.088C68.3342 10.74 68.6102 10.38 68.8262 10.008C69.0422 9.636 69.1562 9.306 69.1682 9.018C69.1922 8.454 69.0722 8.034 68.8082 7.758C68.5322 7.482 68.1602 7.344 67.6922 7.344C67.2242 7.344 66.8942 7.482 66.7022 7.758C66.5222 8.034 66.4082 8.316 66.3602 8.604C66.2882 9.096 66.0722 9.342 65.7122 9.342H64.7582C64.5782 9.342 64.4342 9.288 64.3262 9.18C64.2182 9.072 64.1702 8.934 64.1822 8.766C64.2782 7.734 64.6202 6.906 65.2082 6.282C65.8322 5.622 66.6542 5.292 67.6742 5.292C69.1502 5.292 70.2182 5.862 70.8782 7.002C71.1902 7.566 71.3342 8.208 71.3102 8.928C71.2862 9.636 71.1542 10.218 70.9142 10.674C70.6742 11.13 70.4042 11.52 70.1042 11.844C69.6242 12.36 69.1682 12.828 68.7362 13.248C67.6562 14.304 66.9782 15.042 66.7022 15.462C66.5942 15.63 66.5762 15.768 66.6482 15.876C66.7322 15.984 66.8762 16.038 67.0802 16.038H70.4642C70.6442 16.038 70.7882 16.092 70.8962 16.2C71.0042 16.308 71.0582 16.452 71.0582 16.632V17.406C71.0582 17.586 71.0042 17.73 70.8962 17.838C70.7882 17.946 70.6442 18 70.4642 18H64.4342C64.2182 18 64.1102 17.892 64.1102 17.676ZM77.6317 13.932C77.6317 12.552 77.1337 11.862 76.1377 11.862C75.6097 11.862 75.2257 12.012 74.9857 12.312C74.8297 12.528 74.6377 12.636 74.4097 12.636H73.4017C73.2217 12.636 73.0777 12.582 72.9697 12.474C72.8617 12.366 72.8077 12.222 72.8077 12.042V5.994C72.8077 5.814 72.8617 5.67 72.9697 5.562C73.0777 5.454 73.2217 5.4 73.4017 5.4H78.7297C78.9097 5.4 79.0537 5.454 79.1617 5.562C79.2697 5.67 79.3237 5.814 79.3237 5.994V6.768C79.3237 6.948 79.2697 7.092 79.1617 7.2C79.0537 7.308 78.9097 7.362 78.7297 7.362H75.5437C75.3637 7.362 75.2197 7.416 75.1117 7.524C75.0037 7.632 74.9497 7.776 74.9497 7.956V9.972C74.9497 10.176 75.0277 10.236 75.1837 10.152C75.5197 9.984 75.9217 9.9 76.3897 9.9C76.8697 9.9 77.3377 10.008 77.7937 10.224C78.2497 10.428 78.6277 10.716 78.9277 11.088C79.5037 11.808 79.7917 12.756 79.7917 13.932C79.7917 15.204 79.4437 16.212 78.7477 16.956C78.0277 17.724 77.0317 18.108 75.7597 18.108C75.1117 18.108 74.4877 17.964 73.8877 17.676C73.2997 17.388 72.8077 16.992 72.4117 16.488C72.2917 16.356 72.2497 16.218 72.2857 16.074C72.3217 15.93 72.4117 15.81 72.5557 15.714L73.3837 15.192C73.4917 15.12 73.6177 15.084 73.7617 15.084C73.9177 15.084 74.0737 15.174 74.2297 15.354C74.6977 15.822 75.2377 16.056 75.8497 16.056C76.4737 16.056 76.9237 15.864 77.1997 15.48C77.4877 15.084 77.6317 14.568 77.6317 13.932ZM82.2163 14.184V13.05C82.2163 12.87 82.2703 12.726 82.3783 12.618C82.4863 12.51 82.6303 12.456 82.8103 12.456H87.4723C87.6523 12.456 87.7963 12.51 87.9043 12.618C88.0123 12.726 88.0663 12.87 88.0663 13.05V14.184C88.0663 14.364 88.0123 14.508 87.9043 14.616C87.7963 14.724 87.6523 14.778 87.4723 14.778H82.8103C82.6303 14.778 82.4863 14.724 82.3783 14.616C82.2703 14.508 82.2163 14.364 82.2163 14.184ZM92.392 17.406V9.234C92.392 8.778 92.248 8.55 91.96 8.55C91.84 8.55 91.678 8.616 91.474 8.748L90.79 9.198C90.67 9.282 90.532 9.324 90.376 9.324C90.232 9.324 90.094 9.222 89.962 9.018L89.458 8.208C89.254 7.872 89.32 7.602 89.656 7.398L92.752 5.472C92.848 5.412 92.95 5.382 93.058 5.382H93.94C94.12 5.382 94.264 5.436 94.372 5.544C94.48 5.652 94.534 5.796 94.534 5.976V17.406C94.534 17.586 94.48 17.73 94.372 17.838C94.264 17.946 94.12 18 93.94 18H92.986C92.806 18 92.662 17.946 92.554 17.838C92.446 17.73 92.392 17.586 92.392 17.406ZM104.272 16.272C103.744 17.544 102.7 18.18 101.14 18.18C100.156 18.18 99.3942 17.934 98.8542 17.442C98.3142 16.938 97.9362 16.212 97.7202 15.264C97.5042 14.304 97.3962 13.116 97.3962 11.7C97.3962 10.476 97.4562 9.522 97.5762 8.838C97.8282 7.434 98.2482 6.48 98.8362 5.976C99.4242 5.46 100.21 5.202 101.194 5.202C102.19 5.202 102.952 5.454 103.48 5.958C104.008 6.45 104.38 7.17 104.596 8.118C104.824 9.066 104.938 10.26 104.938 11.7C104.938 12.936 104.878 13.89 104.758 14.562C104.638 15.222 104.476 15.792 104.272 16.272ZM101.176 16.128C101.86 16.128 102.304 15.768 102.508 15.048C102.7 14.364 102.796 13.248 102.796 11.7C102.796 9.612 102.622 8.304 102.274 7.776C102.034 7.428 101.668 7.254 101.176 7.254C100.468 7.254 100.024 7.62 99.8442 8.352C99.7842 8.556 99.7182 8.88 99.6462 9.324C99.5742 9.756 99.5382 10.548 99.5382 11.7C99.5382 13.74 99.7242 15.036 100.096 15.588C100.336 15.948 100.696 16.128 101.176 16.128ZM109.491 16.758C109.491 17.154 109.347 17.496 109.059 17.784C108.771 18.06 108.423 18.198 108.015 18.198C107.619 18.198 107.277 18.06 106.989 17.784C106.713 17.496 106.575 17.148 106.575 16.74C106.575 16.332 106.713 15.99 106.989 15.714C107.265 15.438 107.607 15.3 108.015 15.3C108.435 15.3 108.783 15.444 109.059 15.732C109.347 16.008 109.491 16.35 109.491 16.758ZM110.836 17.676V17.352C110.836 15.912 111.442 14.52 112.654 13.176C113.014 12.792 113.368 12.432 113.716 12.096C114.064 11.76 114.4 11.424 114.724 11.088C115.06 10.74 115.336 10.38 115.552 10.008C115.768 9.636 115.882 9.306 115.894 9.018C115.918 8.454 115.798 8.034 115.534 7.758C115.258 7.482 114.886 7.344 114.418 7.344C113.95 7.344 113.62 7.482 113.428 7.758C113.248 8.034 113.134 8.316 113.086 8.604C113.014 9.096 112.798 9.342 112.438 9.342H111.484C111.304 9.342 111.16 9.288 111.052 9.18C110.944 9.072 110.896 8.934 110.908 8.766C111.004 7.734 111.346 6.906 111.934 6.282C112.558 5.622 113.38 5.292 114.4 5.292C115.876 5.292 116.944 5.862 117.604 7.002C117.916 7.566 118.06 8.208 118.036 8.928C118.012 9.636 117.88 10.218 117.64 10.674C117.4 11.13 117.13 11.52 116.83 11.844C116.35 12.36 115.894 12.828 115.462 13.248C114.382 14.304 113.704 15.042 113.428 15.462C113.32 15.63 113.302 15.768 113.374 15.876C113.458 15.984 113.602 16.038 113.806 16.038H117.19C117.37 16.038 117.514 16.092 117.622 16.2C117.73 16.308 117.784 16.452 117.784 16.632V17.406C117.784 17.586 117.73 17.73 117.622 17.838C117.514 17.946 117.37 18 117.19 18H111.16C110.944 18 110.836 17.892 110.836 17.676ZM123.206 18.18C121.286 18.18 120.062 17.19 119.534 15.21C119.234 14.154 119.162 12.624 119.318 10.62C119.414 9.492 119.654 8.478 120.038 7.578C120.446 6.606 121.088 5.916 121.964 5.508C122.42 5.304 122.936 5.202 123.512 5.202C124.1 5.202 124.658 5.334 125.186 5.598C125.714 5.862 126.152 6.204 126.5 6.624C126.608 6.756 126.65 6.894 126.626 7.038C126.602 7.17 126.524 7.284 126.392 7.38L125.654 7.956C125.546 8.028 125.426 8.064 125.294 8.064C125.174 8.064 125.042 7.98 124.898 7.812C124.55 7.404 124.124 7.2 123.62 7.2C123.128 7.2 122.738 7.314 122.45 7.542C122.174 7.77 121.958 8.058 121.802 8.406C121.562 8.922 121.406 9.678 121.334 10.674C121.322 10.854 121.364 10.944 121.46 10.944C121.52 10.944 121.598 10.914 121.694 10.854C121.862 10.71 122.096 10.596 122.396 10.512C122.696 10.428 123.038 10.386 123.422 10.386C123.818 10.386 124.232 10.482 124.664 10.674C125.108 10.866 125.486 11.13 125.798 11.466C126.422 12.162 126.734 13.056 126.734 14.148C126.734 15.288 126.434 16.236 125.834 16.992C125.186 17.784 124.31 18.18 123.206 18.18ZM123.062 16.128C123.578 16.128 123.968 15.924 124.232 15.516C124.448 15.18 124.556 14.724 124.556 14.148C124.556 13.344 124.298 12.786 123.782 12.474C123.602 12.366 123.38 12.312 123.116 12.312C122.624 12.312 122.24 12.48 121.964 12.816C121.688 13.14 121.556 13.572 121.568 14.112C121.568 15.012 121.826 15.624 122.342 15.948C122.534 16.068 122.774 16.128 123.062 16.128Z" fill="#333333"/>
<rect width="111" height="19" transform="translate(0 25)" fill="white"/>
<path d="M9.4668 39.6055C8.72461 39.6055 8.03711 39.4766 7.4043 39.2188C6.77148 38.9609 6.21875 38.5996 5.74609 38.1348C5.27734 37.6699 4.91211 37.123 4.65039 36.4941C4.39258 35.8613 4.26367 35.1758 4.26367 34.4375C4.26367 33.6914 4.39453 33.0039 4.65625 32.375C4.91797 31.7461 5.28516 31.1992 5.75781 30.7344C6.23438 30.2695 6.79492 29.9102 7.43945 29.6562C8.08398 29.3984 8.78516 29.2695 9.54297 29.2695C10.2422 29.2695 10.9004 29.3789 11.5176 29.5977C12.1387 29.8164 12.6855 30.1309 13.1582 30.541C13.6348 30.9512 14.0078 31.4492 14.2773 32.0352C14.5508 32.6172 14.6875 33.2734 14.6875 34.0039C14.6875 34.6211 14.5898 35.166 14.3945 35.6387C14.1992 36.1074 13.9297 36.4746 13.5859 36.7402C13.2461 37.0059 12.8574 37.1387 12.4199 37.1387C12.1035 37.1387 11.7891 37.0625 11.4766 36.9102C11.1641 36.7539 10.9492 36.5254 10.832 36.2246H10.2988L10.498 35.6445V32.8848L10.2871 32.3047H10.4746V31.8359H11.7168V35.082C11.7168 35.3438 11.7754 35.5508 11.8926 35.7031C12.0098 35.8555 12.166 35.9316 12.3613 35.9316C12.6035 35.9316 12.8047 35.8281 12.9648 35.6211C13.125 35.4102 13.2441 35.1465 13.3223 34.8301C13.4043 34.5098 13.4453 34.1895 13.4453 33.8691C13.4453 33.3379 13.3438 32.8613 13.1406 32.4395C12.9414 32.0176 12.6641 31.6602 12.3086 31.3672C11.9531 31.0703 11.541 30.8457 11.0723 30.6934C10.6074 30.5371 10.1113 30.459 9.58398 30.459C8.98633 30.459 8.4375 30.5566 7.9375 30.752C7.44141 30.9434 7.01172 31.2168 6.64844 31.5723C6.28516 31.9277 6.00391 32.3496 5.80469 32.8379C5.60547 33.3262 5.50586 33.8652 5.50586 34.4551C5.50586 35.0371 5.60352 35.5723 5.79883 36.0605C5.99414 36.5449 6.26562 36.9629 6.61328 37.3145C6.96484 37.666 7.375 37.9375 7.84375 38.1289C8.3125 38.3203 8.81641 38.416 9.35547 38.416C9.70703 38.416 10.0488 38.375 10.3809 38.293C10.7168 38.2109 11.0625 38.0938 11.418 37.9414L11.9863 39.0254C11.7285 39.1934 11.3672 39.332 10.9023 39.4414C10.4414 39.5508 9.96289 39.6055 9.4668 39.6055ZM9.0918 37.1387C8.63477 37.1387 8.23047 37.0215 7.87891 36.7871C7.52734 36.5488 7.25 36.2285 7.04688 35.8262C6.84766 35.4199 6.74805 34.9648 6.74805 34.4609C6.74805 33.9297 6.85352 33.4629 7.06445 33.0605C7.27539 32.6543 7.55664 32.3379 7.9082 32.1113C8.25977 31.8848 8.64648 31.7715 9.06836 31.7715C9.50586 31.7715 9.89258 31.8906 10.2285 32.1289C10.5645 32.3672 10.8281 32.6875 11.0195 33.0898C11.2109 33.4922 11.3066 33.9414 11.3066 34.4375C11.3066 34.7656 11.2598 35.0898 11.166 35.4102C11.0723 35.7305 10.9336 36.0215 10.75 36.2832C10.5664 36.5449 10.3359 36.7539 10.0586 36.9102C9.78125 37.0625 9.45898 37.1387 9.0918 37.1387ZM9.40234 35.7031C9.71094 35.7031 9.96289 35.5918 10.1582 35.3691C10.3574 35.1465 10.457 34.8379 10.457 34.4434C10.457 34.0645 10.3633 33.7637 10.1758 33.541C9.98828 33.3184 9.73242 33.207 9.4082 33.207C9.07227 33.207 8.80273 33.3242 8.59961 33.5586C8.40039 33.793 8.30078 34.0898 8.30078 34.4492C8.30078 34.8125 8.40234 35.1133 8.60547 35.3516C8.80859 35.5859 9.07422 35.7031 9.40234 35.7031ZM21.413 32.192H26.393V33.404H21.413V32.192ZM21.413 34.484H26.609V35.768H21.413V34.484ZM23.153 27.836H24.533V39.068H23.153V27.836ZM20.705 29.864H27.077V36.176H25.697V31.148H22.013V36.236H20.705V29.864ZM16.265 30.032H19.865V31.328H16.265V30.032ZM17.717 27.812H19.121V30.632H17.717V27.812ZM19.241 32.828C19.329 32.884 19.449 32.976 19.601 33.104C19.753 33.232 19.917 33.372 20.093 33.524C20.269 33.668 20.429 33.804 20.573 33.932C20.717 34.06 20.817 34.152 20.873 34.208L20.033 35.372C19.945 35.244 19.829 35.096 19.685 34.928C19.549 34.76 19.405 34.588 19.253 34.412C19.101 34.236 18.953 34.072 18.809 33.92C18.673 33.76 18.549 33.628 18.437 33.524L19.241 32.828ZM19.337 30.032H19.613L19.853 29.972L20.657 30.488C20.385 31.264 20.025 32.008 19.577 32.72C19.137 33.424 18.653 34.064 18.125 34.64C17.597 35.216 17.053 35.692 16.493 36.068C16.461 35.94 16.401 35.788 16.313 35.612C16.233 35.428 16.149 35.252 16.061 35.084C15.973 34.916 15.893 34.788 15.821 34.7C16.325 34.404 16.805 34.024 17.261 33.56C17.725 33.088 18.137 32.572 18.497 32.012C18.865 31.444 19.145 30.868 19.337 30.284V30.032ZM17.717 34.136L19.121 32.444V39.08H17.717V34.136ZM32.873 28.136H34.385V37.52H32.873V28.136ZM28.781 30.728H30.269V38.936H28.781V30.728ZM37.109 30.704H38.609V38.9H37.109V30.704ZM29.513 36.656H37.781V38.132H29.513V36.656ZM46.841 28.292C46.825 28.412 46.809 28.548 46.793 28.7C46.785 28.844 46.777 28.992 46.769 29.144C46.761 29.304 46.753 29.52 46.745 29.792C46.737 30.056 46.733 30.348 46.733 30.668C46.733 30.988 46.733 31.304 46.733 31.616C46.733 31.928 46.733 32.212 46.733 32.468C46.733 32.804 46.741 33.18 46.757 33.596C46.773 34.004 46.793 34.42 46.817 34.844C46.849 35.26 46.873 35.652 46.889 36.02C46.913 36.38 46.925 36.68 46.925 36.92C46.925 37.256 46.837 37.564 46.661 37.844C46.485 38.116 46.221 38.332 45.869 38.492C45.525 38.652 45.089 38.732 44.561 38.732C43.601 38.732 42.873 38.556 42.377 38.204C41.881 37.852 41.633 37.36 41.633 36.728C41.633 36.32 41.749 35.964 41.981 35.66C42.221 35.348 42.561 35.104 43.001 34.928C43.449 34.752 43.981 34.664 44.597 34.664C45.253 34.664 45.865 34.736 46.433 34.88C47.009 35.016 47.533 35.196 48.005 35.42C48.477 35.644 48.897 35.88 49.265 36.128C49.633 36.376 49.945 36.6 50.201 36.8L49.337 38.144C49.049 37.872 48.725 37.604 48.365 37.34C48.013 37.076 47.625 36.836 47.201 36.62C46.785 36.404 46.341 36.232 45.869 36.104C45.405 35.968 44.913 35.9 44.393 35.9C43.977 35.9 43.653 35.972 43.421 36.116C43.197 36.26 43.085 36.436 43.085 36.644C43.085 36.796 43.133 36.928 43.229 37.04C43.325 37.152 43.465 37.236 43.649 37.292C43.833 37.348 44.065 37.376 44.345 37.376C44.561 37.376 44.745 37.352 44.897 37.304C45.057 37.256 45.181 37.168 45.269 37.04C45.357 36.912 45.401 36.732 45.401 36.5C45.401 36.324 45.393 36.072 45.377 35.744C45.369 35.416 45.357 35.056 45.341 34.664C45.325 34.264 45.309 33.872 45.293 33.488C45.277 33.104 45.269 32.764 45.269 32.468C45.269 32.18 45.269 31.88 45.269 31.568C45.277 31.248 45.281 30.932 45.281 30.62C45.281 30.308 45.281 30.024 45.281 29.768C45.289 29.504 45.293 29.288 45.293 29.12C45.293 29.008 45.285 28.872 45.269 28.712C45.261 28.544 45.245 28.404 45.221 28.292H46.841ZM41.861 29.42C42.077 29.452 42.317 29.484 42.581 29.516C42.845 29.548 43.113 29.58 43.385 29.612C43.665 29.636 43.929 29.656 44.177 29.672C44.425 29.68 44.641 29.684 44.825 29.684C45.641 29.684 46.453 29.66 47.261 29.612C48.077 29.556 48.921 29.456 49.793 29.312L49.781 30.692C49.373 30.748 48.901 30.8 48.365 30.848C47.829 30.896 47.257 30.936 46.649 30.968C46.049 30.992 45.445 31.004 44.837 31.004C44.589 31.004 44.281 30.996 43.913 30.98C43.553 30.956 43.193 30.928 42.833 30.896C42.473 30.856 42.161 30.82 41.897 30.788L41.861 29.42ZM41.801 32.012C41.993 32.044 42.221 32.076 42.485 32.108C42.749 32.14 43.017 32.164 43.289 32.18C43.569 32.196 43.833 32.212 44.081 32.228C44.329 32.236 44.533 32.24 44.693 32.24C45.437 32.24 46.109 32.224 46.709 32.192C47.317 32.16 47.885 32.12 48.413 32.072C48.941 32.024 49.449 31.968 49.937 31.904L49.925 33.32C49.509 33.368 49.105 33.408 48.713 33.44C48.329 33.472 47.933 33.5 47.525 33.524C47.125 33.548 46.693 33.564 46.229 33.572C45.765 33.58 45.245 33.584 44.669 33.584C44.437 33.584 44.149 33.58 43.805 33.572C43.461 33.556 43.109 33.536 42.749 33.512C42.397 33.488 42.085 33.46 41.813 33.428L41.801 32.012ZM52.997 28.856C53.165 28.88 53.345 28.896 53.537 28.904C53.729 28.912 53.913 28.916 54.089 28.916C54.217 28.916 54.409 28.916 54.665 28.916C54.921 28.908 55.209 28.9 55.529 28.892C55.857 28.884 56.181 28.876 56.501 28.868C56.821 28.86 57.109 28.852 57.365 28.844C57.629 28.828 57.833 28.816 57.977 28.808C58.225 28.784 58.421 28.764 58.565 28.748C58.709 28.724 58.817 28.7 58.889 28.676L59.669 29.744C59.533 29.832 59.393 29.92 59.249 30.008C59.105 30.096 58.965 30.192 58.829 30.296C58.669 30.408 58.477 30.556 58.253 30.74C58.029 30.916 57.789 31.104 57.533 31.304C57.285 31.504 57.041 31.7 56.801 31.892C56.569 32.084 56.357 32.256 56.165 32.408C56.365 32.36 56.557 32.328 56.741 32.312C56.925 32.288 57.113 32.276 57.305 32.276C57.985 32.276 58.593 32.408 59.129 32.672C59.673 32.936 60.101 33.296 60.413 33.752C60.733 34.2 60.893 34.716 60.893 35.3C60.893 35.932 60.733 36.504 60.413 37.016C60.093 37.528 59.609 37.936 58.961 38.24C58.321 38.544 57.517 38.696 56.549 38.696C55.997 38.696 55.497 38.616 55.049 38.456C54.609 38.296 54.261 38.068 54.005 37.772C53.749 37.476 53.621 37.128 53.621 36.728C53.621 36.4 53.709 36.096 53.885 35.816C54.069 35.528 54.321 35.296 54.641 35.12C54.969 34.944 55.345 34.856 55.769 34.856C56.321 34.856 56.785 34.968 57.161 35.192C57.545 35.408 57.837 35.7 58.037 36.068C58.245 36.436 58.353 36.84 58.361 37.28L56.957 37.472C56.949 37.032 56.837 36.68 56.621 36.416C56.413 36.144 56.133 36.008 55.781 36.008C55.557 36.008 55.377 36.068 55.241 36.188C55.105 36.3 55.037 36.432 55.037 36.584C55.037 36.808 55.149 36.988 55.373 37.124C55.597 37.26 55.889 37.328 56.249 37.328C56.929 37.328 57.497 37.248 57.953 37.088C58.409 36.92 58.749 36.684 58.973 36.38C59.205 36.068 59.321 35.7 59.321 35.276C59.321 34.916 59.209 34.6 58.985 34.328C58.769 34.056 58.473 33.844 58.097 33.692C57.721 33.54 57.297 33.464 56.825 33.464C56.361 33.464 55.937 33.524 55.553 33.644C55.169 33.756 54.805 33.92 54.461 34.136C54.125 34.344 53.793 34.6 53.465 34.904C53.145 35.2 52.825 35.532 52.505 35.9L51.413 34.772C51.629 34.596 51.873 34.4 52.145 34.184C52.417 33.96 52.693 33.728 52.973 33.488C53.261 33.248 53.529 33.024 53.777 32.816C54.033 32.6 54.249 32.42 54.425 32.276C54.593 32.14 54.789 31.98 55.013 31.796C55.237 31.612 55.469 31.424 55.709 31.232C55.949 31.032 56.177 30.844 56.393 30.668C56.609 30.484 56.789 30.328 56.933 30.2C56.813 30.2 56.657 30.204 56.465 30.212C56.273 30.22 56.061 30.228 55.829 30.236C55.605 30.244 55.377 30.252 55.145 30.26C54.921 30.268 54.709 30.28 54.509 30.296C54.317 30.304 54.157 30.312 54.029 30.32C53.869 30.328 53.701 30.34 53.525 30.356C53.349 30.372 53.189 30.392 53.045 30.416L52.997 28.856ZM63.389 29.396C63.829 29.452 64.325 29.492 64.877 29.516C65.429 29.54 66.021 29.552 66.653 29.552C67.053 29.552 67.461 29.544 67.877 29.528C68.293 29.512 68.697 29.492 69.089 29.468C69.481 29.436 69.829 29.408 70.133 29.384V30.98C69.853 30.996 69.513 31.016 69.113 31.04C68.721 31.064 68.309 31.084 67.877 31.1C67.453 31.116 67.049 31.124 66.665 31.124C66.041 31.124 65.461 31.112 64.925 31.088C64.389 31.056 63.877 31.024 63.389 30.992V29.396ZM64.397 34.484C64.341 34.692 64.293 34.896 64.253 35.096C64.213 35.296 64.193 35.496 64.193 35.696C64.193 36.088 64.385 36.408 64.769 36.656C65.161 36.896 65.789 37.016 66.653 37.016C67.197 37.016 67.721 36.996 68.225 36.956C68.737 36.916 69.217 36.864 69.665 36.8C70.113 36.728 70.513 36.644 70.865 36.548L70.877 38.228C70.533 38.308 70.141 38.38 69.701 38.444C69.269 38.508 68.801 38.556 68.297 38.588C67.801 38.628 67.273 38.648 66.713 38.648C65.793 38.648 65.029 38.544 64.421 38.336C63.813 38.136 63.353 37.848 63.041 37.472C62.737 37.088 62.585 36.62 62.585 36.068C62.585 35.724 62.613 35.408 62.669 35.12C62.725 34.824 62.773 34.564 62.813 34.34L64.397 34.484ZM70.445 28.16C70.549 28.304 70.657 28.476 70.769 28.676C70.889 28.876 71.005 29.076 71.117 29.276C71.229 29.476 71.325 29.652 71.405 29.804L70.433 30.224C70.313 29.976 70.165 29.692 69.989 29.372C69.821 29.052 69.657 28.776 69.497 28.544L70.445 28.16ZM71.873 27.62C71.977 27.772 72.089 27.948 72.209 28.148C72.329 28.348 72.445 28.548 72.557 28.748C72.677 28.94 72.773 29.108 72.845 29.252L71.885 29.66C71.757 29.412 71.605 29.132 71.429 28.82C71.253 28.5 71.081 28.228 70.913 28.004L71.873 27.62ZM82.073 31.004C81.897 31.116 81.709 31.224 81.509 31.328C81.317 31.432 81.109 31.54 80.885 31.652C80.701 31.748 80.473 31.86 80.201 31.988C79.937 32.116 79.649 32.26 79.337 32.42C79.033 32.572 78.725 32.736 78.413 32.912C78.101 33.08 77.809 33.252 77.537 33.428C77.041 33.756 76.637 34.096 76.325 34.448C76.021 34.8 75.869 35.188 75.869 35.612C75.869 36.036 76.077 36.364 76.493 36.596C76.909 36.82 77.533 36.932 78.365 36.932C78.781 36.932 79.221 36.916 79.685 36.884C80.157 36.844 80.621 36.792 81.077 36.728C81.533 36.656 81.937 36.576 82.289 36.488L82.265 38.216C81.929 38.272 81.561 38.324 81.161 38.372C80.769 38.42 80.341 38.456 79.877 38.48C79.421 38.504 78.933 38.516 78.413 38.516C77.813 38.516 77.257 38.468 76.745 38.372C76.241 38.284 75.797 38.136 75.413 37.928C75.037 37.72 74.741 37.44 74.525 37.088C74.317 36.736 74.213 36.304 74.213 35.792C74.213 35.28 74.325 34.816 74.549 34.4C74.773 33.984 75.077 33.6 75.461 33.248C75.853 32.896 76.281 32.564 76.745 32.252C77.033 32.06 77.337 31.876 77.657 31.7C77.977 31.516 78.289 31.34 78.593 31.172C78.905 31.004 79.193 30.852 79.457 30.716C79.729 30.572 79.953 30.448 80.129 30.344C80.361 30.208 80.565 30.084 80.741 29.972C80.917 29.86 81.085 29.74 81.245 29.612L82.073 31.004ZM76.037 28.436C76.237 28.964 76.445 29.472 76.661 29.96C76.885 30.448 77.105 30.904 77.321 31.328C77.545 31.752 77.749 32.132 77.933 32.468L76.577 33.272C76.361 32.904 76.137 32.492 75.905 32.036C75.673 31.58 75.441 31.1 75.209 30.596C74.977 30.084 74.753 29.568 74.537 29.048L76.037 28.436ZM83.489 28.796H94.025V30.032H83.489V28.796ZM87.941 27.788H89.417V29.408H87.941V27.788ZM83.957 33.644H92.741V34.832H85.361V39.08H83.957V33.644ZM92.201 33.644H93.641V37.556C93.641 37.884 93.601 38.148 93.521 38.348C93.441 38.556 93.285 38.716 93.053 38.828C92.821 38.932 92.545 38.996 92.225 39.02C91.905 39.044 91.525 39.056 91.085 39.056C91.061 38.856 91.005 38.624 90.917 38.36C90.829 38.104 90.737 37.888 90.641 37.712C90.921 37.72 91.189 37.728 91.445 37.736C91.709 37.736 91.881 37.732 91.961 37.724C92.057 37.716 92.121 37.7 92.153 37.676C92.185 37.652 92.201 37.604 92.201 37.532V33.644ZM86.441 35.384H87.689V38.636H86.441V35.384ZM87.077 35.384H91.049V38.084H87.077V37.112H89.789V36.356H87.077V35.384ZM86.825 31.448V32.18H90.593V31.448H86.825ZM85.457 30.488H92.057V33.14H85.457V30.488ZM95.297 35.072H106.229V36.284H95.297V35.072ZM95.585 28.604H105.929V29.792H95.585V28.604ZM102.209 34.316H103.625V37.688C103.625 38.032 103.577 38.296 103.481 38.48C103.393 38.664 103.225 38.804 102.977 38.9C102.729 38.988 102.425 39.04 102.065 39.056C101.705 39.08 101.281 39.092 100.793 39.092C100.761 38.892 100.701 38.676 100.613 38.444C100.533 38.212 100.445 38.008 100.349 37.832C100.565 37.832 100.781 37.836 100.997 37.844C101.221 37.852 101.417 37.856 101.585 37.856C101.761 37.856 101.881 37.856 101.945 37.856C102.049 37.848 102.117 37.832 102.149 37.808C102.189 37.776 102.209 37.72 102.209 37.64V34.316ZM100.001 27.812H101.417V33.92H100.001V27.812ZM97.013 36.884L98.093 36.128C98.309 36.272 98.529 36.44 98.753 36.632C98.985 36.824 99.201 37.016 99.401 37.208C99.609 37.392 99.773 37.568 99.893 37.736L98.729 38.588C98.625 38.42 98.477 38.236 98.285 38.036C98.093 37.836 97.885 37.636 97.661 37.436C97.445 37.228 97.229 37.044 97.013 36.884ZM97.805 32.84V33.452H103.709V32.84H97.805ZM97.805 31.304V31.916H103.709V31.304H97.805ZM96.449 30.332H105.125V34.436H96.449V30.332Z" fill="#333333"/>
</svg>
