<svg width="252" height="52" viewBox="0 0 252 52" fill="none" xmlns="http://www.w3.org/2000/svg">
<path d="M176.736 50.7191C176.701 50.504 176.665 50.2888 176.629 50.0737C176.629 49.8944 176.593 49.6255 176.521 49.2669C176.45 48.9084 176.36 48.496 176.252 48.0299C176.145 47.5996 176.037 47.1335 175.93 46.6315L175.607 45.502C175.356 44.7849 175.607 44.4263 176.36 44.4263H178.942C179.587 44.4263 180.035 44.3367 180.286 44.1574C180.573 43.9423 180.716 43.4941 180.716 42.8128V38.0259C180.716 37.4881 180.555 37.0578 180.232 36.7351C179.91 36.4124 179.479 36.251 178.942 36.251H164.796C164.258 36.251 163.828 36.0897 163.505 35.767C163.183 35.4443 163.021 35.014 163.021 34.4762V31.8407C163.021 31.6256 162.932 31.5718 162.752 31.6794C162.573 31.7869 162.394 31.7511 162.214 31.5718C161.784 30.9622 161.103 30.1555 160.171 29.1515C159.92 28.9363 159.687 28.7212 159.471 28.5061C159.256 28.2909 159.023 28.0937 158.772 27.9144C157.948 27.1256 158.001 26.4443 158.934 25.8706C160.977 24.7232 162.967 23.3427 164.904 21.7292C165.334 21.3348 165.352 20.9403 164.958 20.5459L163.505 19.04C163.29 18.8607 163.075 18.8607 162.86 19.04L162.268 19.5778C162.017 19.7571 161.838 19.7392 161.73 19.524C160.762 18.2332 159.687 17.0499 158.503 15.9742C157.679 15.3288 157.661 14.6296 158.45 13.8766C161.748 11.2591 164.778 7.36868 167.539 2.20535C168.041 1.27309 168.758 0.950377 169.691 1.23723L174.585 2.68941C174.8 2.76113 174.836 2.9942 174.693 3.38862L174.639 3.4424V3.49619L174.585 3.54997L174.477 3.81889C174.406 3.89061 174.388 3.96232 174.424 4.03403C174.459 4.10574 174.531 4.1416 174.639 4.1416H181.846C182.204 4.1416 182.617 4.28503 183.083 4.57188C183.406 4.82287 183.495 4.75116 183.352 4.35674L183.029 3.33483C182.886 3.01212 183.011 2.81491 183.406 2.7432L188.569 1.66751C189.573 1.45237 190.272 1.86472 190.667 2.90455C190.774 3.40654 190.9 3.81889 191.043 4.1416C191.187 4.42845 191.258 4.60773 191.258 4.67945C191.294 4.71531 191.33 4.76909 191.366 4.8408L191.635 5.64757C191.706 5.791 191.76 5.9165 191.796 6.02407C192.262 6.95633 192.495 6.90255 192.495 5.86271V5.70135C192.495 5.19936 192.657 4.78702 192.979 4.46431C193.302 4.1416 193.732 3.98025 194.27 3.98025H206.318C206.784 3.98025 207.161 4.12367 207.447 4.41052L208.362 5.21729C209.079 5.82685 209.204 6.54398 208.738 7.36868C206.408 11.2412 204.256 14.5579 202.284 17.3188C201.997 17.7133 201.872 18.1256 201.908 18.5559C201.979 18.9862 202.212 19.3447 202.607 19.6316C204.866 21.4603 207.25 22.9842 209.76 24.2033C210.477 24.5618 210.531 25.0101 209.922 25.5479C208.738 26.5519 207.34 28.273 205.726 30.7112C205.655 30.8547 205.547 30.8905 205.404 30.8188C205.26 30.7471 205.188 30.7829 205.188 30.9264V34.4762C205.188 35.014 205.027 35.4443 204.704 35.767C204.382 36.0897 203.951 36.251 203.414 36.251H190.451C189.914 36.251 189.483 36.4124 189.161 36.7351C188.838 37.0578 188.677 37.4881 188.677 38.0259V45.7171C188.677 48.012 187.941 49.6793 186.471 50.7191C185.252 51.5438 183.406 51.9562 180.932 51.9562H178.081C177.292 51.9562 176.844 51.5438 176.736 50.7191ZM180.985 18.9324H187.816C188.892 18.9324 189.555 18.6814 189.806 18.1794C190.057 17.6774 189.842 16.9603 189.161 16.028C187.798 14.0918 186.615 12.0479 185.611 9.89656C185.181 8.96429 184.732 8.49816 184.266 8.49816C183.8 8.49816 183.334 9.00015 182.868 10.0041C181.685 12.5499 180.555 14.5579 179.479 16.028C178.906 16.9244 178.744 17.6416 178.995 18.1794C179.246 18.6814 179.91 18.9324 180.985 18.9324ZM174.208 11.5639L174.639 10.9185L174.961 10.2731C175.212 9.84278 175.069 9.62764 174.531 9.62764H171.358C171.143 9.62764 170.981 9.71728 170.874 9.89656C170.766 10.0758 170.802 10.2193 170.981 10.3268L172.326 11.1874L173.187 11.8328C173.617 12.1555 173.957 12.0659 174.208 11.5639ZM197.067 12.4782L198.143 10.7571C198.43 10.291 198.286 10.0579 197.712 10.0579H196.099C195.453 10.0579 195.041 10.2193 194.862 10.542C194.683 10.8647 194.718 11.2053 194.969 11.5639C195.22 11.8866 195.453 12.1914 195.669 12.4782C195.884 12.7651 196.117 12.9085 196.368 12.9085C196.655 12.9085 196.888 12.7651 197.067 12.4782ZM169.691 17.3726L170.336 16.6734C170.551 16.4583 170.551 16.2611 170.336 16.0818C170.121 15.9025 169.924 15.7591 169.744 15.6515C169.601 15.5081 169.44 15.3467 169.26 15.1675L168.023 14.3069C167.772 14.1993 167.575 14.2173 167.432 14.3607L167.216 14.6834C166.75 15.0778 166.661 15.3647 166.948 15.544L169.045 17.3726C169.26 17.5878 169.475 17.5878 169.691 17.3726ZM171.197 29.2053H200.133C201.71 29.2053 201.872 28.7212 200.617 27.7531C200.258 27.4662 199.9 27.1973 199.541 26.9463C199.218 26.6953 198.86 26.4085 198.465 26.0857C197.712 25.4762 196.87 24.7411 195.937 23.8806C195.579 23.5937 195.328 23.4503 195.185 23.4503C194.862 23.4503 194.7 23.7371 194.7 24.3109C194.7 24.8487 194.539 25.279 194.216 25.6017C193.93 25.9244 193.535 26.0857 193.033 26.0857H174.854C173.957 26.0857 173.509 25.6375 173.509 24.7411C173.509 23.8447 173.187 23.7192 172.541 24.3646C172.147 24.7232 171.752 25.0818 171.358 25.4403C170.999 25.763 170.623 26.1037 170.228 26.4622C169.189 27.3228 168.74 28.0041 168.884 28.5061C169.063 28.9722 169.834 29.2053 171.197 29.2053ZM169.153 48.6215C168.579 48.9084 168.023 49.1952 167.485 49.4821C166.983 49.7689 166.535 49.9841 166.141 50.1275C165.782 50.3068 165.388 50.3964 164.958 50.3964C164.527 50.3964 164.115 50.0916 163.72 49.4821C163.362 48.8725 163.003 48.3347 162.645 47.8685C162.322 47.4024 162.035 47.0438 161.784 46.7928C161.569 46.506 161.354 46.2191 161.139 45.9323C160.422 45.0717 160.583 44.4084 161.623 43.9423C164.169 42.8666 167.306 40.9303 171.035 38.1335C171.25 37.9542 171.483 37.7391 171.734 37.4881C172.021 37.2012 172.38 37.0578 172.81 37.0578C173.276 37.0578 173.671 37.2371 173.993 37.5957L176.844 40.3925C177.238 40.751 177.436 41.1455 177.436 41.5757C177.436 42.006 177.238 42.4184 176.844 42.8128C174.908 44.749 172.344 46.6853 169.153 48.6215ZM202.661 50.3426C198.896 48.5857 195.256 46.0757 191.742 42.8128C191.348 42.4184 191.151 42.006 191.151 41.5757C191.151 41.1455 191.348 40.7331 191.742 40.3387L194.324 37.8108C194.683 37.4522 195.095 37.273 195.561 37.273C196.027 37.273 196.439 37.4522 196.798 37.8108C200.169 40.3566 203.557 42.4004 206.963 43.9423C207.967 44.4084 208.111 45.0538 207.394 45.8785C206.999 46.3088 206.569 46.8825 206.103 47.5996C205.637 48.3167 205.242 48.9263 204.92 49.4283C204.238 50.4323 203.485 50.7371 202.661 50.3426Z" fill="#333333"/>
<path d="M139.41 47.8685C135.573 47.8685 132.149 47.4562 129.137 46.6315C125.695 45.6634 123.22 43.9064 121.715 41.3606C120.926 39.998 120.531 38.4383 120.531 36.6813C120.531 34.8885 120.782 33.3646 121.284 32.1096C121.822 30.8546 122.539 29.7072 123.436 28.6674C124.977 26.9104 127.218 25.3328 130.159 23.9344C130.625 23.7192 130.858 23.4144 130.858 23.02C130.858 22.8766 130.84 22.7152 130.804 22.536C129.728 18.4125 129.137 13.9842 129.029 9.25114C129.029 8.35473 129.047 7.58382 129.083 6.9384C129.119 6.29299 129.262 5.79099 129.513 5.43243C129.872 4.93044 130.41 4.67944 131.127 4.67944H135.537C136.254 4.67944 136.792 4.87665 137.151 5.27108C137.509 5.62964 137.689 6.09577 137.689 6.66948C137.689 6.77705 137.671 7.01011 137.635 7.36868C137.599 7.69139 137.581 8.13959 137.581 8.7133C137.581 12.1555 137.868 15.7591 138.442 19.524C138.549 20.0977 138.854 20.3846 139.356 20.3846C139.535 20.3846 139.697 20.3666 139.84 20.3308C141.525 19.7929 143.999 19.1475 147.262 18.3945C147.872 18.1794 148.41 18.2332 148.876 18.5559C149.342 18.8786 149.647 19.3627 149.79 20.0081L150.436 24.0957C150.471 24.2391 150.489 24.4005 150.489 24.5798C150.489 25.0101 150.364 25.4045 150.113 25.763C149.79 26.1933 149.27 26.4622 148.553 26.5698C147.872 26.6415 146.886 26.7849 145.595 27.0001C142.511 27.5379 139.625 28.2909 136.936 29.259C135.43 29.7969 134.085 30.4064 132.902 31.0877C130.248 32.5937 128.922 34.2072 128.922 35.9283C128.922 37.4702 130.177 38.5996 132.687 39.3168C134.444 39.8188 136.469 40.0698 138.764 40.0698C142.744 40.0698 146.94 39.4961 151.35 38.3486C151.529 38.3128 151.708 38.2949 151.888 38.2949C152.103 38.2949 152.318 38.3845 152.533 38.5638C152.748 38.7072 152.856 38.9582 152.856 39.3168C152.856 39.4961 152.82 39.6753 152.748 39.8546C152.712 39.998 152.677 40.1773 152.641 40.3925C152.641 40.5717 152.605 40.8407 152.533 41.1992C152.282 42.5259 152.157 43.4403 152.157 43.9423V44.9642C152.157 45.4303 152.013 45.8606 151.726 46.255C151.475 46.6136 151.063 46.8287 150.489 46.9004C146.473 47.5458 142.78 47.8685 139.41 47.8685Z" fill="#333333"/>
<path d="M120.156 12.2631C119.762 12.5858 119.26 12.7472 118.65 12.7472C118.076 12.7472 117.61 12.4782 117.252 11.9404C116.786 11.3667 116.302 10.793 115.8 10.2193C115.405 9.7173 114.993 9.25117 114.562 8.82089V8.7671C114.132 8.26511 113.917 7.74519 113.917 7.20735C113.917 6.6695 114.186 6.16751 114.724 5.70138L115.638 5.00218C116.068 4.71533 116.481 4.5719 116.875 4.5719C117.305 4.5719 117.646 4.71533 117.897 5.00218C118.112 5.28903 118.399 5.61174 118.758 5.9703L120.64 8.17547C120.927 8.46232 121.178 8.80296 121.393 9.19738C121.644 9.52009 121.788 9.86072 121.823 10.2193C121.823 10.7213 121.572 11.1516 121.07 11.5101L120.156 12.2631ZM115.531 15.9742C115.136 16.297 114.634 16.4583 114.025 16.4583C113.451 16.4583 112.967 16.2073 112.572 15.7053C111.64 14.4145 110.959 13.5539 110.529 13.1237C109.704 12.299 109.292 11.5998 109.292 11.0261C109.292 10.4165 109.56 9.87865 110.098 9.41252L110.959 8.71332C111.389 8.42647 111.802 8.28304 112.196 8.28304C112.626 8.28304 112.985 8.46232 113.272 8.82089C113.63 9.17945 113.917 9.48423 114.132 9.73523L116.015 11.8866C116.266 12.2093 116.517 12.55 116.768 12.9085C117.019 13.2312 117.144 13.5898 117.144 13.9842C117.144 14.4503 116.893 14.8806 116.391 15.275L115.531 15.9742ZM85.6263 15.0061V10.8109C85.6263 10.0938 85.8414 9.55595 86.2717 9.19738C86.6303 8.94639 87.0068 8.82089 87.4012 8.82089C87.5446 8.82089 87.7418 8.85674 87.9928 8.92846C88.2797 8.96431 88.5665 9.00017 88.8534 9.03603C89.1402 9.07188 89.7498 9.1436 90.6821 9.25117C92.0805 9.39459 93.945 9.4663 96.2757 9.4663C99.8255 9.4663 103.16 9.19738 106.28 8.65953C106.459 8.65953 106.638 8.65953 106.817 8.65953C107.463 8.65953 107.947 8.87467 108.27 9.30495C108.485 9.62766 108.592 10.04 108.592 10.542V14.8448C108.592 15.3109 108.449 15.7233 108.162 16.0818C107.911 16.4404 107.355 16.7093 106.495 16.8886C105.025 17.2113 102.891 17.4085 100.094 17.4802C98.445 17.4802 97.1721 17.4802 96.2757 17.4802C92.9052 17.4802 89.8753 17.3009 87.1861 16.9424C86.7199 16.8707 86.3434 16.6555 86.0566 16.297C85.7697 15.9025 85.6263 15.4723 85.6263 15.0061ZM86.0028 32.3786C86.8275 32.3786 87.4908 32.8447 87.9928 33.777C88.71 34.9244 89.6243 35.6774 90.7359 36.0359C91.8474 36.3945 93.3892 36.5738 95.3613 36.5738C97.3334 36.5738 99.7358 36.4124 102.568 36.0897C105.294 35.8029 108.001 35.3009 110.69 34.5837C110.869 34.5479 111.049 34.53 111.228 34.53C111.658 34.53 111.981 34.6913 112.196 35.014C112.375 35.2292 112.465 35.5339 112.465 35.9284C112.465 37.2551 112.555 38.3487 112.734 39.2092C112.949 40.0339 113.074 40.5538 113.11 40.769C113.146 40.9483 113.182 41.1275 113.218 41.3068C113.254 41.4503 113.272 41.5758 113.272 41.6833C113.272 41.7909 113.272 41.8626 113.272 41.8985C113.272 42.6514 112.859 43.1355 112.035 43.3506C109.381 44.0319 106.871 44.4622 104.505 44.6415C102.174 44.7849 100.238 44.8925 98.696 44.9642C97.19 45 95.684 45.018 94.1781 45.018C92.708 45.018 91.2737 44.9104 89.8753 44.6953C88.4769 44.4443 87.204 44.014 86.0566 43.4044C83.6184 42.1853 81.7897 40.0877 80.5706 37.1116C80.3554 36.6455 80.3375 36.1973 80.5168 35.767C80.696 35.3009 81.0188 34.9423 81.4849 34.6913L84.8195 32.7551C85.2498 32.5041 85.6442 32.3786 86.0028 32.3786Z" fill="#333333"/>
<path d="M63.8431 47.008C61.9427 47.6176 60.114 47.9223 58.3571 47.9223C56.636 47.9223 55.0404 47.7789 53.5702 47.4921C52.1001 47.2411 50.7376 46.7929 49.4826 46.1474C46.6141 44.6056 45.1798 42.257 45.1798 39.1017C45.1798 36.771 46.0225 34.8706 47.7077 33.4005C49.2854 32.0379 51.2037 31.3567 53.4627 31.3567C57.9089 31.3567 61.0284 33.3467 62.8212 37.3268C63.0363 37.8646 63.3053 38.1335 63.628 38.1335C64.0583 38.1335 64.4527 37.5778 64.8112 36.4662C65.134 35.4981 65.2953 34.5658 65.2953 33.6694C65.2953 32.773 65.0981 31.9483 64.7037 31.1953C64.3093 30.4065 63.8073 29.7431 63.1977 29.2053C61.8352 28.0937 60.2395 27.5379 58.4109 27.5379C56.618 27.5379 54.9687 27.7172 53.4627 28.0758C51.9567 28.4344 50.5762 29.1873 49.3213 30.3347L45.395 33.5618C45.0006 33.9204 44.5524 34.0997 44.0504 34.0997C43.5484 34.0997 43.0822 33.8666 42.652 33.4005L40.0703 30.6575C39.6042 30.1555 39.3711 29.6535 39.3711 29.1515C39.3711 28.5061 39.7476 27.9324 40.5006 27.4304C45.1978 24.5619 50.0742 20.1694 55.13 14.2531C55.3093 14.038 55.4348 13.8408 55.5065 13.6615C55.4706 13.6615 55.3989 13.6615 55.2914 13.6615C55.2555 13.6615 54.3591 13.8229 52.6021 14.1456C50.5583 14.54 48.4786 14.8268 46.3631 15.0061C46.2197 15.0061 46.1121 15.0061 46.0404 15.0061C45.646 15.0061 45.2874 14.8985 44.9647 14.6834C44.5344 14.3607 44.2834 13.9304 44.2117 13.3926L43.4049 9.57387C43.4049 9.39458 43.4049 9.23323 43.4049 9.0898C43.4049 8.5161 43.6022 8.0679 43.9966 7.74519C44.3193 7.56591 44.7316 7.47627 45.2336 7.47627H45.9866C49.6798 7.47627 53.6599 7.04599 57.9268 6.18543C59.2894 5.93444 60.2395 5.73723 60.7774 5.5938C61.3152 5.45038 61.7634 5.37866 62.122 5.37866C62.5164 5.37866 62.8929 5.48623 63.2515 5.70137L66.7475 8.01411C67.2136 8.30096 67.5184 8.69538 67.6618 9.19738C67.7335 9.37666 67.7694 9.53801 67.7694 9.68143C67.7694 10.04 67.6439 10.3806 67.3929 10.7033C65.5642 13.9304 62.7495 17.4802 58.9487 21.3527L60.0244 21.2989C64.112 21.2989 67.375 22.3746 69.8132 24.526C72.4666 26.785 73.7933 29.8686 73.7933 33.777C73.7933 38.1873 72.1797 41.7012 68.9527 44.3188C67.4826 45.4662 65.7794 46.3626 63.8431 47.008ZM53.624 38.0797C53.3013 38.0797 53.0683 38.1335 52.9248 38.2411C52.7814 38.3487 52.7097 38.5279 52.7097 38.7789C52.7097 39.0299 52.7993 39.2451 52.9786 39.4244C53.4806 39.8905 54.5563 40.2132 56.2057 40.3925C55.9547 39.7829 55.6499 39.2451 55.2914 38.7789C54.9328 38.3128 54.377 38.0797 53.624 38.0797Z" fill="#333333"/>
<path d="M3.71114 10.7572L5.32468 10.811H7.04579C8.65933 10.811 10.3804 10.7751 12.2091 10.7034C12.5318 10.7034 12.7828 10.5958 12.9621 10.3807C13.1772 10.1656 13.2848 9.93249 13.2848 9.68149C13.2848 9.64563 13.2848 9.60978 13.2848 9.57392V7.74524L13.231 6.45441C13.231 5.809 13.4282 5.32493 13.8227 5.00223C14.1454 4.75123 14.5577 4.62573 15.0597 4.62573H19.0398C19.6493 4.62573 20.1513 4.82294 20.5457 5.21736C20.9402 5.61178 21.1374 6.11378 21.1374 6.72334V9.08986C21.1374 9.44842 21.227 9.71735 21.4063 9.89663C21.6214 10.0759 21.8366 10.1656 22.0517 10.1656C22.0876 10.1656 22.5358 10.1476 23.3963 10.1118C24.2569 10.0401 25.1354 9.95042 26.0318 9.84285C26.9282 9.69942 27.5378 9.62771 27.8605 9.62771C28.1832 9.59185 28.4879 9.55599 28.7748 9.52014C29.0617 9.44842 29.2768 9.41257 29.4202 9.41257C29.8505 9.41257 30.2449 9.55599 30.6035 9.84285C31.1055 10.2373 31.3565 10.811 31.3565 11.564V14.7373C31.3565 15.2392 31.1951 15.6695 30.8724 16.0281C30.5497 16.3866 30.1373 16.6197 29.6354 16.7273C27.0537 17.05 24.472 17.2831 21.8904 17.4265C21.6394 17.4623 21.4601 17.5341 21.3525 17.6416C21.2808 17.7492 21.2449 17.9105 21.2449 18.1257L21.2987 19.1476V20.1695C21.3346 20.3488 21.3704 20.4743 21.4063 20.546C21.478 20.6177 21.5677 20.6536 21.6752 20.6536C21.7828 20.6536 21.8724 20.6536 21.9441 20.6536C24.5258 20.4026 26.3903 20.1336 27.5378 19.8468C28.1473 19.7034 28.6852 19.6317 29.1513 19.6317C29.6174 19.6317 29.976 19.7392 30.227 19.9544C30.6931 20.3129 30.9262 20.8866 30.9262 21.6755V25.279C30.9262 25.7452 30.8186 26.1396 30.6035 26.4623C30.3525 26.8926 29.9401 27.1615 29.3664 27.2691C27.3943 27.6994 25.1174 28.0041 22.5358 28.1834C22.2131 28.2193 21.9621 28.3448 21.7828 28.5599C21.6394 28.7392 21.5677 28.9543 21.5677 29.2053L21.6214 32.5938C21.6573 33.1675 21.9262 33.526 22.4282 33.6695C25.9063 34.781 29.5636 36.4842 33.4003 38.779C33.9023 39.0659 34.1533 39.4423 34.1533 39.9085C34.1533 40.3388 33.974 40.7152 33.6154 41.038C33.0059 41.5399 32.1991 42.5798 31.1951 44.1575C31.0875 44.3009 30.98 44.4622 30.8724 44.6415C30.8007 44.785 30.6752 45.0001 30.4959 45.2869C30.2808 45.6814 29.9401 45.8786 29.474 45.8786C29.0437 45.8786 28.7031 45.7889 28.4521 45.6097C27.1613 44.6057 26.1394 43.8527 25.3864 43.3507C24.4541 42.777 23.7549 42.3826 23.2888 42.1674C22.8226 41.9523 22.5179 41.8447 22.3744 41.8447C21.9083 41.8447 21.5677 42.2212 21.3525 42.9742C20.1334 46.9184 16.8884 48.9084 11.6175 48.9443C7.60157 48.9443 4.62548 48.0658 2.68923 46.3089C0.896411 44.6595 0 42.5977 0 40.1236C0 40.0878 0 40.0519 0 40.016V39.9623C0.071713 38.0977 0.681272 36.5559 1.82868 35.3368C2.97609 34.1177 4.17728 33.2571 5.43225 32.7551C7.18922 32.0738 9.0179 31.7332 10.9183 31.7332C11.0976 31.7332 11.8326 31.7691 13.1235 31.8408L13.7151 31.8946C13.7151 31.8946 13.733 31.8946 13.7689 31.8946L13.6613 28.9364C13.6613 28.8288 13.6434 28.7751 13.6075 28.7751C13.6075 28.7392 13.5717 28.7213 13.5 28.7213L12.8545 28.7751H11.5099C9.57367 28.7751 8.15734 28.6675 7.26093 28.4523C5.3964 28.0579 3.99799 27.3587 3.06573 26.3547C1.84661 25.0639 1.23705 23.9882 1.23705 23.1277C1.23705 22.4105 1.63147 21.8727 2.42031 21.5141L5.86253 19.7392C6.07767 19.6675 6.27488 19.6317 6.45416 19.6317C6.92029 19.6317 7.29679 19.8289 7.58364 20.2233C7.79878 20.5101 8.03184 20.7432 8.28284 20.9225C8.39041 21.0301 8.69519 21.1197 9.19718 21.1914C9.69917 21.2631 10.5059 21.299 11.6175 21.299H12.8008L13.3924 21.2452C13.4641 21.2452 13.5 21.2452 13.5 21.2452C13.5 21.2093 13.5 21.1735 13.5 21.1376L13.4462 19.1476C13.4462 18.789 13.3745 18.5201 13.231 18.3408C13.0876 18.1615 12.8187 18.0719 12.4243 18.0719C12.4243 18.0719 11.7609 18.0898 10.4342 18.1257C8.24698 18.2333 6.57966 18.287 5.43225 18.287H3.8725C3.29879 18.287 2.81473 18.1078 2.42031 17.7492C2.06175 17.3906 1.88246 16.9245 1.88246 16.3508C1.81075 14.0201 1.77489 12.8369 1.77489 12.801C1.77489 12.1914 1.95418 11.7074 2.31274 11.3488C2.6713 10.9544 3.13744 10.7572 3.71114 10.7572ZM7.63742 40.0698C7.63742 41.1097 8.67726 41.6296 10.7569 41.6296C11.7251 41.6296 12.478 41.4682 13.0159 41.1455C13.5896 40.8228 13.8764 40.267 13.8764 39.4782V38.9404C13.8764 38.9045 13.8764 38.8866 13.8764 38.8866H13.8227L12.478 38.6714C11.9402 38.6356 11.2589 38.6176 10.4342 38.6176C9.64538 38.6176 8.98204 38.7611 8.44419 39.0479C7.90635 39.3348 7.63742 39.6754 7.63742 40.0698Z" fill="#333333"/>
<path d="M248.015 27.6703C248.553 27.6703 249.017 27.8694 249.391 28.2582L249.53 28.4027C249.834 28.7511 249.989 29.1691 249.989 29.6449C249.989 30.1731 249.785 30.637 249.396 31.0258C249.02 31.4022 248.553 31.5922 248.015 31.5922H241.464V35.0345C241.529 35.028 241.598 35.0196 241.67 35.0131H241.672C241.897 34.9943 242.156 34.9847 242.448 34.9847C244.047 34.9848 245.482 35.3253 246.746 36.0121L246.983 36.141C248.153 36.8026 249.072 37.7193 249.735 38.8881L249.867 39.1215C250.507 40.3 250.823 41.6525 250.823 43.1713C250.823 44.5686 250.45 45.8664 249.705 47.058L249.704 47.057C248.979 48.2278 247.995 49.1661 246.755 49.8695L246.754 49.8705C245.527 50.5583 244.179 50.9008 242.717 50.9008C241.58 50.9007 240.52 50.7446 239.539 50.4301C238.575 50.1209 237.657 49.7124 236.783 49.2045L236.673 49.1439C236.423 48.9951 236.222 48.788 236.073 48.5277L236.069 48.5209C235.904 48.2114 235.821 47.8785 235.821 47.5277C235.821 47.004 236.014 46.5482 236.388 46.1742C236.779 45.783 237.253 45.5804 237.796 45.5804C238.253 45.5805 238.648 45.7093 238.958 45.9857L239.132 46.1078C239.543 46.3833 240.008 46.5961 240.528 46.7455L240.759 46.8002C241.311 46.9183 241.962 46.9789 242.717 46.9789C243.46 46.9789 244.148 46.8112 244.787 46.476L245.021 46.3383C245.552 46.0027 245.977 45.579 246.299 45.0668L246.302 45.0619C246.685 44.4791 246.874 43.8504 246.874 43.1713C246.874 41.814 246.472 40.7823 245.696 40.0394C244.917 39.2929 243.862 38.9066 242.502 38.9066C241.688 38.9066 240.881 39.0277 240.082 39.2709L240.069 39.2758V39.2748C239.837 39.3329 239.616 39.3636 239.409 39.3636C238.875 39.3636 238.417 39.1864 238.055 38.8246L238.049 38.8197V38.8187C237.689 38.4372 237.516 37.9531 237.516 37.39V29.7523C237.516 29.1646 237.711 28.6607 238.108 28.2631L238.113 28.2582H238.114C238.526 27.8675 239.025 27.6703 239.598 27.6703H248.015Z" fill="#333333" stroke="#333333" stroke-width="0.560257"/>
<path d="M226.241 27.0518C227.611 27.0518 228.852 27.3574 229.955 27.9746C231.056 28.5906 231.917 29.4512 232.534 30.5518L232.649 30.7568C233.209 31.7916 233.486 32.9471 233.486 34.2168C233.486 35.5927 233.024 36.9044 232.115 38.1465C231.229 39.3827 229.857 40.6407 228.015 41.9229L228.012 41.9248C227.465 42.2951 226.809 42.7917 226.042 43.416C225.467 43.8842 225.007 44.2877 224.66 44.6279L224.351 44.9473C223.917 45.4198 223.589 45.8551 223.361 46.2529H231.809C232.347 46.253 232.813 46.443 233.189 46.8193C233.566 47.1957 233.756 47.6617 233.756 48.2002C233.756 48.7385 233.566 49.2112 233.194 49.6035L233.189 49.6084C232.815 49.9826 232.359 50.1748 231.835 50.1748H220.81C220.211 50.1748 219.699 49.9934 219.299 49.6143C218.896 49.2326 218.7 48.7341 218.7 48.1465C218.7 47.2058 219.016 46.1815 219.622 45.0801L219.624 45.0771C220.244 43.983 220.94 43.0478 221.714 42.2744C221.957 42.0312 222.325 41.7105 222.811 41.3145C223.141 41.0331 223.471 40.7636 223.802 40.5068C223.006 40.2837 222.268 39.9416 221.592 39.4756L221.588 39.4736C220.747 38.8755 220.081 38.1261 219.595 37.2275L219.594 37.2256C219.104 36.3035 218.861 35.2806 218.861 34.1631C218.861 32.8104 219.168 31.5869 219.786 30.501L219.787 30.498H219.788C220.424 29.4136 221.304 28.5703 222.424 27.9727C223.562 27.3569 224.837 27.0518 226.241 27.0518ZM226.241 30.9736C225.168 30.9737 224.337 31.2788 223.718 31.8652L223.715 31.8682C223.099 32.4358 222.783 33.1911 222.783 34.1631C222.783 34.7138 222.945 35.2339 223.274 35.7285C223.607 36.2268 224.037 36.6257 224.57 36.9268C225.105 37.2108 225.661 37.3515 226.241 37.3516C226.737 37.3516 227.206 37.2449 227.652 37.0303L227.656 37.0283C228.109 36.8179 228.503 36.4838 228.837 36.0166C229.342 35.2848 229.564 34.6888 229.564 34.2168C229.564 33.2229 229.256 32.4473 228.654 31.8623L228.652 31.8594C228.07 31.2767 227.276 30.9736 226.241 30.9736Z" fill="#333333" stroke="#333333" stroke-width="0.560257"/>
<path d="M243.442 1.25757C245.059 1.25759 246.457 1.72389 247.622 2.66284H247.623C248.786 3.58187 249.655 4.90453 250.242 6.61011C250.828 8.31404 251.118 10.3274 251.118 12.6443C251.118 15.0321 250.829 17.1073 250.243 18.864L250.242 18.865C249.656 20.6055 248.788 21.9637 247.627 22.9187C246.461 23.8777 245.061 24.3532 243.442 24.3533C241.824 24.3533 240.424 23.8776 239.258 22.9187C238.097 21.9637 237.228 20.6055 236.642 18.865V18.864C236.056 17.1072 235.767 15.0321 235.767 12.6443C235.767 10.3274 236.056 8.31405 236.643 6.61011C237.193 5.01107 237.991 3.74842 239.047 2.8396L239.262 2.66284C240.427 1.72363 241.826 1.25757 243.442 1.25757ZM243.442 5.17944C242.849 5.17944 242.333 5.33492 241.886 5.64136C241.436 5.94951 241.04 6.42038 240.706 7.07104C240.036 8.37731 239.688 10.2271 239.688 12.6443C239.688 15.1517 240.036 17.0845 240.709 18.4646C241.044 19.1425 241.441 19.6326 241.891 19.9529C242.338 20.2711 242.852 20.4324 243.442 20.4324C244.033 20.4324 244.547 20.2711 244.994 19.9529C245.444 19.6324 245.841 19.142 246.176 18.4636C246.848 17.1024 247.196 15.1705 247.196 12.6443C247.196 10.227 246.848 8.37731 246.178 7.07104C245.844 6.42037 245.448 5.94948 244.998 5.64136C244.551 5.33507 244.035 5.17946 243.442 5.17944Z" fill="#333333" stroke="#333333" stroke-width="0.560257"/>
<path d="M226.241 0.719727C227.611 0.719727 228.852 1.02541 229.955 1.64258C231.056 2.25856 231.917 3.11915 232.534 4.21973L232.649 4.4248C233.209 5.45953 233.486 6.61511 233.486 7.88477C233.486 9.2607 233.024 10.5723 232.115 11.8145C231.229 13.0506 229.857 14.3086 228.015 15.5908L228.012 15.5928C227.465 15.963 226.809 16.4596 226.042 17.084C225.467 17.5522 225.007 17.9557 224.66 18.2959L224.351 18.6152C223.917 19.0878 223.589 19.5231 223.361 19.9209H231.809C232.347 19.921 232.813 20.1109 233.189 20.4873C233.566 20.8637 233.756 21.3297 233.756 21.8682C233.756 22.4065 233.566 22.8792 233.194 23.2715L233.189 23.2764C232.815 23.6505 232.359 23.8428 231.835 23.8428H220.81C220.211 23.8428 219.699 23.6614 219.299 23.2822C218.896 22.9006 218.7 22.4021 218.7 21.8145C218.7 20.8738 219.016 19.8494 219.622 18.748L219.624 18.7451C220.244 17.6509 220.94 16.7158 221.714 15.9424C221.957 15.6991 222.325 15.3785 222.811 14.9824C223.141 14.7011 223.471 14.4316 223.802 14.1748C223.006 13.9516 222.268 13.6096 221.592 13.1436L221.588 13.1416C220.747 12.5434 220.081 11.794 219.595 10.8955L219.594 10.8936C219.104 9.97149 218.861 8.94854 218.861 7.83105C218.861 6.47841 219.168 5.2549 219.786 4.16895L219.787 4.16602H219.788C220.424 3.08156 221.304 2.23829 222.424 1.64062C223.562 1.02486 224.837 0.719754 226.241 0.719727ZM226.241 4.6416C225.168 4.64164 224.337 4.94682 223.718 5.5332L223.715 5.53613C223.099 6.10375 222.783 6.85905 222.783 7.83105C222.783 8.38175 222.945 8.90185 223.274 9.39648C223.607 9.8948 224.037 10.2937 224.57 10.5947C225.105 10.8788 225.661 11.0195 226.241 11.0195C226.737 11.0195 227.206 10.9129 227.652 10.6982L227.656 10.6963C228.109 10.4859 228.503 10.1518 228.837 9.68457C229.342 8.95281 229.564 8.35675 229.564 7.88477C229.564 6.89083 229.256 6.11526 228.654 5.53027L228.652 5.52734C228.07 4.94465 227.276 4.6416 226.241 4.6416Z" fill="#333333" stroke="#333333" stroke-width="0.560257"/>
</svg>
