<svg width="275" height="285" viewBox="0 0 275 285" fill="none" xmlns="http://www.w3.org/2000/svg">
<path d="M27.7437 23.2305C-8.62033 75.7564 49.8578 66.6397 46.5816 148.544C44.8138 192.74 -59.9519 283.685 53.134 283.685C166.22 283.685 272.637 265.721 272.637 152.636C272.637 39.5497 71.9719 -40.6546 27.7437 23.2305Z" fill="#FF6600"/>
<path d="M64.0227 148.082H72.732V151.823H64.0227V148.082ZM70.9227 148.082H74.7253C74.7253 149.063 74.7662 150.178 74.848 151.425C74.9298 152.651 75.1036 153.97 75.3693 155.381C75.6351 156.771 76.0338 158.202 76.5653 159.674C77.0969 161.146 77.8022 162.608 78.6813 164.059C79.5809 165.491 80.7053 166.871 82.0547 168.199C83.404 169.528 85.0191 170.755 86.9 171.879C86.6342 172.084 86.3071 172.38 85.9187 172.769C85.5302 173.157 85.152 173.556 84.784 173.965C84.4364 174.394 84.1502 174.772 83.9253 175.099C82.0036 173.914 80.3373 172.585 78.9267 171.113C77.516 169.62 76.3302 168.046 75.3693 166.39C74.4084 164.714 73.6316 163.027 73.0387 161.33C72.4458 159.613 71.996 157.947 71.6893 156.331C71.3827 154.696 71.1782 153.173 71.076 151.762C70.9738 150.351 70.9227 149.125 70.9227 148.082ZM69.604 154.829L73.8053 155.595C73.1102 158.621 72.18 161.371 71.0147 163.845C69.8493 166.319 68.4489 168.496 66.8133 170.377C65.1982 172.258 63.3276 173.842 61.2013 175.13C60.9764 174.864 60.6596 174.537 60.2507 174.149C59.8418 173.781 59.4124 173.403 58.9627 173.014C58.5333 172.646 58.1551 172.35 57.828 172.125C61.0378 170.51 63.5933 168.24 65.4947 165.317C67.396 162.373 68.7658 158.877 69.604 154.829ZM98.0013 158.754H117.444V161.851H98.0013V158.754ZM101.344 163.293H113.948V166.206H101.344V163.293ZM102.509 159.889L105.668 160.686C104.912 162.444 103.879 164.07 102.571 165.562C101.283 167.034 99.9129 168.251 98.4613 169.211C98.2773 169.007 98.032 168.762 97.7253 168.475C97.4391 168.169 97.1324 167.883 96.8053 167.617C96.4987 167.351 96.2227 167.136 95.9773 166.973C97.4084 166.196 98.6964 165.194 99.8413 163.967C101.007 162.72 101.896 161.361 102.509 159.889ZM113.396 163.293H116.8C116.8 163.293 116.79 163.456 116.769 163.783C116.769 164.09 116.749 164.356 116.708 164.581C116.585 166.564 116.432 168.199 116.248 169.487C116.084 170.755 115.9 171.736 115.696 172.431C115.492 173.147 115.246 173.658 114.96 173.965C114.674 174.312 114.357 174.558 114.009 174.701C113.682 174.844 113.314 174.946 112.905 175.007C112.558 175.048 112.108 175.079 111.556 175.099C111.024 175.12 110.442 175.11 109.808 175.069C109.788 174.639 109.706 174.139 109.563 173.566C109.42 173.014 109.225 172.554 108.98 172.186C109.471 172.227 109.91 172.258 110.299 172.278C110.687 172.278 110.984 172.278 111.188 172.278C111.392 172.278 111.556 172.258 111.679 172.217C111.822 172.176 111.955 172.084 112.077 171.941C112.261 171.736 112.425 171.348 112.568 170.775C112.732 170.183 112.875 169.324 112.997 168.199C113.14 167.075 113.273 165.613 113.396 163.814V163.293ZM103.981 153.571V155.043H111.893V153.571H103.981ZM103.981 149.707V151.149H111.893V149.707H103.981ZM100.7 147.162H115.297V157.589H100.7V147.162ZM89.0467 152.835H98.4V156.301H89.0467V152.835ZM92.144 146.763H95.5787V165.838H92.144V146.763ZM88.3413 166.451C89.1387 166.165 90.0587 165.807 91.1013 165.378C92.1644 164.949 93.2889 164.489 94.4747 163.998C95.6604 163.487 96.836 162.976 98.0013 162.465L98.7987 165.623C97.2653 166.421 95.7013 167.218 94.1067 168.015C92.512 168.813 91.0502 169.539 89.7213 170.193L88.3413 166.451ZM109.869 163.906L112.353 165.255C111.985 166.482 111.464 167.739 110.789 169.027C110.115 170.295 109.358 171.481 108.52 172.585C107.682 173.689 106.803 174.599 105.883 175.314C105.576 174.967 105.177 174.599 104.687 174.21C104.196 173.822 103.716 173.505 103.245 173.259C104.247 172.626 105.177 171.808 106.036 170.806C106.895 169.804 107.651 168.7 108.305 167.494C108.98 166.288 109.501 165.092 109.869 163.906ZM105.239 163.937L107.631 165.347C107.12 166.411 106.445 167.484 105.607 168.567C104.789 169.651 103.889 170.663 102.908 171.603C101.927 172.544 100.945 173.321 99.964 173.934C99.6778 173.566 99.3098 173.178 98.86 172.769C98.4307 172.36 98.0013 172.023 97.572 171.757C98.5738 171.246 99.5653 170.571 100.547 169.733C101.548 168.895 102.458 167.975 103.276 166.973C104.094 165.951 104.748 164.939 105.239 163.937ZM123.025 150.413C123.802 150.413 124.794 150.413 126 150.413C127.206 150.392 128.474 150.351 129.803 150.29C131.132 150.208 132.358 150.086 133.483 149.922C134.26 149.82 135.016 149.697 135.752 149.554C136.508 149.411 137.224 149.268 137.899 149.125C138.594 148.961 139.217 148.787 139.769 148.603C140.342 148.419 140.822 148.246 141.211 148.082L143.725 151.455C143.194 151.578 142.734 151.691 142.345 151.793C141.957 151.895 141.63 151.977 141.364 152.038C140.73 152.202 140.045 152.365 139.309 152.529C138.573 152.672 137.817 152.805 137.04 152.927C136.263 153.05 135.476 153.173 134.679 153.295C133.513 153.459 132.276 153.582 130.968 153.663C129.66 153.745 128.392 153.817 127.165 153.878C125.939 153.919 124.876 153.95 123.976 153.97L123.025 150.413ZM124.344 171.542C126.143 170.724 127.615 169.733 128.76 168.567C129.925 167.382 130.784 166.022 131.336 164.489C131.908 162.935 132.195 161.197 132.195 159.275C132.195 159.275 132.195 159.051 132.195 158.601C132.195 158.131 132.195 157.435 132.195 156.515C132.195 155.575 132.195 154.389 132.195 152.958L136.212 152.498C136.212 153.03 136.212 153.602 136.212 154.215C136.212 154.808 136.212 155.401 136.212 155.994C136.212 156.587 136.212 157.129 136.212 157.619C136.212 158.09 136.212 158.478 136.212 158.785C136.212 159.071 136.212 159.214 136.212 159.214C136.212 161.259 135.956 163.201 135.445 165.041C134.955 166.881 134.127 168.578 132.961 170.131C131.796 171.665 130.222 173.024 128.239 174.21L124.344 171.542ZM120.725 157.742C121.155 157.783 121.615 157.824 122.105 157.865C122.596 157.906 123.076 157.926 123.547 157.926C123.833 157.926 124.375 157.926 125.172 157.926C125.969 157.926 126.93 157.926 128.055 157.926C129.2 157.926 130.426 157.926 131.735 157.926C133.043 157.926 134.352 157.926 135.66 157.926C136.968 157.926 138.195 157.926 139.34 157.926C140.485 157.926 141.466 157.926 142.284 157.926C143.102 157.926 143.654 157.926 143.94 157.926C144.165 157.926 144.451 157.916 144.799 157.895C145.146 157.875 145.494 157.855 145.841 157.834C146.209 157.793 146.506 157.763 146.731 157.742V161.698C146.322 161.657 145.872 161.627 145.381 161.606C144.911 161.586 144.461 161.575 144.032 161.575C143.746 161.575 143.194 161.575 142.376 161.575C141.579 161.575 140.597 161.575 139.432 161.575C138.287 161.575 137.05 161.575 135.721 161.575C134.413 161.575 133.094 161.575 131.765 161.575C130.457 161.575 129.23 161.575 128.085 161.575C126.94 161.575 125.969 161.575 125.172 161.575C124.375 161.575 123.853 161.575 123.608 161.575C123.138 161.575 122.637 161.586 122.105 161.606C121.574 161.627 121.114 161.657 120.725 161.698V157.742ZM162.769 148.419C162.585 148.808 162.401 149.237 162.217 149.707C162.033 150.178 161.88 150.576 161.757 150.903C161.573 151.415 161.348 151.987 161.083 152.621C160.837 153.255 160.572 153.899 160.285 154.553C160.02 155.187 159.744 155.769 159.457 156.301C159.069 157.078 158.578 157.916 157.985 158.815C157.413 159.695 156.8 160.543 156.145 161.361C155.491 162.158 154.816 162.853 154.121 163.446L150.288 161.115C150.84 160.727 151.361 160.267 151.852 159.735C152.363 159.204 152.844 158.652 153.293 158.079C153.764 157.507 154.193 156.945 154.581 156.393C154.97 155.82 155.307 155.289 155.593 154.798C156.002 154.103 156.35 153.377 156.636 152.621C156.943 151.864 157.188 151.2 157.372 150.627C157.556 150.116 157.699 149.585 157.801 149.033C157.924 148.46 157.996 147.939 158.016 147.469L162.769 148.419ZM157.924 153.142C158.272 153.142 158.783 153.142 159.457 153.142C160.132 153.142 160.919 153.142 161.819 153.142C162.718 153.142 163.659 153.142 164.64 153.142C165.642 153.142 166.633 153.142 167.615 153.142C168.616 153.142 169.547 153.142 170.405 153.142C171.284 153.142 172.041 153.142 172.675 153.142C173.329 153.142 173.809 153.142 174.116 153.142C174.525 153.142 175.036 153.132 175.649 153.111C176.263 153.071 176.815 153.009 177.305 152.927V157.129C176.733 157.067 176.14 157.037 175.527 157.037C174.934 157.016 174.464 157.006 174.116 157.006C173.768 157.006 173.186 157.006 172.368 157.006C171.55 157.006 170.6 157.006 169.516 157.006C168.432 157.006 167.288 157.006 166.081 157.006C164.896 157.006 163.74 157.006 162.616 157.006C161.492 157.006 160.49 157.006 159.611 157.006C158.732 157.006 158.057 157.006 157.587 157.006L157.924 153.142ZM169.884 155.35C169.843 157.619 169.608 159.705 169.179 161.606C168.749 163.487 168.136 165.194 167.339 166.727C166.562 168.261 165.601 169.651 164.456 170.898C163.311 172.125 162.003 173.198 160.531 174.118L156.391 171.327C156.943 171.103 157.474 170.847 157.985 170.561C158.496 170.254 158.936 169.947 159.304 169.641C160.183 168.966 160.991 168.199 161.727 167.341C162.483 166.462 163.148 165.45 163.72 164.305C164.313 163.139 164.773 161.821 165.1 160.349C165.448 158.877 165.632 157.211 165.652 155.35H169.884ZM195.153 154.215C195.296 154.543 195.48 155.013 195.705 155.626C195.951 156.219 196.206 156.863 196.472 157.558C196.738 158.233 196.973 158.877 197.177 159.49C197.382 160.103 197.545 160.584 197.668 160.931L193.988 162.219C193.906 161.831 193.763 161.34 193.559 160.747C193.354 160.155 193.129 159.531 192.884 158.877C192.639 158.202 192.393 157.558 192.148 156.945C191.903 156.331 191.688 155.82 191.504 155.411L195.153 154.215ZM206.469 156.454C206.306 156.945 206.163 157.364 206.04 157.711C205.938 158.059 205.836 158.386 205.733 158.693C205.345 160.247 204.813 161.8 204.139 163.354C203.464 164.887 202.605 166.329 201.563 167.678C200.132 169.518 198.506 171.082 196.687 172.37C194.888 173.638 193.088 174.609 191.289 175.283L188.069 172.002C189.194 171.695 190.38 171.246 191.627 170.653C192.874 170.039 194.08 169.303 195.245 168.445C196.411 167.586 197.412 166.635 198.251 165.593C198.946 164.714 199.559 163.712 200.091 162.587C200.643 161.443 201.092 160.226 201.44 158.938C201.808 157.63 202.053 156.342 202.176 155.074L206.469 156.454ZM188.039 155.841C188.243 156.229 188.468 156.73 188.713 157.343C188.979 157.957 189.245 158.601 189.511 159.275C189.776 159.95 190.032 160.604 190.277 161.238C190.543 161.872 190.748 162.403 190.891 162.833L187.149 164.243C187.027 163.835 186.843 163.303 186.597 162.649C186.372 161.995 186.117 161.31 185.831 160.594C185.544 159.858 185.268 159.183 185.003 158.57C184.757 157.957 184.543 157.487 184.359 157.159L188.039 155.841ZM219.963 169.487C219.963 169.099 219.963 168.465 219.963 167.586C219.963 166.687 219.963 165.654 219.963 164.489C219.963 163.303 219.963 162.066 219.963 160.778C219.963 159.49 219.963 158.253 219.963 157.067C219.963 155.861 219.963 154.798 219.963 153.878C219.963 152.958 219.963 152.283 219.963 151.854C219.963 151.323 219.932 150.709 219.871 150.014C219.83 149.319 219.758 148.706 219.656 148.174H224.44C224.379 148.706 224.317 149.299 224.256 149.953C224.195 150.587 224.164 151.22 224.164 151.854C224.164 152.427 224.164 153.203 224.164 154.185C224.164 155.166 224.164 156.26 224.164 157.466C224.164 158.652 224.164 159.868 224.164 161.115C224.164 162.342 224.164 163.528 224.164 164.673C224.164 165.818 224.164 166.819 224.164 167.678C224.164 168.516 224.164 169.119 224.164 169.487C224.164 169.774 224.174 170.183 224.195 170.714C224.215 171.225 224.256 171.757 224.317 172.309C224.379 172.861 224.42 173.351 224.44 173.781H219.656C219.738 173.167 219.809 172.452 219.871 171.634C219.932 170.816 219.963 170.101 219.963 169.487ZM223.244 156.117C224.266 156.383 225.411 156.73 226.679 157.159C227.946 157.568 229.224 158.008 230.512 158.478C231.8 158.948 233.006 159.419 234.131 159.889C235.276 160.339 236.226 160.758 236.983 161.146L235.235 165.378C234.376 164.928 233.425 164.479 232.383 164.029C231.34 163.559 230.277 163.109 229.193 162.679C228.13 162.25 227.077 161.851 226.035 161.483C225.012 161.115 224.082 160.788 223.244 160.502V156.117Z" fill="white"/>
<path d="M73.3434 116.867C73.3109 117.111 73.2785 117.387 73.246 117.695C73.2297 117.987 73.2135 118.288 73.1973 118.596C73.181 118.921 73.1648 119.359 73.1486 119.911C73.1323 120.447 73.1242 121.04 73.1242 121.689C73.1242 122.338 73.1242 122.98 73.1242 123.613C73.1242 124.246 73.1242 124.822 73.1242 125.342C73.1242 126.024 73.1405 126.787 73.1729 127.631C73.2054 128.459 73.246 129.303 73.2947 130.164C73.3596 131.008 73.4083 131.804 73.4408 132.55C73.4895 133.281 73.5139 133.89 73.5139 134.377C73.5139 135.059 73.3353 135.684 72.9781 136.252C72.6209 136.804 72.0852 137.242 71.3708 137.567C70.6727 137.892 69.7879 138.054 68.7163 138.054C66.7681 138.054 65.2907 137.697 64.2841 136.983C63.2775 136.268 62.7742 135.27 62.7742 133.987C62.7742 133.159 63.0096 132.437 63.4805 131.82C63.9675 131.187 64.6575 130.691 65.5505 130.334C66.4596 129.977 67.5393 129.798 68.7894 129.798C70.1207 129.798 71.3627 129.945 72.5154 130.237C73.6843 130.513 74.7477 130.878 75.7056 131.333C76.6635 131.787 77.5159 132.266 78.2627 132.77C79.0095 133.273 79.6427 133.727 80.1622 134.133L78.4088 136.861C77.8243 136.309 77.1668 135.765 76.4362 135.229C75.7219 134.693 74.9345 134.206 74.074 133.768C73.2297 133.33 72.3287 132.981 71.3708 132.721C70.4292 132.445 69.4307 132.307 68.3754 132.307C67.5312 132.307 66.8736 132.453 66.4028 132.745C65.9482 133.037 65.7209 133.395 65.7209 133.817C65.7209 134.125 65.8183 134.393 66.0132 134.62C66.208 134.848 66.4921 135.018 66.8655 135.132C67.2389 135.245 67.7097 135.302 68.278 135.302C68.7163 135.302 69.0897 135.254 69.3982 135.156C69.7229 135.059 69.9746 134.88 70.1532 134.62C70.3317 134.361 70.421 133.995 70.421 133.524C70.421 133.167 70.4048 132.656 70.3723 131.99C70.3561 131.325 70.3317 130.594 70.2993 129.798C70.2668 128.987 70.2343 128.191 70.2019 127.412C70.1694 126.633 70.1532 125.943 70.1532 125.342C70.1532 124.757 70.1532 124.149 70.1532 123.515C70.1694 122.866 70.1775 122.225 70.1775 121.592C70.1775 120.958 70.1775 120.382 70.1775 119.862C70.1937 119.327 70.2019 118.888 70.2019 118.547C70.2019 118.32 70.1856 118.044 70.1532 117.719C70.1369 117.378 70.1045 117.094 70.0557 116.867H73.3434ZM63.2369 119.156C63.6753 119.221 64.1623 119.286 64.6981 119.351C65.2339 119.416 65.7777 119.481 66.3297 119.546C66.898 119.595 67.4337 119.635 67.937 119.668C68.4403 119.684 68.8787 119.692 69.2521 119.692C70.9081 119.692 72.556 119.643 74.1957 119.546C75.8517 119.432 77.5646 119.229 79.3342 118.937L79.3099 121.738C78.4819 121.851 77.524 121.957 76.4362 122.054C75.3485 122.152 74.1876 122.233 72.9537 122.298C71.7361 122.346 70.5103 122.371 69.2765 122.371C68.7732 122.371 68.1481 122.355 67.4013 122.322C66.6707 122.273 65.9401 122.217 65.2095 122.152C64.4789 122.07 63.8457 121.997 63.31 121.932L63.2369 119.156ZM63.1152 124.416C63.5048 124.481 63.9675 124.546 64.5033 124.611C65.039 124.676 65.5829 124.725 66.1349 124.757C66.7032 124.79 67.2389 124.822 67.7422 124.855C68.2455 124.871 68.6595 124.879 68.9842 124.879C70.4941 124.879 71.8579 124.847 73.0755 124.782C74.3094 124.717 75.4621 124.636 76.5336 124.538C77.6052 124.441 78.6361 124.327 79.6265 124.197L79.6021 127.071C78.7579 127.168 77.938 127.25 77.1425 127.314C76.3632 127.379 75.5595 127.436 74.7315 127.485C73.9197 127.534 73.043 127.566 72.1014 127.582C71.1597 127.599 70.1045 127.607 68.9355 127.607C68.4647 127.607 67.8802 127.599 67.1821 127.582C66.484 127.55 65.7696 127.509 65.039 127.461C64.3247 127.412 63.6915 127.355 63.1395 127.29L63.1152 124.416ZM88.5153 118.012C88.8562 118.06 89.2215 118.093 89.6112 118.109C90.0008 118.125 90.3742 118.133 90.7314 118.133C90.9912 118.133 91.3808 118.133 91.9003 118.133C92.4199 118.117 93.0043 118.101 93.6537 118.085C94.3194 118.068 94.9769 118.052 95.6263 118.036C96.2757 118.02 96.8602 118.004 97.3797 117.987C97.9155 117.955 98.3295 117.93 98.6217 117.914C99.125 117.866 99.5228 117.825 99.815 117.792C100.107 117.744 100.326 117.695 100.473 117.646L102.056 119.814C101.78 119.992 101.495 120.171 101.203 120.35C100.911 120.528 100.627 120.723 100.351 120.934C100.026 121.161 99.6365 121.462 99.1819 121.835C98.7273 122.192 98.2402 122.574 97.7207 122.98C97.2174 123.386 96.7222 123.783 96.2352 124.173C95.7643 124.563 95.3341 124.912 94.9445 125.22C95.3503 125.123 95.74 125.058 96.1134 125.025C96.4868 124.977 96.8683 124.952 97.258 124.952C98.638 124.952 99.8719 125.22 100.96 125.756C102.064 126.292 102.932 127.022 103.565 127.948C104.215 128.857 104.54 129.904 104.54 131.089C104.54 132.372 104.215 133.533 103.565 134.572C102.916 135.611 101.934 136.439 100.619 137.056C99.3199 137.673 97.6882 137.981 95.7237 137.981C94.6035 137.981 93.5888 137.819 92.6796 137.494C91.7867 137.169 91.0805 136.707 90.5609 136.106C90.0414 135.505 89.7816 134.799 89.7816 133.987C89.7816 133.322 89.9602 132.705 90.3174 132.136C90.6908 131.552 91.2022 131.081 91.8516 130.724C92.5173 130.367 93.2803 130.188 94.1408 130.188C95.261 130.188 96.2027 130.415 96.9657 130.87C97.745 131.308 98.3376 131.901 98.7435 132.648C99.1656 133.395 99.3848 134.214 99.401 135.107L96.5517 135.497C96.5355 134.604 96.3082 133.89 95.8699 133.354C95.4477 132.802 94.8795 132.526 94.1652 132.526C93.7106 132.526 93.3453 132.648 93.0693 132.891C92.7933 133.119 92.6553 133.386 92.6553 133.695C92.6553 134.15 92.8826 134.515 93.3372 134.791C93.7917 135.067 94.3843 135.205 95.1149 135.205C96.4949 135.205 97.6476 135.042 98.573 134.718C99.4985 134.377 100.188 133.898 100.643 133.281C101.114 132.648 101.349 131.901 101.349 131.04C101.349 130.31 101.122 129.669 100.667 129.117C100.229 128.565 99.6283 128.134 98.8653 127.826C98.1022 127.517 97.2417 127.363 96.2839 127.363C95.3422 127.363 94.4817 127.485 93.7025 127.728C92.9232 127.956 92.1845 128.289 91.4863 128.727C90.8045 129.149 90.1307 129.669 89.465 130.286C88.8156 130.886 88.1662 131.56 87.5168 132.307L85.3007 130.018C85.739 129.66 86.2342 129.263 86.7862 128.824C87.3382 128.37 87.8983 127.899 88.4666 127.412C89.051 126.925 89.5949 126.47 90.0982 126.048C90.6177 125.61 91.0561 125.244 91.4133 124.952C91.7542 124.676 92.152 124.352 92.6066 123.978C93.0612 123.605 93.532 123.223 94.019 122.834C94.5061 122.428 94.9688 122.046 95.4072 121.689C95.8455 121.316 96.2108 120.999 96.503 120.739C96.2595 120.739 95.9429 120.747 95.5533 120.764C95.1636 120.78 94.7334 120.796 94.2626 120.812C93.808 120.828 93.3453 120.845 92.8745 120.861C92.4199 120.877 91.9896 120.902 91.5837 120.934C91.1941 120.95 90.8694 120.966 90.6096 120.983C90.2849 120.999 89.944 121.023 89.5868 121.056C89.2296 121.088 88.9049 121.129 88.6127 121.178L88.5153 118.012ZM112.284 119.108C113.177 119.221 114.183 119.302 115.304 119.351C116.424 119.4 117.625 119.424 118.908 119.424C119.72 119.424 120.548 119.408 121.392 119.375C122.236 119.343 123.056 119.302 123.851 119.254C124.647 119.189 125.353 119.132 125.97 119.083V122.322C125.402 122.355 124.712 122.395 123.9 122.444C123.105 122.493 122.268 122.533 121.392 122.566C120.531 122.598 119.711 122.614 118.932 122.614C117.666 122.614 116.489 122.59 115.401 122.541C114.313 122.476 113.274 122.411 112.284 122.346V119.108ZM114.329 129.433C114.216 129.855 114.118 130.269 114.037 130.675C113.956 131.081 113.915 131.487 113.915 131.893C113.915 132.688 114.305 133.338 115.084 133.841C115.88 134.328 117.154 134.572 118.908 134.572C120.012 134.572 121.075 134.531 122.098 134.45C123.137 134.369 124.111 134.263 125.02 134.133C125.93 133.987 126.741 133.817 127.456 133.622L127.48 137.031C126.782 137.194 125.986 137.34 125.093 137.47C124.217 137.6 123.267 137.697 122.244 137.762C121.238 137.843 120.166 137.884 119.03 137.884C117.162 137.884 115.612 137.673 114.378 137.25C113.144 136.845 112.211 136.26 111.578 135.497C110.961 134.718 110.652 133.768 110.652 132.648C110.652 131.95 110.709 131.308 110.823 130.724C110.936 130.123 111.034 129.596 111.115 129.141L114.329 129.433ZM126.603 116.599C126.814 116.891 127.034 117.24 127.261 117.646C127.504 118.052 127.74 118.458 127.967 118.864C128.194 119.27 128.389 119.627 128.552 119.936L126.579 120.788C126.335 120.285 126.035 119.708 125.678 119.059C125.337 118.409 125.004 117.849 124.679 117.378L126.603 116.599ZM129.501 115.503C129.712 115.812 129.94 116.169 130.183 116.575C130.427 116.981 130.662 117.387 130.889 117.792C131.133 118.182 131.328 118.523 131.474 118.815L129.526 119.643C129.266 119.14 128.957 118.572 128.6 117.939C128.243 117.289 127.894 116.737 127.553 116.283L129.501 115.503ZM152.15 122.371C151.792 122.598 151.411 122.817 151.005 123.028C150.615 123.239 150.193 123.459 149.739 123.686C149.365 123.881 148.902 124.108 148.35 124.368C147.815 124.628 147.23 124.92 146.597 125.244C145.98 125.553 145.355 125.886 144.722 126.243C144.089 126.584 143.496 126.933 142.944 127.29C141.938 127.956 141.118 128.646 140.484 129.36C139.868 130.074 139.559 130.862 139.559 131.722C139.559 132.583 139.981 133.248 140.825 133.719C141.67 134.174 142.936 134.401 144.624 134.401C145.469 134.401 146.362 134.369 147.303 134.304C148.261 134.223 149.203 134.117 150.128 133.987C151.054 133.841 151.874 133.679 152.588 133.5L152.539 137.007C151.857 137.121 151.11 137.226 150.299 137.324C149.503 137.421 148.635 137.494 147.693 137.543C146.768 137.591 145.777 137.616 144.722 137.616C143.504 137.616 142.376 137.518 141.337 137.324C140.314 137.145 139.413 136.845 138.634 136.422C137.871 136 137.27 135.432 136.832 134.718C136.409 134.003 136.198 133.127 136.198 132.088C136.198 131.049 136.426 130.107 136.88 129.263C137.335 128.418 137.952 127.639 138.731 126.925C139.527 126.21 140.395 125.537 141.337 124.904C141.921 124.514 142.538 124.14 143.188 123.783C143.837 123.41 144.47 123.053 145.087 122.712C145.72 122.371 146.305 122.062 146.841 121.786C147.393 121.494 147.847 121.242 148.204 121.031C148.675 120.755 149.089 120.504 149.446 120.276C149.804 120.049 150.144 119.806 150.469 119.546L152.15 122.371ZM139.9 117.159C140.306 118.231 140.728 119.262 141.166 120.252C141.621 121.242 142.067 122.168 142.506 123.028C142.96 123.889 143.374 124.66 143.748 125.342L140.996 126.974C140.558 126.227 140.103 125.391 139.632 124.465C139.161 123.54 138.69 122.566 138.22 121.543C137.749 120.504 137.294 119.457 136.856 118.401L139.9 117.159ZM161.915 115.893L164.643 116.38C163.961 117.744 163.108 119.059 162.086 120.325C161.079 121.592 159.821 122.752 158.311 123.808C158.197 123.597 158.027 123.369 157.799 123.126C157.588 122.882 157.369 122.655 157.142 122.444C156.915 122.217 156.704 122.038 156.509 121.908C157.402 121.34 158.197 120.723 158.895 120.057C159.593 119.375 160.194 118.677 160.697 117.963C161.201 117.249 161.607 116.559 161.915 115.893ZM161.988 117.378H166.761V119.327H160.819L161.988 117.378ZM166.079 117.378H166.591L167.054 117.257L168.807 117.987C168.271 120 167.484 121.754 166.445 123.248C165.422 124.741 164.212 125.999 162.816 127.022C161.42 128.045 159.894 128.873 158.238 129.506C158.059 129.165 157.824 128.768 157.532 128.313C157.239 127.858 156.955 127.501 156.679 127.241C157.799 126.884 158.855 126.413 159.845 125.829C160.852 125.244 161.761 124.554 162.573 123.759C163.401 122.947 164.107 122.046 164.691 121.056C165.292 120.049 165.755 118.97 166.079 117.817V117.378ZM160.624 120.569L161.866 119.278C162.24 119.473 162.638 119.7 163.06 119.96C163.482 120.203 163.88 120.447 164.253 120.69C164.643 120.934 164.967 121.169 165.227 121.397L163.912 122.834C163.668 122.622 163.36 122.387 162.987 122.127C162.613 121.851 162.215 121.575 161.793 121.299C161.387 121.023 160.998 120.78 160.624 120.569ZM172.022 133.768L174.432 132.356C175.001 132.794 175.593 133.281 176.21 133.817C176.827 134.352 177.404 134.896 177.939 135.448C178.491 135.984 178.938 136.479 179.279 136.934L176.673 138.541C176.381 138.103 175.975 137.6 175.455 137.031C174.936 136.463 174.368 135.895 173.751 135.327C173.15 134.758 172.574 134.239 172.022 133.768ZM158.53 122.809L160.064 121.592C160.405 121.819 160.77 122.079 161.16 122.371C161.566 122.663 161.948 122.947 162.305 123.223C162.662 123.499 162.954 123.759 163.181 124.002L161.598 125.366C161.371 125.123 161.087 124.855 160.746 124.563C160.405 124.254 160.04 123.954 159.65 123.662C159.277 123.353 158.903 123.069 158.53 122.809ZM171.778 117.33H177.111V119.716H171.778V117.33ZM163.936 124.587H173.166V127.193H163.936V124.587ZM159.163 129.141H177.769V131.771H159.163V129.141ZM176.381 117.33H177.063L177.623 117.159L179.498 118.474C179.092 119.237 178.613 120.017 178.061 120.812C177.525 121.608 176.949 122.363 176.332 123.077C175.731 123.791 175.122 124.416 174.506 124.952C174.311 124.676 174.035 124.36 173.678 124.002C173.32 123.645 173.02 123.361 172.776 123.15C173.247 122.696 173.718 122.16 174.189 121.543C174.676 120.926 175.114 120.293 175.504 119.643C175.894 118.994 176.186 118.418 176.381 117.914V117.33ZM170.658 116.136C171.129 117.857 171.77 119.424 172.582 120.837C173.41 122.249 174.449 123.459 175.699 124.465C176.965 125.472 178.475 126.243 180.228 126.779C180.017 126.957 179.79 127.193 179.547 127.485C179.319 127.777 179.1 128.078 178.889 128.386C178.694 128.678 178.532 128.954 178.402 129.214C176.535 128.532 174.936 127.607 173.604 126.438C172.289 125.269 171.194 123.864 170.317 122.225C169.44 120.585 168.718 118.726 168.149 116.648L170.658 116.136ZM166.98 130.505H169.952V135.935C169.952 136.601 169.854 137.121 169.659 137.494C169.481 137.884 169.132 138.176 168.612 138.371C168.125 138.566 167.532 138.679 166.834 138.712C166.152 138.76 165.357 138.777 164.448 138.76C164.383 138.371 164.253 137.932 164.058 137.445C163.88 136.958 163.693 136.536 163.498 136.179C163.904 136.195 164.31 136.211 164.716 136.228C165.122 136.228 165.487 136.228 165.812 136.228C166.136 136.228 166.364 136.22 166.493 136.203C166.688 136.203 166.818 136.179 166.883 136.13C166.948 136.082 166.98 135.984 166.98 135.838V130.505ZM161.404 132.331L164.302 133.184C163.733 134.206 163.003 135.189 162.11 136.13C161.233 137.056 160.356 137.827 159.48 138.444C159.301 138.249 159.066 138.03 158.774 137.786C158.481 137.559 158.181 137.332 157.872 137.104C157.564 136.877 157.296 136.682 157.069 136.52C157.946 136.033 158.774 135.424 159.553 134.693C160.332 133.947 160.949 133.159 161.404 132.331ZM181.842 136.569V135.843L186.741 129.755C187.327 129.034 187.882 128.344 188.406 127.686C188.937 127.028 189.369 126.39 189.702 125.771C190.035 125.153 190.201 124.539 190.201 123.928C190.201 123.445 190.09 123.017 189.868 122.644C189.646 122.272 189.337 121.978 188.941 121.764C188.552 121.55 188.096 121.443 187.573 121.443C187.018 121.443 186.523 121.566 186.087 121.812C185.651 122.058 185.31 122.398 185.064 122.834C184.818 123.27 184.696 123.778 184.696 124.356H181.759C181.766 123.286 182.02 122.339 182.52 121.514C183.019 120.682 183.705 120.032 184.577 119.564C185.457 119.089 186.455 118.851 187.573 118.851C188.636 118.851 189.579 119.065 190.403 119.493C191.236 119.913 191.89 120.5 192.365 121.253C192.849 121.998 193.091 122.862 193.091 123.845C193.091 124.685 192.916 125.47 192.568 126.2C192.219 126.921 191.755 127.65 191.176 128.388C190.605 129.125 189.967 129.921 189.262 130.778L186.681 133.929V134.024L189.155 133.976H193.329V136.569H181.842ZM202.58 136.759C201.303 136.759 200.178 136.438 199.203 135.796C198.228 135.154 197.463 134.242 196.908 133.061C196.353 131.872 196.075 130.461 196.075 128.828V126.865C196.075 125.217 196.353 123.794 196.908 122.597C197.463 121.4 198.228 120.476 199.203 119.826C200.178 119.176 201.303 118.851 202.58 118.851C203.848 118.851 204.966 119.172 205.933 119.814C206.908 120.456 207.669 121.376 208.216 122.573C208.763 123.77 209.037 125.201 209.037 126.865V128.828C209.037 130.484 208.763 131.907 208.216 133.096C207.669 134.278 206.908 135.185 205.933 135.819C204.966 136.446 203.848 136.759 202.58 136.759ZM202.592 134.178C203.313 134.178 203.939 133.992 204.47 133.62C205.002 133.239 205.41 132.684 205.695 131.955C205.989 131.218 206.135 130.314 206.135 129.244V126.402C206.135 125.324 205.996 124.416 205.719 123.679C205.45 122.941 205.049 122.383 204.518 122.002C203.987 121.622 203.341 121.431 202.58 121.431C201.835 121.431 201.192 121.622 200.653 122.002C200.114 122.383 199.698 122.941 199.405 123.679C199.119 124.416 198.977 125.324 198.977 126.402V129.244C198.977 130.274 199.123 131.158 199.417 131.895C199.71 132.633 200.126 133.199 200.665 133.596C201.212 133.984 201.854 134.178 202.592 134.178ZM211.688 136.569V135.843L216.587 129.755C217.174 129.034 217.729 128.344 218.252 127.686C218.783 127.028 219.215 126.39 219.548 125.771C219.881 125.153 220.048 124.539 220.048 123.928C220.048 123.445 219.937 123.017 219.715 122.644C219.493 122.272 219.184 121.978 218.787 121.764C218.399 121.55 217.943 121.443 217.42 121.443C216.865 121.443 216.369 121.566 215.933 121.812C215.497 122.058 215.157 122.398 214.911 122.834C214.665 123.27 214.542 123.778 214.542 124.356H211.605C211.613 123.286 211.867 122.339 212.366 121.514C212.866 120.682 213.551 120.032 214.423 119.564C215.303 119.089 216.302 118.851 217.42 118.851C218.482 118.851 219.425 119.065 220.25 119.493C221.082 119.913 221.736 120.5 222.212 121.253C222.696 121.998 222.937 122.862 222.937 123.845C222.937 124.685 222.763 125.47 222.414 126.2C222.065 126.921 221.602 127.65 221.023 128.388C220.452 129.125 219.814 129.921 219.108 130.778L216.528 133.929V134.024L219.001 133.976H223.175V136.569H211.688ZM231.594 136.759C230.722 136.759 229.902 136.612 229.133 136.319C228.364 136.026 227.69 135.617 227.111 135.094C226.54 134.563 226.108 133.949 225.815 133.251L228.479 132.098C228.645 132.494 228.879 132.851 229.18 133.168C229.489 133.477 229.85 133.723 230.262 133.905C230.674 134.087 231.13 134.178 231.63 134.178C232.232 134.178 232.767 134.044 233.235 133.774C233.711 133.497 234.079 133.116 234.341 132.633C234.61 132.149 234.745 131.598 234.745 130.98C234.745 130.369 234.61 129.83 234.341 129.363C234.071 128.887 233.699 128.518 233.223 128.257C232.755 127.987 232.212 127.852 231.594 127.852C231.015 127.852 230.476 127.963 229.977 128.185C229.477 128.399 229.129 128.669 228.93 128.994L226.707 128.637V119.041H236.172V121.633H229.477V127.496L228.835 126.497C229.089 126.219 229.501 125.974 230.072 125.76C230.651 125.538 231.285 125.427 231.975 125.427C232.958 125.427 233.869 125.664 234.709 126.14C235.558 126.616 236.239 127.278 236.755 128.126C237.27 128.966 237.528 129.949 237.528 131.075C237.528 132.209 237.262 133.203 236.731 134.06C236.2 134.908 235.486 135.57 234.591 136.045C233.695 136.521 232.696 136.759 231.594 136.759Z" fill="white"/>
<path d="M24.0447 261.125C24.5461 261.198 25.1861 261.291 25.9646 261.403C26.7451 261.503 27.567 261.595 28.4304 261.68C29.2958 261.752 30.099 261.787 30.8401 261.787C31.351 261.793 31.8508 261.785 32.3392 261.761C32.8408 261.74 33.316 261.714 33.7649 261.685C34.2288 261.645 34.6475 261.591 35.021 261.524C35.4077 261.458 35.734 261.391 36.0001 261.322L37.3076 263.734C36.953 263.764 36.6456 263.793 36.3853 263.823C36.1251 263.853 35.9063 263.875 35.729 263.89C35.3046 263.936 34.8473 263.977 34.357 264.014C33.8685 264.038 33.3679 264.053 32.855 264.059C32.3421 264.066 31.8226 264.071 31.2965 264.076C30.529 264.072 29.7192 264.036 28.8671 263.966C28.0149 263.897 27.1901 263.824 26.3926 263.749C25.5971 263.661 24.908 263.581 24.3255 263.51L24.0447 261.125ZM22.9195 274.886C24.1572 274.527 25.2 274.024 26.048 273.379C26.911 272.723 27.5924 271.926 28.0921 270.988C28.6069 270.038 28.9542 268.944 29.1339 267.703C29.1339 267.703 29.1549 267.558 29.197 267.268C29.241 266.964 29.306 266.516 29.3921 265.922C29.48 265.315 29.5909 264.549 29.7248 263.626L32.3607 263.705C32.311 264.048 32.2575 264.417 32.2001 264.813C32.1446 265.196 32.0892 265.578 32.0337 265.961C31.9783 266.344 31.9276 266.693 31.8817 267.01C31.8377 267.314 31.8014 267.564 31.7727 267.762C31.7459 267.947 31.7326 268.039 31.7326 268.039C31.5413 269.359 31.1947 270.589 30.6928 271.728C30.204 272.87 29.5108 273.888 28.6134 274.782C27.7178 275.662 26.5746 276.393 25.1837 276.972L22.9195 274.886ZM21.8746 265.641C22.1479 265.707 22.441 265.777 22.7539 265.849C23.0667 265.921 23.3749 265.979 23.6784 266.023C23.8632 266.05 24.2128 266.101 24.7275 266.175C25.2421 266.25 25.8623 266.34 26.588 266.445C27.327 266.552 28.1187 266.667 28.9632 266.789C29.8077 266.912 30.6522 267.034 31.4967 267.156C32.3413 267.279 33.133 267.393 33.8719 267.501C34.6109 267.608 35.2443 267.699 35.7721 267.776C36.2999 267.852 36.6562 267.904 36.8409 267.931C36.9861 267.952 37.1718 267.972 37.398 267.991C37.6242 268.011 37.8505 268.03 38.0767 268.049C38.3181 268.057 38.5123 268.065 38.6593 268.073L38.2893 270.626C38.0292 270.562 37.7418 270.5 37.427 270.441C37.1254 270.384 36.8361 270.335 36.559 270.295C36.3742 270.268 36.018 270.216 35.4901 270.14C34.9755 270.065 34.3421 269.974 33.59 269.865C32.851 269.757 32.0527 269.642 31.195 269.517C30.3505 269.395 29.4994 269.272 28.6417 269.147C27.7972 269.025 27.0054 268.91 26.2665 268.803C25.5275 268.696 24.9008 268.605 24.3861 268.531C23.8715 268.456 23.535 268.407 23.3767 268.385C23.0732 268.341 22.7489 268.3 22.4039 268.264C22.0589 268.227 21.7592 268.204 21.5046 268.194L21.8746 265.641ZM48.5816 262.636C48.4475 262.882 48.3119 263.154 48.1747 263.454C48.0376 263.753 47.9231 264.007 47.8312 264.216C47.6926 264.542 47.5251 264.906 47.3287 265.309C47.1456 265.713 46.9488 266.122 46.7384 266.538C46.542 266.941 46.3408 267.31 46.1349 267.645C45.8534 268.137 45.503 268.665 45.0838 269.229C44.6787 269.78 44.2481 270.31 43.792 270.818C43.3367 271.313 42.8718 271.741 42.3974 272.102L39.9872 270.443C40.3609 270.21 40.7173 269.93 41.0563 269.602C41.4087 269.275 41.7419 268.933 42.0558 268.577C42.3831 268.221 42.6833 267.871 42.9566 267.526C43.2306 267.167 43.4698 266.834 43.6742 266.525C43.9661 266.087 44.2191 265.627 44.4333 265.145C44.6608 264.664 44.845 264.24 44.9859 263.875C45.1245 263.548 45.2373 263.208 45.3242 262.852C45.4251 262.484 45.4909 262.147 45.5215 261.842L48.5816 262.636ZM45.2528 265.532C45.4791 265.545 45.8119 265.564 46.2512 265.589C46.6905 265.614 47.203 265.642 47.7887 265.676C48.3744 265.709 48.9868 265.743 49.6258 265.779C50.2781 265.816 50.9237 265.853 51.5627 265.889C52.215 265.926 52.8207 265.96 53.3798 265.992C53.9522 266.024 54.4448 266.052 54.8574 266.075C55.2834 266.099 55.5962 266.117 55.7959 266.128C56.0622 266.143 56.3953 266.156 56.7955 266.165C57.1963 266.161 57.558 266.141 57.8805 266.106L57.7258 268.842C57.3554 268.781 56.9704 268.739 56.5711 268.716C56.1858 268.681 55.88 268.657 55.6537 268.644C55.4274 268.632 55.048 268.61 54.5155 268.58C53.983 268.55 53.364 268.515 52.6585 268.475C51.9529 268.435 51.2074 268.393 50.422 268.349C49.6499 268.305 48.8978 268.262 48.1656 268.221C47.4335 268.18 46.7812 268.143 46.2088 268.11C45.6363 268.078 45.197 268.053 44.8909 268.036L45.2528 265.532ZM52.959 267.41C52.8489 268.886 52.619 270.236 52.2695 271.458C51.9207 272.667 51.4585 273.756 50.8828 274.725C50.3205 275.695 49.6437 276.564 48.8523 277.334C48.0617 278.091 47.1702 278.742 46.1778 279.286L43.5849 277.317C43.9526 277.191 44.3081 277.044 44.6514 276.876C44.9955 276.696 45.293 276.512 45.5439 276.326C46.1412 275.919 46.6952 275.449 47.2061 274.917C47.731 274.373 48.2009 273.738 48.6158 273.014C49.0447 272.277 49.3928 271.435 49.66 270.489C49.9405 269.543 50.1216 268.465 50.2034 267.254L52.959 267.41ZM68.8723 267.077C68.9643 267.291 69.0823 267.599 69.2264 267.999C69.384 268.387 69.548 268.808 69.7184 269.263C69.8889 269.704 70.0396 270.125 70.1703 270.526C70.3011 270.926 70.4058 271.24 70.4843 271.468L68.079 272.292C68.0273 272.039 67.936 271.718 67.8051 271.33C67.6743 270.943 67.5302 270.535 67.3729 270.108C67.2158 269.667 67.0584 269.246 66.901 268.845C66.7436 268.444 66.6057 268.109 66.4874 267.842L68.8723 267.077ZM76.2429 268.584C76.1341 268.904 76.0391 269.176 75.9576 269.402C75.8895 269.629 75.8215 269.842 75.7535 270.041C75.4937 271.053 75.1406 272.064 74.6942 273.074C74.2478 274.072 73.6818 275.008 72.9962 275.884C72.0552 277.078 70.9887 278.091 69.7967 278.923C68.6181 279.742 67.4408 280.368 66.2646 280.801L64.1784 278.647C64.913 278.452 65.6881 278.164 66.5039 277.782C67.3198 277.387 68.1095 276.912 68.8731 276.357C69.6366 275.802 70.2939 275.186 70.8449 274.51C71.3019 273.939 71.7061 273.289 72.0574 272.558C72.4222 271.813 72.7206 271.022 72.9526 270.183C73.198 269.331 73.3634 268.493 73.4487 267.666L76.2429 268.584ZM64.2257 268.108C64.3574 268.362 64.5019 268.689 64.6594 269.09C64.8302 269.491 65.0008 269.912 65.1713 270.354C65.3419 270.795 65.5058 271.222 65.6631 271.637C65.8338 272.051 65.965 272.399 66.0565 272.679L63.6107 273.584C63.5324 273.317 63.4146 272.969 63.2573 272.541C63.1134 272.114 62.9496 271.666 62.7659 271.198C62.5823 270.717 62.4051 270.276 62.2343 269.875C62.0769 269.474 61.9388 269.166 61.8202 268.952L64.2257 268.108ZM84.8967 276.862C84.887 276.609 84.8713 276.196 84.8495 275.623C84.8272 275.037 84.8015 274.364 84.7726 273.605C84.7432 272.832 84.7125 272.026 84.6805 271.187C84.6485 270.347 84.6178 269.541 84.5884 268.768C84.5585 267.982 84.5321 267.289 84.5092 266.69C84.4864 266.09 84.4697 265.651 84.459 265.371C84.4458 265.024 84.4106 264.625 84.3534 264.174C84.3095 263.722 84.2476 263.324 84.1678 262.98L87.2856 262.861C87.2588 263.209 87.2335 263.597 87.2098 264.025C87.1855 264.44 87.1813 264.854 87.197 265.267C87.2112 265.64 87.2305 266.146 87.2549 266.785C87.2792 267.425 87.3064 268.138 87.3363 268.924C87.3657 269.697 87.3959 270.489 87.4269 271.302C87.4573 272.102 87.4868 272.874 87.5152 273.62C87.5436 274.367 87.5685 275.019 87.5898 275.579C87.6106 276.125 87.6256 276.518 87.6347 276.758C87.6418 276.945 87.6586 277.211 87.6851 277.557C87.7111 277.889 87.751 278.235 87.8047 278.593C87.8583 278.951 87.8972 279.27 87.9211 279.549L84.8034 279.668C84.8415 279.266 84.8703 278.798 84.89 278.264C84.9097 277.729 84.9119 277.262 84.8967 276.862ZM86.7033 268.067C87.376 268.215 88.1308 268.413 88.9675 268.662C89.8037 268.897 90.6474 269.151 91.4984 269.426C92.3495 269.7 93.1473 269.977 93.8917 270.255C94.649 270.52 95.279 270.77 95.7816 271.004L94.7475 273.805C94.1767 273.534 93.546 273.264 92.8553 272.997C92.1641 272.716 91.4602 272.449 90.7433 272.197C90.0399 271.943 89.3438 271.71 88.6551 271.496C87.9798 271.281 87.3655 271.091 86.8121 270.925L86.7033 268.067ZM105.694 262.184L116.278 261.307L116.416 262.981L105.833 263.859L105.694 262.184ZM105.773 267.014L117.055 266.079L117.193 267.753L105.912 268.689L105.773 267.014ZM106.292 274.477L117.692 273.532L117.833 275.226L106.432 276.171L106.292 274.477ZM106.372 264.556L116.179 263.743L116.311 265.338L106.504 266.151L106.372 264.556ZM107.739 260.47L109.812 260.298L110.399 267.373L108.326 267.545L107.739 260.47ZM111.865 260.127L113.978 259.952L114.564 267.028L112.452 267.203L111.865 260.127ZM110.402 267.413L112.475 267.241L113.068 274.397L110.995 274.569L110.402 267.413ZM114.167 268.767L116.339 268.587L116.984 276.36C117.025 276.852 116.997 277.242 116.9 277.531C116.818 277.832 116.618 278.076 116.299 278.263C115.966 278.451 115.562 278.578 115.086 278.645C114.624 278.723 114.061 278.79 113.397 278.845C113.333 278.556 113.226 278.237 113.077 277.888C112.927 277.539 112.775 277.237 112.62 276.983C113.007 276.964 113.386 276.939 113.758 276.908C114.143 276.876 114.396 276.856 114.515 276.846C114.635 276.836 114.713 276.809 114.75 276.766C114.798 276.708 114.818 276.627 114.81 276.52L114.167 268.767ZM106.932 269.367L115.104 268.689L115.242 270.363L109.203 270.864L109.89 279.156L107.758 279.332L106.932 269.367ZM108.201 271.85L115.297 271.262L115.421 272.757L108.325 273.345L108.201 271.85ZM100.89 274.925L103.003 275.231C102.82 276.089 102.549 276.941 102.191 277.787C101.832 278.62 101.436 279.328 101.003 279.913C100.873 279.803 100.689 279.684 100.451 279.557C100.213 279.429 99.9753 279.302 99.7373 279.175C99.4993 279.047 99.2973 278.95 99.1312 278.884C99.5433 278.368 99.9007 277.756 100.203 277.049C100.519 276.34 100.748 275.632 100.89 274.925ZM103.282 275.449L104.993 274.545C105.367 275.022 105.739 275.553 106.108 276.138C106.49 276.708 106.786 277.212 106.996 277.65L105.215 278.68C105.097 278.382 104.929 278.048 104.711 277.679C104.505 277.294 104.279 276.912 104.034 276.531C103.787 276.136 103.536 275.776 103.282 275.449ZM101.34 267.282L101.495 269.155L103.469 268.991L103.313 267.118L101.34 267.282ZM101.641 270.909L101.796 272.783L103.769 272.619L103.614 270.745L101.641 270.909ZM101.041 263.674L101.193 265.508L103.166 265.344L103.014 263.51L101.041 263.674ZM98.851 261.949L104.95 261.443L106.021 274.359L99.9218 274.865L98.851 261.949ZM121.083 260.266L126.715 259.527L127.032 261.946L121.401 262.685L121.083 260.266ZM125.545 259.681L128.004 259.358C128.087 259.993 128.208 260.71 128.367 261.509C128.524 262.295 128.748 263.133 129.039 264.023C129.329 264.899 129.708 265.791 130.177 266.698C130.646 267.604 131.226 268.49 131.917 269.354C132.62 270.203 133.464 271 134.45 271.745C135.435 272.49 136.583 273.146 137.895 273.713C137.741 273.868 137.554 274.088 137.336 274.372C137.118 274.656 136.907 274.946 136.704 275.241C136.515 275.549 136.362 275.817 136.245 276.048C134.901 275.444 133.711 274.726 132.674 273.894C131.635 273.049 130.735 272.131 129.973 271.142C129.21 270.139 128.564 269.115 128.037 268.068C127.508 267.008 127.076 265.968 126.74 264.95C126.403 263.918 126.142 262.951 125.956 262.047C125.77 261.144 125.633 260.355 125.545 259.681ZM125.265 264.155L128.046 264.294C127.853 266.31 127.485 268.167 126.942 269.865C126.398 271.564 125.677 273.091 124.779 274.446C123.894 275.799 122.819 276.982 121.553 277.995C121.385 277.843 121.153 277.658 120.855 277.441C120.56 277.238 120.25 277.03 119.926 276.817C119.617 276.615 119.348 276.456 119.117 276.338C121.055 275.021 122.515 273.337 123.497 271.286C124.477 269.221 125.066 266.844 125.265 264.155ZM143.861 260.496C144.434 260.443 145.006 260.384 145.577 260.317C146.159 260.236 146.744 260.139 147.334 260.029C148.54 259.803 149.729 259.526 150.902 259.198C152.075 258.87 153.145 258.5 154.113 258.088L154.573 260.546C153.578 260.881 152.492 261.206 151.317 261.521C150.139 261.823 148.954 262.086 147.761 262.309C147.185 262.417 146.607 262.519 146.028 262.614C145.459 262.693 144.883 262.767 144.299 262.836L143.861 260.496ZM150.709 255.775C150.717 255.964 150.729 256.172 150.744 256.399C150.773 256.625 150.802 256.85 150.83 257.075C150.856 257.287 150.896 257.571 150.949 257.928C151.002 258.284 151.071 258.685 151.154 259.131C151.235 259.563 151.321 260.022 151.412 260.507C151.579 261.398 151.749 262.234 151.922 263.016C152.093 263.784 152.261 264.499 152.426 265.16C152.588 265.808 152.733 266.404 152.862 266.95C153.005 267.493 153.12 268 153.209 268.472C153.304 268.983 153.321 269.468 153.257 269.928C153.207 270.385 153.062 270.806 152.822 271.19C152.582 271.574 152.229 271.898 151.763 272.161C151.312 272.435 150.733 272.639 150.025 272.771C148.662 273.027 147.536 272.953 146.647 272.549C145.757 272.146 145.216 271.427 145.022 270.392C144.897 269.723 144.965 269.107 145.225 268.543C145.483 267.965 145.914 267.478 146.518 267.08C147.119 266.669 147.866 266.38 148.757 266.213C149.687 266.039 150.551 265.979 151.348 266.033C152.145 266.087 152.888 266.219 153.579 266.429C154.269 266.639 154.894 266.895 155.452 267.197C156.021 267.484 156.536 267.768 156.995 268.048L156.025 270.366C155.146 269.798 154.304 269.325 153.501 268.946C152.697 268.568 151.916 268.307 151.157 268.164C150.411 268.019 149.664 268.017 148.917 268.157C148.367 268.26 147.934 268.449 147.62 268.725C147.318 268.999 147.203 269.325 147.274 269.705C147.348 270.099 147.579 270.354 147.967 270.471C148.355 270.588 148.805 270.599 149.316 270.503C149.722 270.427 150.031 270.302 150.242 270.126C150.451 269.938 150.577 269.704 150.62 269.425C150.673 269.13 150.664 268.793 150.593 268.412C150.529 268.072 150.433 267.629 150.303 267.083C150.174 266.538 150.026 265.928 149.859 265.254C149.705 264.577 149.546 263.874 149.383 263.145C149.217 262.403 149.067 261.678 148.935 260.971C148.795 260.223 148.662 259.55 148.536 258.949C148.421 258.333 148.335 257.875 148.278 257.573C148.251 257.429 148.2 257.228 148.125 256.971C148.05 256.714 147.974 256.491 147.898 256.302L150.709 255.775ZM141.156 257.788C141.141 257.926 141.117 258.121 141.082 258.371C141.061 258.62 141.045 258.86 141.034 259.093C141.037 259.323 141.036 259.499 141.032 259.622C141.018 259.91 141.016 260.297 141.025 260.783C141.033 261.256 141.045 261.797 141.064 262.404C141.094 262.995 141.127 263.606 141.163 264.237C141.197 264.854 141.246 265.442 141.31 266C141.372 266.544 141.439 267.013 141.513 267.407C141.549 267.603 141.59 267.819 141.634 268.055C141.689 268.276 141.754 268.48 141.831 268.67C141.878 268.417 141.927 268.17 141.977 267.93C142.04 267.688 142.103 267.445 142.166 267.203C142.229 266.96 142.286 266.719 142.336 266.479L143.719 267.238C143.636 267.809 143.552 268.408 143.466 269.035C143.393 269.659 143.327 270.248 143.267 270.802C143.221 271.353 143.192 271.813 143.18 272.181C143.178 272.317 143.181 272.479 143.19 272.668C143.211 272.854 143.233 273.006 143.255 273.124C143.274 273.228 143.298 273.353 143.325 273.497C143.367 273.652 143.407 273.794 143.445 273.922L141.257 274.515C140.917 273.86 140.568 273.009 140.209 271.964C139.848 270.906 139.543 269.708 139.292 268.372C139.155 267.638 139.044 266.865 138.96 266.053C138.873 265.228 138.799 264.435 138.738 263.673C138.69 262.909 138.654 262.211 138.631 261.577C138.604 260.931 138.582 260.413 138.563 260.023C138.551 259.741 138.533 259.425 138.508 259.077C138.481 258.716 138.445 258.377 138.399 258.06L141.156 257.788ZM158.739 255.16C159.469 255.057 160.285 254.912 161.187 254.724C162.089 254.537 163.05 254.314 164.071 254.055C164.704 253.894 165.354 253.715 166.019 253.519C166.697 253.319 167.348 253.12 167.972 252.92C168.595 252.721 169.146 252.533 169.624 252.357L170.278 254.935C169.836 255.089 169.296 255.267 168.66 255.469C168.036 255.669 167.379 255.87 166.688 256.073C166.006 256.26 165.355 256.432 164.735 256.589C163.727 256.845 162.785 257.063 161.909 257.244C161.033 257.425 160.193 257.583 159.388 257.719L158.739 255.16ZM162.453 262.966C162.448 263.325 162.454 263.674 162.471 264.014C162.488 264.353 162.538 264.685 162.62 265.008C162.778 265.628 163.217 266.06 163.939 266.303C164.674 266.543 165.739 266.486 167.135 266.132C168.014 265.909 168.852 265.662 169.65 265.391C170.448 265.119 171.194 264.834 171.888 264.534C172.595 264.231 173.214 263.929 173.743 263.63L174.456 266.358C173.92 266.632 173.315 266.903 172.64 267.17C171.968 267.451 171.232 267.72 170.431 267.978C169.646 268.246 168.801 268.495 167.896 268.724C166.423 269.098 165.148 269.25 164.071 269.179C162.993 269.109 162.132 268.832 161.487 268.349C160.839 267.853 160.401 267.16 160.175 266.268C160.031 265.699 159.945 265.171 159.917 264.683C159.89 264.194 159.869 263.759 159.854 263.378L162.453 262.966ZM180.852 247.388C180.864 247.751 180.888 248.109 180.925 248.463C180.971 248.799 181.016 249.136 181.061 249.473C181.102 249.797 181.146 250.17 181.192 250.591C181.251 251.008 181.306 251.455 181.357 251.931C181.416 252.39 181.465 252.859 181.503 253.34C181.554 253.816 181.596 254.288 181.63 254.755C181.66 255.21 181.685 255.632 181.706 256.02C182.327 255.326 182.986 254.761 183.682 254.325C184.373 253.875 185.141 253.505 185.986 253.215C187.007 252.863 187.955 252.728 188.828 252.808C189.715 252.884 190.47 253.153 191.094 253.615C191.731 254.073 192.188 254.705 192.466 255.512C192.83 256.571 192.892 257.551 192.652 258.451C192.424 259.347 191.928 260.16 191.164 260.888C190.412 261.612 189.425 262.247 188.203 262.795C186.994 263.337 185.598 263.789 184.016 264.15L182.515 261.938C183.61 261.759 184.649 261.5 185.632 261.162C186.628 260.819 187.491 260.417 188.22 259.955C188.949 259.492 189.476 258.973 189.799 258.396C190.131 257.803 190.177 257.159 189.939 256.466C189.743 255.899 189.337 255.495 188.719 255.257C188.097 255.006 187.325 255.038 186.405 255.355C185.308 255.732 184.365 256.268 183.574 256.963C182.797 257.654 182.248 258.456 181.927 259.37C181.887 259.539 181.844 259.701 181.799 259.858C181.767 260.01 181.729 260.185 181.684 260.384L179.179 260.357C179.298 259.555 179.359 258.667 179.363 257.693C179.366 256.719 179.336 255.749 179.272 254.784C179.207 253.819 179.121 252.932 179.012 252.124C178.899 251.303 178.791 250.642 178.69 250.141C178.614 249.716 178.535 249.362 178.452 249.081C178.365 248.786 178.256 248.492 178.127 248.198L180.852 247.388ZM175.012 251.871C175.652 251.764 176.338 251.627 177.07 251.459C177.798 251.28 178.458 251.088 179.051 250.884C179.656 250.676 180.311 250.429 181.017 250.144C181.735 249.855 182.485 249.533 183.266 249.18C184.047 248.827 184.821 248.455 185.589 248.064C186.365 247.656 187.116 247.235 187.841 246.803L188.653 249.04C188.083 249.349 187.43 249.686 186.696 250.052C185.974 250.413 185.212 250.781 184.411 251.155C183.604 251.517 182.807 251.862 182.017 252.19C181.227 252.518 180.492 252.799 179.811 253.033C179.08 253.285 178.376 253.513 177.699 253.718C177.03 253.905 176.404 254.072 175.819 254.216L175.012 251.871ZM195.65 241.489C196.147 241.42 196.756 241.306 197.476 241.148C198.197 240.99 198.947 240.818 199.728 240.631C200.503 240.433 201.228 240.236 201.902 240.041C202.588 239.84 203.141 239.671 203.563 239.534L204.047 241.999C203.661 242.12 203.189 242.258 202.63 242.415C202.077 242.554 201.485 242.704 200.854 242.865C200.235 243.02 199.622 243.173 199.015 243.322C198.403 243.46 197.842 243.581 197.332 243.685C196.822 243.79 196.405 243.873 196.081 243.936L195.65 241.489ZM197.453 245.085C197.504 245.355 197.584 245.7 197.691 246.121C197.805 246.523 197.927 246.945 198.057 247.384C198.188 247.823 198.31 248.244 198.424 248.647C198.549 249.044 198.653 249.378 198.735 249.649C199.282 248.675 199.938 247.841 200.704 247.147C201.482 246.447 202.342 245.879 203.285 245.44C204.349 244.946 205.346 244.718 206.276 244.757C207.205 244.796 208.009 245.04 208.688 245.489C209.38 245.932 209.897 246.523 210.239 247.26C210.621 248.083 210.8 248.926 210.775 249.79C210.75 250.654 210.454 251.52 209.886 252.386C209.318 253.253 208.435 254.089 207.237 254.896C206.038 255.703 204.459 256.465 202.5 257.184L200.707 255.128C202.633 254.528 204.173 253.856 205.328 253.114C206.477 252.36 207.246 251.576 207.633 250.764C208.027 249.935 208.047 249.139 207.693 248.377C207.507 247.978 207.23 247.681 206.859 247.485C206.484 247.277 206.051 247.184 205.561 247.206C205.066 247.216 204.558 247.341 204.038 247.583C203.022 248.055 202.154 248.686 201.433 249.476C200.719 250.249 200.238 251.112 199.99 252.066C199.922 252.332 199.874 252.575 199.843 252.795C199.82 252.997 199.808 253.209 199.807 253.429L197.477 253.872C197.387 253.488 197.268 253.043 197.122 252.538C196.969 252.02 196.803 251.473 196.623 250.895C196.437 250.305 196.245 249.718 196.047 249.133C195.85 248.549 195.648 247.974 195.444 247.407C195.24 246.84 195.046 246.328 194.862 245.869L197.453 245.085ZM223.481 227.164C223.845 226.812 224.31 226.363 224.875 225.816C225.432 225.259 226.007 224.666 226.603 224.034C227.189 223.394 227.708 222.78 228.161 222.193C228.479 221.793 228.778 221.393 229.058 220.992C229.348 220.582 229.618 220.191 229.87 219.818C230.122 219.426 230.335 219.062 230.511 218.725C230.696 218.379 230.842 218.08 230.95 217.827L233.658 218.269C233.465 218.567 233.3 218.828 233.164 219.053C233.028 219.277 232.912 219.463 232.815 219.612C232.592 219.976 232.345 220.364 232.074 220.774C231.794 221.175 231.5 221.58 231.191 221.99C230.883 222.399 230.569 222.814 230.251 223.233C229.779 223.838 229.255 224.456 228.678 225.088C228.102 225.719 227.54 226.327 226.993 226.912C226.436 227.487 225.952 227.984 225.539 228.401L223.481 227.164ZM233.678 236.473C234.151 235.274 234.392 234.141 234.4 233.076C234.409 231.992 234.195 230.965 233.759 229.996C233.323 229.008 232.669 228.063 231.798 227.162C231.798 227.162 231.696 227.057 231.492 226.846C231.279 226.626 230.963 226.3 230.546 225.869C230.12 225.428 229.582 224.872 228.934 224.201L230.608 222.164C230.849 222.413 231.109 222.681 231.387 222.969C231.656 223.247 231.925 223.525 232.193 223.803C232.462 224.081 232.708 224.335 232.93 224.565C233.143 224.785 233.32 224.967 233.459 225.111C233.588 225.245 233.653 225.312 233.653 225.312C234.58 226.271 235.341 227.297 235.935 228.392C236.54 229.477 236.921 230.648 237.079 231.904C237.228 233.152 237.106 234.503 236.714 235.958L233.678 236.473ZM225.725 231.643C225.945 231.468 226.179 231.279 226.428 231.075C226.677 230.872 226.911 230.664 227.132 230.451C227.266 230.321 227.52 230.075 227.894 229.714C228.267 229.352 228.718 228.917 229.245 228.407C229.782 227.888 230.357 227.332 230.97 226.738C231.584 226.145 232.197 225.552 232.811 224.959C233.424 224.366 233.999 223.809 234.536 223.29C235.073 222.771 235.533 222.327 235.916 221.956C236.299 221.585 236.558 221.335 236.692 221.205C236.798 221.103 236.927 220.968 237.081 220.801C237.235 220.634 237.388 220.467 237.542 220.3C237.696 220.114 237.821 219.965 237.917 219.854L239.711 221.708C239.501 221.874 239.276 222.064 239.036 222.277C238.807 222.48 238.591 222.68 238.39 222.874C238.256 223.004 237.997 223.254 237.614 223.625C237.24 223.986 236.78 224.431 236.233 224.96C235.697 225.479 235.117 226.039 234.494 226.642C233.88 227.235 233.262 227.833 232.639 228.435C232.026 229.029 231.451 229.585 230.914 230.104C230.377 230.623 229.922 231.063 229.548 231.425C229.174 231.786 228.93 232.022 228.815 232.134C228.594 232.347 228.364 232.579 228.124 232.829C227.884 233.08 227.682 233.303 227.519 233.498L225.725 231.643ZM237.75 209.104C237.904 209.338 238.081 209.586 238.281 209.848C238.48 210.11 238.65 210.33 238.791 210.51C239.014 210.785 239.257 211.104 239.52 211.467C239.79 211.819 240.059 212.185 240.327 212.566C240.59 212.929 240.821 213.28 241.02 213.619C241.322 214.099 241.623 214.656 241.923 215.292C242.219 215.908 242.484 216.538 242.719 217.179C242.941 217.814 243.1 218.425 243.195 219.013L240.598 220.36C240.568 219.921 240.489 219.475 240.359 219.021C240.235 218.557 240.091 218.102 239.924 217.657C239.764 217.201 239.596 216.772 239.42 216.368C239.233 215.958 239.051 215.59 238.874 215.264C238.625 214.801 238.338 214.361 238.014 213.945C237.696 213.518 237.409 213.157 237.152 212.86C236.93 212.584 236.682 212.325 236.409 212.081C236.131 211.818 235.865 211.602 235.61 211.431L237.75 209.104ZM238.741 213.404C238.858 213.21 239.031 212.926 239.26 212.55C239.488 212.174 239.755 211.735 240.06 211.234C240.364 210.732 240.683 210.208 241.015 209.661C241.355 209.103 241.69 208.55 242.023 208.003C242.362 207.445 242.677 206.927 242.968 206.448C243.266 205.958 243.522 205.536 243.737 205.183C243.958 204.819 244.121 204.551 244.225 204.38C244.363 204.152 244.531 203.864 244.727 203.515C244.912 203.159 245.065 202.831 245.185 202.53L247.527 203.953C247.299 204.251 247.081 204.571 246.873 204.913C246.661 205.236 246.496 205.495 246.378 205.689C246.261 205.882 246.063 206.207 245.786 206.663C245.509 207.119 245.187 207.649 244.82 208.252C244.453 208.856 244.066 209.494 243.657 210.167C243.255 210.828 242.864 211.471 242.483 212.098C242.102 212.725 241.763 213.283 241.465 213.773C241.168 214.263 240.939 214.639 240.78 214.901L238.741 213.404ZM244.022 207.486C245.273 208.278 246.356 209.115 247.27 209.998C248.173 210.875 248.916 211.795 249.501 212.759C250.092 213.711 250.542 214.717 250.849 215.778C251.145 216.831 251.3 217.924 251.314 219.056L248.356 220.418C248.418 220.034 248.456 219.652 248.469 219.27C248.471 218.881 248.449 218.532 248.403 218.223C248.325 217.505 248.171 216.795 247.942 216.094C247.708 215.375 247.369 214.662 246.925 213.955C246.476 213.23 245.897 212.527 245.188 211.846C244.485 211.153 243.619 210.487 242.589 209.845L244.022 207.486ZM249.82 193.247C250.053 193.234 250.382 193.228 250.808 193.23C251.226 193.214 251.678 193.204 252.163 193.199C252.636 193.19 253.083 193.192 253.505 193.206C253.926 193.221 254.257 193.23 254.497 193.233L254.45 195.776C254.194 195.738 253.861 195.714 253.452 195.704C253.044 195.695 252.611 195.691 252.156 195.692C251.687 195.689 251.238 195.693 250.807 195.704C250.377 195.715 250.015 195.73 249.724 195.75L249.82 193.247ZM253.756 186.836C254.019 187.047 254.243 187.23 254.427 187.384C254.617 187.525 254.794 187.662 254.958 187.794C255.82 188.384 256.649 189.061 257.446 189.826C258.231 190.587 258.917 191.439 259.506 192.382C260.306 193.675 260.894 195.023 261.269 196.428C261.636 197.816 261.821 199.136 261.826 200.389L259.089 201.614C259.156 200.857 259.15 200.03 259.071 199.133C258.979 198.231 258.802 197.326 258.542 196.419C258.281 195.512 257.927 194.684 257.48 193.934C257.1 193.31 256.626 192.708 256.059 192.128C255.484 191.53 254.843 190.979 254.134 190.475C253.417 189.953 252.686 189.511 251.938 189.148L253.756 186.836ZM249.2 197.966C249.484 197.93 249.841 197.906 250.272 197.895C250.707 197.871 251.161 197.855 251.634 197.846C252.107 197.836 252.565 197.828 253.008 197.822C253.456 197.803 253.827 197.799 254.122 197.809L254.136 200.416C253.858 200.399 253.492 200.39 253.036 200.392C252.585 200.381 252.108 200.382 251.606 200.395C251.091 200.403 250.616 200.419 250.18 200.442C249.75 200.453 249.413 200.477 249.172 200.516L249.2 197.966ZM263.684 181.589C263.435 181.541 263.029 181.464 262.465 181.357C261.889 181.247 261.228 181.121 260.481 180.979C259.721 180.834 258.929 180.683 258.104 180.526C257.279 180.369 256.486 180.218 255.727 180.073C254.954 179.926 254.273 179.796 253.683 179.684C253.094 179.572 252.662 179.49 252.387 179.437C252.046 179.372 251.649 179.317 251.196 179.272C250.746 179.213 250.345 179.184 249.991 179.185L250.575 176.12C250.908 176.224 251.281 176.336 251.692 176.455C252.091 176.571 252.493 176.668 252.899 176.746C253.266 176.815 253.764 176.91 254.392 177.03C255.021 177.15 255.722 177.283 256.494 177.43C257.254 177.575 258.033 177.723 258.832 177.876C259.618 178.025 260.378 178.17 261.112 178.31C261.845 178.449 262.487 178.571 263.037 178.676C263.574 178.778 263.96 178.852 264.196 178.897C264.379 178.932 264.643 178.975 264.986 179.027C265.316 179.076 265.661 179.115 266.022 179.143C266.383 179.171 266.703 179.205 266.98 179.244L266.397 182.309C266.014 182.182 265.564 182.048 265.048 181.909C264.531 181.77 264.076 181.663 263.684 181.589ZM255.518 177.855C255.813 177.233 256.175 176.542 256.605 175.782C257.021 175.02 257.459 174.255 257.917 173.487C258.376 172.719 258.824 172.004 259.263 171.341C259.69 170.662 260.075 170.104 260.416 169.667L262.914 171.303C262.521 171.798 262.117 172.352 261.702 172.966C261.273 173.576 260.855 174.202 260.448 174.844C260.043 175.473 259.659 176.099 259.296 176.722C258.936 177.332 258.613 177.888 258.327 178.39L255.518 177.855ZM252.903 159.15L252.936 148.53L254.616 148.535L254.583 159.155L252.903 159.15ZM257.722 159.485L257.757 148.165L259.437 148.17L259.402 159.49L257.722 159.485ZM265.202 159.608L265.237 148.168L266.937 148.173L266.902 159.613L265.202 159.608ZM255.325 158.677L255.355 148.837L256.955 148.842L256.925 158.682L255.325 158.677ZM251.37 156.965L251.376 154.885L258.476 154.907L258.47 156.987L251.37 156.965ZM251.382 152.825L251.389 150.705L258.489 150.727L258.482 152.847L251.382 152.825ZM258.516 154.907L258.522 152.827L265.702 152.849L265.696 154.929L258.516 154.907ZM260.187 151.272L260.194 149.092L267.994 149.116C268.487 149.118 268.874 149.179 269.153 149.3C269.446 149.407 269.672 149.628 269.831 149.962C269.99 150.309 270.082 150.723 270.108 151.203C270.146 151.669 270.164 152.236 270.162 152.903C269.869 152.942 269.542 153.021 269.182 153.14C268.821 153.259 268.508 153.384 268.24 153.517C268.255 153.13 268.263 152.75 268.264 152.377C268.265 151.99 268.266 151.737 268.266 151.617C268.267 151.497 268.247 151.417 268.207 151.377C268.154 151.323 268.074 151.296 267.967 151.296L260.187 151.272ZM260.165 158.532L260.19 150.332L261.87 150.337L261.852 156.397L270.172 156.423L270.165 158.563L260.165 158.532ZM262.748 157.48L262.77 150.36L264.27 150.365L264.248 157.485L262.748 157.48ZM265.185 165.028L265.672 162.949C266.511 163.205 267.336 163.548 268.148 163.977C268.947 164.406 269.619 164.861 270.164 165.343C270.044 165.463 269.91 165.635 269.763 165.862C269.615 166.088 269.468 166.314 269.321 166.54C269.173 166.767 269.059 166.959 268.979 167.119C268.5 166.664 267.921 166.256 267.243 165.894C266.564 165.519 265.878 165.23 265.185 165.028ZM265.912 162.69L265.158 160.908C265.665 160.576 266.226 160.251 266.841 159.933C267.442 159.601 267.969 159.349 268.423 159.178L269.297 161.04C268.99 161.133 268.643 161.272 268.256 161.457C267.856 161.629 267.455 161.821 267.054 162.033C266.64 162.245 266.26 162.464 265.912 162.69ZM257.609 163.924L259.489 163.93L259.495 161.95L257.615 161.944L257.609 163.924ZM261.249 163.936L263.129 163.941L263.135 161.961L261.255 161.956L261.249 163.936ZM253.989 163.913L255.829 163.919L255.835 161.939L253.995 161.933L253.989 163.913ZM252.082 165.948L252.101 159.828L265.061 159.867L265.042 165.987L252.082 165.948ZM251.927 144.998L250.872 139.417L253.27 138.963L254.325 144.545L251.927 144.998ZM251.092 140.576L250.631 138.139C251.26 138.02 251.969 137.859 252.758 137.656C253.534 137.455 254.358 137.184 255.23 136.842C256.089 136.504 256.958 136.075 257.836 135.556C258.715 135.037 259.567 134.408 260.39 133.669C261.199 132.919 261.947 132.031 262.635 131.006C263.323 129.98 263.913 128.796 264.406 127.455C264.569 127.6 264.799 127.774 265.095 127.976C265.391 128.178 265.692 128.372 265.999 128.558C266.316 128.729 266.593 128.866 266.83 128.971C266.303 130.346 265.653 131.575 264.881 132.657C264.095 133.742 263.23 134.693 262.285 135.509C261.327 136.328 260.34 137.03 259.325 137.615C258.296 138.203 257.283 138.693 256.285 139.086C255.274 139.48 254.323 139.796 253.431 140.032C252.54 140.269 251.76 140.45 251.092 140.576ZM255.575 140.604L255.557 137.819C257.58 137.898 259.455 138.161 261.182 138.608C262.908 139.055 264.473 139.689 265.876 140.509C267.277 141.316 268.519 142.323 269.602 143.529C269.459 143.706 269.288 143.948 269.088 144.257C268.902 144.564 268.712 144.885 268.517 145.22C268.334 145.54 268.189 145.818 268.085 146.055C266.661 144.194 264.897 142.831 262.793 141.967C260.677 141.105 258.27 140.651 255.575 140.604ZM250.211 123.087C250.054 122.533 249.89 121.982 249.721 121.433C249.534 120.876 249.332 120.318 249.115 119.758C248.672 118.614 248.182 117.496 247.644 116.403C247.106 115.31 246.546 114.326 245.964 113.451L248.295 112.548C248.808 113.464 249.327 114.472 249.852 115.569C250.365 116.672 250.84 117.789 251.278 118.92C251.49 119.467 251.696 120.017 251.895 120.569C252.078 121.113 252.256 121.666 252.431 122.227L250.211 123.087ZM244.315 117.221C244.498 117.178 244.701 117.129 244.922 117.072C245.138 117.002 245.354 116.933 245.57 116.863C245.774 116.799 246.046 116.708 246.387 116.59C246.727 116.472 247.109 116.332 247.531 116.168C247.942 116.009 248.377 115.841 248.837 115.662C249.682 115.335 250.473 115.014 251.21 114.7C251.934 114.391 252.605 114.095 253.225 113.813C253.832 113.534 254.392 113.282 254.905 113.055C255.412 112.815 255.89 112.609 256.338 112.435C256.823 112.248 257.297 112.143 257.76 112.12C258.218 112.086 258.658 112.151 259.08 112.317C259.502 112.482 259.885 112.77 260.229 113.18C260.582 113.573 260.888 114.105 261.148 114.776C261.649 116.069 261.782 117.19 261.549 118.138C261.316 119.086 260.708 119.751 259.726 120.131C259.092 120.377 258.474 120.423 257.871 120.27C257.256 120.123 256.698 119.788 256.196 119.268C255.682 118.752 255.261 118.071 254.933 117.226C254.591 116.343 254.374 115.505 254.281 114.712C254.188 113.918 254.182 113.163 254.261 112.446C254.341 111.729 254.478 111.068 254.673 110.463C254.851 109.851 255.035 109.294 255.226 108.791L257.683 109.319C257.286 110.288 256.975 111.202 256.75 112.061C256.525 112.92 256.413 113.736 256.411 114.509C256.406 115.269 256.54 116.003 256.814 116.712C257.017 117.234 257.282 117.624 257.611 117.883C257.935 118.129 258.278 118.183 258.638 118.043C259.011 117.898 259.22 117.625 259.264 117.222C259.308 116.818 259.236 116.374 259.048 115.889C258.899 115.504 258.719 115.224 258.508 115.048C258.284 114.877 258.031 114.796 257.749 114.806C257.449 114.807 257.119 114.878 256.759 115.018C256.435 115.143 256.018 115.319 255.505 115.546C254.992 115.773 254.42 116.031 253.788 116.318C253.151 116.594 252.489 116.879 251.803 117.173C251.104 117.472 250.418 117.752 249.747 118.012C249.038 118.287 248.4 118.541 247.833 118.775C247.249 119.001 246.814 119.17 246.528 119.281C246.391 119.334 246.203 119.421 245.964 119.542C245.725 119.663 245.52 119.778 245.348 119.888L244.315 117.221ZM248.045 126.243C248.184 126.232 248.379 126.22 248.632 126.208C248.88 126.184 249.119 126.155 249.35 126.123C249.576 126.079 249.749 126.047 249.871 126.029C250.156 125.99 250.537 125.921 251.013 125.822C251.477 125.728 252.006 125.616 252.599 125.487C253.175 125.349 253.77 125.205 254.383 125.053C254.984 124.906 255.553 124.75 256.089 124.585C256.613 124.425 257.062 124.273 257.435 124.128C257.622 124.056 257.827 123.977 258.05 123.89C258.257 123.796 258.446 123.694 258.618 123.584C258.361 123.584 258.11 123.581 257.865 123.576C257.615 123.558 257.365 123.541 257.115 123.523C256.865 123.506 256.617 123.494 256.372 123.489L256.864 121.99C257.441 121.967 258.046 121.94 258.678 121.91C259.305 121.867 259.896 121.824 260.451 121.781C261.001 121.725 261.458 121.669 261.823 121.614C261.957 121.59 262.116 121.557 262.3 121.515C262.478 121.46 262.624 121.411 262.736 121.367C262.835 121.329 262.953 121.283 263.09 121.23C263.234 121.16 263.366 121.095 263.486 121.034L264.47 123.076C263.888 123.531 263.116 124.03 262.155 124.574C261.18 125.123 260.059 125.643 258.791 126.134C258.095 126.404 257.355 126.654 256.573 126.886C255.778 127.122 255.012 127.34 254.274 127.54C253.532 127.728 252.851 127.891 252.233 128.03C251.603 128.175 251.098 128.292 250.718 128.382C250.442 128.445 250.136 128.521 249.798 128.609C249.448 128.702 249.121 128.8 248.818 128.903L248.045 126.243ZM242.197 110.113C241.889 109.442 241.516 108.702 241.078 107.892C240.64 107.082 240.15 106.225 239.609 105.321C239.274 104.761 238.917 104.19 238.538 103.609C238.152 103.016 237.774 102.449 237.404 101.909C237.035 101.369 236.697 100.896 236.391 100.488L238.673 99.1223C238.947 99.5022 239.273 99.9679 239.649 100.519C240.019 101.06 240.4 101.632 240.793 102.236C241.167 102.835 241.519 103.41 241.847 103.959C242.381 104.851 242.86 105.691 243.285 106.478C243.709 107.265 244.102 108.025 244.462 108.757L242.197 110.113ZM248.611 104.317C248.956 104.219 249.289 104.113 249.609 103.999C249.929 103.885 250.233 103.742 250.519 103.571C251.068 103.243 251.355 102.698 251.381 101.936C251.401 101.163 251.041 100.159 250.301 98.9234C249.836 98.1453 249.359 97.4131 248.87 96.7265C248.381 96.0399 247.894 95.4071 247.408 94.828C246.914 94.2374 246.449 93.7316 246.01 93.3103L248.42 91.8451C248.835 92.2801 249.268 92.7825 249.718 93.3524C250.179 93.9154 250.648 94.5437 251.125 95.2371C251.607 95.9122 252.087 96.6502 252.567 97.4511C253.347 98.7554 253.858 99.9337 254.099 100.986C254.34 102.038 254.322 102.942 254.045 103.699C253.755 104.462 253.216 105.08 252.427 105.553C251.923 105.854 251.442 106.088 250.982 106.254C250.522 106.42 250.112 106.565 249.75 106.688L248.611 104.317ZM228.695 92.9351C229.026 92.7869 229.348 92.6287 229.662 92.4605C229.957 92.291 230.251 92.1215 230.546 91.952C230.831 91.7913 231.159 91.6099 231.531 91.4077C231.895 91.1956 232.288 90.9758 232.709 90.7486C233.111 90.5201 233.528 90.2972 233.958 90.08C234.379 89.8527 234.8 89.6349 235.22 89.4264C235.63 89.2268 236.011 89.0441 236.362 88.8783C235.485 88.5652 234.712 88.1693 234.045 87.6905C233.367 87.2205 232.734 86.6495 232.146 85.9776C231.434 85.1652 230.95 84.3395 230.694 83.5005C230.429 82.6515 230.392 81.8506 230.583 81.0979C230.766 80.3352 231.178 79.6727 231.82 79.1105C232.663 78.3725 233.546 77.9443 234.47 77.8259C235.386 77.6974 236.326 77.8493 237.289 78.2815C238.244 78.7037 239.206 79.3767 240.174 80.3006C241.134 81.2145 242.081 82.3353 243.013 83.6631L241.534 85.8897C240.954 84.9442 240.321 84.0804 239.636 83.2981C238.942 82.5057 238.243 81.8595 237.539 81.3594C236.835 80.8594 236.155 80.5687 235.499 80.4876C234.824 80.4051 234.211 80.6055 233.659 81.0887C233.208 81.4841 232.989 82.0129 233.002 82.6752C233.005 83.3462 233.327 84.0478 233.968 84.78C234.732 85.6525 235.586 86.3231 236.528 86.7917C237.461 87.2503 238.412 87.4548 239.379 87.4054C239.55 87.379 239.717 87.3569 239.879 87.3393C240.032 87.3116 240.209 87.2808 240.41 87.2468L241.333 89.5755C240.545 89.7691 239.7 90.0486 238.797 90.4141C237.894 90.7796 237.008 91.1746 236.139 91.599C235.27 92.0234 234.482 92.439 233.775 92.8458C233.058 93.2614 232.487 93.611 232.062 93.8947C231.697 94.1257 231.399 94.3328 231.17 94.5161C230.931 94.7081 230.699 94.9196 230.476 95.1505L228.695 92.9351ZM235.054 96.6437C234.713 96.092 234.326 95.509 233.895 94.8946C233.453 94.2891 233.025 93.7506 232.612 93.2792C232.191 92.7978 231.714 92.2844 231.184 91.7391C230.644 91.1837 230.063 90.6114 229.44 90.0222C228.818 89.4331 228.18 88.8571 227.528 88.2942C226.857 87.7302 226.183 87.1943 225.508 86.6867L227.272 85.0884C227.774 85.4995 228.333 85.9759 228.949 86.5174C229.557 87.0489 230.185 87.6149 230.835 88.2153C231.475 88.8245 232.097 89.4325 232.699 90.0393C233.301 90.646 233.84 91.2202 234.314 91.7618C234.824 92.3435 235.301 92.909 235.747 93.4581C236.174 94.006 236.565 94.5232 236.92 95.0096L235.054 96.6437ZM217.81 81.8215C217.549 81.3929 217.203 80.8796 216.771 80.2815C216.339 79.6834 215.883 79.0632 215.401 78.4209C214.911 77.7884 214.442 77.202 213.995 76.6615C213.538 76.1122 213.163 75.6713 212.87 75.3391L214.939 73.9147C215.203 74.2203 215.518 74.5986 215.884 75.0494C216.232 75.5012 216.605 75.9847 217.003 76.4997C217.392 77.0058 217.775 77.5075 218.154 78.0048C218.523 78.5121 218.858 78.9789 219.156 79.4053C219.455 79.8317 219.698 80.1811 219.884 80.4535L217.81 81.8215ZM220.392 78.738C220.619 78.583 220.905 78.3727 221.248 78.1071C221.572 77.8426 221.91 77.5631 222.261 77.2687C222.612 76.9742 222.95 76.6948 223.275 76.4302C223.589 76.1568 223.855 75.9288 224.071 75.7462C222.959 75.6318 221.933 75.3613 220.991 74.9347C220.04 74.4992 219.176 73.9359 218.399 73.2447C217.523 72.4649 216.917 71.6409 216.583 70.7727C216.249 69.9045 216.153 69.0696 216.295 68.268C216.427 67.4575 216.763 66.7484 217.304 66.1407C217.906 65.4632 218.609 64.9641 219.412 64.6432C220.215 64.3223 221.127 64.2501 222.147 64.4265C223.168 64.6028 224.287 65.0804 225.504 65.8592C226.72 66.638 228.048 67.7834 229.487 69.2952L228.314 71.758C226.997 70.2295 225.768 69.0831 224.628 68.3188C223.479 67.5643 222.454 67.1709 221.555 67.1386C220.637 67.1073 219.899 67.4054 219.341 68.0331C219.049 68.3619 218.886 68.735 218.854 69.1524C218.813 69.5798 218.9 70.0139 219.114 70.4546C219.32 70.9054 219.637 71.3212 220.066 71.7023C220.903 72.4466 221.827 72.9922 222.839 73.3391C223.832 73.6871 224.815 73.7854 225.789 73.634C226.06 73.5898 226.302 73.5379 226.516 73.4781C226.711 73.4195 226.91 73.3465 227.112 73.2591L228.446 75.221C228.129 75.4568 227.768 75.7423 227.362 76.0777C226.948 76.4231 226.512 76.7933 226.053 77.1885C225.586 77.5936 225.123 78.0031 224.666 78.4171C224.209 78.8311 223.761 79.2445 223.322 79.6574C222.883 80.0703 222.49 80.4521 222.142 80.803L220.392 78.738ZM192.238 59.5966C191.809 59.3267 191.262 58.9822 190.596 58.5631C189.923 58.1553 189.209 57.7375 188.455 57.3096C187.693 56.8931 186.973 56.5346 186.296 56.2342C185.832 56.0207 185.371 55.8256 184.915 55.6488C184.448 55.465 184.004 55.2954 183.581 55.14C183.141 54.9887 182.736 54.868 182.368 54.7778C181.988 54.6805 181.662 54.6094 181.391 54.5648L181.175 51.8292C181.511 51.9462 181.804 52.044 182.054 52.1225C182.304 52.2011 182.513 52.2696 182.681 52.3281C183.088 52.458 183.523 52.6057 183.986 52.7711C184.442 52.9478 184.905 53.1373 185.377 53.3395C185.848 53.5417 186.325 53.7475 186.808 53.9568C187.508 54.2714 188.233 54.6335 188.984 55.0429C189.734 55.4524 190.459 55.8533 191.157 56.2456C191.848 56.6492 192.446 57.0017 192.949 57.3029L192.238 59.5966ZM198.851 47.4766C197.574 47.3029 196.417 47.3388 195.38 47.5842C194.325 47.8337 193.379 48.2858 192.542 48.9403C191.686 49.599 190.924 50.4587 190.256 51.5193C190.256 51.5193 190.178 51.6435 190.022 51.8917C189.859 52.1512 189.617 52.5349 189.297 53.0426C188.971 53.5617 188.559 54.2162 188.061 55.006L185.684 53.8642C185.869 53.5708 186.068 53.2548 186.281 52.9163C186.487 52.5891 186.693 52.2619 186.899 51.9346C187.105 51.6074 187.293 51.3084 187.464 51.0376C187.627 50.778 187.762 50.5636 187.869 50.3944C187.968 50.2364 188.018 50.1574 188.018 50.1574C188.728 49.029 189.544 48.0459 190.465 47.2079C191.375 46.3628 192.422 45.714 193.605 45.2613C194.781 44.8199 196.122 44.6164 197.629 44.651L198.851 47.4766ZM196.054 56.3504C195.831 56.1787 195.591 55.9963 195.335 55.8033C195.078 55.6102 194.82 55.432 194.561 55.2687C194.403 55.1692 194.104 54.981 193.664 54.704C193.223 54.427 192.693 54.0931 192.073 53.7024C191.441 53.3047 190.764 52.8785 190.041 52.4239C189.319 51.9693 188.597 51.5147 187.875 51.0601C187.153 50.6055 186.476 50.1793 185.844 49.7815C185.212 49.3838 184.67 49.0428 184.219 48.7587C183.768 48.4746 183.463 48.2828 183.305 48.1833C183.181 48.1052 183.019 48.0114 182.82 47.9019C182.621 47.7925 182.423 47.683 182.224 47.5735C182.006 47.4682 181.832 47.3822 181.701 47.3153L183.075 45.1319C183.287 45.2965 183.524 45.4697 183.788 45.6515C184.04 45.8261 184.285 45.9881 184.522 46.1372C184.68 46.2367 184.985 46.4284 185.436 46.7126C185.876 46.9896 186.418 47.3305 187.061 47.7354C187.693 48.1332 188.376 48.5629 189.109 49.0246C189.831 49.4792 190.559 49.9374 191.292 50.3991C192.015 50.8537 192.692 51.2799 193.323 51.6776C193.955 52.0754 194.491 52.4128 194.931 52.6898C195.371 52.9668 195.659 53.148 195.795 53.2332C196.054 53.3966 196.334 53.565 196.635 53.7383C196.935 53.9117 197.2 54.0546 197.428 54.167L196.054 56.3504ZM170.249 47.9914C170.474 47.8247 170.712 47.6345 170.962 47.4207C171.213 47.207 171.424 47.0249 171.595 46.8746C171.858 46.6373 172.164 46.3773 172.511 46.0947C172.848 45.8058 173.199 45.5173 173.564 45.2292C173.912 44.9465 174.25 44.6964 174.579 44.4789C175.041 44.1517 175.581 43.8207 176.199 43.4859C176.798 43.1566 177.412 42.8575 178.04 42.5886C178.662 42.3314 179.263 42.1393 179.846 42.0123L181.333 44.5321C180.896 44.5856 180.454 44.6897 180.009 44.8443C179.551 44.9927 179.105 45.1622 178.67 45.353C178.224 45.5375 177.804 45.7286 177.411 45.9265C177.011 46.1361 176.653 46.3379 176.338 46.532C175.889 46.8059 175.466 47.1162 175.068 47.4631C174.659 47.8037 174.314 48.1102 174.032 48.3828C173.769 48.6201 173.523 48.8817 173.294 49.1676C173.047 49.459 172.846 49.7368 172.689 50.0008L170.249 47.9914ZM174.488 46.767C174.288 46.66 173.994 46.5027 173.606 46.2951C173.219 46.0875 172.766 45.8453 172.249 45.5684C171.731 45.2916 171.191 45.0022 170.626 44.7002C170.05 44.3919 169.48 44.0868 168.916 43.7848C168.34 43.4765 167.805 43.1903 167.311 42.926C166.806 42.6555 166.371 42.4227 166.006 42.2277C165.63 42.0263 165.354 41.8785 165.178 41.7841C164.943 41.6583 164.646 41.5069 164.287 41.3299C163.921 41.1647 163.585 41.0301 163.278 40.9261L164.571 38.5103C164.881 38.7217 165.212 38.9218 165.565 39.1106C165.9 39.3048 166.167 39.4554 166.367 39.5623C166.567 39.6693 166.902 39.8486 167.372 40.1002C167.842 40.3519 168.389 40.6444 169.012 40.9779C169.635 41.3113 170.293 41.6637 170.987 42.0349C171.669 42.3998 172.333 42.7552 172.979 43.1013C173.626 43.4473 174.202 43.7556 174.707 44.0261C175.213 44.2966 175.601 44.5043 175.871 44.649L174.488 46.767ZM168.291 41.8169C169.012 40.5246 169.789 39.3978 170.621 38.4367C171.447 37.4873 172.325 36.6944 173.255 36.0581C174.174 35.4155 175.154 34.9118 176.196 34.5471C177.232 34.194 178.315 33.9795 179.444 33.9035L180.966 36.7822C180.579 36.7416 180.195 36.725 179.813 36.7323C179.425 36.7513 179.078 36.7924 178.772 36.8555C178.059 36.9729 177.358 37.1652 176.671 37.4325C175.966 37.7052 175.272 38.0826 174.591 38.5648C173.891 39.0524 173.221 39.6691 172.58 40.4148C171.927 41.1542 171.308 42.0557 170.724 43.1192L168.291 41.8169ZM153.861 35.7195C153.863 35.4866 153.878 35.1577 153.907 34.7326C153.919 34.3143 153.938 33.8629 153.964 33.3782C153.985 32.9058 154.017 32.4598 154.058 32.0402C154.099 31.6205 154.129 31.2909 154.149 31.0514L156.683 31.2623C156.628 31.5154 156.583 31.8456 156.547 32.2531C156.511 32.6605 156.479 33.0917 156.452 33.5465C156.419 34.0135 156.393 34.4622 156.377 34.8927C156.36 35.3232 156.352 35.6847 156.353 35.9771L153.861 35.7195ZM147.717 31.3787C147.945 31.13 148.141 30.9184 148.307 30.744C148.46 30.5642 148.608 30.3965 148.75 30.2411C149.395 29.4189 150.124 28.6348 150.939 27.8888C151.748 27.1549 152.643 26.5247 153.622 25.9982C154.964 25.2827 156.347 24.7832 157.773 24.4997C159.182 24.223 160.511 24.1228 161.762 24.1991L162.808 27.0091C162.056 26.8929 161.231 26.8457 160.33 26.8673C159.425 26.9011 158.511 27.0189 157.588 27.2206C156.666 27.4222 155.817 27.7222 155.04 28.1204C154.393 28.4592 153.761 28.8928 153.146 29.4212C152.513 29.9564 151.922 30.5613 151.372 31.236C150.805 31.9175 150.317 32.6193 149.907 33.3417L147.717 31.3787ZM158.531 36.6424C158.512 36.3567 158.511 35.9986 158.528 35.5681C158.533 35.1322 158.546 34.678 158.567 34.2056C158.588 33.7332 158.609 33.2756 158.632 32.833C158.642 32.3849 158.661 32.0139 158.69 31.7202L161.293 31.8744C161.258 32.1505 161.226 32.516 161.198 32.9709C161.158 33.4203 161.129 33.8961 161.109 34.3983C161.084 34.9127 161.069 35.3879 161.064 35.8238C161.047 36.2543 161.05 36.5914 161.073 36.8351L158.531 36.6424ZM143.106 20.5546C143.022 20.7935 142.884 21.1831 142.693 21.7237C142.497 22.2767 142.273 22.9115 142.019 23.6281C141.761 24.3571 141.492 25.1176 141.212 25.9096C140.932 26.7015 140.663 27.462 140.405 28.1911C140.143 28.9327 139.912 29.5864 139.712 30.152C139.512 30.7177 139.365 31.1325 139.272 31.3965C139.156 31.7233 139.042 32.1071 138.928 32.5478C138.802 32.9841 138.713 33.3768 138.66 33.7258L135.718 32.6855C135.872 32.372 136.038 32.0208 136.218 31.6319C136.394 31.2556 136.551 30.8725 136.688 30.4829C136.813 30.1309 136.982 29.6532 137.195 29.0499C137.409 28.4465 137.647 27.774 137.909 27.0323C138.167 26.3032 138.431 25.5553 138.702 24.7885C138.969 24.0343 139.227 23.3052 139.476 22.6013C139.725 21.8974 139.943 21.2814 140.13 20.7535C140.312 20.2381 140.443 19.8673 140.523 19.641C140.585 19.465 140.668 19.2114 140.771 18.8801C140.869 18.5614 140.96 18.2257 141.042 17.8729C141.125 17.5202 141.206 17.2096 141.287 16.9412L144.228 17.9815C144.045 18.3409 143.845 18.7653 143.63 19.2547C143.414 19.7442 143.24 20.1775 143.106 20.5546ZM138.181 28.062C137.61 27.6763 136.982 27.2137 136.296 26.674C135.606 26.147 134.915 25.5989 134.226 25.0297C133.536 24.4605 132.897 23.909 132.308 23.3754C131.702 22.8499 131.208 22.3855 130.827 21.9821L132.823 19.7602C133.253 20.2235 133.739 20.7067 134.283 21.21C134.822 21.7259 135.377 22.2336 135.95 22.7332C136.511 23.2284 137.071 23.7025 137.632 24.1555C138.181 24.604 138.682 25.0074 139.135 25.3657L138.181 28.062ZM118.993 27.1251L108.692 24.5423L109.101 22.9127L119.402 25.4955L118.993 27.1251ZM120.476 22.5276L109.496 19.7746L109.904 18.145L120.884 20.8981L120.476 22.5276ZM122.392 15.2965L111.295 12.5143L111.709 10.8654L122.805 13.6476L122.392 15.2965ZM119.116 24.661L109.571 22.2679L109.961 20.716L119.505 23.1091L119.116 24.661ZM116.504 28.0887L114.486 27.5828L116.213 20.696L118.231 21.2019L116.504 28.0887ZM112.488 27.0818L110.432 26.5662L112.159 19.6794L114.215 20.195L112.488 27.0818ZM116.223 20.6572L114.205 20.1513L115.952 13.1869L117.969 13.6928L116.223 20.6572ZM113.096 18.1618L110.981 17.6316L112.878 10.0658C112.998 9.58728 113.151 9.22681 113.335 8.9844C113.51 8.72582 113.778 8.55946 114.141 8.48533C114.516 8.41444 114.939 8.42444 115.411 8.51531C115.874 8.59 116.428 8.70842 117.075 8.87055C117.043 9.1648 117.041 9.50112 117.07 9.8795C117.098 10.2579 117.145 10.5926 117.209 10.8837C116.838 10.7767 116.471 10.6778 116.109 10.587C115.734 10.493 115.488 10.4314 115.371 10.4022C115.255 10.373 115.173 10.373 115.124 10.402C115.059 10.4408 115.014 10.5119 114.988 10.6154L113.096 18.1618ZM120.138 19.9274L112.184 17.9332L112.593 16.3036L118.471 17.7774L120.494 9.70722L122.57 10.2277L120.138 19.9274ZM119.737 17.1671L112.831 15.4355L113.196 13.9805L120.102 15.7121L119.737 17.1671ZM127.649 16.6147L125.748 15.6432C126.198 14.8901 126.729 14.1709 127.341 13.4858C127.949 12.8136 128.553 12.2707 129.151 11.8572C129.238 12.0028 129.374 12.1742 129.558 12.3716C129.743 12.569 129.927 12.7664 130.111 12.9638C130.295 13.1612 130.455 13.3181 130.591 13.4346C130.034 13.79 129.499 14.2537 128.984 14.8257C128.457 15.3945 128.012 15.9908 127.649 16.6147ZM125.554 15.3472L123.643 15.6515C123.443 15.079 123.262 14.4564 123.101 13.7836C122.924 13.1206 122.806 12.5481 122.748 12.0662L124.766 11.665C124.782 11.9851 124.834 12.3555 124.921 12.7759C124.992 13.2061 125.082 13.6411 125.192 14.0809C125.298 14.5337 125.419 14.9558 125.554 15.3472ZM124.758 23.7045L125.215 21.8809L123.295 21.3994L122.838 23.2229L124.758 23.7045ZM125.643 20.1737L126.101 18.3502L124.18 17.8687L123.723 19.6922L125.643 20.1737ZM123.878 27.2158L124.325 25.431L122.405 24.9495L121.957 26.7342L123.878 27.2158ZM125.394 29.5549L119.458 28.0665L122.61 15.4956L128.546 16.984L125.394 29.5549ZM103.863 24.2214L98.2307 23.4864L98.5464 21.067L104.179 21.8019L103.863 24.2214ZM99.4008 23.6391L96.9416 23.3182C97.0244 22.6836 97.092 21.9596 97.1444 21.1462C97.195 20.346 97.1939 19.4786 97.1411 18.5439C97.0865 17.6224 96.9494 16.6633 96.7299 15.6665C96.5104 14.6697 96.1776 13.6649 95.7316 12.652C95.2706 11.6506 94.6599 10.6633 93.8994 9.69005C93.1389 8.71681 92.198 7.78724 91.0765 6.90135C91.2656 6.79157 91.5022 6.62746 91.7862 6.40904C92.0702 6.19061 92.3484 5.96471 92.6209 5.73134C92.8819 5.48302 93.0989 5.26258 93.2719 5.07002C94.4147 5.99902 95.38 6.99901 96.1681 8.06998C96.9544 9.15417 97.5884 10.2723 98.0701 11.4243C98.55 12.5895 98.9101 13.7458 99.1503 14.8932C99.3888 16.0538 99.5391 17.1693 99.6011 18.2397C99.6614 19.3232 99.6651 20.3255 99.6122 21.2464C99.5592 22.1673 99.4888 22.9648 99.4008 23.6391ZM100.823 19.3874L98.1706 18.5371C98.8755 16.639 99.7091 14.9392 100.671 13.4378C101.634 11.9363 102.723 10.6465 103.94 9.56812C105.143 8.48805 106.486 7.62126 107.97 6.96774C108.093 7.1586 108.27 7.39688 108.502 7.68258C108.735 7.95507 108.981 8.23589 109.239 8.52505C109.486 8.79926 109.705 9.02289 109.898 9.19592C107.686 9.96955 105.842 11.2215 104.365 12.9517C102.887 14.6951 101.707 16.8403 100.823 19.3874ZM81.9971 18.7369C81.4231 18.6913 80.8492 18.6524 80.2754 18.6202C79.6884 18.6014 79.0949 18.5961 78.495 18.6043C77.2684 18.6209 76.0493 18.6907 74.8375 18.8138C73.6257 18.9368 72.5081 19.1186 71.4846 19.3592L71.4507 16.8594C72.4887 16.6987 73.6136 16.5635 74.8256 16.4537C76.0377 16.3573 77.2504 16.3009 78.4636 16.2845C79.0502 16.2765 79.6369 16.2753 80.2237 16.2807C80.7974 16.2996 81.3778 16.325 81.9649 16.3571L81.9971 18.7369ZM74.4435 22.2194C74.4677 22.0324 74.4915 21.8254 74.5151 21.5984C74.5254 21.3716 74.5357 21.1447 74.5459 20.9179C74.5564 20.7044 74.5658 20.4176 74.5743 20.0574C74.5828 19.6973 74.5839 19.2906 74.5778 18.8373C74.5718 18.3973 74.5655 17.9307 74.5588 17.4374C74.5466 16.5308 74.5217 15.6778 74.4842 14.8782C74.4469 14.092 74.4036 13.3591 74.3544 12.6797C74.3054 12.0137 74.2638 11.4009 74.2296 10.8413C74.182 10.2819 74.155 9.76217 74.1485 9.28222C74.1414 8.76227 74.2083 8.28132 74.349 7.83937C74.4763 7.39761 74.6911 7.008 74.9932 6.67055C75.2953 6.3331 75.6985 6.07428 76.2028 5.89411C76.6936 5.70078 77.2989 5.59925 78.0188 5.58951C79.4054 5.57075 80.5024 5.83593 81.3099 6.38505C82.1174 6.93417 82.5283 7.73535 82.5425 8.78859C82.5517 9.46853 82.3798 10.0642 82.0267 10.5757C81.6738 11.1006 81.1659 11.5075 80.5031 11.7965C79.8404 12.0988 79.0558 12.2561 78.1492 12.2684C77.2026 12.2812 76.3414 12.1928 75.5654 12.0033C74.7894 11.8138 74.0792 11.5567 73.4348 11.2321C72.7903 10.9074 72.2187 10.5484 71.72 10.1552C71.2082 9.77538 70.7499 9.40822 70.345 9.05366L71.6965 6.93518C72.4661 7.64483 73.2145 8.25476 73.9414 8.76497C74.6684 9.27518 75.3938 9.6654 76.1175 9.93563C76.8279 10.206 77.563 10.3361 78.323 10.3258C78.8829 10.3182 79.3414 10.2054 79.6985 9.98718C80.0423 9.76918 80.2115 9.46686 80.2063 9.08023C80.2009 8.68027 80.0169 8.3894 79.6544 8.20762C79.2919 8.02584 78.8507 7.93847 78.3308 7.9455C77.9175 7.9511 77.5917 8.02218 77.3535 8.15875C77.1156 8.30865 76.9517 8.51755 76.862 8.78545C76.7591 9.06687 76.7103 9.4009 76.7155 9.78753C76.7202 10.1342 76.7397 10.5873 76.7739 11.1469C76.8082 11.7065 76.85 12.3326 76.8994 13.0253C76.9354 13.7182 76.9718 14.4378 77.0086 15.1841C77.0455 15.9436 77.0689 16.6834 77.0786 17.4033C77.0889 18.1632 77.1049 18.8498 77.1265 19.4629C77.135 20.0895 77.1413 20.5561 77.1454 20.8627C77.1474 21.0094 77.1635 21.2158 77.1938 21.4821C77.2241 21.7484 77.2606 21.9813 77.3033 22.1807L74.4435 22.2194ZM84.1997 21.8674C84.2379 21.7335 84.2953 21.546 84.3721 21.305C84.4355 21.0641 84.4923 20.83 84.5426 20.6026C84.5795 20.3754 84.6105 20.2017 84.6355 20.0813C84.6984 19.8004 84.7666 19.4195 84.8401 18.9384C84.9138 18.4707 84.9932 17.9363 85.0784 17.3351C85.1505 16.7474 85.2223 16.1397 85.2938 15.512C85.3655 14.8976 85.4175 14.3102 85.4499 13.7497C85.4825 13.2025 85.4961 12.729 85.4907 12.329C85.488 12.129 85.485 11.9091 85.4818 11.6691C85.4654 11.4426 85.4358 11.2297 85.3931 11.0302C85.3031 11.2715 85.2129 11.506 85.1226 11.7339C85.019 11.962 84.9155 12.1901 84.8119 12.4182C84.7083 12.6463 84.6114 12.8743 84.5211 13.1022L83.2877 12.1188C83.4669 11.5697 83.6525 10.9938 83.8444 10.3911C84.0229 9.78865 84.1885 9.21969 84.3413 8.68424C84.4807 8.14897 84.588 7.70081 84.6631 7.33976C84.688 7.20608 84.7125 7.04574 84.7366 6.85873C84.7474 6.6719 84.752 6.51849 84.7504 6.3985C84.749 6.29184 84.7473 6.16518 84.7453 6.01853C84.7298 5.85873 84.7145 5.71225 84.6993 5.57911L86.9567 5.36855C87.1795 6.07226 87.3784 6.96966 87.5532 8.06072C87.7281 9.16512 87.8248 10.3973 87.8432 11.7571C87.8533 12.5037 87.8305 13.2841 87.7749 14.0983C87.7194 14.9258 87.6568 15.72 87.5871 16.481C87.5041 17.2422 87.4201 17.9368 87.3353 18.5646C87.2506 19.2058 87.1842 19.7201 87.1361 20.1075C87.0999 20.388 87.0642 20.7018 87.0289 21.049C86.9937 21.4095 86.9717 21.7498 86.9627 22.07L84.1997 21.8674ZM68.39 21.8124C67.6717 21.9804 66.872 22.1982 65.9909 22.4659C65.1098 22.7336 64.1725 23.0424 63.1789 23.3921C62.5626 23.609 61.9319 23.8451 61.2868 24.1004C60.629 24.3602 59.9987 24.6174 59.3957 24.872C58.7927 25.1267 58.2611 25.3633 57.8008 25.5818L56.9177 23.0727C57.3446 22.88 57.8659 22.6541 58.4814 22.3951C59.0844 22.1404 59.7211 21.881 60.3914 21.6168C61.0536 21.3696 61.6865 21.1398 62.2902 20.9273C63.2712 20.582 64.1897 20.28 65.0456 20.0211C65.9016 19.7623 66.7242 19.5293 67.5135 19.3221L68.39 21.8124ZM63.9899 14.3711C63.9629 14.0131 63.9255 13.6659 63.8777 13.3293C63.8299 12.9927 63.7507 12.6672 63.64 12.3528C63.4275 11.7491 62.9508 11.3586 62.2099 11.1812C61.4564 11.0082 60.4005 11.1607 59.0422 11.6388C58.1869 11.9398 57.3742 12.2612 56.604 12.603C55.8338 12.9447 55.1164 13.2962 54.4519 13.6573C53.7749 14.0228 53.1862 14.3784 52.6859 14.7241L51.7308 12.0707C52.24 11.7501 52.8186 11.4263 53.4668 11.0992C54.1105 10.7596 54.8197 10.4252 55.5944 10.096C56.352 9.75862 57.171 9.43502 58.0514 9.12515C59.4852 8.62051 60.7417 8.35498 61.8208 8.32855C62.8999 8.30212 63.7824 8.50036 64.4684 8.92327C65.1588 9.35876 65.6567 10.0104 65.9622 10.8782C66.1569 11.4316 66.29 11.9502 66.3613 12.434C66.4326 12.9177 66.4925 13.349 66.541 13.7277L63.9899 14.3711ZM51.0333 31.7984C50.8808 31.4693 50.7183 31.1492 50.5459 30.838C50.3725 30.5456 50.1991 30.2532 50.0257 29.9608C49.8613 29.6783 49.6755 29.3522 49.4684 28.9825C49.2514 28.6218 49.0265 28.2322 48.7937 27.814C48.5599 27.4145 48.3315 27.0012 48.1086 26.574C47.8758 26.1558 47.6524 25.738 47.4384 25.3207C47.2333 24.9134 47.0456 24.5352 46.8752 24.1864C46.5737 25.0674 46.1881 25.8448 45.7182 26.5186C45.2572 27.2024 44.6947 27.843 44.0306 28.4405C43.2277 29.1628 42.4085 29.6577 41.573 29.9252C40.7276 30.2015 39.9273 30.249 39.1721 30.0675C38.4071 29.8949 37.7392 29.4914 37.1684 28.857C36.4193 28.0244 35.9794 27.1468 35.8488 26.2241C35.7082 25.3103 35.8476 24.3688 36.267 23.3996C36.6765 22.4393 37.3367 21.4687 38.2476 20.4877C39.1487 19.5157 40.2568 18.5545 41.5721 17.6043L43.8181 19.0541C42.8805 19.6466 42.0251 20.2907 41.2519 20.9863C40.4689 21.6908 39.832 22.3983 39.3413 23.1088C38.8506 23.8193 38.569 24.5031 38.4966 25.1601C38.4231 25.836 38.6316 26.4465 39.1221 26.9917C39.5234 27.4377 40.0551 27.6499 40.7171 27.6282C41.3881 27.6165 42.0853 27.2851 42.8089 26.6341C43.6713 25.8582 44.3305 24.9961 44.7865 24.0477C45.2327 23.1083 45.4246 22.1554 45.3623 21.1891C45.3336 21.0177 45.3094 20.8512 45.2896 20.6896C45.2599 20.537 45.2267 20.3606 45.19 20.1604L47.5063 19.2064C47.7103 19.9913 48.0011 20.8328 48.3785 21.7308C48.756 22.6287 49.1626 23.5094 49.5985 24.3726C50.0345 25.2359 50.4605 26.0184 50.8766 26.7202C51.3017 27.4318 51.6588 27.9983 51.9481 28.4195C52.184 28.7813 52.395 29.0757 52.5813 29.3027C52.7765 29.5396 52.991 29.7681 53.2249 29.9881L51.0333 31.7984ZM54.6572 25.3903C54.1101 25.7391 53.5323 26.1334 52.9237 26.5734C52.324 27.0232 51.7912 27.4577 51.3254 27.8768C50.8496 28.3049 50.3426 28.7879 49.8043 29.326C49.2562 29.873 48.6917 30.4616 48.1108 31.0918C47.5299 31.722 46.9624 32.3671 46.4083 33.027C45.8532 33.7058 45.3264 34.3861 44.8277 35.0678L43.2062 33.3253C43.6106 32.8179 44.0795 32.2526 44.6128 31.6293C45.1362 31.0149 45.6937 30.3788 46.2855 29.7208C46.8862 29.0728 47.4859 28.4436 48.0846 27.8332C48.6833 27.2228 49.2503 26.6768 49.7855 26.1952C50.3604 25.678 50.9195 25.193 51.4627 24.7402C52.0049 24.3062 52.5168 23.9083 52.9985 23.5467L54.6572 25.3903ZM42.5047 41.4769C42.1653 41.8467 41.7682 42.3219 41.3134 42.9025C40.8585 43.4831 40.3893 44.0938 39.9057 44.7345C39.4341 45.381 39.0007 45.9941 38.6054 46.5736C38.2044 47.1652 37.885 47.648 37.6471 48.0219L35.7045 46.4283C35.9251 46.0904 36.2011 45.683 36.5326 45.206C36.8703 44.7467 37.2313 44.2542 37.6156 43.7286C37.9941 43.2149 38.3698 42.7073 38.7425 42.2057C39.1273 41.7098 39.4831 41.2592 39.8099 40.8538C40.1367 40.4484 40.4051 40.1186 40.6153 39.8644L42.5047 41.4769ZM38.826 39.8515C38.6141 39.6763 38.333 39.4607 37.9825 39.2045C37.6383 38.9661 37.2761 38.7191 36.8959 38.4634C36.5156 38.2077 36.1534 37.9607 35.8092 37.7223C35.4593 37.4959 35.1667 37.3043 34.9313 37.1475C35.1297 38.2473 35.1545 39.3084 35.0057 40.3308C34.8512 41.3653 34.5496 42.3517 34.1011 43.29C33.5951 44.3487 32.9714 45.1589 32.2299 45.7207C31.4884 46.2826 30.7129 46.6065 29.9034 46.6924C29.0881 46.7904 28.3135 46.664 27.5797 46.3132C26.7617 45.9222 26.0872 45.3855 25.5562 44.7032C25.0253 44.0208 24.7029 43.1648 24.5892 42.1351C24.4755 41.1053 24.624 39.898 25.0348 38.5131C25.4455 37.1281 26.1776 35.5347 27.231 33.7329L29.9226 34.1771C28.8195 35.8665 28.0589 37.365 27.6408 38.6725C27.2347 39.9858 27.1408 41.0789 27.3591 41.9517C27.5837 42.8422 28.0749 43.4687 28.8328 43.8309C29.2297 44.0207 29.6332 44.0731 30.0432 43.9883C30.4652 43.9093 30.8582 43.7055 31.2221 43.377C31.5981 43.0542 31.9097 42.6342 32.1569 42.1169C32.6399 41.1064 32.9077 40.0669 32.9603 38.9985C33.0192 37.9478 32.8409 36.9759 32.4255 36.0827C32.3077 35.8344 32.1905 35.6158 32.0739 35.427C31.9635 35.256 31.8382 35.0853 31.698 34.9148L33.2132 33.0898C33.5276 33.3288 33.9021 33.5965 34.3367 33.8929C34.7834 34.1951 35.2602 34.5116 35.767 34.8426C36.2859 35.1792 36.8076 35.5099 37.3322 35.8346C37.8569 36.1592 38.3783 36.475 38.8967 36.7819C39.415 37.0887 39.891 37.3606 40.3246 37.5974L38.826 39.8515Z" fill="white"/>
</svg>
