<svg width="241" height="308" viewBox="0 0 241 308" fill="none" xmlns="http://www.w3.org/2000/svg">
<path d="M169.294 235.179C125.485 222.267 124.462 311.55 115.011 277.662C105.559 243.774 121.226 191.999 153.097 177.1C198.496 155.876 205.005 126.099 214.456 159.987C223.907 193.875 203.04 245.125 169.294 235.179Z" fill="#00BAFE"/>
<path d="M127.605 100.822C132.288 140.378 138.625 151.683 115.38 164.258C85.1667 180.602 64.9282 216.016 50.1367 179.032C35.3452 142.048 88.9116 18.1127 125.896 3.32118C151.611 -6.96327 119.212 29.919 127.605 100.822Z" fill="#0151FF"/>
<path d="M71.5963 292.905C48.2492 301.071 22.7028 288.764 14.5368 265.417C6.37086 242.07 19.5346 220.02 35.6567 218.366C51.7787 216.711 90.9183 212.498 99.0842 235.845C107.25 259.192 94.9434 284.739 71.5963 292.905Z" fill="#FF3B00"/>
</svg>
