<svg width="235" height="247" viewBox="0 0 235 247" fill="none" xmlns="http://www.w3.org/2000/svg">
<path d="M127.362 193.625C136.036 182.456 137.997 195.409 155.072 189.275C164.286 185.964 176.526 157.801 184.04 181.678C191.555 205.554 194.834 229.216 170.958 236.731C147.082 244.245 116.813 207.208 127.362 193.625Z" fill="#FEE900"/>
<path d="M97.1502 105.582C83.838 79.2988 34.0913 77.7221 7.80789 91.0344C-18.4755 104.347 41.9744 103.373 55.2866 129.656C68.5988 155.939 47.3804 190.589 73.6638 177.277C99.9473 163.964 110.462 131.866 97.1502 105.582Z" fill="#008CFF"/>
<path d="M125.817 82.4487C123.343 48.133 118.322 38.1276 138.877 28.1982C165.594 15.2923 184.459 -14.4624 195.756 18.0344C207.054 50.5313 155.927 155.345 123.43 166.643C100.835 174.498 130.251 143.958 125.817 82.4487Z" fill="#0151FF"/>
</svg>
