<svg width="230" height="222" viewBox="0 0 230 222" fill="none" xmlns="http://www.w3.org/2000/svg">
<path d="M115.349 177.479C112.75 152.747 130.692 130.59 155.424 127.991C180.156 125.392 198.693 143.365 196.589 159.523C194.485 175.682 189.57 214.955 164.838 217.554C140.105 220.154 117.949 202.212 115.349 177.479Z" fill="#FFC702"/>
<path d="M79.4217 151.505C49.2856 160.844 63.0092 203.136 40.4036 181.127C17.7979 159.119 2.96322 114.118 1.41144 99.6287C-0.140335 85.1389 -1.39922 45.1818 13.9472 44.815C29.2937 44.4482 96.815 146.115 79.4217 151.505Z" fill="#FFC702"/>
<path d="M158.435 30.3792C163.475 78.1297 250.638 43.2827 221.505 66.0695C192.372 88.8563 135.775 94.4186 108.505 69.4325C69.6587 33.84 38.1129 39.4692 67.2459 16.6824C96.3789 -6.1044 154.552 -6.40253 158.435 30.3792Z" fill="#FF6600"/>
</svg>
