<svg width="1593" height="1434" viewBox="0 0 1593 1434" fill="none" xmlns="http://www.w3.org/2000/svg">
<g filter="url(#filter0_n_311_1229)">
<path d="M269.091 933.012C217.033 940.542 245.209 900.784 183.637 873.147C150.412 858.234 44.9377 902.085 86.4311 818.731C127.924 735.378 180.212 663.531 263.565 705.025C346.919 746.518 332.408 923.853 269.091 933.012Z" fill="#FFB200"/>
<path d="M1337.73 353.495C1406.41 245.259 1573.57 431.951 1530.9 342.907C1488.24 253.863 1359.46 173.456 1264.61 200.886C1129.5 239.96 1060.72 189.094 1103.38 278.138C1146.05 367.182 1284.84 436.868 1337.73 353.495Z" fill="#FEE900"/>
<path d="M349.079 778.556C412.793 872.209 543.575 780.676 491.757 881.4C439.94 982.124 301.028 1080.32 252.912 1100.86C204.796 1121.41 68.9395 1167.69 51.5624 1115.39C34.1852 1063.09 312.306 724.504 349.079 778.556Z" fill="#002AFF"/>
<path d="M246.998 178.5C246.998 227.377 207.507 267 158.791 267C110.076 267 77.6432 228.06 85.0507 196.908C92.4583 165.756 110.076 90 158.791 90C207.507 90 246.998 129.623 246.998 178.5Z" fill="#00BAFE"/>
<path d="M349.332 196.877C415.276 313.306 161.195 375.533 264.169 379.99C367.142 384.448 504.472 305.353 525.814 204.516C556.216 60.8753 636.859 22.5228 533.885 18.0655C430.911 13.6082 298.536 107.193 349.332 196.877Z" fill="#FF6600"/>
<path d="M999.332 196.877C1065.28 313.306 811.195 375.533 914.169 379.99C1017.14 384.448 1154.47 305.353 1175.81 204.516C1206.22 60.8753 1286.86 22.5228 1183.88 18.0655C1080.91 13.6082 948.536 107.193 999.332 196.877Z" fill="#FF6600"/>
<path d="M1487.68 398.775C1386.84 389.819 1376.1 532.087 1335.78 439.227C1295.45 346.367 1306.18 194.706 1319.22 149.797C1332.25 104.889 1377.15 -15.2745 1423.16 2.31732C1469.17 19.9092 1545.88 403.944 1487.68 398.775Z" fill="#02D1FF"/>
<path d="M1302.22 562.329C1417.77 566.3 1517.33 398.26 1521.31 282.709C1525.28 167.158 1414.23 376.821 1298.68 372.849C1183.13 368.878 1104.16 230.362 1100.19 345.913C1096.22 461.464 1186.67 558.357 1302.22 562.329Z" fill="#FE8F00"/>
<path d="M1447.15 583.121C1498.57 668.526 1413.68 813.973 1328.27 865.394C1242.87 916.815 1354.31 745.269 1302.89 659.864C1251.47 574.458 1114 573.008 1199.41 521.587C1284.81 470.166 1395.73 497.715 1447.15 583.121Z" fill="#FFC702"/>
<path d="M599.854 824.096C482.854 802.504 356.005 958.407 334.413 1075.41C312.821 1192.41 457.681 995.886 574.681 1017.48C691.681 1039.07 751.013 1192.04 772.606 1075.04C794.198 958.039 716.854 845.688 599.854 824.096Z" fill="#02D1FF"/>
<path d="M1249.85 824.096C1132.85 802.504 1006 958.407 984.413 1075.41C962.821 1192.41 1107.68 995.886 1224.68 1017.48C1341.68 1039.07 1401.01 1192.04 1422.61 1075.04C1444.2 958.039 1366.85 845.688 1249.85 824.096Z" fill="#02D1FF"/>
<path d="M1247.57 755.377C1332.35 731.083 1296.53 612.068 1358.39 674.929C1420.24 737.791 1459 864.44 1462.47 905.027C1465.94 945.614 1467.07 1057.36 1424.16 1057.46C1381.25 1057.57 1198.64 769.399 1247.57 755.377Z" fill="#FF3B00"/>
<path d="M123.861 188.367C167.697 193.6 136.201 219.689 180.089 255.5C203.772 274.823 298.814 262.249 247.029 320.775C195.245 379.301 137.217 426.15 78.6907 374.365C20.1648 322.58 70.5455 182.002 123.861 188.367Z" fill="#00EDFE"/>
<path d="M275.029 524.199C251.061 613.315 254.969 643.085 194.121 650.136C115.033 659.302 40.998 718.068 40.998 625.788C40.998 533.508 262.946 313 355.269 313C419.46 313 317.992 364.463 275.029 524.199Z" fill="#008CFF"/>
</g>
<defs>
<filter id="filter0_n_311_1229" x="40.998" y="0.572388" width="1496.78" height="1138.87" filterUnits="userSpaceOnUse" color-interpolation-filters="sRGB">
<feFlood flood-opacity="0" result="BackgroundImageFix"/>
<feBlend mode="normal" in="SourceGraphic" in2="BackgroundImageFix" result="shape"/>
<feTurbulence type="fractalNoise" baseFrequency="0.47619050741195679 0.47619050741195679" stitchTiles="stitch" numOctaves="3" result="noise" seed="4806" />
<feColorMatrix in="noise" type="luminanceToAlpha" result="alphaNoise" />
<feComponentTransfer in="alphaNoise" result="coloredNoise1">
<feFuncA type="discrete" tableValues="0 0 0 0 0 0 0 0 1 1 1 1 1 1 1 1 1 1 1 1 1 1 1 1 1 1 1 1 1 1 1 1 1 1 1 1 1 1 1 1 1 0 0 0 0 0 0 0 0 0 0 0 0 0 0 0 0 0 0 0 0 0 0 0 0 0 0 0 0 0 0 0 0 0 0 0 0 0 0 0 0 0 0 0 0 0 0 0 0 0 0 0 0 0 0 0 0 0 0 0 "/>
</feComponentTransfer>
<feComposite operator="in" in2="shape" in="coloredNoise1" result="noise1Clipped" />
<feFlood flood-color="rgba(255, 255, 255, 0.25)" result="color1Flood" />
<feComposite operator="in" in2="noise1Clipped" in="color1Flood" result="color1" />
<feMerge result="effect1_noise_311_1229">
<feMergeNode in="shape" />
<feMergeNode in="color1" />
</feMerge>
</filter>
</defs>
</svg>
