<svg width="353" height="90" viewBox="0 0 353 90" fill="none" xmlns="http://www.w3.org/2000/svg">
<rect width="248" height="50" fill="white"/>
<path d="M19.5454 41.6213C17.1981 41.6213 15.0303 41.1381 13.042 40.1715C11.0536 39.1774 9.47955 37.6309 8.3197 35.5321C8.12639 35.2007 8.08497 34.8832 8.19543 34.5794C8.30589 34.248 8.52682 33.9857 8.8582 33.7924L11.0951 32.5911C11.3712 32.453 11.675 32.384 12.0064 32.384C12.3378 32.384 12.6553 32.6049 12.9591 33.0467C13.8704 34.2894 14.837 35.1731 15.8587 35.6978C16.8805 36.2225 18.1784 36.4849 19.7525 36.4849C21.2161 36.4849 22.2517 36.3192 22.8593 35.9878C23.4668 35.6288 23.8948 35.2146 24.1434 34.7451C24.3919 34.2756 24.5162 33.6957 24.5162 33.0053C24.5162 32.2873 24.3643 31.666 24.0605 31.1413C23.5358 30.368 22.1551 29.65 19.9182 28.9873C19.1174 28.7663 18.1646 28.5316 17.06 28.2831C15.9554 28.0069 14.9198 27.6479 13.9533 27.2061C13.0143 26.7642 12.1859 26.1981 11.4679 25.5077C9.97663 24.0717 9.23101 22.2077 9.23101 19.9156C9.23101 17.1264 10.2528 14.9448 12.2963 13.3707C14.119 11.9347 16.4525 11.2167 19.2969 11.2167C23.7982 11.2167 27.2777 12.9565 29.7355 16.436C30.1498 17.0712 30.0393 17.6373 29.4041 18.1344L27.043 19.8741C26.8221 20.0675 26.5459 20.1641 26.2145 20.1641C25.9108 20.1641 25.676 20.0675 25.5104 19.8741C25.3723 19.6532 25.248 19.4875 25.1375 19.3771L24.7647 18.88C23.9087 18.0239 23.0802 17.3887 22.2793 16.9745C21.4785 16.5603 20.6224 16.3532 19.7111 16.3532C18.8274 16.3532 18.1232 16.4084 17.5985 16.5189C17.0738 16.6293 16.6044 16.8088 16.1901 17.0574C15.2788 17.6097 14.8232 18.4796 14.8232 19.667C14.8232 20.6612 15.2788 21.4344 16.1901 21.9867C17.1843 22.5943 18.5374 23.119 20.2496 23.5608C21.9618 23.975 23.3701 24.4169 24.4748 24.8864C25.607 25.3282 26.6012 25.8943 27.4572 26.5847C29.2799 28.1312 30.1912 30.2161 30.1912 32.8396C30.1912 35.8497 29.1418 38.1004 27.043 39.5916C25.1652 40.9448 22.666 41.6213 19.5454 41.6213ZM43.9408 41.4557C42.4219 41.4557 41.055 41.1795 39.8399 40.6272C38.6248 40.0749 37.603 39.3293 36.7746 38.3903C35.0624 36.4573 34.2063 33.9995 34.2063 31.017C34.2063 28.0069 35.0762 25.5215 36.816 23.5608C38.6386 21.5449 41.0135 20.5369 43.9408 20.5369C46.9509 20.5369 49.3534 21.5587 51.1484 23.6022C52.833 25.5077 53.6752 27.9793 53.6752 31.017C53.6752 34.0271 52.8054 36.5125 51.0656 38.4732C49.2706 40.4615 46.8956 41.4557 43.9408 41.4557ZM41.8696 36.2363C42.4495 36.5677 43.1399 36.7334 43.9408 36.7334C44.7692 36.7334 45.4596 36.5677 46.0119 36.2363C46.5919 35.9049 47.0613 35.4769 47.4203 34.9522C48.1107 33.9028 48.4559 32.5911 48.4559 31.017C48.4559 28.4211 47.6551 26.6676 46.0534 25.7562C45.4734 25.4249 44.7692 25.2592 43.9408 25.2592C42.4495 25.2592 41.3035 25.8667 40.5027 27.0818C39.8399 28.0759 39.5085 29.3877 39.5085 31.017C39.5085 33.5576 40.2955 35.2974 41.8696 36.2363ZM65.0297 41.4557C62.7377 41.4557 60.9703 40.6962 59.7276 39.1774C58.5677 37.7966 57.9878 35.9326 57.9878 33.5852V22.401C57.9878 21.9867 58.1121 21.6553 58.3606 21.4068C58.6091 21.1583 58.9405 21.034 59.3548 21.034H61.8402C62.2544 21.034 62.5858 21.1583 62.8343 21.4068C63.0829 21.6553 63.2071 21.9867 63.2071 22.401V32.3425C63.2071 34.3032 63.7594 35.6426 64.8641 36.3606C65.2507 36.6091 65.7616 36.7334 66.3967 36.7334C67.0595 36.7334 67.6118 36.5953 68.0536 36.3192C68.5231 36.043 68.8959 35.684 69.1721 35.2422C69.6968 34.4137 69.9591 33.3367 69.9591 32.0112V22.401C69.9591 21.9867 70.0834 21.6553 70.3319 21.4068C70.5805 21.1583 70.9119 21.034 71.3261 21.034H73.8115C74.2257 21.034 74.5571 21.1583 74.8056 21.4068C75.0542 21.6553 75.1784 21.9867 75.1784 22.401V39.633C75.1784 40.0473 75.0542 40.3787 74.8056 40.6272C74.5571 40.8757 74.2257 41 73.8115 41H71.6575C71.3261 41 71.0499 40.9033 70.829 40.71C70.6081 40.4891 70.4562 40.1992 70.3733 39.8401C70.3181 39.4811 70.2077 39.3016 70.042 39.3016C69.8763 39.3016 69.6968 39.3983 69.5035 39.5916C68.2608 40.8343 66.7695 41.4557 65.0297 41.4557ZM80.8301 39.633V12.915C80.8301 12.5008 80.9544 12.1694 81.2029 11.9209C81.4515 11.6723 81.7829 11.5481 82.1971 11.5481H84.6825C85.0967 11.5481 85.4281 11.6723 85.6767 11.9209C85.9252 12.1694 86.0495 12.5008 86.0495 12.915V39.633C86.0495 40.0473 85.9252 40.3787 85.6767 40.6272C85.4281 40.8757 85.0967 41 84.6825 41H82.1971C81.7829 41 81.4515 40.8757 81.2029 40.6272C80.9544 40.3787 80.8301 40.0473 80.8301 39.633ZM112.828 41.4557C111.309 41.4557 109.942 41.1795 108.727 40.6272C107.512 40.0749 106.49 39.3293 105.662 38.3903C103.95 36.4573 103.094 33.9995 103.094 31.017C103.094 28.0069 103.963 25.5215 105.703 23.5608C107.526 21.5449 109.901 20.5369 112.828 20.5369C115.838 20.5369 118.241 21.5587 120.036 23.6022C121.72 25.5077 122.562 27.9793 122.562 31.017C122.562 34.0271 121.693 36.5125 119.953 38.4732C118.158 40.4615 115.783 41.4557 112.828 41.4557ZM110.757 36.2363C111.337 36.5677 112.027 36.7334 112.828 36.7334C113.656 36.7334 114.347 36.5677 114.899 36.2363C115.479 35.9049 115.949 35.4769 116.308 34.9522C116.998 33.9028 117.343 32.5911 117.343 31.017C117.343 28.4211 116.542 26.6676 114.941 25.7562C114.361 25.4249 113.656 25.2592 112.828 25.2592C111.337 25.2592 110.191 25.8667 109.39 27.0818C108.727 28.0759 108.396 29.3877 108.396 31.017C108.396 33.5576 109.183 35.2974 110.757 36.2363ZM137.107 15.649C135.312 15.649 134.414 16.5189 134.414 18.2586V19.667C134.414 20.0813 134.538 20.4126 134.787 20.6612C135.035 20.9097 135.367 21.034 135.781 21.034H138.432C138.846 21.034 139.178 21.1583 139.426 21.4068C139.675 21.6553 139.799 21.9867 139.799 22.401V24.1407C139.799 24.555 139.675 24.8864 139.426 25.1349C139.178 25.3834 138.846 25.5077 138.432 25.5077H135.781C135.367 25.5077 135.035 25.632 134.787 25.8805C134.538 26.1291 134.414 26.4604 134.414 26.8747V39.633C134.414 40.0473 134.29 40.3787 134.041 40.6272C133.793 40.8757 133.461 41 133.047 41H130.603C130.189 41 129.857 40.8757 129.609 40.6272C129.36 40.3787 129.236 40.0473 129.236 39.633V26.8747C129.236 26.4604 129.112 26.1291 128.863 25.8805C128.615 25.632 128.283 25.5077 127.869 25.5077H126.875C126.461 25.5077 126.129 25.3834 125.881 25.1349C125.632 24.8864 125.508 24.555 125.508 24.1407V22.401C125.508 21.9867 125.632 21.6553 125.881 21.4068C126.129 21.1583 126.461 21.034 126.875 21.034H127.869C128.283 21.034 128.615 20.9097 128.863 20.6612C129.112 20.4126 129.236 20.0813 129.236 19.667V17.5959C129.236 15.2209 129.761 13.5364 130.81 12.5422C131.86 11.5481 133.558 11.051 135.905 11.051C138.032 11.051 139.247 11.2581 139.55 11.6723C139.716 11.8656 139.799 12.0866 139.799 12.3351V15.5247C139.799 15.9113 139.578 16.0632 139.136 15.9804C139.109 15.9527 139.053 15.9389 138.971 15.9389C138.529 15.7456 137.907 15.649 137.107 15.649ZM163.011 39.633V18.3415C163.011 17.9272 162.887 17.5959 162.638 17.3473C162.39 17.0988 162.059 16.9745 161.644 16.9745H155.845C155.431 16.9745 155.099 16.8502 154.851 16.6017C154.602 16.3532 154.478 16.0218 154.478 15.6075V13.3707C154.478 12.9565 154.602 12.6251 154.851 12.3765C155.099 12.128 155.431 12.0037 155.845 12.0037H175.563C175.977 12.0037 176.308 12.128 176.557 12.3765C176.805 12.6251 176.929 12.9565 176.929 13.3707V15.6075C176.929 16.0218 176.805 16.3532 176.557 16.6017C176.308 16.8502 175.977 16.9745 175.563 16.9745H169.805C169.39 16.9745 169.059 17.0988 168.811 17.3473C168.562 17.5959 168.438 17.9272 168.438 18.3415V39.633C168.438 40.0473 168.313 40.3787 168.065 40.6272C167.816 40.8757 167.485 41 167.071 41H164.378C163.964 41 163.633 40.8757 163.384 40.6272C163.136 40.3787 163.011 40.0473 163.011 39.633ZM195.869 37.1891C193.909 40.0335 191.175 41.4557 187.667 41.4557C184.409 41.4557 181.91 40.5029 180.17 38.5975C178.513 36.7748 177.684 34.248 177.684 31.017C177.684 27.9517 178.513 25.4525 180.17 23.5194C181.854 21.5311 184.216 20.5369 187.253 20.5369C190.153 20.5369 192.39 21.6001 193.964 23.7265C195.372 25.632 196.076 28.0621 196.076 31.017V31.5555C196.076 31.9421 195.897 32.1354 195.538 32.1354H184.271C183.829 32.1354 183.484 32.2735 183.235 32.5497C182.987 32.7982 182.918 33.1296 183.028 33.5438C183.525 35.8083 185.058 36.9405 187.626 36.9405C188.62 36.9405 189.435 36.761 190.07 36.402C190.705 36.043 191.244 35.5597 191.686 34.9522C192.155 34.3447 192.555 34.0409 192.887 34.0409C193.246 34.0409 193.591 34.1375 193.922 34.3309L195.496 35.4493C196.159 35.9464 196.284 36.5263 195.869 37.1891ZM184.602 28.1588H189.283C189.78 28.1588 190.153 28.0207 190.401 27.7446C190.65 27.4408 190.664 27.068 190.443 26.6261C189.78 25.273 188.689 24.5964 187.17 24.5964C185.458 24.5964 184.243 25.2868 183.525 26.6676C183.304 27.1094 183.304 27.4684 183.525 27.7446C183.774 28.0207 184.133 28.1588 184.602 28.1588ZM216.893 38.4732C215.208 40.4615 212.778 41.4557 209.602 41.4557C208.194 41.4557 206.882 41.1795 205.667 40.6272C204.452 40.0749 203.43 39.3293 202.602 38.3903C200.89 36.4573 200.034 33.9995 200.034 31.017C200.034 28.0069 200.904 25.5215 202.643 23.5608C204.466 21.5449 206.841 20.5369 209.768 20.5369C211.094 20.5369 212.392 20.7716 213.662 21.2411C214.932 21.7106 216.009 22.47 216.893 23.5194C217.141 23.7955 217.238 24.0993 217.183 24.4307C217.128 24.7621 216.948 25.052 216.644 25.3006L214.863 26.6261C214.559 26.8471 214.214 26.9575 213.828 26.9575C213.469 26.9575 213.068 26.7366 212.626 26.2947C211.936 25.6044 211.08 25.2592 210.058 25.2592C209.036 25.2592 208.249 25.4249 207.697 25.7562C207.145 26.0876 206.689 26.5295 206.33 27.0818C205.667 28.0759 205.336 29.3877 205.336 31.017C205.336 33.5576 206.123 35.2974 207.697 36.2363C208.277 36.5677 209.05 36.7334 210.017 36.7334C211.011 36.7334 211.894 36.3744 212.668 35.6564C213.11 35.2698 213.51 35.0765 213.869 35.0765C214.228 35.0765 214.546 35.1731 214.822 35.3664L216.644 36.692C216.948 36.9405 217.128 37.2305 217.183 37.5619C217.238 37.8933 217.141 38.197 216.893 38.4732ZM222.286 39.633V12.915C222.286 12.5008 222.41 12.1694 222.658 11.9209C222.907 11.6723 223.238 11.5481 223.653 11.5481H226.138C226.552 11.5481 226.884 11.6723 227.132 11.9209C227.381 12.1694 227.505 12.5008 227.505 12.915V21.9039C227.505 22.3733 227.574 22.6081 227.712 22.6081C227.85 22.6081 228.043 22.4838 228.292 22.2353C229.259 21.103 230.639 20.5369 232.434 20.5369C234.754 20.5369 236.535 21.2825 237.778 22.7738C238.91 24.1545 239.476 26.0324 239.476 28.4073V39.633C239.476 40.0473 239.352 40.3787 239.104 40.6272C238.855 40.8757 238.524 41 238.109 41H235.624C235.21 41 234.878 40.8757 234.63 40.6272C234.381 40.3787 234.257 40.0473 234.257 39.633V29.6915C234.257 27.7031 233.718 26.3638 232.641 25.6734C232.255 25.3972 231.73 25.2592 231.067 25.2592C230.405 25.2592 229.839 25.3972 229.369 25.6734C228.927 25.9496 228.568 26.3086 228.292 26.7504C227.767 27.5789 227.505 28.6559 227.505 29.9814V39.633C227.505 40.0473 227.381 40.3787 227.132 40.6272C226.884 40.8757 226.552 41 226.138 41H223.653C223.238 41 222.907 40.8757 222.658 40.6272C222.41 40.3787 222.286 40.0473 222.286 39.633Z" fill="#333333"/>
<rect width="353" height="42" transform="translate(0 48)" fill="white"/>
<path d="M16.1674 74.2186C16.1674 73.9148 16.3857 73.7534 16.8224 73.7344C18.7021 73.5635 20.1451 73.3737 21.1514 73.1648C23.2399 72.6711 24.7209 72.0636 25.5942 71.3421C26.3727 70.6775 26.7619 69.8991 26.7619 69.0067C26.7619 68.9687 26.7619 68.9213 26.7619 68.8643C26.7239 67.7821 26.2967 67.0036 25.4803 66.529C24.7968 66.1302 23.857 65.9309 22.6608 65.9309C22.4899 65.9309 22.3095 65.9404 22.1197 65.9594C20.24 66.0353 18.3983 66.3106 16.5946 66.7853C14.8098 67.241 13.4333 67.6302 12.465 67.953C11.5156 68.2757 10.946 68.4371 10.7562 68.4371C10.3005 68.4371 9.97771 68.2093 9.78784 67.7536L8.81952 65.3613C8.76256 65.1904 8.73408 65.029 8.73408 64.8771C8.73408 64.8581 8.73408 64.8486 8.73408 64.8486C8.73408 64.6778 8.76256 64.5259 8.81952 64.393C8.97141 64.1271 9.23723 63.9468 9.61696 63.8518L13.5472 63.0829C17.5724 62.2665 20.3729 61.8393 21.9488 61.8013C22.3665 61.7823 22.6418 61.7728 22.7747 61.7728C24.5215 61.7728 25.9835 62.0291 27.1606 62.5418C29.9707 63.7379 31.3757 65.9119 31.3757 69.0637C31.3757 70.3927 31.0909 71.5604 30.5213 72.5667C29.9707 73.573 29.2397 74.3989 28.3283 75.0445C27.4359 75.69 26.4581 76.2217 25.3949 76.6394C23.6861 77.3229 21.5501 77.845 18.9869 78.2058C18.8919 78.2058 18.8255 78.2058 18.7875 78.2058C18.2939 78.2058 17.9521 77.902 17.7622 77.2944C17.5914 76.8197 17.2591 76.1552 16.7654 75.3008C16.6895 75.1869 16.623 75.0825 16.5661 74.9875C16.5091 74.8926 16.4427 74.8071 16.3667 74.7312C16.2338 74.5413 16.1674 74.3705 16.1674 74.2186ZM51.1693 80.7405C51.0174 80.8544 50.8085 80.9114 50.5427 80.9114C50.2959 80.9114 50.0965 80.769 49.9446 80.4842C48.4067 77.807 46.2233 74.8736 43.3942 71.6838C42.9006 71.1522 42.3974 70.6491 41.8848 70.1744C41.3152 69.6428 41.0304 69.1111 41.0304 68.5795C41.0304 68.0289 41.3247 67.5163 41.9133 67.0416C42.6158 66.453 43.4607 65.6461 44.448 64.6208C46.8213 62.1335 48.5396 59.9786 49.6029 58.1558C49.8497 57.7571 50.144 57.5578 50.4858 57.5578C50.7706 57.5578 51.0174 57.6242 51.2262 57.7571L53.3053 59.1526C53.6281 59.3805 53.7894 59.6843 53.7894 60.064C53.7894 60.2918 53.7135 60.4912 53.5616 60.6621C53.4287 60.833 53.3053 60.9754 53.1914 61.0893C53.0964 61.2032 52.954 61.3646 52.7642 61.5734C52.5933 61.7823 52.3654 62.0386 52.0806 62.3424C51.8148 62.6272 51.5395 62.931 51.2547 63.2538L49.489 65.1334C49.2042 65.4562 48.9194 65.76 48.6346 66.0448L46.4416 68.2378C46.3467 68.3517 46.2992 68.4656 46.2992 68.5795C46.2992 68.6934 46.3846 68.8453 46.5555 69.0352C46.7264 69.1871 46.9258 69.377 47.1536 69.6048C47.8561 70.3643 48.3593 70.9339 48.663 71.3136C48.9858 71.6933 49.413 72.1965 49.9446 72.823C50.837 73.8673 52.1946 75.5761 54.0173 77.9494C54.1502 78.1393 54.2166 78.3197 54.2166 78.4906C54.2166 78.7943 54.0458 79.0317 53.704 79.2026C52.4889 79.8101 51.6439 80.3228 51.1693 80.7405ZM79.0797 79.8576C78.0734 80.1804 77.1051 80.3418 76.1747 80.3418C75.2634 80.3418 74.4185 80.2658 73.64 80.1139C72.8615 79.981 72.1401 79.7437 71.4755 79.4019C69.9566 78.5855 69.1971 77.3419 69.1971 75.671C69.1971 74.4369 69.6433 73.4306 70.5357 72.6522C71.3711 71.9307 72.3869 71.5699 73.583 71.5699C75.9374 71.5699 77.5892 72.6237 78.5386 74.7312C78.6525 75.016 78.7949 75.1584 78.9658 75.1584C79.1936 75.1584 79.4025 74.8641 79.5923 74.2755C79.7632 73.7629 79.8486 73.2692 79.8486 72.7946C79.8486 72.3199 79.7442 71.8832 79.5354 71.4845C79.3265 71.0668 79.0607 70.7155 78.7379 70.4307C78.0164 69.8421 77.1715 69.5478 76.2032 69.5478C75.2539 69.5478 74.3805 69.6428 73.583 69.8326C72.7856 70.0225 72.0546 70.4212 71.3901 71.0288L69.311 72.7376C69.1022 72.9275 68.8649 73.0224 68.599 73.0224C68.3332 73.0224 68.0864 72.899 67.8586 72.6522L66.4915 71.1997C66.2447 70.9339 66.1213 70.6681 66.1213 70.4022C66.1213 70.0605 66.3206 69.7567 66.7194 69.4909C69.2066 67.9719 71.7888 65.6461 74.4659 62.5133C74.5609 62.3994 74.6273 62.2949 74.6653 62.2C74.6463 62.2 74.6083 62.2 74.5514 62.2C74.5324 62.2 74.0577 62.2854 73.1274 62.4563C72.0451 62.6652 70.9439 62.8171 69.8237 62.912C69.7477 62.912 69.6908 62.912 69.6528 62.912C69.4439 62.912 69.2541 62.855 69.0832 62.7411C68.8554 62.5702 68.7225 62.3424 68.6845 62.0576L68.2573 60.0355C68.2573 59.9406 68.2573 59.8551 68.2573 59.7792C68.2573 59.4754 68.3617 59.2381 68.5706 59.0672C68.7414 58.9723 68.9598 58.9248 69.2256 58.9248H69.6243C71.5799 58.9248 73.6875 58.697 75.9469 58.2413C76.6684 58.1084 77.1715 58.0039 77.4563 57.928C77.7411 57.8521 77.9785 57.8141 78.1683 57.8141C78.3772 57.8141 78.5765 57.871 78.7664 57.985L80.6176 59.2096C80.8644 59.3615 81.0258 59.5703 81.1018 59.8362C81.1397 59.9311 81.1587 60.0165 81.1587 60.0925C81.1587 60.2823 81.0923 60.4627 80.9594 60.6336C79.991 62.3424 78.5006 64.2221 76.488 66.2726L77.0576 66.2442C79.2221 66.2442 80.9499 66.8138 82.241 67.953C83.646 69.1491 84.3485 70.782 84.3485 72.8515C84.3485 75.1869 83.4941 77.0476 81.7853 78.4336C81.0068 79.0412 80.105 79.5158 79.0797 79.8576ZM73.6685 75.1299C73.4976 75.1299 73.3742 75.1584 73.2982 75.2154C73.2223 75.2723 73.1843 75.3673 73.1843 75.5002C73.1843 75.6331 73.2318 75.747 73.3267 75.8419C73.5925 76.0887 74.1621 76.2596 75.0355 76.3546C74.9026 76.0318 74.7412 75.747 74.5514 75.5002C74.3615 75.2533 74.0672 75.1299 73.6685 75.1299ZM95.4842 63.0259V60.8045C95.4842 60.4247 95.6076 60.1494 95.8544 59.9786C96.0253 59.8267 96.2151 59.7507 96.424 59.7507C96.4999 59.7507 96.6044 59.7697 96.7373 59.8077C96.8892 59.8267 97.0411 59.8457 97.193 59.8646C97.3638 59.8836 97.6961 59.9216 98.1898 59.9786C98.9113 60.0735 99.8891 60.121 101.123 60.121C103.003 60.121 104.769 59.9786 106.42 59.6938C106.534 59.6748 106.629 59.6653 106.705 59.6653C107.066 59.6653 107.322 59.7792 107.474 60.007C107.607 60.1779 107.674 60.4058 107.674 60.6906V62.9405C107.674 63.1873 107.598 63.4057 107.446 63.5955C107.294 63.7854 106.99 63.9278 106.534 64.0227C105.756 64.1936 104.626 64.298 103.145 64.336C102.272 64.355 101.598 64.3645 101.123 64.3645C99.3385 64.3645 97.7341 64.2601 96.3101 64.0512C96.0633 64.0132 95.8639 63.8993 95.712 63.7094C95.5601 63.5006 95.4842 63.2727 95.4842 63.0259ZM95.6835 72.2534C96.1202 72.2534 96.4715 72.5003 96.7373 72.9939C97.117 73.5825 97.6012 73.9717 98.1898 74.1616C98.7783 74.3515 99.5948 74.4464 100.639 74.4464C101.683 74.4464 102.955 74.361 104.455 74.1901C105.898 74.0382 107.332 73.7724 108.756 73.3926C108.851 73.3737 108.946 73.3642 109.041 73.3642C109.268 73.3642 109.439 73.4496 109.553 73.6205C109.648 73.7344 109.705 73.8958 109.724 74.1046C109.724 74.8071 109.772 75.3862 109.867 75.8419C109.961 76.2786 110.018 76.5539 110.037 76.6678C110.056 76.7818 110.075 76.8767 110.094 76.9526C110.132 77.0476 110.151 77.1235 110.151 77.1805C110.151 77.2185 110.151 77.2469 110.151 77.2659C110.151 77.6836 109.924 77.9494 109.468 78.0634C108.063 78.4051 106.734 78.6235 105.481 78.7184C104.247 78.8133 103.221 78.8703 102.405 78.8893C101.607 78.9083 100.81 78.9178 100.012 78.9178C99.234 78.9178 98.4746 78.8608 97.7341 78.7469C97.0126 78.614 96.3386 78.3956 95.712 78.0918C94.4209 77.4273 93.4526 76.3166 92.807 74.7597C92.6931 74.4939 92.6836 74.247 92.7786 74.0192C92.8735 73.7724 93.0444 73.5825 93.2912 73.4496L95.057 72.4243C95.2848 72.3104 95.4937 72.2534 95.6835 72.2534ZM129.632 80.3133C127.6 80.3133 125.787 80.0949 124.192 79.6582C122.369 79.1456 121.059 78.2153 120.262 76.8672C119.844 76.1457 119.635 75.3198 119.635 74.3894C119.635 73.4401 119.768 72.6332 120.034 71.9686C120.319 71.3041 120.698 70.6965 121.173 70.1459C121.99 69.2156 123.176 68.3802 124.733 67.6397C124.98 67.5258 125.103 67.3644 125.103 67.1555C125.103 67.0796 125.094 66.9941 125.075 66.8992C124.505 64.7157 124.192 62.3709 124.135 59.8646C124.135 59.39 124.145 58.9818 124.164 58.64C124.183 58.2982 124.258 58.0324 124.391 57.8426C124.581 57.5767 124.866 57.4438 125.246 57.4438H127.581C127.961 57.4438 128.246 57.5483 128.436 57.7571C128.625 57.947 128.72 58.1938 128.72 58.4976C128.72 58.5546 128.711 58.678 128.692 58.8678C128.673 59.0387 128.663 59.2761 128.663 59.5798C128.663 61.4026 128.815 63.3107 129.119 65.3043C129.176 65.6081 129.337 65.76 129.603 65.76C129.698 65.76 129.784 65.7505 129.86 65.7315C130.752 65.4467 132.062 65.105 133.79 64.7062C134.113 64.5923 134.397 64.6208 134.644 64.7917C134.891 64.9626 135.052 65.2189 135.128 65.5606L135.47 67.7251C135.489 67.8011 135.499 67.8865 135.499 67.9814C135.499 68.2093 135.432 68.4181 135.299 68.608C135.128 68.8358 134.853 68.9782 134.473 69.0352C134.113 69.0732 133.59 69.1491 132.907 69.263C131.274 69.5478 129.746 69.9466 128.322 70.4592C127.524 70.744 126.812 71.0668 126.186 71.4275C124.781 72.225 124.078 73.0794 124.078 73.9907C124.078 74.8071 124.743 75.4052 126.072 75.785C127.002 76.0508 128.075 76.1837 129.29 76.1837C131.397 76.1837 133.619 75.8799 135.954 75.2723C136.049 75.2533 136.144 75.2438 136.239 75.2438C136.353 75.2438 136.467 75.2913 136.581 75.3862C136.695 75.4622 136.752 75.5951 136.752 75.785C136.752 75.8799 136.733 75.9748 136.695 76.0698C136.676 76.1457 136.657 76.2406 136.638 76.3546C136.638 76.4495 136.619 76.5919 136.581 76.7818C136.448 77.4843 136.381 77.9684 136.381 78.2342V78.7754C136.381 79.0222 136.305 79.25 136.154 79.4589C136.021 79.6487 135.802 79.7627 135.499 79.8006C133.372 80.1424 131.416 80.3133 129.632 80.3133ZM156.916 66.8992L154.409 66.9277C154.068 66.9277 153.792 66.8612 153.583 66.7283C153.299 66.5574 153.147 66.2821 153.128 65.9024C153.052 64.5164 153.014 63.8044 153.014 63.7664C153.014 63.4246 153.118 63.1588 153.327 62.969C153.536 62.7791 153.773 62.6842 154.039 62.6842C154.096 62.6842 154.238 62.6937 154.466 62.7126C154.713 62.7316 155.083 62.7411 155.577 62.7411H157.884C158.055 62.7221 158.188 62.6652 158.283 62.5702C158.377 62.4753 158.425 62.3614 158.425 62.2285C158.425 62.2095 158.425 62.181 158.425 62.143V60.9469L158.396 59.7792V59.7507C158.396 59.4279 158.501 59.1716 158.71 58.9818C158.919 58.7729 159.184 58.6685 159.507 58.6685H161.501C161.843 58.6685 162.108 58.7634 162.298 58.9533C162.488 59.1431 162.583 59.39 162.583 59.6938L162.555 60.7475V61.8582C162.555 62.0671 162.602 62.219 162.697 62.3139C162.792 62.3899 162.915 62.4278 163.067 62.4278C163.181 62.4278 163.437 62.3994 163.836 62.3424C164.254 62.2854 164.624 62.238 164.947 62.2C165.289 62.143 165.545 62.1051 165.716 62.0861C165.887 62.0481 166.02 62.0291 166.115 62.0291C166.304 62.0291 166.475 62.0766 166.627 62.1715C166.874 62.3424 166.997 62.6177 166.997 62.9974V65.1619C166.997 65.4087 166.912 65.6366 166.741 65.8454C166.589 66.0543 166.304 66.1872 165.887 66.2442C164.842 66.3961 163.941 66.5005 163.181 66.5574C163.01 66.5764 162.877 66.6334 162.782 66.7283C162.706 66.8233 162.668 66.9751 162.668 67.184C162.668 67.203 162.668 67.3074 162.668 67.4973C162.687 67.6682 162.697 67.9435 162.697 68.3232C162.716 68.7029 162.735 69.0827 162.754 69.4624C162.754 69.4624 162.782 70.1744 162.839 71.5984C162.858 71.8832 162.982 72.0731 163.21 72.168C164.197 72.5287 165.649 73.3737 167.567 74.7027C167.795 74.8736 167.909 75.0635 167.909 75.2723C167.909 75.4812 167.814 75.6805 167.624 75.8704C167.13 76.3641 166.665 77.0476 166.228 77.921C166.077 78.2058 165.896 78.3482 165.687 78.3482C165.479 78.3482 165.279 78.2627 165.089 78.0918C164.748 77.7691 164.463 77.5317 164.235 77.3798C164.007 77.2279 163.827 77.095 163.694 76.9811C163.352 76.7533 163.124 76.6394 163.01 76.6394C162.858 76.6394 162.744 76.7628 162.668 77.0096C162.099 78.9652 160.495 79.943 157.855 79.943C157.609 79.943 157.352 79.9335 157.086 79.9146C155.624 79.8386 154.419 79.3829 153.469 78.5475C152.539 77.7121 152.074 76.6583 152.074 75.3862C152.074 75.3673 152.074 75.3483 152.074 75.3293V75.3008C152.15 73.9148 152.814 72.842 154.068 72.0826C155.131 71.418 156.374 71.0858 157.798 71.0858H158.396L158.681 71.1142L158.653 69.1776L158.567 67.4688C158.529 67.0701 158.33 66.8707 157.969 66.8707C157.95 66.8707 157.855 66.8802 157.684 66.8992C157.514 66.8992 157.257 66.8992 156.916 66.8992ZM147.66 59.0102C147.811 58.8963 147.963 58.8394 148.115 58.8394C148.267 58.8394 148.4 58.8583 148.514 58.8963L150.365 59.3235C150.688 59.4185 150.925 59.5893 151.077 59.8362C151.191 60.007 151.248 60.1969 151.248 60.4058C151.248 60.5007 151.239 60.5956 151.22 60.6906C150.935 61.8298 150.754 63.2633 150.678 64.991C150.545 67.4973 150.479 69.5763 150.479 71.2282C150.479 74.285 150.631 76.6489 150.935 78.3197C150.954 78.4146 150.963 78.4811 150.963 78.519C150.963 78.557 150.963 78.5855 150.963 78.6045C150.963 78.8323 150.906 79.0317 150.792 79.2026C150.621 79.4304 150.375 79.5823 150.052 79.6582L148.115 79.9715C148.039 79.9905 147.963 80 147.887 80C147.679 80 147.479 79.943 147.289 79.8291C147.042 79.6393 146.9 79.3924 146.862 79.0886C146.691 77.2849 146.596 75.7945 146.577 74.6173C146.558 73.4401 146.549 72.3484 146.549 71.3421C146.549 66.1018 146.767 62.238 147.204 59.7507C147.261 59.409 147.413 59.1621 147.66 59.0102ZM157.314 74.6173C156.953 74.6173 156.65 74.6837 156.403 74.8166C156.137 74.9495 156.004 75.1679 156.004 75.4717C156.004 75.6805 156.109 75.8419 156.317 75.9558C156.602 76.1267 156.982 76.2122 157.457 76.2122C157.931 76.2122 158.254 76.1267 158.425 75.9558C158.615 75.766 158.729 75.4242 158.767 74.9306C158.767 74.8736 158.757 74.8356 158.738 74.8166C158.719 74.7787 158.681 74.7597 158.624 74.7597L157.542 74.6173C157.466 74.6173 157.39 74.6173 157.314 74.6173ZM178.532 81.0538C178.342 81.2436 178.105 81.3386 177.82 81.3386C177.554 81.3386 177.336 81.2151 177.165 80.9683C175.874 79.2215 174.621 77.8735 173.405 76.9242C172.817 76.4305 172.798 75.9274 173.348 75.4147L174.573 74.304C174.782 74.1331 174.981 74.0477 175.171 74.0477C175.361 74.0477 175.541 74.1046 175.712 74.2186C177.592 75.6995 179.092 77.095 180.212 78.4051C180.383 78.595 180.459 78.8038 180.44 79.0317C180.421 79.2405 180.317 79.4304 180.127 79.6013L178.532 81.0538ZM204.62 77.4653C204.449 77.4653 204.268 77.4558 204.078 77.4368C202.825 77.3039 201.743 76.2311 200.832 74.2186C199.085 70.3643 198.145 66.434 198.012 62.4278V62.3994C198.012 62.0956 198.117 61.8393 198.325 61.6304C198.534 61.4215 198.791 61.3171 199.094 61.3171L201.259 61.3456C201.601 61.3456 201.866 61.4595 202.056 61.6874C202.265 61.8962 202.37 62.2475 202.37 62.7411C202.37 63.2348 202.417 63.8993 202.512 64.7347C202.626 65.5701 202.778 66.4245 202.968 67.2979C203.385 69.2535 203.917 70.7725 204.563 71.8547C204.828 72.1395 205.028 72.3009 205.161 72.3389C205.388 72.3389 205.616 72.2629 205.844 72.111C206.072 71.9591 206.309 71.7788 206.556 71.5699C207.145 71.0383 207.553 70.6111 207.781 70.2883C207.933 70.0985 208.113 70.0035 208.322 70.0035C208.531 70.0035 208.692 70.1364 208.806 70.4022C208.92 70.6491 209.024 70.8579 209.119 71.0288L209.604 71.7693C209.774 72.0541 209.936 72.2819 210.088 72.4528C210.335 72.6996 210.458 72.9559 210.458 73.2218C210.458 73.4116 210.391 73.6015 210.259 73.7914C209.803 74.3989 209.3 74.959 208.749 75.4717C208.199 75.9843 207.505 76.459 206.67 76.8957C205.987 77.2754 205.303 77.4653 204.62 77.4653ZM213.534 61.7443C213.724 61.6304 213.942 61.5734 214.189 61.5734C214.436 61.5734 214.663 61.6779 214.872 61.8867C216.372 63.5006 217.749 65.5417 219.002 68.0099C219.116 68.2378 219.22 68.4466 219.315 68.6365C219.41 68.8263 219.496 69.0162 219.572 69.2061C219.647 69.377 219.685 69.5383 219.685 69.6902C219.685 69.8231 219.638 69.9561 219.543 70.089C219.41 70.3548 219.163 70.5351 218.803 70.6301C218.309 70.763 217.882 70.9244 217.521 71.1142C217.179 71.2851 216.932 71.399 216.78 71.456C216.629 71.513 216.505 71.5414 216.41 71.5414C215.993 71.5414 215.689 71.3041 215.499 70.8294C214.588 68.608 213.334 66.4815 211.74 64.4499C211.512 64.1651 211.398 63.8898 211.398 63.624C211.398 63.3012 211.569 63.0164 211.91 62.7696L213.534 61.7443ZM244.235 71.8262C244.235 71.8452 244.226 71.8547 244.207 71.8547C244.207 72.1395 244.083 72.4053 243.836 72.6522L242.555 73.9338C242.346 74.1616 242.118 74.2755 241.871 74.2755C241.625 74.2755 241.397 74.2281 241.188 74.1331C240.542 73.7534 239.811 73.4876 238.995 73.3357C238.425 73.2028 237.941 73.1363 237.542 73.1363C237.391 73.1363 237.163 73.1648 236.859 73.2218C236.213 73.2977 235.663 73.4591 235.207 73.7059C234.656 73.9907 234.381 74.3325 234.381 74.7312C234.381 75.1299 234.505 75.4527 234.751 75.6995C234.998 75.9274 235.311 76.1077 235.691 76.2406C236.489 76.5444 237.761 76.6963 239.508 76.6963C240.153 76.6963 240.666 76.6868 241.045 76.6678C241.444 76.6489 241.653 76.6394 241.672 76.6394C241.824 76.6394 241.947 76.6678 242.042 76.7248C242.213 76.8197 242.299 76.9621 242.299 77.152C242.299 77.2659 242.27 77.3988 242.213 77.5507C241.814 78.2153 241.53 79.0507 241.359 80.057C241.321 80.2848 241.235 80.4747 241.102 80.6266C240.951 80.7974 240.732 80.8829 240.447 80.8829C239.992 80.9019 239.545 80.9114 239.109 80.9114C234.305 80.9114 231.381 79.6677 230.337 77.1805C230.09 76.5539 229.967 75.8704 229.967 75.1299C229.967 74.3705 230.071 73.7344 230.28 73.2218C230.508 72.6901 230.802 72.2345 231.163 71.8547C231.865 71.0953 232.805 70.5351 233.982 70.1744C234.951 69.8706 235.985 69.7187 237.087 69.7187C237.296 69.7187 237.504 69.7282 237.713 69.7472L237.229 68.9498C237.134 68.7979 237.011 68.7219 236.859 68.7219C236.84 68.7219 236.811 68.7314 236.773 68.7504C233.963 69.2251 231.514 69.4624 229.426 69.4624C229.179 69.4624 228.951 69.3865 228.742 69.2346C228.533 69.0637 228.41 68.8453 228.372 68.5795L228.03 66.9846C228.011 66.8707 228.002 66.7568 228.002 66.6429C228.002 66.3771 228.078 66.1587 228.229 65.9878C228.457 65.76 228.771 65.6461 229.169 65.6461C230.669 65.6461 232.634 65.4752 235.065 65.1334C235.103 65.1145 235.131 65.105 235.15 65.105C235.15 65.067 235.141 65.029 235.122 64.991L234.751 64.1936C234.713 64.0607 234.628 63.9942 234.495 63.9942C234.476 63.9942 234.448 63.9942 234.41 63.9942C233.043 64.1651 231.647 64.298 230.223 64.393C229.976 64.393 229.748 64.317 229.54 64.1651C229.331 63.9942 229.207 63.7759 229.169 63.5101L228.828 61.9722C228.79 61.8393 228.771 61.7158 228.771 61.6019C228.771 61.3551 228.847 61.1557 228.998 61.0038C229.207 60.757 229.549 60.6241 230.024 60.6051C231.03 60.5861 232.008 60.5387 232.957 60.4627C233.071 60.4437 233.147 60.4153 233.185 60.3773C233.242 60.3393 233.27 60.2918 233.27 60.2349C233.27 60.2159 233.251 60.1399 233.213 60.007C233.175 59.8741 233.147 59.7507 233.128 59.6368C233.109 59.5229 233.081 59.409 233.043 59.295L232.9 58.7254C232.881 58.6305 232.872 58.5451 232.872 58.4691C232.872 58.2413 232.957 58.0609 233.128 57.928C233.242 57.8331 233.394 57.7761 233.584 57.7571C235.349 57.5293 236.261 57.4154 236.318 57.4154C236.565 57.4154 236.754 57.5008 236.887 57.6717C236.982 57.7856 237.049 57.9375 237.087 58.1274C237.106 58.2223 237.115 58.3172 237.115 58.4122C237.134 58.4881 237.153 58.583 237.172 58.697C237.21 58.7919 237.239 58.8963 237.258 59.0102C237.296 59.1052 237.334 59.2191 237.372 59.352C237.409 59.4849 237.476 59.5798 237.571 59.6368C237.59 59.6368 237.647 59.6368 237.742 59.6368C238.197 59.6368 239.109 59.4374 240.476 59.0387L241.045 58.8963C241.216 58.8394 241.378 58.8109 241.53 58.8109C242.023 58.8109 242.346 59.0767 242.498 59.6083L242.954 61.1747C242.992 61.3076 243.011 61.45 243.011 61.6019C243.011 61.7348 242.973 61.8677 242.897 62.0006C242.764 62.2475 242.46 62.4278 241.985 62.5418C241.397 62.7316 240.371 62.9879 238.909 63.3107C238.871 63.3107 238.843 63.3107 238.824 63.3107C238.824 63.3297 238.947 63.605 239.194 64.1366C239.232 64.2316 239.289 64.279 239.365 64.279C239.384 64.279 239.422 64.2695 239.479 64.2506C241.397 63.7949 242.868 63.3677 243.893 62.969C244.045 62.912 244.207 62.8835 244.378 62.8835C244.852 62.8835 245.194 63.1209 245.403 63.5955L245.972 65.1334C246.029 65.2853 246.058 65.4277 246.058 65.5606C246.058 65.6935 246.039 65.817 246.001 65.9309C245.887 66.1967 245.612 66.415 245.175 66.5859C244.302 66.9846 243.257 67.3359 242.042 67.6397C241.776 67.6966 241.615 67.8011 241.558 67.953C241.539 67.9909 241.53 68.0289 241.53 68.0669C241.53 68.1998 241.615 68.3802 241.786 68.608C242.45 69.5763 243.115 70.3833 243.78 71.0288C244.083 71.2756 244.235 71.5414 244.235 71.8262ZM268.472 79.8576C267.465 80.1804 266.497 80.3418 265.567 80.3418C264.655 80.3418 263.81 80.2658 263.032 80.1139C262.254 79.981 261.532 79.7437 260.868 79.4019C259.349 78.5855 258.589 77.3419 258.589 75.671C258.589 74.4369 259.035 73.4306 259.928 72.6522C260.763 71.9307 261.779 71.5699 262.975 71.5699C265.329 71.5699 266.981 72.6237 267.931 74.7312C268.044 75.016 268.187 75.1584 268.358 75.1584C268.586 75.1584 268.794 74.8641 268.984 74.2755C269.155 73.7629 269.241 73.2692 269.241 72.7946C269.241 72.3199 269.136 71.8832 268.927 71.4845C268.719 71.0668 268.453 70.7155 268.13 70.4307C267.408 69.8421 266.564 69.5478 265.595 69.5478C264.646 69.5478 263.772 69.6428 262.975 69.8326C262.178 70.0225 261.447 70.4212 260.782 71.0288L258.703 72.7376C258.494 72.9275 258.257 73.0224 257.991 73.0224C257.725 73.0224 257.478 72.899 257.251 72.6522L255.884 71.1997C255.637 70.9339 255.513 70.6681 255.513 70.4022C255.513 70.0605 255.713 69.7567 256.111 69.4909C258.599 67.9719 261.181 65.6461 263.858 62.5133C263.953 62.3994 264.019 62.2949 264.057 62.2C264.038 62.2 264 62.2 263.943 62.2C263.924 62.2 263.45 62.2854 262.519 62.4563C261.437 62.6652 260.336 62.8171 259.216 62.912C259.14 62.912 259.083 62.912 259.045 62.912C258.836 62.912 258.646 62.855 258.475 62.7411C258.247 62.5702 258.114 62.3424 258.076 62.0576L257.649 60.0355C257.649 59.9406 257.649 59.8551 257.649 59.7792C257.649 59.4754 257.754 59.2381 257.963 59.0672C258.133 58.9723 258.352 58.9248 258.618 58.9248H259.016C260.972 58.9248 263.079 58.697 265.339 58.2413C266.06 58.1084 266.564 58.0039 266.848 57.928C267.133 57.8521 267.37 57.8141 267.56 57.8141C267.769 57.8141 267.969 57.871 268.158 57.985L270.01 59.2096C270.256 59.3615 270.418 59.5703 270.494 59.8362C270.532 59.9311 270.551 60.0165 270.551 60.0925C270.551 60.2823 270.484 60.4627 270.351 60.6336C269.383 62.3424 267.893 64.2221 265.88 66.2726L266.45 66.2442C268.614 66.2442 270.342 66.8138 271.633 67.953C273.038 69.1491 273.74 70.782 273.74 72.8515C273.74 75.1869 272.886 77.0476 271.177 78.4336C270.399 79.0412 269.497 79.5158 268.472 79.8576ZM263.06 75.1299C262.89 75.1299 262.766 75.1584 262.69 75.2154C262.614 75.2723 262.576 75.3673 262.576 75.5002C262.576 75.6331 262.624 75.747 262.719 75.8419C262.985 76.0887 263.554 76.2596 264.428 76.3546C264.295 76.0318 264.133 75.747 263.943 75.5002C263.753 75.2533 263.459 75.1299 263.06 75.1299ZM286.3 63.0259V60.8045C286.3 60.4247 286.424 60.1494 286.67 59.9786C286.841 59.8267 287.031 59.7507 287.24 59.7507C287.316 59.7507 287.42 59.7697 287.553 59.8077C287.705 59.8267 287.857 59.8457 288.009 59.8646C288.18 59.8836 288.512 59.9216 289.006 59.9786C289.727 60.0735 290.705 60.121 291.939 60.121C293.819 60.121 295.585 59.9786 297.236 59.6938C297.35 59.6748 297.445 59.6653 297.521 59.6653C297.882 59.6653 298.138 59.7792 298.29 60.007C298.423 60.1779 298.49 60.4058 298.49 60.6906V62.9405C298.49 63.1873 298.414 63.4057 298.262 63.5955C298.11 63.7854 297.806 63.9278 297.35 64.0227C296.572 64.1936 295.442 64.298 293.961 64.336C293.088 64.355 292.414 64.3645 291.939 64.3645C290.154 64.3645 288.55 64.2601 287.126 64.0512C286.879 64.0132 286.68 63.8993 286.528 63.7094C286.376 63.5006 286.3 63.2727 286.3 63.0259ZM286.5 72.2534C286.936 72.2534 287.287 72.5003 287.553 72.9939C287.933 73.5825 288.417 73.9717 289.006 74.1616C289.594 74.3515 290.411 74.4464 291.455 74.4464C292.499 74.4464 293.771 74.361 295.271 74.1901C296.714 74.0382 298.148 73.7724 299.572 73.3926C299.667 73.3737 299.762 73.3642 299.857 73.3642C300.084 73.3642 300.255 73.4496 300.369 73.6205C300.464 73.7344 300.521 73.8958 300.54 74.1046C300.54 74.8071 300.588 75.3862 300.683 75.8419C300.777 76.2786 300.834 76.5539 300.853 76.6678C300.872 76.7818 300.891 76.8767 300.91 76.9526C300.948 77.0476 300.967 77.1235 300.967 77.1805C300.967 77.2185 300.967 77.2469 300.967 77.2659C300.967 77.6836 300.74 77.9494 300.284 78.0634C298.879 78.4051 297.55 78.6235 296.297 78.7184C295.063 78.8133 294.037 78.8703 293.221 78.8893C292.423 78.9083 291.626 78.9178 290.828 78.9178C290.05 78.9178 289.291 78.8608 288.55 78.7469C287.829 78.614 287.155 78.3956 286.528 78.0918C285.237 77.4273 284.269 76.3166 283.623 74.7597C283.509 74.4939 283.5 74.247 283.595 74.0192C283.689 73.7724 283.86 73.5825 284.107 73.4496L285.873 72.4243C286.101 72.3104 286.31 72.2534 286.5 72.2534ZM321.587 80.3133C319.555 80.3133 317.742 80.0949 316.147 79.6582C314.324 79.1456 313.014 78.2153 312.217 76.8672C311.799 76.1457 311.59 75.3198 311.59 74.3894C311.59 73.4401 311.723 72.6332 311.989 71.9686C312.274 71.3041 312.654 70.6965 313.128 70.1459C313.945 69.2156 315.131 68.3802 316.688 67.6397C316.935 67.5258 317.059 67.3644 317.059 67.1555C317.059 67.0796 317.049 66.9941 317.03 66.8992C316.46 64.7157 316.147 62.3709 316.09 59.8646C316.09 59.39 316.1 58.9818 316.119 58.64C316.138 58.2982 316.214 58.0324 316.347 57.8426C316.536 57.5767 316.821 57.4438 317.201 57.4438H319.536C319.916 57.4438 320.201 57.5483 320.391 57.7571C320.581 57.947 320.676 58.1938 320.676 58.4976C320.676 58.5546 320.666 58.678 320.647 58.8678C320.628 59.0387 320.619 59.2761 320.619 59.5798C320.619 61.4026 320.77 63.3107 321.074 65.3043C321.131 65.6081 321.293 65.76 321.558 65.76C321.653 65.76 321.739 65.7505 321.815 65.7315C322.707 65.4467 324.017 65.105 325.745 64.7062C326.068 64.5923 326.353 64.6208 326.599 64.7917C326.846 64.9626 327.008 65.2189 327.084 65.5606L327.425 67.7251C327.444 67.8011 327.454 67.8865 327.454 67.9814C327.454 68.2093 327.387 68.4181 327.254 68.608C327.084 68.8358 326.808 68.9782 326.428 69.0352C326.068 69.0732 325.546 69.1491 324.862 69.263C323.229 69.5478 321.701 69.9466 320.277 70.4592C319.479 70.744 318.767 71.0668 318.141 71.4275C316.736 72.225 316.033 73.0794 316.033 73.9907C316.033 74.8071 316.698 75.4052 318.027 75.785C318.957 76.0508 320.03 76.1837 321.245 76.1837C323.353 76.1837 325.574 75.8799 327.909 75.2723C328.004 75.2533 328.099 75.2438 328.194 75.2438C328.308 75.2438 328.422 75.2913 328.536 75.3862C328.65 75.4622 328.707 75.5951 328.707 75.785C328.707 75.8799 328.688 75.9748 328.65 76.0698C328.631 76.1457 328.612 76.2406 328.593 76.3546C328.593 76.4495 328.574 76.5919 328.536 76.7818C328.403 77.4843 328.337 77.9684 328.337 78.2342V78.7754C328.337 79.0222 328.261 79.25 328.109 79.4589C327.976 79.6487 327.758 79.7627 327.454 79.8006C325.327 80.1424 323.372 80.3133 321.587 80.3133ZM338.874 81.9936C338.324 81.9936 337.801 81.8892 337.308 81.6803C336.833 81.4715 336.425 81.1962 336.083 80.8544C335.305 80.0759 334.916 79.1456 334.916 78.0634C334.916 76.9621 335.305 76.0318 336.083 75.2723C336.862 74.5318 337.782 74.1616 338.846 74.1616C339.966 74.1616 340.887 74.5413 341.608 75.3008C342.368 76.0793 342.748 77.0001 342.748 78.0634C342.748 79.1836 342.368 80.1139 341.608 80.8544C340.811 81.6139 339.9 81.9936 338.874 81.9936ZM336.567 78.0918C336.567 78.7184 336.786 79.25 337.222 79.6867C337.678 80.1234 338.21 80.3418 338.817 80.3418C339.444 80.3418 339.975 80.1234 340.412 79.6867C340.868 79.231 341.096 78.6899 341.096 78.0634C341.096 77.4368 340.877 76.9052 340.441 76.4685C340.023 76.0318 339.491 75.8134 338.846 75.8134C338.2 75.8134 337.659 76.0318 337.222 76.4685C336.786 76.9052 336.567 77.4463 336.567 78.0918Z" fill="#333333"/>
</svg>
