<svg width="363" height="692" viewBox="0 0 363 692" fill="none" xmlns="http://www.w3.org/2000/svg">
<g filter="url(#filter0_n_353_2)">
<path d="M27.8654 532.193C62.1603 513.109 34.6266 465.138 67.78 486.143C100.933 507.148 130.513 558.13 136.112 575.372C141.71 592.614 153.472 640.933 134.884 645.309C116.296 649.684 8.07174 543.208 27.8654 532.193Z" fill="#008CFF"/>
<path d="M88.0956 533.811C71.6101 523.926 88.7706 519.169 77.7091 497.125C71.7402 485.23 31.7378 473.301 62.7353 459.268C93.7328 445.236 125.131 436.954 139.164 467.952C153.197 498.949 108.146 545.834 88.0956 533.811Z" fill="#0151FF"/>
<path d="M170.592 511.096C134.221 520.741 148.492 571.812 122.639 544.473C96.7855 517.134 81.3241 462.782 80.1885 445.439C79.0528 428.097 79.5201 380.422 97.8251 380.74C116.13 381.059 191.583 505.529 170.592 511.096Z" fill="#002AFF"/>
<path d="M171.525 508.463C150.458 507.375 134.262 489.414 135.35 468.347C136.438 447.279 153.947 434.12 167.209 438.018C180.471 441.915 212.73 451.221 211.641 472.288C210.553 493.355 192.592 509.551 171.525 508.463Z" fill="#FEE900"/>
<path d="M259.487 485.407C232.304 495.595 202.009 481.818 191.822 454.635C181.634 427.452 196.507 401.238 215.381 398.878C234.255 396.518 280.071 390.559 290.259 417.742C300.447 444.924 286.67 475.219 259.487 485.407Z" fill="#FFB200"/>
<path d="M242.282 338.094C209.416 395.106 334.138 426.659 283.48 428.466C232.822 430.273 165.58 390.861 155.461 341.19C141.048 270.435 101.532 251.272 152.19 249.465C202.848 247.659 267.599 294.178 242.282 338.094Z" fill="#02D1FF"/>
<path d="M114.796 241.906C93.675 263.262 44.9019 249.27 23.5463 228.15C2.19068 207.029 60.5559 226.835 81.6767 205.48C102.797 184.124 93.0151 143.875 114.371 164.996C135.726 186.117 135.917 220.55 114.796 241.906Z" fill="#FFB200"/>
<path d="M106.279 314.356C113.901 337.742 113.277 345.72 129.564 346.748C150.733 348.083 171.251 362.692 169.962 338.13C168.673 313.567 106.544 257.972 81.9817 259.26C64.9035 260.157 92.618 272.438 106.279 314.356Z" fill="#008CFF"/>
<path d="M95.5892 242.635C77.596 211.796 108.716 160.128 139.555 142.135C170.394 124.142 129.637 185.025 147.63 215.864C165.623 246.703 214.846 247.901 184.007 265.894C153.168 283.887 113.582 273.474 95.5892 242.635Z" fill="#0151FF"/>
<path d="M56.3984 283.967C64.829 252.107 19.7746 240.822 51.7904 233.001C83.8063 225.181 131.874 236.982 145.565 243.638C159.255 250.294 195.335 271.322 187.155 285.114C178.975 298.907 51.5326 302.356 56.3984 283.967Z" fill="#00BAFE"/>
<path d="M25.1763 73.4238C34.8509 59.049 38.3259 74.7207 58.6903 65.801C69.6791 60.9878 82.2999 25.5395 93.473 54.1038C104.646 82.6681 110.623 111.323 82.0584 122.496C53.4941 133.669 13.4094 90.9073 25.1763 73.4238Z" fill="#00FEFE"/>
<path d="M80.8316 103.322C72.7806 141.117 65.6502 151.472 86.9841 165.693C114.713 184.176 131.106 220.191 148.693 185.783C166.28 151.375 125.586 26.8748 91.1776 9.28783C67.2537 -2.94027 95.2625 35.5778 80.8316 103.322Z" fill="#002AFF"/>
<path d="M270.846 91.317C272.067 125.561 245.297 154.311 211.053 155.533C176.809 156.754 153.037 130.285 157.466 108.274C161.895 86.2628 172.386 32.7456 206.63 31.5243C240.874 30.3029 269.624 57.0731 270.846 91.317Z" fill="#FEE900"/>
<path d="M309.003 164.063C310.022 192.658 287.668 216.666 259.073 217.686C230.478 218.706 210.627 196.603 214.325 178.223C218.023 159.842 226.784 115.153 255.38 114.133C283.975 113.113 307.983 135.467 309.003 164.063Z" fill="#FF6600"/>
<path d="M261.339 162.354C239.127 200.883 323.416 222.207 289.18 223.428C254.945 224.649 209.503 198.014 202.665 164.447C192.924 116.63 166.219 103.679 200.454 102.458C234.689 101.237 278.448 132.675 261.339 162.354Z" fill="#FF3B00"/>
<path d="M297.895 333.619C274.468 284.946 378.487 266.721 337.129 262.153C295.771 257.586 238.325 285.747 227.014 325.79C210.901 382.83 177.385 396.107 218.743 400.675C260.101 405.243 315.941 371.111 297.895 333.619Z" fill="#FE8F00"/>
<path d="M271.269 189.321C301.688 198.172 313.592 155.141 320.355 186.091C327.117 217.042 314.646 262.958 307.928 275.958C301.21 288.958 280.154 323.135 267.092 314.95C254.03 306.765 253.712 184.213 271.269 189.321Z" fill="#FFB200"/>
<path d="M292.288 234.476C280.254 198.182 216.705 186.594 180.411 198.628C144.116 210.662 221.892 221.033 233.926 257.328C245.96 293.623 212.064 334.017 248.359 321.983C284.654 309.95 304.321 270.771 292.288 234.476Z" fill="#008CFF"/>
<path d="M166.433 120.549C153.859 139.943 127.944 145.472 108.55 132.898C89.1562 120.324 86.2619 96.5015 97.225 86.0528C108.188 75.6041 134.69 50.0927 154.084 62.6666C173.478 75.2406 179.007 101.156 166.433 120.549Z" fill="#FF6600"/>
<path d="M181.075 241.681C203.028 209.916 131.602 185.484 161.314 186.856C191.026 188.228 228.46 214.499 231.996 244.032C237.034 286.101 259.225 299.202 229.513 297.83C199.801 296.458 164.164 266.15 181.075 241.681Z" fill="#FF6600"/>
<path d="M191.237 212.357C199.142 235.545 204.408 241.529 192.045 252.082C175.975 265.799 168.359 289.702 154.705 269.361C141.052 249.019 157.327 167.59 177.668 153.936C191.811 144.443 177.069 170.793 191.237 212.357Z" fill="#FEE900"/>
<path d="M226.291 206.856C210.875 218.363 212.991 200.667 188.379 202.532C175.098 203.539 148.855 236.041 147.641 202.011C146.427 167.981 150.691 135.764 184.721 134.551C218.752 133.337 245.041 192.861 226.291 206.856Z" fill="#FFB200"/>
<path d="M191.726 111.263C170.193 102.57 139.852 127.437 131.159 148.97C122.465 170.503 157.835 138.571 179.368 147.264C200.901 155.958 206.281 187.527 214.974 165.994C223.668 144.46 213.259 119.957 191.726 111.263Z" fill="#00BAFE"/>
<path d="M162.944 149.991C147.512 180.934 191.405 202.102 156.849 203.334C122.293 204.567 75.4135 182.228 62.7615 172.481C50.1096 162.734 17.5084 133.462 28.8431 121.03C40.1778 108.597 171.85 132.132 162.944 149.991Z" fill="#FEE900"/>
<path d="M129.846 208.114C140.874 190.042 176.598 191.737 194.67 202.765C212.742 213.794 169.495 209.664 158.467 227.735C147.439 245.807 160.671 271.832 142.599 260.803C124.528 249.775 118.818 226.185 129.846 208.114Z" fill="#002AFF"/>
<path d="M198.735 79.7798C191.017 113.196 192.863 124.202 170.367 127.626C141.127 132.078 114.421 154.885 113.198 120.611C111.976 86.3362 191.452 1.49706 225.726 0.274644C249.557 -0.575292 212.569 19.8824 198.735 79.7798Z" fill="#FE8F00"/>
<path d="M342.212 97.9609C339.68 119.387 326.911 104.009 309.436 125.478C300.007 137.063 306.207 183.503 277.575 158.23C248.943 132.957 226.015 104.626 251.288 75.9943C276.561 47.3626 345.291 71.9017 342.212 97.9609Z" fill="#00BAFE"/>
<path d="M223.789 429.713C207.591 465.524 141.385 470.547 105.575 454.35C69.7644 438.152 150.384 435.899 166.582 400.089C182.78 364.278 152.466 319.347 188.277 335.545C224.087 351.742 239.986 393.903 223.789 429.713Z" fill="#FE8F00"/>
<path d="M107.26 407.691C99.487 360.327 14.5024 400.109 42.2676 375.695C70.0329 351.281 126.195 342.48 154.846 365.849C195.658 399.138 226.816 391.709 199.051 416.123C171.286 440.537 113.247 444.175 107.26 407.691Z" fill="#FFC702"/>
<path d="M63.8707 397.056C78.7364 401.044 66.5693 408.479 79.9311 423.02C87.1412 430.867 120.563 431.259 99.7805 448.877C78.9981 466.494 56.6428 479.771 39.0254 458.989C21.4079 438.207 45.7901 392.206 63.8707 397.056Z" fill="#FEE900"/>
<path d="M112.439 454.357C77.2696 475.449 135.633 530.415 107.498 516.053C79.3627 501.691 54.6829 459.858 64.2193 429.743C77.8038 386.844 62.089 364.437 90.2243 378.799C118.36 393.161 139.53 438.111 112.439 454.357Z" fill="#FF3B00"/>
<path d="M68.9602 370.677C50.9671 339.839 82.0872 288.171 112.926 270.178C143.765 252.185 103.008 313.068 121.001 343.906C138.994 374.745 188.217 375.943 157.378 393.936C126.54 411.93 86.9534 401.516 68.9602 370.677Z" fill="#0151FF"/>
<path d="M177.829 383.34C163.624 393.943 165.574 377.638 142.896 379.356C130.658 380.283 106.477 410.233 105.358 378.876C104.24 347.519 108.169 317.834 139.525 316.715C170.882 315.597 195.106 370.445 177.829 383.34Z" fill="#00FEFE"/>
<path d="M262.704 406.905C242.111 414.942 218.902 404.764 210.865 384.171C202.828 363.579 213.883 343.466 228.23 341.474C242.577 339.483 277.4 334.473 285.437 355.066C293.475 375.658 283.296 398.867 262.704 406.905Z" fill="#FF3B00"/>
<path d="M277.042 423.717C262.135 391.985 253.699 384.305 269.616 367.342C290.304 345.293 297.361 310.092 319.995 336.866C342.629 363.64 332.348 482.032 305.574 504.667C286.958 520.404 303.762 480.596 277.042 423.717Z" fill="#0151FF"/>
<path d="M327.24 545.279C305.646 575.565 374.097 600.107 345.498 598.366C316.9 596.624 281.215 570.791 278.226 542.296C273.968 501.704 252.78 488.772 281.378 490.513C309.977 492.254 343.874 521.951 327.24 545.279Z" fill="#002AFF"/>
<path d="M269.516 589.626C270.646 621.309 245.878 647.909 214.196 649.039C182.513 650.169 160.52 625.68 164.617 605.315C168.715 584.95 178.421 535.436 210.104 534.306C241.786 533.176 268.386 557.944 269.516 589.626Z" fill="#FE8F00"/>
<path d="M330.045 623.576C318.987 640.311 314.81 622.204 291.324 632.731C278.652 638.411 264.392 679.57 251.176 646.615C237.96 613.66 230.758 580.549 263.714 567.333C296.669 554.117 343.493 603.221 330.045 623.576Z" fill="#FF3B00"/>
<path d="M232.035 554.765C228.929 532.787 244.228 512.453 266.206 509.348C288.184 506.242 305.291 521.684 303.928 536.164C302.565 550.644 299.43 585.831 277.452 588.937C255.474 592.042 235.14 576.743 232.035 554.765Z" fill="#FFC702"/>
<path d="M298.83 472.014C300.191 510.18 244.729 543.136 206.564 544.498C168.398 545.859 237.604 509.091 236.243 470.925C234.881 432.76 189.095 406.735 227.261 405.374C265.426 404.013 297.469 433.849 298.83 472.014Z" fill="#00FEFE"/>
<path d="M125.309 610.044C127.086 648.131 197.801 624.557 173.648 641.267C149.494 657.977 104.371 659.756 83.9139 638.682C54.7733 608.662 29.5047 611.659 53.6579 594.949C77.8112 578.239 123.94 580.706 125.309 610.044Z" fill="#00BAFE"/>
<path d="M151.533 604.896C115.087 600.099 109.008 651.548 95.804 617.24C82.5998 582.933 88.8214 528.076 94.2381 511.984C99.6547 495.892 117.789 452.987 134.21 460.075C150.632 467.163 172.569 607.664 151.533 604.896Z" fill="#FFC702"/>
<path d="M183.324 588.73C188.287 620.817 193.778 629.841 175.208 640.76C151.071 654.952 135.614 684.388 122.491 654.691C109.367 624.994 149.401 522.481 179.098 509.357C199.747 500.233 174.426 531.218 183.324 588.73Z" fill="#0151FF"/>
<path d="M151.868 493.84C165.914 479.834 166.351 498.206 191.198 492.692C204.605 489.716 226.623 452.691 232.854 487.247C239.085 521.803 239.46 555.311 204.904 561.542C170.348 567.773 134.783 510.875 151.868 493.84Z" fill="#008CFF"/>
</g>
<defs>
<filter id="filter0_n_353_2" x="18.9219" y="0.249268" width="333.68" height="667.228" filterUnits="userSpaceOnUse" color-interpolation-filters="sRGB">
<feFlood flood-opacity="0" result="BackgroundImageFix"/>
<feBlend mode="normal" in="SourceGraphic" in2="BackgroundImageFix" result="shape"/>
<feTurbulence type="fractalNoise" baseFrequency="1.4285714626312256 1.4285714626312256" stitchTiles="stitch" numOctaves="3" result="noise" seed="5676" />
<feColorMatrix in="noise" type="luminanceToAlpha" result="alphaNoise" />
<feComponentTransfer in="alphaNoise" result="coloredNoise1">
<feFuncA type="discrete" tableValues="0 0 1 1 1 1 1 1 1 1 1 1 1 1 1 1 1 1 1 1 1 1 1 1 1 1 1 1 1 1 1 1 1 1 1 1 1 1 1 1 1 1 1 1 1 1 1 1 0 0 0 0 0 0 0 0 0 0 0 0 0 0 0 0 0 0 0 0 0 0 0 0 0 0 0 0 0 0 0 0 0 0 0 0 0 0 0 0 0 0 0 0 0 0 0 0 0 0 0 0 "/>
</feComponentTransfer>
<feComposite operator="in" in2="shape" in="coloredNoise1" result="noise1Clipped" />
<feFlood flood-color="rgba(255, 255, 255, 0.25)" result="color1Flood" />
<feComposite operator="in" in2="noise1Clipped" in="color1Flood" result="color1" />
<feMerge result="effect1_noise_353_2">
<feMergeNode in="shape" />
<feMergeNode in="color1" />
</feMerge>
</filter>
</defs>
</svg>
