<svg width="740" height="467" viewBox="0 0 740 467" fill="none" xmlns="http://www.w3.org/2000/svg">
<g filter="url(#filter0_n_304_97)">
<path d="M488.991 143.667C488.991 196.777 445.936 239.832 392.826 239.832C339.716 239.832 304.357 197.519 312.433 163.67C320.509 129.82 339.716 47.5029 392.826 47.5029C445.936 47.5029 488.991 90.5572 488.991 143.667Z" fill="#FEE900"/>
<path d="M470.122 252.378C433.6 310.813 562.942 348.488 509.862 348.488C456.781 348.488 387.885 304.735 379.15 252.378C366.707 177.796 326.07 156.267 379.15 156.267C432.231 156.267 498.255 207.366 470.122 252.378Z" fill="#FF3B00"/>
<path d="M325.687 183.352C305.104 212.749 264.587 219.893 235.191 199.309C205.795 178.726 202.623 141.603 220.211 125.997C237.8 110.391 280.334 72.2733 309.73 92.8567C339.126 113.44 346.27 153.956 325.687 183.352Z" fill="#FF6600"/>
<path d="M331.323 372.119C367.145 324.045 257.67 282.185 303.696 285.957C349.722 289.73 406.352 332.565 410.205 378.584C415.694 444.138 449.4 465.694 403.374 461.922C357.348 458.149 303.73 409.149 331.323 372.119Z" fill="#FF6600"/>
<path d="M359.106 327.181C370.087 363.598 377.927 373.174 358.16 388.865C332.467 409.259 319.326 445.925 299.266 413.608C279.207 381.29 308.966 255.842 341.284 235.782C363.754 221.835 339.422 261.905 359.106 327.181Z" fill="#FEE900"/>
<path d="M413.885 321.549C389.16 338.666 393.452 311.14 354.898 312.682C334.095 313.514 291.285 362.829 291.285 309.597C291.285 256.366 299.741 206.274 352.972 206.274C406.203 206.274 443.957 300.73 413.885 321.549Z" fill="#FFB200"/>
<path d="M364.124 298.533C400.726 279.842 373.703 228.614 407.613 251.832C441.523 275.051 470.575 329.507 475.79 347.76C481.006 366.012 491.511 417.016 471.896 420.901C452.28 424.786 343 309.321 364.124 298.533Z" fill="#008CFF"/>
<path d="M452.017 117.667C423.19 127.314 392.002 111.766 382.355 82.9391C372.708 54.1127 389.251 27.2354 409.091 25.4702C428.93 23.7051 477.098 19.1785 486.745 48.0049C496.391 76.8313 480.843 108.02 452.017 117.667Z" fill="#FFB200"/>
<path d="M226.337 134.862C189.815 193.297 319.157 230.973 266.076 230.973C212.996 230.973 144.1 187.219 135.365 134.862C122.922 60.2805 82.2847 38.7517 135.365 38.7517C188.445 38.7517 254.47 89.8503 226.337 134.862Z" fill="#FF6600"/>
<path d="M242.955 176.89C246.952 210.653 252.361 220.302 232.52 231.036C206.732 244.986 189.458 275.213 176.833 243.646C164.207 212.079 209.928 106.295 241.496 93.6701C263.444 84.8919 235.791 116.372 242.955 176.89Z" fill="#0151FF"/>
<path d="M278.096 368.863C259.809 405.734 190.338 408.52 153.468 390.233C116.597 371.945 201.049 372.597 219.336 335.727C237.623 298.856 207.577 250.705 244.448 268.992C281.318 287.279 296.383 331.993 278.096 368.863Z" fill="#FE8F00"/>
<path d="M531.283 216.027C492.862 224.763 505.89 278.74 479.855 249.166C453.821 219.591 439.669 162.135 439.128 143.944C438.587 125.753 440.855 75.8795 459.999 76.8961C479.143 77.9127 553.457 210.985 531.283 216.027Z" fill="#002AFF"/>
<path d="M177.262 196.408C157.239 194.656 142.428 177.004 144.179 156.981C145.931 136.958 163.05 125.023 175.545 129.184C188.04 133.345 218.441 143.302 216.689 163.325C214.938 183.348 197.286 198.16 177.262 196.408Z" fill="#FFC702"/>
<path d="M154.013 336.845C159.308 286.864 62.4586 303.451 97.2681 286.505C132.078 269.558 191.228 276.255 213.672 307.801C245.643 352.739 279.165 353.883 244.356 370.83C209.546 387.776 149.935 375.345 154.013 336.845Z" fill="#FFC702"/>
<path d="M608.184 282.707C572.287 297.823 619.793 357.332 595.264 340.055C570.736 322.778 553.14 280.134 566.145 253.097C584.671 214.582 572.899 191.406 597.428 208.684C621.957 225.961 635.835 271.064 608.184 282.707Z" fill="#002AFF"/>
<path d="M639.441 106.303C646.303 146.151 653.332 157.272 630.441 171.262C600.687 189.446 582.065 226.428 565.093 189.728C548.121 153.027 595.795 24.5295 632.495 7.55781C658.013 -4.24254 627.142 34.8775 639.441 106.303Z" fill="#00FEFE"/>
<path d="M102.401 383.367C102.839 423.29 177.72 401.26 151.821 417.845C125.921 434.43 78.6336 434.608 58.0125 411.791C28.638 379.288 2.08291 381.481 27.9825 364.895C53.8822 348.31 102.063 352.614 102.401 383.367Z" fill="#00BAFE"/>
<path d="M548.633 345.144C548.633 378.342 521.721 405.253 488.523 405.253C455.326 405.253 433.224 378.805 438.272 357.647C443.32 336.489 455.326 285.035 488.523 285.035C521.721 285.035 548.633 311.947 548.633 345.144Z" fill="#FE8F00"/>
<path d="M648.121 60.7285C660.698 100.206 716.093 81.7453 687.426 111.659C658.759 141.573 599.82 161.521 580.808 163.709C561.796 165.897 509.338 167.965 508.697 147.816C508.056 127.667 640.862 37.9438 648.121 60.7285Z" fill="#FFC702"/>
<path d="M116.135 272.483C93.2355 294.043 42.7175 277.581 21.1576 254.681C-0.402307 231.782 59.9365 254.687 82.8361 233.127C105.736 211.567 97.0008 169.082 118.561 191.982C140.121 214.881 139.035 250.923 116.135 272.483Z" fill="#FFB200"/>
<path d="M111.963 328.72C127.371 333.448 114.361 340.774 127.801 356.49C135.053 364.97 170.013 366.628 147.608 384.289C125.202 401.95 101.312 415.01 83.6511 392.604C65.9904 370.198 93.2228 322.969 111.963 328.72Z" fill="#FEE900"/>
<path d="M63.3716 339.162C86.7985 349.864 92.5056 356.001 104.843 344.176C120.878 328.806 146.682 323.347 126.836 306.93C106.991 290.512 20.1014 298.989 3.6836 318.834C-7.73156 332.633 21.3798 319.977 63.3716 339.162Z" fill="#008CFF"/>
<path d="M160.652 390.497C123.06 411.256 182.085 470.956 153.178 454.876C124.271 438.796 100.006 394.097 111.109 362.939C126.926 318.553 111.317 294.518 140.224 310.598C169.131 326.678 189.608 374.506 160.652 390.497Z" fill="#FF3B00"/>
<path d="M610.703 382.931C598.507 400.032 594.812 380.927 569.842 391.067C556.368 396.538 539.909 439.078 527.309 404.098C514.709 369.117 508.408 334.198 543.389 321.598C578.369 308.998 625.537 362.132 610.703 382.931Z" fill="#FF3B00"/>
<path d="M535.309 129.671C513.459 137.313 489.552 125.796 481.909 103.946C474.267 82.0965 486.587 61.4612 501.675 59.9129C516.763 58.3645 553.392 54.4217 561.034 76.2714C568.676 98.121 557.159 122.029 535.309 129.671Z" fill="#FF3B00"/>
<path d="M31.4563 294.32C41.4679 261.293 -5.25956 247.802 28.5363 240.813C62.3322 233.823 112.194 247.968 126.272 255.444C140.351 262.92 177.322 286.272 168.248 300.4C159.173 314.528 25.678 313.381 31.4563 294.32Z" fill="#00BAFE"/>
<path d="M118.27 301.305C100.591 268.361 135.086 215.453 168.03 197.775C200.974 180.096 156.05 242.288 173.728 275.232C191.407 308.176 242.873 311.266 209.93 328.945C176.986 346.623 135.948 334.248 118.27 301.305Z" fill="#0151FF"/>
<path d="M727.546 130.332C724.096 152.659 711.308 136.09 692.22 157.905C681.92 169.677 686.675 218.507 657.655 190.99C628.636 163.474 605.699 132.97 633.216 103.951C660.732 74.9314 731.741 103.176 727.546 130.332Z" fill="#00BAFE"/>
<path d="M588.122 377.235C640.01 399.756 570.076 485.418 605.97 460.719C641.865 436.02 668.095 374.374 649.639 334.905C623.35 278.681 640.812 245.213 604.918 269.912C569.023 294.611 548.153 359.887 588.122 377.235Z" fill="#FE8F00"/>
<path d="M670.328 189.266C670.328 219.229 646.039 243.518 616.076 243.518C586.114 243.518 566.166 219.647 570.722 200.551C575.278 181.454 586.114 135.014 616.076 135.014C646.039 135.014 670.328 159.304 670.328 189.266Z" fill="#FF6600"/>
<path d="M541.687 112.801C527.272 79.0367 518.731 70.6856 536.021 53.5275C558.494 31.226 567.192 -5.34805 589.879 23.5156C612.566 52.3793 597.388 175.891 568.524 198.578C548.456 214.352 567.526 173.321 541.687 112.801Z" fill="#0151FF"/>
<path d="M365.456 170.348C332.525 155.667 284.072 192.573 269.391 225.503C254.71 258.433 311.358 210.844 344.288 225.524C377.219 240.205 383.819 289.486 398.5 256.555C413.18 223.625 398.386 185.029 365.456 170.348Z" fill="#00BAFE"/>
<path d="M656.899 214.651C688.402 225.048 702.465 180.461 708.387 213.103C714.309 245.744 699.544 293.329 692.029 306.682C684.514 320.036 661.203 355.016 647.839 345.963C634.476 336.91 638.717 208.65 656.899 214.651Z" fill="#FFB200"/>
<path d="M679.114 251.906C667.875 213.475 601.806 198.977 563.374 210.216C524.943 221.454 605.948 235.21 617.187 273.642C628.425 312.073 591.446 353.079 629.877 341.841C668.308 330.602 690.352 290.337 679.114 251.906Z" fill="#008CFF"/>
<path d="M26.6389 72.8218C37.2997 58.1399 40.3513 74.6697 61.9951 66.0955C73.6744 61.4687 88.2049 24.8438 98.8312 55.1528C109.457 85.4618 114.642 115.671 84.3334 126.298C54.0244 136.924 13.6725 90.6788 26.6389 72.8218Z" fill="#00FEFE"/>
<path d="M83.7601 106.187C73.9243 145.437 66.076 156.008 87.8707 171.686C116.199 192.064 132.009 230.365 151.698 195.014C171.386 159.662 133.448 27.8564 98.0967 8.16776C73.5173 -5.52163 101.39 35.8321 83.7601 106.187Z" fill="#002AFF"/>
<path d="M510.71 301.264C508.281 278.149 525.05 257.44 548.166 255.011C571.281 252.581 588.606 269.38 586.64 284.482C584.673 299.584 580.079 336.29 556.964 338.719C533.848 341.149 513.14 324.379 510.71 301.264Z" fill="#FFC702"/>
<path d="M318.468 229.161C292.906 276.146 359.593 311.289 306.105 311.289C252.616 311.289 181.377 274.17 162.355 258.404C143.334 242.639 94.5492 195.59 112.757 176.995C130.965 158.4 333.221 202.043 318.468 229.161Z" fill="#FEE900"/>
<path d="M582.502 218.198C582.502 270.352 505.203 312.632 453.048 312.632C400.893 312.632 497.135 265.819 497.135 213.665C497.135 161.51 435.912 123.763 488.067 123.763C540.222 123.763 582.502 166.043 582.502 218.198Z" fill="#00FEFE"/>
<path d="M234.438 322.432C219.178 332.997 221.826 316.007 198.03 316.959C185.189 317.473 158.766 347.911 158.766 315.055C158.766 282.199 163.985 251.281 196.841 251.281C229.697 251.281 253 309.582 234.438 322.432Z" fill="#00FEFE"/>
<path d="M434.089 311.487C417.206 300.527 435.342 296.189 424.589 272.708C418.787 260.037 377.37 246.061 410.332 232.533C443.294 219.005 476.461 211.51 489.99 244.472C503.518 277.434 454.623 324.817 434.089 311.487Z" fill="#0151FF"/>
<path d="M264.069 317.199C282.181 289.769 337.518 294.376 364.948 312.488C392.378 330.6 325.504 321.798 307.393 349.228C289.281 376.658 308.372 417.772 280.941 399.66C253.511 381.548 245.958 344.629 264.069 317.199Z" fill="#002AFF"/>
<path d="M447.58 163.467C409.618 157.087 401.337 210.7 388.799 174.305C376.262 137.91 384.82 80.7362 391.089 64.098C397.358 47.4599 417.936 3.23752 434.857 11.2681C451.777 19.2988 469.49 167.149 447.58 163.467Z" fill="#FFC702"/>
<path d="M201.017 32.4143C216.24 18.2815 216.011 37.5232 242.218 32.6801C256.36 30.0667 280.783 -7.85707 286.014 28.5374C291.245 64.9319 290.387 100.011 253.992 105.242C217.598 110.473 182.503 49.6035 201.017 32.4143Z" fill="#008CFF"/>
<path d="M377.7 122.038C363.856 173.534 366.114 190.737 330.969 194.811C285.289 200.108 242.527 234.066 242.527 180.742C242.527 127.418 370.721 -0.00341797 424.045 -0.00341797C461.121 -0.00341797 402.514 29.7346 377.7 122.038Z" fill="#FE8F00"/>
</g>
<defs>
<filter id="filter0_n_304_97" x="1.1875" y="-0.00341797" width="726.535" height="465.15" filterUnits="userSpaceOnUse" color-interpolation-filters="sRGB">
<feFlood flood-opacity="0" result="BackgroundImageFix"/>
<feBlend mode="normal" in="SourceGraphic" in2="BackgroundImageFix" result="shape"/>
<feTurbulence type="fractalNoise" baseFrequency="1.4285714626312256 1.4285714626312256" stitchTiles="stitch" numOctaves="3" result="noise" seed="4208" />
<feColorMatrix in="noise" type="luminanceToAlpha" result="alphaNoise" />
<feComponentTransfer in="alphaNoise" result="coloredNoise1">
<feFuncA type="discrete" tableValues="0 0 1 1 1 1 1 1 1 1 1 1 1 1 1 1 1 1 1 1 1 1 1 1 1 1 1 1 1 1 1 1 1 1 1 1 1 1 1 1 1 1 1 1 1 1 1 1 0 0 0 0 0 0 0 0 0 0 0 0 0 0 0 0 0 0 0 0 0 0 0 0 0 0 0 0 0 0 0 0 0 0 0 0 0 0 0 0 0 0 0 0 0 0 0 0 0 0 0 0 "/>
</feComponentTransfer>
<feComposite operator="in" in2="shape" in="coloredNoise1" result="noise1Clipped" />
<feFlood flood-color="rgba(255, 255, 255, 0.25)" result="color1Flood" />
<feComposite operator="in" in2="noise1Clipped" in="color1Flood" result="color1" />
<feMerge result="effect1_noise_304_97">
<feMergeNode in="shape" />
<feMergeNode in="color1" />
</feMerge>
</filter>
</defs>
</svg>
