<svg width="348" height="360" viewBox="0 0 348 360" fill="none" xmlns="http://www.w3.org/2000/svg">
<g filter="url(#filter0_d_418_31)">
<path d="M317.621 190.048C317.621 159.315 304.012 131.307 283.687 107.887C263.366 84.4724 235.997 65.2217 207.408 51.7427C178.849 38.278 148.553 30.3285 122.177 30.0093C96.0477 29.6931 71.9518 36.932 58.718 56.0894C49.2524 69.7919 44.9745 80.8282 45.3946 91.19C45.8121 101.486 50.8814 109.528 55.6534 116.715C60.6166 124.191 65.9109 131.598 69.9755 142.102C73.9911 152.48 76.879 166.164 76.1017 185.637C75.9365 189.776 74.5161 195.009 71.861 201.362C69.2371 207.641 65.6329 214.495 61.5321 221.792C53.5379 236.015 43.3933 252.278 37.0497 266.914C33.8387 274.321 31.3255 281.89 30.5571 289.148C29.7791 296.496 30.7513 303.998 35.0706 310.589C39.3771 317.161 46.3182 321.768 55.4088 324.715C64.4402 327.643 76.0661 329.098 90.6158 329.098C147.123 329.098 203.411 324.662 245.761 305.256C267.105 295.476 285.202 281.767 297.923 262.675C310.662 243.556 317.621 219.618 317.621 190.048ZM89.3033 321.094C-21.4071 320.388 82.3213 229.98 84.0784 185.957C87.3219 104.692 29.9045 113.032 64.4486 61.8628L65.2817 60.6431C109.241 -2.99183 308.078 76.3386 309.63 188.725L309.639 190.048C309.639 303.134 203.454 321.098 90.6158 321.098L89.3033 321.094Z" fill="white"/>
</g>
<path d="M65.0445 60.6434C28.6804 113.169 87.1586 104.053 83.8824 185.957C82.1146 230.153 -22.6511 321.098 90.4348 321.098C203.521 321.098 309.938 303.134 309.938 190.048C309.938 76.9626 109.273 -3.24174 65.0445 60.6434Z" fill="#FF6600"/>
<path d="M101.917 182.437H111.363V186.495H101.917V182.437ZM109.401 182.437H113.525C113.525 183.501 113.569 184.71 113.658 186.062C113.746 187.393 113.935 188.823 114.223 190.353C114.511 191.86 114.944 193.413 115.52 195.009C116.097 196.605 116.862 198.191 117.815 199.765C118.791 201.317 120.01 202.814 121.474 204.255C122.937 205.696 124.689 207.027 126.729 208.246C126.441 208.468 126.086 208.79 125.664 209.211C125.243 209.632 124.833 210.064 124.434 210.508C124.057 210.974 123.747 211.384 123.503 211.739C121.418 210.453 119.611 209.011 118.081 207.415C116.551 205.796 115.265 204.089 114.223 202.293C113.181 200.475 112.339 198.645 111.695 196.805C111.052 194.943 110.565 193.135 110.232 191.384C109.899 189.61 109.678 187.958 109.567 186.428C109.456 184.898 109.401 183.568 109.401 182.437ZM107.97 189.754L112.527 190.586C111.773 193.867 110.764 196.849 109.5 199.532C108.237 202.215 106.718 204.577 104.944 206.617C103.192 208.657 101.163 210.375 98.8573 211.772C98.6134 211.484 98.2697 211.129 97.8263 210.708C97.3828 210.308 96.9172 209.898 96.4294 209.477C95.9638 209.078 95.5536 208.756 95.1988 208.512C98.6799 206.761 101.452 204.3 103.514 201.129C105.576 197.936 107.061 194.144 107.97 189.754ZM138.769 194.011H159.855V197.37H138.769V194.011ZM142.394 198.934H156.064V202.093H142.394V198.934ZM143.658 195.242L147.084 196.107C146.263 198.013 145.143 199.776 143.724 201.395C142.327 202.991 140.842 204.311 139.268 205.353C139.068 205.131 138.802 204.865 138.469 204.554C138.159 204.222 137.826 203.911 137.472 203.623C137.139 203.335 136.84 203.102 136.574 202.925C138.126 202.082 139.523 200.996 140.764 199.665C142.028 198.313 142.993 196.838 143.658 195.242ZM155.465 198.934H159.157C159.157 198.934 159.146 199.111 159.124 199.466C159.124 199.798 159.101 200.087 159.057 200.331C158.924 202.481 158.758 204.255 158.558 205.652C158.381 207.027 158.181 208.091 157.959 208.845C157.738 209.621 157.472 210.175 157.161 210.508C156.851 210.885 156.507 211.151 156.13 211.306C155.775 211.461 155.376 211.572 154.933 211.639C154.556 211.683 154.068 211.716 153.469 211.739C152.893 211.761 152.261 211.75 151.574 211.705C151.551 211.24 151.463 210.696 151.308 210.076C151.152 209.477 150.942 208.978 150.676 208.579C151.208 208.623 151.684 208.657 152.106 208.679C152.527 208.679 152.849 208.679 153.07 208.679C153.292 208.679 153.469 208.657 153.602 208.612C153.758 208.568 153.902 208.468 154.035 208.313C154.234 208.091 154.412 207.67 154.567 207.049C154.744 206.406 154.9 205.475 155.033 204.255C155.188 203.036 155.332 201.45 155.465 199.499V198.934ZM145.254 188.39V189.987H153.835V188.39H145.254ZM145.254 184.2V185.763H153.835V184.2H145.254ZM141.696 181.439H157.527V192.747H141.696V181.439ZM129.057 187.592H139.201V191.35H129.057V187.592ZM132.416 181.007H136.141V201.694H132.416V181.007ZM128.292 202.359C129.157 202.049 130.155 201.661 131.285 201.195C132.438 200.73 133.658 200.231 134.944 199.699C136.23 199.144 137.505 198.59 138.769 198.036L139.633 201.461C137.97 202.326 136.274 203.191 134.545 204.056C132.815 204.92 131.23 205.707 129.789 206.417L128.292 202.359ZM151.64 199.599L154.334 201.062C153.935 202.393 153.37 203.756 152.638 205.153C151.906 206.528 151.086 207.814 150.177 209.011C149.268 210.209 148.314 211.195 147.316 211.971C146.984 211.594 146.551 211.195 146.019 210.774C145.487 210.353 144.966 210.009 144.456 209.743C145.543 209.056 146.551 208.169 147.483 207.082C148.414 205.996 149.234 204.798 149.944 203.49C150.676 202.182 151.241 200.885 151.64 199.599ZM146.618 199.632L149.212 201.162C148.658 202.315 147.926 203.479 147.017 204.654C146.13 205.829 145.155 206.927 144.09 207.947C143.026 208.967 141.962 209.809 140.897 210.475C140.587 210.076 140.188 209.654 139.7 209.211C139.234 208.767 138.769 208.402 138.303 208.113C139.39 207.559 140.465 206.827 141.529 205.918C142.616 205.009 143.602 204.011 144.489 202.925C145.376 201.816 146.086 200.719 146.618 199.632ZM165.908 184.965C166.751 184.965 167.826 184.965 169.135 184.965C170.443 184.942 171.818 184.898 173.259 184.832C174.7 184.743 176.03 184.61 177.25 184.433C178.093 184.322 178.913 184.189 179.711 184.033C180.532 183.878 181.308 183.723 182.039 183.568C182.793 183.39 183.469 183.202 184.068 183.002C184.689 182.803 185.21 182.614 185.631 182.437L188.359 186.095C187.782 186.229 187.283 186.35 186.862 186.461C186.441 186.572 186.086 186.661 185.798 186.727C185.11 186.905 184.367 187.082 183.569 187.26C182.771 187.415 181.951 187.559 181.108 187.692C180.265 187.825 179.412 187.958 178.547 188.091C177.283 188.268 175.942 188.401 174.523 188.49C173.104 188.579 171.729 188.656 170.398 188.723C169.068 188.767 167.915 188.801 166.94 188.823L165.908 184.965ZM167.339 207.88C169.29 206.994 170.886 205.918 172.128 204.654C173.392 203.368 174.323 201.894 174.922 200.231C175.543 198.546 175.853 196.661 175.853 194.577C175.853 194.577 175.853 194.333 175.853 193.845C175.853 193.335 175.853 192.581 175.853 191.583C175.853 190.563 175.853 189.277 175.853 187.725L180.21 187.226C180.21 187.803 180.21 188.424 180.21 189.089C180.21 189.732 180.21 190.375 180.21 191.018C180.21 191.661 180.21 192.248 180.21 192.781C180.21 193.291 180.21 193.712 180.21 194.044C180.21 194.355 180.21 194.51 180.21 194.51C180.21 196.727 179.933 198.834 179.379 200.829C178.846 202.825 177.948 204.665 176.685 206.351C175.421 208.013 173.713 209.488 171.563 210.774L167.339 207.88ZM163.414 192.914C163.88 192.958 164.379 193.002 164.911 193.047C165.443 193.091 165.964 193.113 166.474 193.113C166.784 193.113 167.372 193.113 168.237 193.113C169.101 193.113 170.144 193.113 171.363 193.113C172.605 193.113 173.935 193.113 175.354 193.113C176.773 193.113 178.192 193.113 179.611 193.113C181.03 193.113 182.361 193.113 183.603 193.113C184.844 193.113 185.909 193.113 186.795 193.113C187.682 193.113 188.281 193.113 188.591 193.113C188.835 193.113 189.146 193.102 189.523 193.08C189.9 193.058 190.277 193.036 190.654 193.013C191.053 192.969 191.374 192.936 191.618 192.914V197.204C191.175 197.16 190.687 197.127 190.155 197.104C189.645 197.082 189.157 197.071 188.691 197.071C188.381 197.071 187.782 197.071 186.895 197.071C186.03 197.071 184.966 197.071 183.702 197.071C182.461 197.071 181.119 197.071 179.678 197.071C178.259 197.071 176.829 197.071 175.387 197.071C173.968 197.071 172.638 197.071 171.396 197.071C170.155 197.071 169.101 197.071 168.237 197.071C167.372 197.071 166.806 197.071 166.54 197.071C166.03 197.071 165.487 197.082 164.911 197.104C164.334 197.127 163.835 197.16 163.414 197.204V192.914ZM209.013 182.803C208.813 183.224 208.614 183.69 208.414 184.2C208.215 184.71 208.048 185.142 207.915 185.497C207.716 186.051 207.472 186.672 207.183 187.359C206.917 188.047 206.629 188.745 206.319 189.455C206.03 190.142 205.731 190.774 205.421 191.35C204.999 192.193 204.467 193.102 203.824 194.078C203.203 195.031 202.538 195.951 201.829 196.838C201.119 197.703 200.387 198.457 199.634 199.1L195.476 196.572C196.075 196.151 196.64 195.652 197.172 195.076C197.727 194.499 198.248 193.9 198.736 193.28C199.246 192.659 199.711 192.049 200.132 191.45C200.554 190.829 200.92 190.253 201.23 189.721C201.674 188.967 202.05 188.18 202.361 187.359C202.693 186.539 202.96 185.818 203.159 185.197C203.359 184.643 203.514 184.067 203.625 183.468C203.758 182.847 203.835 182.282 203.858 181.772L209.013 182.803ZM203.758 187.925C204.135 187.925 204.689 187.925 205.421 187.925C206.152 187.925 207.006 187.925 207.982 187.925C208.957 187.925 209.977 187.925 211.042 187.925C212.128 187.925 213.203 187.925 214.268 187.925C215.354 187.925 216.363 187.925 217.294 187.925C218.248 187.925 219.068 187.925 219.756 187.925C220.465 187.925 220.986 187.925 221.319 187.925C221.762 187.925 222.317 187.914 222.982 187.891C223.647 187.847 224.246 187.781 224.778 187.692V192.248C224.157 192.182 223.514 192.149 222.849 192.149C222.206 192.127 221.696 192.115 221.319 192.115C220.942 192.115 220.31 192.115 219.423 192.115C218.536 192.115 217.505 192.115 216.33 192.115C215.155 192.115 213.913 192.115 212.605 192.115C211.319 192.115 210.066 192.115 208.846 192.115C207.627 192.115 206.54 192.115 205.587 192.115C204.634 192.115 203.902 192.115 203.392 192.115L203.758 187.925ZM216.729 190.319C216.685 192.781 216.43 195.042 215.964 197.104C215.498 199.144 214.833 200.996 213.968 202.659C213.126 204.322 212.084 205.829 210.842 207.182C209.6 208.512 208.181 209.676 206.585 210.674L202.095 207.648C202.693 207.404 203.27 207.127 203.824 206.816C204.379 206.484 204.855 206.151 205.254 205.818C206.208 205.087 207.084 204.255 207.882 203.324C208.702 202.37 209.423 201.273 210.044 200.031C210.687 198.767 211.186 197.337 211.54 195.741C211.917 194.144 212.117 192.337 212.139 190.319H216.729ZM244.135 189.089C244.29 189.444 244.49 189.954 244.733 190.619C245 191.262 245.277 191.96 245.565 192.714C245.853 193.446 246.108 194.144 246.33 194.809C246.552 195.475 246.729 195.996 246.862 196.373L242.871 197.77C242.782 197.348 242.627 196.816 242.405 196.173C242.184 195.53 241.94 194.854 241.674 194.144C241.408 193.413 241.141 192.714 240.875 192.049C240.609 191.384 240.376 190.829 240.177 190.386L244.135 189.089ZM256.408 191.517C256.23 192.049 256.075 192.503 255.942 192.88C255.831 193.257 255.72 193.612 255.609 193.945C255.188 195.63 254.612 197.315 253.88 199C253.148 200.663 252.217 202.226 251.086 203.69C249.534 205.685 247.771 207.382 245.798 208.778C243.847 210.153 241.895 211.206 239.944 211.938L236.452 208.379C237.671 208.047 238.957 207.559 240.31 206.916C241.663 206.251 242.971 205.453 244.235 204.521C245.498 203.59 246.585 202.559 247.494 201.428C248.248 200.475 248.913 199.388 249.49 198.169C250.088 196.927 250.576 195.608 250.953 194.211C251.352 192.792 251.618 191.395 251.751 190.02L256.408 191.517ZM236.419 190.852C236.64 191.273 236.884 191.816 237.15 192.481C237.439 193.146 237.727 193.845 238.015 194.577C238.303 195.308 238.58 196.018 238.847 196.705C239.135 197.393 239.357 197.969 239.512 198.435L235.454 199.965C235.321 199.521 235.121 198.945 234.855 198.235C234.611 197.526 234.334 196.783 234.024 196.007C233.713 195.209 233.414 194.477 233.126 193.812C232.86 193.146 232.627 192.637 232.427 192.282L236.419 190.852ZM271.042 205.652C271.042 205.231 271.042 204.543 271.042 203.59C271.042 202.614 271.042 201.495 271.042 200.231C271.042 198.945 271.042 197.603 271.042 196.206C271.042 194.809 271.042 193.468 271.042 192.182C271.042 190.874 271.042 189.721 271.042 188.723C271.042 187.725 271.042 186.993 271.042 186.528C271.042 185.951 271.008 185.286 270.942 184.532C270.898 183.778 270.82 183.113 270.709 182.537H275.898C275.831 183.113 275.765 183.756 275.698 184.466C275.632 185.153 275.598 185.84 275.598 186.528C275.598 187.149 275.598 187.991 275.598 189.056C275.598 190.12 275.598 191.306 275.598 192.614C275.598 193.9 275.598 195.22 275.598 196.572C275.598 197.903 275.598 199.189 275.598 200.43C275.598 201.672 275.598 202.758 275.598 203.69C275.598 204.599 275.598 205.253 275.598 205.652C275.598 205.962 275.609 206.406 275.632 206.982C275.654 207.537 275.698 208.113 275.765 208.712C275.831 209.311 275.875 209.843 275.898 210.308H270.709C270.798 209.643 270.875 208.867 270.942 207.98C271.008 207.093 271.042 206.317 271.042 205.652ZM274.6 191.151C275.709 191.439 276.951 191.816 278.326 192.282C279.7 192.725 281.086 193.202 282.483 193.712C283.88 194.222 285.188 194.732 286.408 195.242C287.649 195.73 288.68 196.184 289.501 196.605L287.605 201.195C286.674 200.707 285.643 200.22 284.512 199.732C283.381 199.222 282.228 198.734 281.053 198.268C279.9 197.803 278.758 197.37 277.627 196.971C276.518 196.572 275.51 196.217 274.6 195.907V191.151Z" fill="white"/>
<path d="M112.026 150.174C111.991 150.439 111.955 150.738 111.92 151.072C111.902 151.389 111.885 151.715 111.867 152.05C111.85 152.402 111.832 152.877 111.814 153.476C111.797 154.057 111.788 154.7 111.788 155.404C111.788 156.108 111.788 156.804 111.788 157.491C111.788 158.177 111.788 158.802 111.788 159.366C111.788 160.105 111.806 160.933 111.841 161.849C111.876 162.747 111.92 163.662 111.973 164.595C112.043 165.511 112.096 166.374 112.131 167.184C112.184 167.976 112.211 168.636 112.211 169.165C112.211 169.904 112.017 170.582 111.63 171.198C111.242 171.797 110.661 172.272 109.886 172.625C109.129 172.977 108.17 173.153 107.007 173.153C104.895 173.153 103.292 172.766 102.201 171.991C101.109 171.216 100.563 170.133 100.563 168.742C100.563 167.844 100.818 167.061 101.329 166.391C101.857 165.705 102.605 165.168 103.574 164.78C104.56 164.393 105.731 164.199 107.087 164.199C108.531 164.199 109.878 164.358 111.128 164.675C112.396 164.974 113.549 165.37 114.588 165.863C115.627 166.356 116.551 166.876 117.361 167.421C118.171 167.967 118.858 168.46 119.421 168.901L117.519 171.859C116.886 171.26 116.172 170.67 115.38 170.089C114.605 169.508 113.751 168.98 112.818 168.504C111.902 168.029 110.925 167.65 109.886 167.369C108.865 167.069 107.782 166.92 106.638 166.92C105.722 166.92 105.009 167.078 104.498 167.395C104.005 167.712 103.759 168.099 103.759 168.557C103.759 168.892 103.864 169.182 104.076 169.429C104.287 169.675 104.595 169.86 105 169.983C105.405 170.107 105.916 170.168 106.532 170.168C107.007 170.168 107.412 170.116 107.747 170.01C108.099 169.904 108.372 169.711 108.566 169.429C108.759 169.147 108.856 168.751 108.856 168.24C108.856 167.853 108.839 167.298 108.803 166.576C108.786 165.854 108.759 165.062 108.724 164.199C108.689 163.319 108.654 162.456 108.619 161.611C108.583 160.766 108.566 160.017 108.566 159.366C108.566 158.732 108.566 158.072 108.566 157.385C108.583 156.681 108.592 155.985 108.592 155.298C108.592 154.612 108.592 153.987 108.592 153.423C108.61 152.842 108.619 152.367 108.619 151.997C108.619 151.75 108.601 151.451 108.566 151.099C108.548 150.729 108.513 150.421 108.46 150.174H112.026ZM101.065 152.657C101.54 152.728 102.068 152.798 102.65 152.868C103.231 152.939 103.82 153.009 104.419 153.08C105.035 153.133 105.616 153.177 106.162 153.212C106.708 153.229 107.184 153.238 107.589 153.238C109.385 153.238 111.172 153.185 112.95 153.08C114.746 152.957 116.604 152.736 118.523 152.419L118.497 155.457C117.599 155.58 116.56 155.695 115.38 155.8C114.2 155.906 112.941 155.994 111.603 156.064C110.283 156.117 108.953 156.144 107.615 156.144C107.069 156.144 106.391 156.126 105.581 156.091C104.789 156.038 103.997 155.976 103.204 155.906C102.412 155.818 101.725 155.739 101.144 155.668L101.065 152.657ZM100.933 158.362C101.355 158.433 101.857 158.503 102.438 158.573C103.019 158.644 103.609 158.697 104.208 158.732C104.824 158.767 105.405 158.802 105.951 158.838C106.497 158.855 106.946 158.864 107.298 158.864C108.936 158.864 110.415 158.829 111.735 158.758C113.073 158.688 114.324 158.6 115.486 158.494C116.648 158.389 117.766 158.265 118.84 158.124L118.814 161.241C117.898 161.347 117.009 161.435 116.146 161.505C115.301 161.576 114.429 161.637 113.531 161.69C112.651 161.743 111.7 161.778 110.679 161.796C109.657 161.813 108.513 161.822 107.245 161.822C106.735 161.822 106.101 161.813 105.344 161.796C104.586 161.761 103.812 161.717 103.019 161.664C102.245 161.611 101.558 161.549 100.959 161.479L100.933 158.362ZM128.48 151.416C128.85 151.469 129.246 151.504 129.669 151.521C130.092 151.539 130.497 151.548 130.884 151.548C131.166 151.548 131.588 151.548 132.152 151.548C132.715 151.53 133.349 151.513 134.053 151.495C134.775 151.477 135.488 151.46 136.193 151.442C136.897 151.425 137.531 151.407 138.094 151.389C138.675 151.354 139.124 151.328 139.441 151.31C139.987 151.257 140.419 151.213 140.736 151.178C141.052 151.125 141.29 151.072 141.449 151.02L143.165 153.37C142.866 153.564 142.558 153.758 142.241 153.951C141.924 154.145 141.616 154.356 141.317 154.585C140.964 154.832 140.542 155.158 140.049 155.563C139.556 155.95 139.028 156.364 138.464 156.804C137.918 157.244 137.381 157.675 136.853 158.098C136.342 158.521 135.876 158.899 135.453 159.234C135.893 159.128 136.316 159.058 136.721 159.022C137.126 158.97 137.54 158.943 137.962 158.943C139.459 158.943 140.797 159.234 141.977 159.815C143.174 160.396 144.116 161.188 144.803 162.192C145.507 163.178 145.859 164.314 145.859 165.599C145.859 166.99 145.507 168.249 144.803 169.376C144.099 170.503 143.033 171.401 141.607 172.07C140.198 172.739 138.429 173.074 136.298 173.074C135.083 173.074 133.983 172.898 132.997 172.545C132.028 172.193 131.262 171.691 130.699 171.04C130.136 170.388 129.854 169.622 129.854 168.742C129.854 168.02 130.047 167.351 130.435 166.735C130.84 166.101 131.395 165.59 132.099 165.203C132.821 164.816 133.648 164.622 134.582 164.622C135.797 164.622 136.818 164.868 137.645 165.361C138.491 165.837 139.133 166.479 139.573 167.289C140.031 168.099 140.269 168.989 140.287 169.957L137.196 170.38C137.179 169.411 136.932 168.636 136.457 168.055C135.999 167.457 135.383 167.157 134.608 167.157C134.115 167.157 133.719 167.289 133.419 167.554C133.12 167.8 132.97 168.091 132.97 168.425C132.97 168.918 133.217 169.314 133.71 169.614C134.203 169.913 134.846 170.063 135.638 170.063C137.135 170.063 138.385 169.887 139.389 169.534C140.392 169.165 141.141 168.645 141.634 167.976C142.144 167.289 142.399 166.479 142.399 165.546C142.399 164.754 142.153 164.058 141.66 163.46C141.185 162.861 140.533 162.394 139.705 162.06C138.878 161.725 137.945 161.558 136.906 161.558C135.885 161.558 134.951 161.69 134.106 161.954C133.261 162.201 132.46 162.562 131.703 163.037C130.963 163.495 130.232 164.058 129.51 164.727C128.806 165.379 128.102 166.11 127.398 166.92L124.994 164.437C125.469 164.05 126.006 163.618 126.605 163.143C127.204 162.65 127.811 162.139 128.428 161.611C129.061 161.083 129.651 160.59 130.197 160.132C130.761 159.656 131.236 159.26 131.623 158.943C131.993 158.644 132.425 158.292 132.918 157.887C133.411 157.482 133.921 157.068 134.449 156.645C134.978 156.205 135.48 155.791 135.955 155.404C136.43 154.999 136.827 154.656 137.144 154.374C136.879 154.374 136.536 154.383 136.113 154.4C135.691 154.418 135.224 154.436 134.714 154.453C134.221 154.471 133.719 154.488 133.208 154.506C132.715 154.524 132.248 154.55 131.808 154.585C131.386 154.603 131.034 154.62 130.752 154.638C130.4 154.656 130.03 154.682 129.643 154.717C129.255 154.753 128.903 154.797 128.586 154.849L128.48 151.416ZM154.258 152.604C155.227 152.728 156.319 152.816 157.534 152.868C158.748 152.921 160.051 152.948 161.443 152.948C162.323 152.948 163.221 152.93 164.137 152.895C165.052 152.86 165.941 152.816 166.804 152.763C167.667 152.692 168.433 152.631 169.102 152.578V156.091C168.486 156.126 167.737 156.17 166.857 156.223C165.994 156.276 165.087 156.32 164.137 156.355C163.203 156.39 162.314 156.408 161.469 156.408C160.095 156.408 158.819 156.381 157.639 156.328C156.459 156.258 155.333 156.188 154.258 156.117V152.604ZM156.477 163.803C156.354 164.261 156.248 164.71 156.16 165.15C156.072 165.59 156.028 166.03 156.028 166.471C156.028 167.333 156.451 168.038 157.296 168.584C158.159 169.112 159.541 169.376 161.443 169.376C162.64 169.376 163.793 169.332 164.902 169.244C166.029 169.156 167.086 169.041 168.072 168.901C169.058 168.742 169.938 168.557 170.713 168.346L170.74 172.044C169.982 172.22 169.12 172.378 168.151 172.519C167.2 172.66 166.17 172.766 165.061 172.836C163.969 172.924 162.807 172.968 161.575 172.968C159.55 172.968 157.868 172.739 156.53 172.281C155.192 171.841 154.179 171.207 153.493 170.38C152.823 169.534 152.489 168.504 152.489 167.289C152.489 166.532 152.55 165.837 152.674 165.203C152.797 164.551 152.903 163.979 152.991 163.486L156.477 163.803ZM169.789 149.884C170.018 150.201 170.255 150.579 170.502 151.02C170.766 151.46 171.021 151.9 171.268 152.34C171.514 152.78 171.726 153.168 171.902 153.502L169.762 154.427C169.498 153.881 169.172 153.256 168.785 152.552C168.415 151.847 168.054 151.24 167.702 150.729L169.789 149.884ZM172.932 148.695C173.161 149.03 173.407 149.417 173.671 149.858C173.935 150.298 174.191 150.738 174.437 151.178C174.701 151.601 174.913 151.97 175.071 152.287L172.958 153.185C172.676 152.64 172.342 152.023 171.954 151.337C171.567 150.632 171.189 150.034 170.819 149.541L172.932 148.695ZM197.495 156.144C197.107 156.39 196.694 156.628 196.253 156.857C195.831 157.086 195.373 157.323 194.88 157.57C194.475 157.781 193.973 158.028 193.375 158.309C192.793 158.591 192.16 158.908 191.473 159.26C190.804 159.595 190.126 159.956 189.439 160.343C188.752 160.713 188.11 161.091 187.511 161.479C186.419 162.201 185.53 162.949 184.843 163.724C184.174 164.499 183.84 165.353 183.84 166.286C183.84 167.219 184.298 167.941 185.213 168.452C186.129 168.945 187.502 169.191 189.334 169.191C190.249 169.191 191.218 169.156 192.239 169.085C193.278 168.997 194.299 168.883 195.303 168.742C196.306 168.584 197.195 168.408 197.97 168.214L197.917 172.017C197.178 172.14 196.368 172.255 195.488 172.361C194.625 172.466 193.683 172.545 192.661 172.598C191.658 172.651 190.584 172.677 189.439 172.677C188.119 172.677 186.895 172.572 185.768 172.361C184.659 172.167 183.681 171.841 182.836 171.383C182.009 170.925 181.357 170.309 180.882 169.534C180.424 168.76 180.195 167.809 180.195 166.682C180.195 165.555 180.441 164.534 180.935 163.618C181.428 162.703 182.097 161.857 182.942 161.083C183.805 160.308 184.747 159.577 185.768 158.89C186.402 158.468 187.071 158.063 187.775 157.675C188.48 157.27 189.166 156.883 189.835 156.513C190.522 156.144 191.156 155.809 191.737 155.51C192.336 155.193 192.829 154.92 193.216 154.691C193.727 154.392 194.176 154.119 194.563 153.872C194.95 153.626 195.32 153.362 195.672 153.08L197.495 156.144ZM184.21 150.491C184.65 151.654 185.108 152.772 185.583 153.846C186.076 154.92 186.56 155.923 187.036 156.857C187.529 157.79 187.978 158.626 188.383 159.366L185.398 161.135C184.923 160.325 184.43 159.419 183.919 158.415C183.408 157.411 182.898 156.355 182.387 155.246C181.877 154.119 181.384 152.983 180.908 151.838L184.21 150.491ZM208.086 149.118L211.044 149.646C210.305 151.125 209.38 152.552 208.271 153.925C207.179 155.298 205.815 156.557 204.177 157.702C204.054 157.473 203.869 157.226 203.622 156.962C203.393 156.698 203.156 156.452 202.909 156.223C202.663 155.976 202.434 155.783 202.223 155.642C203.191 155.025 204.054 154.356 204.811 153.634C205.568 152.895 206.22 152.138 206.765 151.363C207.311 150.588 207.751 149.84 208.086 149.118ZM208.165 150.729H213.342V152.842H206.897L208.165 150.729ZM212.602 150.729H213.157L213.659 150.597L215.561 151.389C214.98 153.573 214.126 155.474 212.999 157.094C211.889 158.714 210.578 160.079 209.063 161.188C207.549 162.298 205.894 163.196 204.098 163.882C203.904 163.513 203.649 163.081 203.332 162.588C203.015 162.095 202.707 161.708 202.407 161.426C203.622 161.039 204.767 160.528 205.841 159.894C206.933 159.26 207.919 158.512 208.799 157.649C209.697 156.769 210.463 155.791 211.097 154.717C211.748 153.626 212.25 152.455 212.602 151.205V150.729ZM206.686 154.189L208.033 152.789C208.438 153.001 208.87 153.247 209.327 153.529C209.785 153.793 210.217 154.057 210.622 154.321C211.044 154.585 211.396 154.841 211.678 155.087L210.252 156.645C209.988 156.417 209.653 156.161 209.248 155.879C208.843 155.58 208.412 155.281 207.954 154.981C207.514 154.682 207.091 154.418 206.686 154.189ZM219.047 168.504L221.662 166.972C222.278 167.448 222.921 167.976 223.59 168.557C224.259 169.138 224.884 169.728 225.465 170.327C226.064 170.908 226.548 171.445 226.918 171.938L224.092 173.681C223.775 173.206 223.335 172.66 222.771 172.044C222.208 171.427 221.591 170.811 220.922 170.195C220.271 169.578 219.646 169.015 219.047 168.504ZM204.415 156.619L206.079 155.298C206.448 155.545 206.845 155.827 207.267 156.144C207.707 156.461 208.121 156.769 208.509 157.068C208.896 157.367 209.213 157.649 209.459 157.913L207.743 159.392C207.496 159.128 207.188 158.838 206.818 158.521C206.448 158.186 206.052 157.86 205.63 157.543C205.225 157.209 204.82 156.901 204.415 156.619ZM218.783 150.676H224.567V153.265H218.783V150.676ZM210.278 158.547H220.288V161.373H210.278V158.547ZM205.101 163.486H225.28V166.339H205.101V163.486ZM223.775 150.676H224.514L225.122 150.491L227.155 151.918C226.715 152.745 226.196 153.59 225.597 154.453C225.016 155.316 224.391 156.135 223.722 156.91C223.07 157.684 222.41 158.362 221.741 158.943C221.53 158.644 221.23 158.301 220.843 157.913C220.456 157.526 220.13 157.218 219.866 156.989C220.376 156.496 220.887 155.915 221.398 155.246C221.926 154.576 222.401 153.89 222.824 153.185C223.246 152.481 223.563 151.856 223.775 151.31V150.676ZM217.568 149.382C218.079 151.249 218.774 152.948 219.654 154.48C220.552 156.012 221.679 157.323 223.035 158.415C224.409 159.507 226.046 160.343 227.948 160.924C227.719 161.118 227.472 161.373 227.208 161.69C226.962 162.007 226.724 162.333 226.495 162.667C226.284 162.984 226.108 163.284 225.967 163.565C223.942 162.826 222.208 161.822 220.764 160.554C219.337 159.287 218.149 157.764 217.198 155.985C216.247 154.207 215.464 152.191 214.847 149.937L217.568 149.382ZM213.58 164.965H216.802V170.855C216.802 171.577 216.696 172.14 216.485 172.545C216.291 172.968 215.913 173.285 215.349 173.496C214.821 173.708 214.178 173.831 213.421 173.866C212.682 173.919 211.819 173.936 210.833 173.919C210.762 173.496 210.622 173.021 210.41 172.493C210.217 171.964 210.014 171.507 209.803 171.119C210.243 171.137 210.683 171.154 211.123 171.172C211.564 171.172 211.96 171.172 212.312 171.172C212.664 171.172 212.911 171.163 213.051 171.146C213.263 171.146 213.404 171.119 213.474 171.066C213.544 171.014 213.58 170.908 213.58 170.749V164.965ZM207.531 166.946L210.674 167.87C210.058 168.98 209.266 170.045 208.297 171.066C207.346 172.07 206.396 172.906 205.445 173.575C205.251 173.364 204.996 173.126 204.679 172.862C204.362 172.616 204.036 172.369 203.702 172.123C203.367 171.876 203.077 171.665 202.83 171.489C203.781 170.961 204.679 170.3 205.524 169.508C206.369 168.698 207.038 167.844 207.531 166.946ZM229.697 171.542V170.755L235.011 164.152C235.647 163.37 236.249 162.622 236.816 161.908C237.392 161.194 237.861 160.502 238.222 159.832C238.583 159.161 238.764 158.495 238.764 157.833C238.764 157.308 238.643 156.844 238.403 156.44C238.162 156.036 237.827 155.718 237.397 155.486C236.975 155.254 236.481 155.137 235.914 155.137C235.312 155.137 234.774 155.271 234.302 155.537C233.829 155.804 233.459 156.173 233.192 156.646C232.926 157.119 232.793 157.669 232.793 158.297H229.607C229.616 157.136 229.891 156.109 230.433 155.215C230.974 154.312 231.718 153.607 232.664 153.1C233.618 152.584 234.701 152.326 235.914 152.326C237.066 152.326 238.089 152.558 238.983 153.022C239.886 153.478 240.595 154.114 241.111 154.931C241.635 155.739 241.898 156.676 241.898 157.743C241.898 158.654 241.708 159.505 241.33 160.296C240.952 161.078 240.449 161.869 239.821 162.669C239.202 163.469 238.51 164.333 237.745 165.261L234.946 168.679V168.782L237.629 168.73H242.155V171.542H229.697ZM252.189 171.748C250.805 171.748 249.584 171.4 248.526 170.703C247.469 170.007 246.639 169.018 246.037 167.737C245.435 166.448 245.135 164.917 245.135 163.146V161.018C245.135 159.23 245.435 157.687 246.037 156.388C246.639 155.09 247.469 154.089 248.526 153.384C249.584 152.679 250.805 152.326 252.189 152.326C253.565 152.326 254.777 152.674 255.826 153.371C256.883 154.067 257.709 155.064 258.302 156.363C258.895 157.661 259.192 159.213 259.192 161.018V163.146C259.192 164.943 258.895 166.486 258.302 167.776C257.709 169.057 256.883 170.041 255.826 170.729C254.777 171.408 253.565 171.748 252.189 171.748ZM252.202 168.95C252.984 168.95 253.663 168.748 254.239 168.343C254.815 167.931 255.258 167.329 255.568 166.538C255.886 165.738 256.045 164.758 256.045 163.598V160.515C256.045 159.346 255.894 158.362 255.594 157.562C255.301 156.762 254.867 156.156 254.291 155.744C253.715 155.331 253.014 155.125 252.189 155.125C251.381 155.125 250.684 155.331 250.1 155.744C249.515 156.156 249.064 156.762 248.746 157.562C248.436 158.362 248.281 159.346 248.281 160.515V163.598C248.281 164.715 248.44 165.674 248.758 166.473C249.077 167.273 249.528 167.888 250.113 168.318C250.706 168.739 251.402 168.95 252.202 168.95ZM262.068 171.542V170.755L267.381 164.152C268.017 163.37 268.619 162.622 269.186 161.908C269.762 161.194 270.231 160.502 270.592 159.832C270.953 159.161 271.134 158.495 271.134 157.833C271.134 157.308 271.013 156.844 270.773 156.44C270.532 156.036 270.197 155.718 269.767 155.486C269.345 155.254 268.851 155.137 268.284 155.137C267.682 155.137 267.144 155.271 266.672 155.537C266.199 155.804 265.829 156.173 265.563 156.646C265.296 157.119 265.163 157.669 265.163 158.297H261.977C261.986 157.136 262.261 156.109 262.803 155.215C263.344 154.312 264.088 153.607 265.034 153.1C265.988 152.584 267.071 152.326 268.284 152.326C269.436 152.326 270.459 152.558 271.353 153.022C272.256 153.478 272.965 154.114 273.481 154.931C274.005 155.739 274.268 156.676 274.268 157.743C274.268 158.654 274.078 159.505 273.7 160.296C273.322 161.078 272.819 161.869 272.191 162.669C271.572 163.469 270.88 164.333 270.115 165.261L267.316 168.679V168.782L269.999 168.73H274.526V171.542H262.068ZM283.656 171.748C282.711 171.748 281.821 171.589 280.987 171.271C280.153 170.953 279.422 170.51 278.794 169.943C278.175 169.367 277.707 168.7 277.389 167.944L280.277 166.693C280.458 167.123 280.712 167.509 281.038 167.853C281.374 168.189 281.765 168.455 282.212 168.653C282.659 168.851 283.153 168.95 283.695 168.95C284.348 168.95 284.929 168.803 285.436 168.511C285.952 168.21 286.352 167.797 286.635 167.273C286.928 166.749 287.074 166.151 287.074 165.48C287.074 164.818 286.928 164.234 286.635 163.726C286.343 163.211 285.939 162.811 285.423 162.527C284.916 162.235 284.327 162.089 283.656 162.089C283.029 162.089 282.444 162.209 281.902 162.45C281.361 162.682 280.982 162.974 280.767 163.327L278.356 162.94V152.532H288.621V155.344H281.361V161.702L280.664 160.618C280.939 160.318 281.386 160.051 282.006 159.819C282.633 159.578 283.321 159.458 284.069 159.458C285.135 159.458 286.124 159.716 287.035 160.232C287.955 160.747 288.694 161.465 289.253 162.385C289.812 163.297 290.092 164.363 290.092 165.584C290.092 166.813 289.804 167.892 289.228 168.821C288.651 169.741 287.878 170.458 286.906 170.974C285.935 171.49 284.851 171.748 283.656 171.748Z" fill="white"/>
<path d="M87.6439 296.25C88.1501 296.272 88.7962 296.3 89.5821 296.335C90.3686 296.356 91.1956 296.365 92.0632 296.363C92.9314 296.348 93.7341 296.303 94.4714 296.228C94.9805 296.183 95.4768 296.125 95.9605 296.053C96.4574 295.981 96.9277 295.908 97.3713 295.834C97.8289 295.747 98.2401 295.652 98.605 295.548C98.9832 295.444 99.3012 295.345 99.559 295.249L101.101 297.519C100.752 297.583 100.449 297.644 100.193 297.699C99.9366 297.755 99.7212 297.799 99.5463 297.831C99.1287 297.92 98.6778 298.007 98.1936 298.092C97.71 298.164 97.2133 298.23 96.7036 298.287C96.194 298.345 95.6776 298.403 95.1546 298.46C94.3907 298.533 93.5813 298.578 92.7265 298.594C91.8716 298.61 91.0437 298.621 90.2427 298.626C89.4423 298.617 88.7488 298.607 88.1621 298.595L87.6439 296.25ZM87.9017 310.054C89.0972 309.573 90.0845 308.969 90.8636 308.242C91.6566 307.503 92.2548 306.641 92.6581 305.658C93.0753 304.662 93.3113 303.538 93.366 302.285C93.366 302.285 93.3724 302.139 93.3852 301.846C93.3985 301.54 93.4183 301.087 93.4445 300.487C93.4713 299.874 93.505 299.102 93.5458 298.169L96.1764 297.984C96.1612 298.33 96.1449 298.703 96.1275 299.103C96.1106 299.489 96.0937 299.876 96.0769 300.262C96.06 300.648 96.0446 301.001 96.0306 301.321C96.0172 301.627 96.0062 301.88 95.9974 302.08C95.9893 302.267 95.9852 302.36 95.9852 302.36C95.927 303.692 95.7052 304.95 95.3198 306.134C94.9478 307.319 94.36 308.401 93.5565 309.381C92.7535 310.346 91.6892 311.187 90.3633 311.904L87.9017 310.054ZM85.9367 300.96C86.2153 300.999 86.5138 301.039 86.8324 301.079C87.1509 301.12 87.4634 301.147 87.7697 301.16C87.9562 301.168 88.3092 301.184 88.8287 301.206C89.3482 301.229 89.9743 301.256 90.7069 301.288C91.4529 301.321 92.2521 301.356 93.1046 301.393C93.9572 301.43 94.8097 301.468 95.6622 301.505C96.5147 301.542 97.314 301.577 98.0599 301.61C98.8059 301.642 99.4453 301.67 99.9781 301.694C100.511 301.717 100.871 301.732 101.057 301.741C101.204 301.747 101.39 301.749 101.617 301.745C101.844 301.742 102.071 301.738 102.298 301.735C102.539 301.719 102.733 301.707 102.881 301.7L102.768 304.278C102.503 304.239 102.211 304.207 101.891 304.179C101.586 304.153 101.293 304.133 101.013 304.121C100.827 304.113 100.467 304.097 99.9342 304.074C99.4147 304.051 98.7753 304.023 98.016 303.99C97.27 303.957 96.4641 303.922 95.5983 303.884C94.7458 303.847 93.8866 303.81 93.0208 303.772C92.1682 303.735 91.369 303.7 90.623 303.667C89.8771 303.634 89.2444 303.607 88.7248 303.584C88.2053 303.561 87.8657 303.547 87.7058 303.54C87.3994 303.526 87.0728 303.519 86.7259 303.517C86.379 303.515 86.0784 303.522 85.8241 303.537L85.9367 300.96ZM112.828 295.624C112.709 295.878 112.591 296.159 112.472 296.466C112.354 296.773 112.256 297.034 112.177 297.248C112.059 297.582 111.914 297.956 111.743 298.37C111.586 298.784 111.415 299.205 111.231 299.633C111.06 300.047 110.882 300.429 110.697 300.776C110.447 301.284 110.13 301.833 109.747 302.422C109.377 302.997 108.98 303.553 108.556 304.089C108.133 304.611 107.695 305.067 107.244 305.456L104.736 303.951C105.094 303.695 105.432 303.393 105.75 303.045C106.082 302.696 106.393 302.335 106.684 301.959C106.989 301.584 107.266 301.216 107.518 300.855C107.769 300.48 107.987 300.132 108.172 299.811C108.436 299.356 108.66 298.881 108.843 298.387C109.041 297.892 109.198 297.458 109.316 297.084C109.434 296.75 109.525 296.403 109.59 296.043C109.668 295.669 109.712 295.329 109.724 295.022L112.828 295.624ZM109.685 298.722C109.912 298.721 110.245 298.719 110.685 298.716C111.125 298.714 111.639 298.711 112.225 298.707C112.812 298.704 113.425 298.7 114.065 298.697C114.719 298.693 115.365 298.689 116.005 298.685C116.659 298.682 117.265 298.678 117.825 298.675C118.399 298.672 118.892 298.669 119.305 298.666C119.732 298.664 120.045 298.662 120.245 298.661C120.512 298.659 120.845 298.651 121.245 298.635C121.645 298.606 122.005 298.564 122.324 298.509L122.34 301.249C121.967 301.211 121.58 301.193 121.18 301.196C120.793 301.185 120.486 301.18 120.26 301.181C120.033 301.182 119.653 301.184 119.12 301.188C118.587 301.191 117.967 301.194 117.26 301.198C116.553 301.202 115.807 301.207 115.02 301.211C114.247 301.216 113.493 301.22 112.76 301.224C112.027 301.229 111.373 301.232 110.8 301.236C110.227 301.239 109.787 301.242 109.48 301.243L109.685 298.722ZM117.494 300.117C117.476 301.597 117.33 302.958 117.057 304.2C116.784 305.428 116.391 306.543 115.877 307.546C115.376 308.549 114.754 309.46 114.012 310.277C113.27 311.082 112.421 311.786 111.465 312.392L108.754 310.588C109.113 310.439 109.459 310.27 109.791 310.082C110.123 309.88 110.409 309.678 110.648 309.477C111.218 309.033 111.742 308.53 112.219 307.968C112.709 307.391 113.138 306.729 113.507 305.98C113.89 305.218 114.185 304.356 114.393 303.395C114.614 302.434 114.727 301.346 114.734 300.133L117.494 300.117ZM133.415 298.839C133.519 299.047 133.655 299.347 133.822 299.739C134.001 300.117 134.189 300.528 134.385 300.972C134.581 301.403 134.756 301.814 134.909 302.207C135.063 302.6 135.185 302.907 135.277 303.129L132.923 304.091C132.857 303.841 132.747 303.526 132.594 303.146C132.441 302.767 132.274 302.369 132.092 301.951C131.91 301.519 131.729 301.108 131.549 300.717C131.368 300.325 131.212 300 131.078 299.74L133.415 298.839ZM140.86 299.92C140.77 300.245 140.691 300.522 140.622 300.753C140.567 300.983 140.512 301.199 140.455 301.402C140.254 302.427 139.96 303.457 139.572 304.491C139.184 305.513 138.673 306.48 138.039 307.394C137.168 308.64 136.161 309.713 135.019 310.612C133.89 311.498 132.75 312.19 131.601 312.69L129.394 310.66C130.116 310.423 130.874 310.09 131.666 309.662C132.458 309.221 133.219 308.702 133.95 308.104C134.68 307.506 135.301 306.853 135.812 306.146C136.235 305.55 136.601 304.877 136.91 304.127C137.231 303.363 137.484 302.556 137.667 301.705C137.863 300.841 137.98 299.994 138.018 299.164L140.86 299.92ZM128.835 300.135C128.981 300.381 129.145 300.7 129.325 301.091C129.518 301.482 129.713 301.892 129.909 302.323C130.104 302.753 130.293 303.171 130.473 303.575C130.668 303.979 130.819 304.319 130.926 304.594L128.536 305.637C128.443 305.375 128.305 305.035 128.124 304.617C127.955 304.198 127.766 303.761 127.556 303.304C127.345 302.835 127.143 302.404 126.949 302.014C126.769 301.622 126.613 301.323 126.482 301.116L128.835 300.135ZM149.97 307.673C149.945 307.421 149.905 307.009 149.849 306.439C149.791 305.855 149.726 305.185 149.651 304.428C149.576 303.659 149.497 302.856 149.415 302.02C149.333 301.184 149.254 300.381 149.178 299.611C149.101 298.829 149.034 298.139 148.975 297.541C148.916 296.944 148.873 296.506 148.846 296.228C148.812 295.883 148.753 295.487 148.669 295.039C148.598 294.591 148.513 294.197 148.413 293.859L151.518 293.554C151.512 293.903 151.51 294.292 151.512 294.72C151.512 295.135 151.533 295.549 151.573 295.96C151.609 296.332 151.659 296.836 151.722 297.473C151.784 298.11 151.854 298.82 151.931 299.602C152.006 300.372 152.084 301.162 152.163 301.971C152.241 302.767 152.317 303.537 152.39 304.28C152.463 305.023 152.527 305.673 152.581 306.231C152.635 306.775 152.673 307.166 152.697 307.405C152.715 307.591 152.748 307.855 152.795 308.199C152.841 308.53 152.901 308.872 152.976 309.226C153.051 309.581 153.109 309.897 153.15 310.174L150.044 310.479C150.058 310.076 150.059 309.607 150.047 309.072C150.035 308.537 150.009 308.071 149.97 307.673ZM151.248 298.785C151.928 298.893 152.693 299.045 153.543 299.243C154.392 299.428 155.249 299.632 156.115 299.855C156.981 300.078 157.794 300.306 158.554 300.54C159.326 300.759 159.969 300.97 160.485 301.174L159.62 304.032C159.034 303.795 158.389 303.564 157.683 303.338C156.977 303.099 156.258 302.875 155.527 302.666C154.81 302.455 154.101 302.263 153.401 302.091C152.714 301.917 152.089 301.764 151.527 301.632L151.248 298.785ZM163.571 293.794L179.606 291.351L181.398 303.116L178.927 303.492L177.481 294.002L166.29 295.707L167.751 305.296L165.378 305.657L163.571 293.794ZM165.783 297.827L178.952 295.821L179.286 298.016L166.118 300.022L165.783 297.827ZM166.414 302.101L179.642 300.086L179.988 302.359L166.761 304.374L166.414 302.101ZM169.83 290.13L172.322 289.75L175.15 308.316L172.659 308.695L169.83 290.13ZM187.521 288.171C187.555 288.586 187.596 289.034 187.644 289.515C187.705 289.993 187.765 290.43 187.822 290.827C187.924 291.364 188.037 292.021 188.162 292.799C188.298 293.561 188.441 294.362 188.594 295.202C188.759 296.039 188.915 296.865 189.061 297.679C189.221 298.49 189.365 299.196 189.493 299.795C189.633 300.447 189.861 300.944 190.18 301.285C190.508 301.61 190.893 301.814 191.333 301.897C191.771 301.967 192.244 301.948 192.752 301.84C193.561 301.667 194.275 301.405 194.896 301.054C195.513 300.691 196.057 300.268 196.526 299.786C196.996 299.304 197.395 298.775 197.722 298.201C198.062 297.624 198.351 297.03 198.589 296.42L200.828 298.192C200.616 298.728 200.311 299.311 199.914 299.941C199.517 300.571 199.015 301.19 198.408 301.797C197.815 302.401 197.092 302.944 196.241 303.426C195.389 303.908 194.409 304.267 193.301 304.504C192.232 304.732 191.263 304.762 190.396 304.593C189.544 304.434 188.822 304.056 188.231 303.46C187.65 302.848 187.242 301.988 187.005 300.879C186.891 300.345 186.768 299.737 186.636 299.056C186.501 298.362 186.367 297.641 186.235 296.892C186.102 296.143 185.967 295.416 185.83 294.709C185.689 293.989 185.564 293.341 185.455 292.764C185.345 292.188 185.254 291.73 185.182 291.391C185.082 290.921 184.965 290.469 184.831 290.034C184.694 289.586 184.538 289.176 184.364 288.805L187.521 288.171ZM206.263 283.259L210.326 282.048L210.977 284.233L206.914 285.444L206.263 283.259ZM209.157 282.397L211.572 281.677C212.056 283.021 212.585 284.283 213.159 285.462C213.732 286.64 214.382 287.699 215.106 288.638C215.828 289.564 216.64 290.33 217.545 290.937C218.449 291.544 219.482 291.953 220.644 292.163C220.49 292.348 220.329 292.577 220.16 292.85C220.003 293.119 219.851 293.401 219.702 293.696C219.562 293.974 219.451 294.23 219.367 294.464C218.162 294.155 217.083 293.662 216.131 292.986C215.174 292.297 214.313 291.462 213.547 290.479C212.795 289.493 212.113 288.396 211.502 287.186C210.904 285.973 210.353 284.684 209.849 283.317L209.465 283.432L209.157 282.397ZM210.293 286.42L212.747 286.043C212.982 288.324 212.898 290.402 212.496 292.274C212.094 294.147 211.339 295.791 210.23 297.207C210.069 297.088 209.848 296.952 209.566 296.799C209.297 296.643 209.009 296.492 208.701 296.347C208.403 296.186 208.145 296.068 207.928 295.993C209.03 294.789 209.757 293.376 210.108 291.754C210.473 290.129 210.534 288.351 210.293 286.42ZM205.816 290.654L207.923 297.727L205.68 298.395L204.207 293.45L201.983 294.112L201.35 291.985L205.816 290.654ZM207.626 296.73C208.208 297.239 208.901 297.533 209.704 297.614C210.508 297.694 211.413 297.605 212.421 297.347C212.991 297.205 213.661 297.026 214.432 296.81C215.211 296.578 216.027 296.328 216.88 296.06C217.732 295.792 218.561 295.518 219.368 295.236C220.187 294.95 220.908 294.686 221.532 294.445C221.509 294.646 221.488 294.903 221.469 295.215C221.451 295.526 221.441 295.842 221.439 296.163C221.45 296.48 221.47 296.759 221.5 297C220.937 297.21 220.286 297.431 219.549 297.665C218.815 297.911 218.059 298.151 217.279 298.383C216.504 298.628 215.75 298.852 215.018 299.057C214.286 299.261 213.628 299.436 213.045 299.582C211.855 299.881 210.796 299.994 209.871 299.922C208.949 299.863 208.058 299.558 207.198 299.007C206.883 299.491 206.559 299.991 206.226 300.507C205.906 301.02 205.544 301.559 205.142 302.124L203.298 300.065C203.665 299.663 204.044 299.231 204.434 298.766C204.825 298.302 205.192 297.831 205.537 297.353L207.626 296.73ZM199.69 286.344L200.985 284.456C201.457 284.593 201.949 284.774 202.46 284.997C202.968 285.207 203.455 285.438 203.919 285.689C204.379 285.928 204.762 286.161 205.067 286.391L203.703 288.466C203.42 288.217 203.053 287.965 202.601 287.71C202.162 287.451 201.685 287.203 201.169 286.967C200.65 286.719 200.157 286.511 199.69 286.344ZM221.946 279.273C222.215 279.19 222.496 279.102 222.789 279.009C223.09 278.898 223.339 278.802 223.536 278.72C223.806 278.607 224.112 278.473 224.451 278.318C224.803 278.157 225.161 277.993 225.525 277.827C225.89 277.661 226.233 277.497 226.555 277.334C226.877 277.171 227.14 277.04 227.344 276.941C227.561 276.836 227.77 276.713 227.971 276.572C228.184 276.426 228.358 276.288 228.493 276.16L230.446 276.691C230.384 276.889 230.324 277.074 230.264 277.243C230.2 277.4 230.158 277.561 230.141 277.727C230.075 278.159 230.032 278.733 230.012 279.449C229.987 280.152 229.964 280.913 229.943 281.73C229.934 282.543 229.924 283.334 229.912 284.104C229.902 284.599 229.895 285.122 229.893 285.672C229.89 286.221 229.882 286.774 229.867 287.329C229.847 287.871 229.823 288.387 229.795 288.875C229.762 289.351 229.715 289.775 229.653 290.147C229.514 290.855 229.273 291.439 228.93 291.899C228.582 292.347 228.088 292.704 227.448 292.97C226.636 293.308 225.848 293.325 225.087 293.021C224.325 292.717 223.749 292.097 223.36 291.161C223.053 290.423 222.932 289.664 222.998 288.886C223.065 288.107 223.302 287.359 223.711 286.64C224.126 285.904 224.693 285.235 225.41 284.633C226.128 284.032 226.979 283.526 227.964 283.117C229.035 282.671 230.12 282.364 231.22 282.196C232.319 282.027 233.379 281.954 234.4 281.978C235.433 281.996 236.381 282.071 237.244 282.203C238.115 282.317 238.866 282.438 239.496 282.566L239.474 285.585C238.705 285.299 237.876 285.059 236.987 284.865C236.098 284.672 235.178 284.542 234.226 284.476C233.281 284.392 232.317 284.418 231.333 284.553C230.362 284.682 229.402 284.944 228.454 285.339C227.556 285.712 226.845 286.174 226.323 286.723C225.813 287.268 225.481 287.824 225.328 288.393C225.17 288.95 225.185 289.456 225.375 289.912C225.498 290.207 225.666 290.404 225.88 290.503C226.107 290.597 226.325 290.6 226.534 290.513C226.731 290.431 226.877 290.312 226.971 290.158C227.066 290.003 227.151 289.773 227.226 289.467C227.294 289.179 227.337 288.85 227.357 288.481C227.389 288.107 227.408 287.701 227.415 287.266C227.434 286.825 227.444 286.38 227.445 285.932C227.459 285.478 227.471 285.04 227.483 284.616C227.499 284.032 227.515 283.426 227.528 282.799C227.537 282.16 227.541 281.545 227.54 280.953C227.552 280.356 227.571 279.829 227.597 279.37C227.417 279.459 227.195 279.566 226.929 279.691C226.658 279.804 226.371 279.931 226.069 280.071C225.778 280.206 225.49 280.347 225.205 280.495C224.927 280.625 224.686 280.74 224.482 280.839C224.302 280.928 224.07 281.046 223.785 281.194C223.512 281.336 223.266 281.475 223.048 281.609L221.946 279.273ZM235.936 278.588C236.405 279.924 236.768 281.18 237.027 282.358C237.293 283.518 237.404 284.634 237.359 285.707C237.321 286.763 237.097 287.802 236.685 288.825C236.268 289.836 235.625 290.862 234.758 291.901L232.132 291.109C233.06 290.145 233.729 289.202 234.14 288.281C234.563 287.354 234.801 286.468 234.854 285.623C234.919 284.772 234.882 283.987 234.74 283.266C234.594 282.532 234.427 281.887 234.239 281.33C234.115 280.963 233.981 280.607 233.838 280.262C233.689 279.905 233.544 279.59 233.401 279.317L235.936 278.588ZM244.246 272.048C244.767 271.802 245.285 271.551 245.799 271.294C246.317 271.018 246.835 270.728 247.352 270.423C248.408 269.799 249.431 269.133 250.422 268.424C251.412 267.715 252.292 267.002 253.061 266.285L254.332 268.437C253.511 269.093 252.602 269.769 251.605 270.466C250.601 271.152 249.576 271.804 248.531 272.421C248.026 272.719 247.518 273.012 247.006 273.298C246.499 273.567 245.982 273.833 245.457 274.097L244.246 272.048ZM249.072 265.273C249.144 265.447 249.226 265.638 249.318 265.847C249.422 266.049 249.526 266.251 249.629 266.453C249.726 266.644 249.861 266.897 250.032 267.214C250.204 267.531 250.405 267.884 250.635 268.275C250.859 268.653 251.096 269.055 251.347 269.48C251.808 270.261 252.254 270.989 252.684 271.664C253.107 272.328 253.508 272.942 253.888 273.507C254.262 274.061 254.603 274.572 254.91 275.041C255.23 275.503 255.511 275.94 255.755 276.354C256.02 276.801 256.201 277.252 256.298 277.705C256.407 278.152 256.414 278.597 256.32 279.04C256.225 279.483 256.004 279.908 255.656 280.315C255.326 280.726 254.851 281.115 254.231 281.481C253.037 282.186 251.953 282.501 250.98 282.426C250.006 282.351 249.251 281.859 248.716 280.952C248.37 280.367 248.223 279.764 248.276 279.145C248.321 278.514 248.56 277.909 248.991 277.329C249.416 276.737 250.019 276.211 250.8 275.75C251.615 275.268 252.406 274.917 253.174 274.696C253.941 274.475 254.685 274.345 255.406 274.307C256.126 274.268 256.801 274.296 257.429 274.389C258.062 274.465 258.642 274.556 259.17 274.662L259.049 277.172C258.029 276.939 257.076 276.781 256.192 276.7C255.308 276.618 254.484 276.64 253.722 276.765C252.971 276.883 252.268 277.135 251.614 277.522C251.132 277.807 250.79 278.132 250.588 278.499C250.398 278.859 250.402 279.206 250.598 279.539C250.802 279.883 251.106 280.044 251.511 280.022C251.916 279.999 252.342 279.856 252.79 279.592C253.146 279.381 253.393 279.158 253.532 278.921C253.664 278.673 253.702 278.41 253.647 278.133C253.597 277.837 253.473 277.523 253.276 277.19C253.1 276.892 252.858 276.508 252.55 276.04C252.243 275.571 251.895 275.048 251.508 274.472C251.133 273.888 250.744 273.282 250.341 272.653C249.931 272.012 249.544 271.381 249.178 270.761C248.791 270.107 248.436 269.519 248.113 268.998C247.794 268.458 247.557 268.056 247.401 267.792C247.326 267.666 247.21 267.495 247.051 267.279C246.892 267.063 246.745 266.879 246.609 266.727L249.072 265.273ZM240.78 270.425C240.813 270.56 240.856 270.752 240.909 270.999C240.974 271.24 241.041 271.471 241.11 271.693C241.191 271.909 241.251 272.075 241.289 272.192C241.374 272.467 241.504 272.831 241.679 273.285C241.847 273.728 242.044 274.231 242.269 274.795C242.498 275.341 242.738 275.904 242.988 276.484C243.231 277.053 243.477 277.589 243.728 278.091C243.971 278.582 244.195 279 244.398 279.345C244.5 279.517 244.612 279.706 244.734 279.913C244.861 280.101 244.992 280.271 245.128 280.423C245.086 280.169 245.048 279.921 245.013 279.678C244.99 279.429 244.966 279.179 244.943 278.93C244.92 278.68 244.89 278.434 244.856 278.192L246.415 278.432C246.532 278.998 246.657 279.59 246.79 280.208C246.934 280.82 247.073 281.396 247.207 281.937C247.351 282.47 247.481 282.913 247.595 283.263C247.64 283.392 247.698 283.543 247.77 283.717C247.854 283.885 247.926 284.02 247.987 284.124C248.041 284.215 248.106 284.324 248.18 284.451C248.273 284.582 248.359 284.701 248.439 284.809L246.584 286.114C246.041 285.614 245.423 284.934 244.729 284.074C244.028 283.202 243.332 282.181 242.641 281.01C242.261 280.367 241.893 279.678 241.537 278.944C241.174 278.198 240.834 277.478 240.516 276.783C240.21 276.081 239.938 275.437 239.699 274.849C239.454 274.251 239.256 273.772 239.106 273.412C238.998 273.15 238.873 272.86 238.731 272.541C238.582 272.211 238.432 271.905 238.281 271.622L240.78 270.425ZM255.155 262.333C255.759 261.909 256.419 261.409 257.137 260.831C257.854 260.254 258.609 259.618 259.4 258.923C259.891 258.492 260.388 258.037 260.891 257.56C261.405 257.073 261.893 256.599 262.358 256.138C262.822 255.677 263.227 255.259 263.573 254.885L265.328 256.883C265.004 257.221 264.605 257.625 264.13 258.095C263.666 258.556 263.172 259.035 262.649 259.53C262.127 260.006 261.625 260.456 261.144 260.878C260.363 261.564 259.624 262.187 258.926 262.747C258.228 263.307 257.552 263.83 256.897 264.316L255.155 262.333ZM262.014 267.595C262.172 267.917 262.337 268.225 262.507 268.52C262.676 268.814 262.871 269.087 263.091 269.337C263.514 269.818 264.102 270.002 264.855 269.89C265.619 269.77 266.542 269.234 267.624 268.284C268.305 267.685 268.939 267.084 269.526 266.479C270.113 265.875 270.647 265.281 271.129 264.698C271.621 264.107 272.034 263.557 272.37 263.05L274.246 265.155C273.893 265.642 273.477 266.159 272.998 266.704C272.527 267.259 271.994 267.834 271.398 268.429C270.821 269.024 270.182 269.63 269.481 270.246C268.339 271.249 267.272 271.965 266.281 272.392C265.29 272.819 264.397 272.964 263.603 272.828C262.8 272.682 262.094 272.263 261.487 271.572C261.1 271.131 260.783 270.699 260.536 270.277C260.29 269.855 260.073 269.477 259.887 269.144L262.014 267.595ZM268.958 246.05C269.183 246.335 269.415 246.609 269.655 246.872C269.891 247.116 270.127 247.361 270.364 247.605C270.589 247.842 270.845 248.116 271.132 248.428C271.427 248.729 271.735 249.056 272.059 249.409C272.379 249.743 272.696 250.092 273.012 250.456C273.335 250.81 273.649 251.164 273.954 251.521C274.248 251.87 274.518 252.194 274.764 252.494C274.854 251.567 275.049 250.722 275.35 249.958C275.641 249.186 276.04 248.432 276.548 247.698C277.162 246.809 277.844 246.138 278.595 245.685C279.354 245.22 280.122 244.989 280.898 244.991C281.682 244.982 282.426 245.22 283.128 245.705C284.049 246.342 284.68 247.094 285.02 247.962C285.368 248.818 285.451 249.766 285.267 250.806C285.09 251.835 284.673 252.932 284.013 254.097C283.361 255.251 282.505 256.443 281.446 257.671L278.925 256.78C279.7 255.987 280.384 255.163 280.975 254.307C281.574 253.441 282.03 252.605 282.343 251.8C282.656 250.995 282.772 250.265 282.69 249.609C282.606 248.935 282.261 248.389 281.658 247.972C281.165 247.631 280.598 247.547 279.959 247.721C279.309 247.888 278.707 248.372 278.154 249.172C277.495 250.127 277.053 251.118 276.828 252.146C276.611 253.163 276.645 254.135 276.929 255.06C276.997 255.22 277.059 255.377 277.115 255.529C277.18 255.671 277.253 255.835 277.335 256.021L275.302 257.485C274.922 256.769 274.444 256.017 273.869 255.231C273.295 254.445 272.695 253.682 272.071 252.943C271.448 252.204 270.852 251.541 270.285 250.954C269.707 250.36 269.229 249.892 268.85 249.549C268.537 249.252 268.263 249.014 268.029 248.836C267.785 248.651 267.523 248.478 267.245 248.318L268.958 246.05ZM266.915 253.123C267.366 252.657 267.837 252.139 268.328 251.571C268.807 250.994 269.225 250.448 269.581 249.933C269.945 249.406 270.327 248.819 270.726 248.171C271.133 247.512 271.546 246.809 271.965 246.062C272.384 245.314 272.787 244.555 273.174 243.785C273.557 242.996 273.912 242.213 274.24 241.434L276.22 242.754C275.944 243.342 275.619 244 275.244 244.73C274.877 245.449 274.481 246.196 274.058 246.973C273.623 247.743 273.185 248.494 272.744 249.226C272.303 249.958 271.877 250.621 271.468 251.213C271.028 251.849 270.597 252.45 270.173 253.016C269.746 253.564 269.34 254.069 268.955 254.533L266.915 253.123ZM275.896 233.873C276.214 233.485 276.584 232.988 277.005 232.383C277.427 231.777 277.861 231.141 278.307 230.474C278.741 229.802 279.14 229.165 279.501 228.564C279.868 227.951 280.16 227.451 280.376 227.064L282.406 228.545C282.205 228.895 281.952 229.318 281.648 229.813C281.337 230.29 281.004 230.802 280.65 231.349C280.302 231.883 279.955 232.411 279.611 232.933C279.255 233.45 278.926 233.92 278.622 234.343C278.319 234.766 278.069 235.111 277.874 235.376L275.896 233.873ZM279.661 235.288C279.883 235.451 280.175 235.651 280.54 235.887C280.897 236.105 281.273 236.331 281.667 236.565C282.061 236.799 282.436 237.025 282.793 237.243C283.156 237.45 283.459 237.624 283.702 237.768C283.442 236.681 283.357 235.623 283.448 234.594C283.544 233.552 283.789 232.55 284.184 231.588C284.629 230.503 285.206 229.658 285.915 229.056C286.623 228.453 287.379 228.085 288.183 227.954C288.991 227.81 289.772 227.892 290.524 228.201C291.363 228.545 292.067 229.043 292.635 229.694C293.204 230.346 293.574 231.182 293.746 232.204C293.918 233.225 293.838 234.439 293.506 235.845C293.174 237.251 292.533 238.883 291.583 240.742L288.871 240.45C289.877 238.701 290.552 237.162 290.895 235.833C291.226 234.499 291.258 233.402 290.991 232.543C290.716 231.667 290.191 231.069 289.413 230.75C289.006 230.583 288.601 230.554 288.196 230.662C287.779 230.764 287.398 230.99 287.054 231.339C286.696 231.682 286.409 232.119 286.191 232.649C285.766 233.686 285.558 234.739 285.566 235.808C285.566 236.861 285.799 237.821 286.264 238.689C286.396 238.93 286.525 239.142 286.653 239.324C286.772 239.488 286.907 239.652 287.057 239.814L285.647 241.722C285.32 241.501 284.931 241.255 284.48 240.984C284.017 240.707 283.523 240.418 282.998 240.116C282.461 239.809 281.922 239.509 281.38 239.214C280.837 238.92 280.299 238.634 279.764 238.357C279.229 238.08 278.739 237.835 278.292 237.623L279.661 235.288Z" fill="white"/>
<defs>
<filter id="filter0_d_418_31" x="0.3125" y="-0.000488281" width="347.309" height="359.099" filterUnits="userSpaceOnUse" color-interpolation-filters="sRGB">
<feFlood flood-opacity="0" result="BackgroundImageFix"/>
<feColorMatrix in="SourceAlpha" type="matrix" values="0 0 0 0 0 0 0 0 0 0 0 0 0 0 0 0 0 0 127 0" result="hardAlpha"/>
<feMorphology radius="2" operator="erode" in="SourceAlpha" result="effect1_dropShadow_418_31"/>
<feOffset/>
<feGaussianBlur stdDeviation="16"/>
<feComposite in2="hardAlpha" operator="out"/>
<feColorMatrix type="matrix" values="0 0 0 0 0 0 0 0 0 0 0 0 0 0 0 0 0 0 0.3 0"/>
<feBlend mode="normal" in2="BackgroundImageFix" result="effect1_dropShadow_418_31"/>
<feBlend mode="normal" in="SourceGraphic" in2="effect1_dropShadow_418_31" result="shape"/>
</filter>
</defs>
</svg>
