<svg width="316" height="329" viewBox="0 0 316 329" fill="none" xmlns="http://www.w3.org/2000/svg">
<g filter="url(#filter0_d_418_31)">
<path d="M301.621 175.049C301.621 144.315 288.012 116.308 267.687 92.8877C247.366 69.4728 219.997 50.2222 191.408 36.7432C162.849 23.2785 132.553 15.329 106.177 15.0098C80.0477 14.6936 55.9518 21.9325 42.718 41.0899C33.2524 54.7924 28.9745 65.8287 29.3946 76.1904C29.8121 86.4864 34.8814 94.5283 39.6534 101.716C44.6166 109.191 49.9109 116.598 53.9755 127.103C57.9911 137.48 60.879 151.165 60.1017 170.638C59.9365 174.776 58.5161 180.009 55.861 186.362C53.2371 192.641 49.6329 199.496 45.5321 206.792C37.5379 221.015 27.3933 237.279 21.0497 251.914C17.8387 259.322 15.3255 266.891 14.5571 274.148C13.7791 281.497 14.7513 288.999 19.0706 295.59C23.3771 302.161 30.3182 306.769 39.4088 309.716C48.4403 312.644 60.0661 314.099 74.6158 314.099C131.123 314.099 187.411 309.662 229.761 290.257C251.105 280.477 269.202 266.768 281.923 247.676C294.662 228.557 301.621 204.618 301.621 175.049ZM73.3033 306.095C-37.4072 305.389 66.3213 214.98 68.0784 170.957C71.3219 89.6926 13.9045 98.033 48.4486 46.8633L49.2817 45.6436C93.2414 -17.9913 292.078 61.3391 293.63 173.726L293.639 175.049C293.639 288.135 187.454 306.099 74.6158 306.099L73.3033 306.095Z" fill="white"/>
</g>
<path d="M49.0445 45.6439C12.6804 98.1697 71.1586 89.053 67.8824 170.957C66.1146 215.153 -38.6511 306.099 74.4348 306.099C187.521 306.099 293.938 288.135 293.938 175.049C293.938 61.9631 93.2727 -18.2413 49.0445 45.6439Z" fill="#FF6600"/>
<path d="M85.9172 167.437H95.3629V171.494H85.9172V167.437ZM93.4006 167.437H97.5248C97.5248 168.501 97.5691 169.709 97.6578 171.062C97.7465 172.392 97.935 173.823 98.2232 175.352C98.5115 176.86 98.9438 178.412 99.5203 180.009C100.097 181.605 100.862 183.191 101.815 184.765C102.791 186.317 104.01 187.814 105.474 189.255C106.937 190.696 108.689 192.027 110.729 193.246C110.441 193.468 110.086 193.789 109.664 194.211C109.243 194.632 108.833 195.064 108.434 195.508C108.057 195.973 107.747 196.384 107.503 196.738C105.418 195.452 103.611 194.011 102.081 192.415C100.551 190.796 99.2653 189.089 98.2232 187.293C97.1811 185.474 96.3385 183.645 95.6955 181.805C95.0525 179.942 94.5647 178.135 94.2321 176.383C93.8995 174.61 93.6778 172.958 93.5669 171.428C93.456 169.898 93.4006 168.568 93.4006 167.437ZM91.9704 174.754L96.527 175.585C95.7731 178.867 94.7642 181.849 93.5004 184.532C92.2365 187.215 90.7177 189.576 88.9438 191.616C87.1922 193.656 85.1633 195.375 82.8573 196.772C82.6134 196.483 82.2697 196.129 81.8263 195.707C81.3828 195.308 80.9172 194.898 80.4294 194.477C79.9638 194.078 79.5536 193.756 79.1988 193.512C82.6799 191.76 85.4516 189.299 87.5137 186.129C89.5757 182.936 91.0613 179.144 91.9704 174.754ZM122.769 179.011H143.855V182.37H122.769V179.011ZM126.394 183.933H140.064V187.093H126.394V183.933ZM127.658 180.242L131.084 181.106C130.263 183.013 129.143 184.776 127.724 186.395C126.327 187.991 124.842 189.31 123.268 190.352C123.068 190.131 122.802 189.865 122.469 189.554C122.159 189.222 121.826 188.911 121.472 188.623C121.139 188.335 120.84 188.102 120.574 187.925C122.126 187.082 123.523 185.995 124.764 184.665C126.028 183.313 126.993 181.838 127.658 180.242ZM139.465 183.933H143.157C143.157 183.933 143.146 184.111 143.124 184.466C143.124 184.798 143.101 185.086 143.057 185.33C142.924 187.481 142.758 189.255 142.558 190.652C142.381 192.027 142.181 193.091 141.959 193.845C141.738 194.621 141.472 195.175 141.161 195.508C140.851 195.885 140.507 196.151 140.13 196.306C139.775 196.461 139.376 196.572 138.933 196.639C138.556 196.683 138.068 196.716 137.469 196.738C136.893 196.76 136.261 196.749 135.574 196.705C135.551 196.239 135.463 195.696 135.308 195.075C135.152 194.477 134.942 193.978 134.676 193.579C135.208 193.623 135.684 193.656 136.106 193.678C136.527 193.678 136.849 193.678 137.07 193.678C137.292 193.678 137.469 193.656 137.602 193.612C137.758 193.568 137.902 193.468 138.035 193.313C138.234 193.091 138.412 192.67 138.567 192.049C138.744 191.406 138.9 190.474 139.033 189.255C139.188 188.035 139.332 186.45 139.465 184.499V183.933ZM129.254 173.39V174.987H137.835V173.39H129.254ZM129.254 169.199V170.763H137.835V169.199H129.254ZM125.696 166.439H141.527V177.747H125.696V166.439ZM113.057 172.592H123.201V176.35H113.057V172.592ZM116.416 166.007H120.141V186.694H116.416V166.007ZM112.292 187.359C113.157 187.049 114.155 186.661 115.285 186.195C116.438 185.729 117.658 185.231 118.944 184.698C120.23 184.144 121.505 183.59 122.769 183.035L123.633 186.461C121.97 187.326 120.274 188.191 118.545 189.055C116.815 189.92 115.23 190.707 113.789 191.417L112.292 187.359ZM135.64 184.599L138.334 186.062C137.935 187.392 137.37 188.756 136.638 190.153C135.906 191.528 135.086 192.814 134.177 194.011C133.268 195.208 132.314 196.195 131.316 196.971C130.984 196.594 130.551 196.195 130.019 195.774C129.487 195.352 128.966 195.009 128.456 194.743C129.543 194.055 130.551 193.168 131.483 192.082C132.414 190.995 133.234 189.798 133.944 188.49C134.676 187.182 135.241 185.885 135.64 184.599ZM130.618 184.632L133.212 186.162C132.658 187.315 131.926 188.479 131.017 189.654C130.13 190.829 129.155 191.927 128.09 192.947C127.026 193.967 125.962 194.809 124.897 195.474C124.587 195.075 124.188 194.654 123.7 194.211C123.234 193.767 122.769 193.401 122.303 193.113C123.39 192.559 124.465 191.827 125.529 190.918C126.616 190.009 127.602 189.011 128.489 187.925C129.376 186.816 130.086 185.718 130.618 184.632ZM149.908 169.964C150.751 169.964 151.826 169.964 153.135 169.964C154.443 169.942 155.818 169.898 157.259 169.831C158.7 169.743 160.03 169.61 161.25 169.432C162.093 169.321 162.913 169.188 163.711 169.033C164.532 168.878 165.308 168.723 166.039 168.568C166.793 168.39 167.469 168.202 168.068 168.002C168.689 167.803 169.21 167.614 169.631 167.437L172.359 171.095C171.782 171.228 171.283 171.35 170.862 171.461C170.441 171.572 170.086 171.661 169.798 171.727C169.11 171.905 168.367 172.082 167.569 172.259C166.771 172.415 165.951 172.559 165.108 172.692C164.265 172.825 163.412 172.958 162.547 173.091C161.283 173.268 159.942 173.401 158.523 173.49C157.104 173.579 155.729 173.656 154.398 173.723C153.068 173.767 151.915 173.8 150.94 173.823L149.908 169.964ZM151.339 192.88C153.29 191.993 154.886 190.918 156.128 189.654C157.392 188.368 158.323 186.893 158.922 185.231C159.543 183.545 159.853 181.661 159.853 179.576C159.853 179.576 159.853 179.333 159.853 178.845C159.853 178.335 159.853 177.581 159.853 176.583C159.853 175.563 159.853 174.277 159.853 172.725L164.21 172.226C164.21 172.803 164.21 173.423 164.21 174.089C164.21 174.732 164.21 175.375 164.21 176.018C164.21 176.661 164.21 177.248 164.21 177.78C164.21 178.29 164.21 178.712 164.21 179.044C164.21 179.355 164.21 179.51 164.21 179.51C164.21 181.727 163.933 183.834 163.379 185.829C162.846 187.825 161.948 189.665 160.685 191.35C159.421 193.013 157.713 194.488 155.563 195.774L151.339 192.88ZM147.414 177.913C147.88 177.958 148.379 178.002 148.911 178.046C149.443 178.091 149.964 178.113 150.474 178.113C150.784 178.113 151.372 178.113 152.237 178.113C153.101 178.113 154.144 178.113 155.363 178.113C156.605 178.113 157.935 178.113 159.354 178.113C160.773 178.113 162.192 178.113 163.611 178.113C165.03 178.113 166.361 178.113 167.603 178.113C168.844 178.113 169.909 178.113 170.795 178.113C171.682 178.113 172.281 178.113 172.591 178.113C172.835 178.113 173.146 178.102 173.523 178.08C173.9 178.058 174.277 178.035 174.654 178.013C175.053 177.969 175.374 177.936 175.618 177.913V182.204C175.175 182.16 174.687 182.126 174.155 182.104C173.645 182.082 173.157 182.071 172.691 182.071C172.381 182.071 171.782 182.071 170.895 182.071C170.03 182.071 168.966 182.071 167.702 182.071C166.461 182.071 165.119 182.071 163.678 182.071C162.259 182.071 160.829 182.071 159.387 182.071C157.968 182.071 156.638 182.071 155.396 182.071C154.155 182.071 153.101 182.071 152.237 182.071C151.372 182.071 150.806 182.071 150.54 182.071C150.03 182.071 149.487 182.082 148.911 182.104C148.334 182.126 147.835 182.16 147.414 182.204V177.913ZM193.013 167.803C192.813 168.224 192.614 168.689 192.414 169.199C192.215 169.709 192.048 170.142 191.915 170.497C191.716 171.051 191.472 171.672 191.183 172.359C190.917 173.046 190.629 173.745 190.319 174.454C190.03 175.142 189.731 175.774 189.421 176.35C188.999 177.193 188.467 178.102 187.824 179.078C187.203 180.031 186.538 180.951 185.829 181.838C185.119 182.703 184.387 183.457 183.634 184.1L179.476 181.572C180.075 181.151 180.64 180.652 181.172 180.075C181.727 179.499 182.248 178.9 182.736 178.279C183.246 177.658 183.711 177.049 184.132 176.45C184.554 175.829 184.92 175.253 185.23 174.721C185.674 173.967 186.05 173.179 186.361 172.359C186.693 171.539 186.96 170.818 187.159 170.197C187.359 169.643 187.514 169.066 187.625 168.468C187.758 167.847 187.835 167.281 187.858 166.772L193.013 167.803ZM187.758 172.925C188.135 172.925 188.689 172.925 189.421 172.925C190.152 172.925 191.006 172.925 191.982 172.925C192.957 172.925 193.977 172.925 195.042 172.925C196.128 172.925 197.203 172.925 198.268 172.925C199.354 172.925 200.363 172.925 201.294 172.925C202.248 172.925 203.068 172.925 203.756 172.925C204.465 172.925 204.986 172.925 205.319 172.925C205.762 172.925 206.317 172.913 206.982 172.891C207.647 172.847 208.246 172.78 208.778 172.692V177.248C208.157 177.182 207.514 177.148 206.849 177.148C206.206 177.126 205.696 177.115 205.319 177.115C204.942 177.115 204.31 177.115 203.423 177.115C202.536 177.115 201.505 177.115 200.33 177.115C199.155 177.115 197.913 177.115 196.605 177.115C195.319 177.115 194.066 177.115 192.846 177.115C191.627 177.115 190.54 177.115 189.587 177.115C188.634 177.115 187.902 177.115 187.392 177.115L187.758 172.925ZM200.729 175.319C200.685 177.78 200.43 180.042 199.964 182.104C199.498 184.144 198.833 185.995 197.968 187.658C197.126 189.321 196.084 190.829 194.842 192.182C193.6 193.512 192.181 194.676 190.585 195.674L186.095 192.647C186.693 192.403 187.27 192.126 187.824 191.816C188.379 191.483 188.855 191.151 189.254 190.818C190.208 190.086 191.084 189.255 191.882 188.324C192.702 187.37 193.423 186.273 194.044 185.031C194.687 183.767 195.186 182.337 195.54 180.74C195.917 179.144 196.117 177.337 196.139 175.319H200.729ZM228.135 174.089C228.29 174.443 228.49 174.953 228.733 175.619C229 176.262 229.277 176.96 229.565 177.714C229.853 178.446 230.108 179.144 230.33 179.809C230.552 180.474 230.729 180.995 230.862 181.372L226.871 182.769C226.782 182.348 226.627 181.816 226.405 181.173C226.184 180.53 225.94 179.854 225.674 179.144C225.408 178.412 225.141 177.714 224.875 177.049C224.609 176.383 224.376 175.829 224.177 175.386L228.135 174.089ZM240.408 176.517C240.23 177.049 240.075 177.503 239.942 177.88C239.831 178.257 239.72 178.612 239.609 178.944C239.188 180.63 238.612 182.315 237.88 184C237.148 185.663 236.217 187.226 235.086 188.69C233.534 190.685 231.771 192.381 229.798 193.778C227.847 195.153 225.895 196.206 223.944 196.938L220.452 193.379C221.671 193.046 222.957 192.559 224.31 191.916C225.663 191.25 226.971 190.452 228.235 189.521C229.498 188.59 230.585 187.559 231.494 186.428C232.248 185.474 232.913 184.388 233.49 183.168C234.088 181.927 234.576 180.607 234.953 179.211C235.352 177.791 235.618 176.395 235.751 175.02L240.408 176.517ZM220.419 175.851C220.64 176.273 220.884 176.816 221.15 177.481C221.439 178.146 221.727 178.845 222.015 179.576C222.303 180.308 222.58 181.018 222.847 181.705C223.135 182.392 223.357 182.969 223.512 183.435L219.454 184.964C219.321 184.521 219.121 183.944 218.855 183.235C218.611 182.525 218.334 181.783 218.024 181.007C217.713 180.208 217.414 179.477 217.126 178.811C216.86 178.146 216.627 177.636 216.427 177.281L220.419 175.851ZM255.042 190.652C255.042 190.231 255.042 189.543 255.042 188.59C255.042 187.614 255.042 186.494 255.042 185.231C255.042 183.944 255.042 182.603 255.042 181.206C255.042 179.809 255.042 178.468 255.042 177.182C255.042 175.874 255.042 174.721 255.042 173.723C255.042 172.725 255.042 171.993 255.042 171.528C255.042 170.951 255.008 170.286 254.942 169.532C254.898 168.778 254.82 168.113 254.709 167.536H259.898C259.831 168.113 259.765 168.756 259.698 169.466C259.632 170.153 259.598 170.84 259.598 171.528C259.598 172.148 259.598 172.991 259.598 174.055C259.598 175.12 259.598 176.306 259.598 177.614C259.598 178.9 259.598 180.219 259.598 181.572C259.598 182.902 259.598 184.188 259.598 185.43C259.598 186.672 259.598 187.758 259.598 188.69C259.598 189.599 259.598 190.253 259.598 190.652C259.598 190.962 259.609 191.406 259.632 191.982C259.654 192.537 259.698 193.113 259.765 193.712C259.831 194.31 259.875 194.843 259.898 195.308H254.709C254.798 194.643 254.875 193.867 254.942 192.98C255.008 192.093 255.042 191.317 255.042 190.652ZM258.6 176.151C259.709 176.439 260.951 176.816 262.326 177.281C263.7 177.725 265.086 178.202 266.483 178.712C267.88 179.222 269.188 179.732 270.408 180.242C271.649 180.729 272.68 181.184 273.501 181.605L271.605 186.195C270.674 185.707 269.643 185.219 268.512 184.732C267.381 184.222 266.228 183.734 265.053 183.268C263.9 182.803 262.758 182.37 261.627 181.971C260.518 181.572 259.51 181.217 258.6 180.907V176.151Z" fill="white"/>
<path d="M96.0257 135.174C95.9905 135.438 95.9553 135.738 95.9201 136.072C95.9025 136.389 95.8849 136.715 95.8673 137.049C95.8497 137.402 95.8321 137.877 95.8145 138.476C95.7968 139.057 95.788 139.699 95.788 140.404C95.788 141.108 95.788 141.804 95.788 142.49C95.788 143.177 95.788 143.802 95.788 144.366C95.788 145.105 95.8056 145.933 95.8409 146.848C95.8761 147.746 95.9201 148.662 95.9729 149.595C96.0434 150.511 96.0962 151.374 96.1314 152.184C96.1842 152.976 96.2106 153.636 96.2106 154.164C96.2106 154.904 96.0169 155.582 95.6296 156.198C95.2422 156.797 94.6611 157.272 93.8864 157.624C93.1292 157.977 92.1696 158.153 91.0075 158.153C88.8945 158.153 87.2922 157.765 86.2005 156.991C85.1088 156.216 84.563 155.133 84.563 153.742C84.563 152.844 84.8183 152.06 85.3289 151.391C85.8571 150.704 86.6055 150.167 87.5739 149.78C88.56 149.393 89.7309 149.199 91.0867 149.199C92.5306 149.199 93.8776 149.357 95.1277 149.674C96.3955 149.974 97.5488 150.37 98.5877 150.863C99.6266 151.356 100.551 151.875 101.361 152.421C102.171 152.967 102.858 153.46 103.421 153.9L101.519 156.858C100.886 156.26 100.172 155.67 99.3801 155.089C98.6053 154.508 97.7513 153.98 96.8181 153.504C95.9025 153.029 94.9252 152.65 93.8864 152.368C92.8651 152.069 91.7822 151.919 90.6377 151.919C89.7221 151.919 89.009 152.078 88.4983 152.395C88.0053 152.712 87.7588 153.099 87.7588 153.557C87.7588 153.892 87.8645 154.182 88.0757 154.429C88.287 154.675 88.5952 154.86 89.0002 154.983C89.4052 155.106 89.9158 155.168 90.5321 155.168C91.0075 155.168 91.4125 155.115 91.747 155.01C92.0992 154.904 92.3721 154.71 92.5658 154.429C92.7595 154.147 92.8563 153.751 92.8563 153.24C92.8563 152.853 92.8387 152.298 92.8035 151.576C92.7859 150.854 92.7595 150.062 92.7243 149.199C92.689 148.319 92.6538 147.456 92.6186 146.611C92.5834 145.765 92.5658 145.017 92.5658 144.366C92.5658 143.732 92.5658 143.071 92.5658 142.385C92.5834 141.68 92.5922 140.985 92.5922 140.298C92.5922 139.611 92.5922 138.986 92.5922 138.423C92.6098 137.842 92.6186 137.366 92.6186 136.997C92.6186 136.75 92.601 136.451 92.5658 136.099C92.5482 135.729 92.513 135.421 92.4601 135.174H96.0257ZM85.0648 137.657C85.5402 137.727 86.0684 137.798 86.6495 137.868C87.2306 137.939 87.8204 138.009 88.4191 138.08C89.0354 138.132 89.6164 138.176 90.1623 138.212C90.7081 138.229 91.1836 138.238 91.5885 138.238C93.3846 138.238 95.1718 138.185 96.9502 138.08C98.7462 137.956 100.604 137.736 102.523 137.419L102.497 140.457C101.599 140.58 100.56 140.694 99.3801 140.8C98.2003 140.906 96.9414 140.994 95.6032 141.064C94.2826 141.117 92.9532 141.143 91.615 141.143C91.0691 141.143 90.3912 141.126 89.5812 141.091C88.7889 141.038 87.9965 140.976 87.2042 140.906C86.4118 140.818 85.7251 140.738 85.144 140.668L85.0648 137.657ZM84.9327 143.362C85.3553 143.432 85.8571 143.503 86.4382 143.573C87.0193 143.644 87.6091 143.696 88.2078 143.732C88.8241 143.767 89.4052 143.802 89.951 143.837C90.4968 143.855 90.9458 143.864 91.298 143.864C92.9355 143.864 94.4146 143.829 95.7352 143.758C97.0734 143.688 98.3236 143.6 99.4857 143.494C100.648 143.388 101.766 143.265 102.84 143.124L102.814 146.241C101.898 146.346 101.009 146.435 100.146 146.505C99.3008 146.575 98.4292 146.637 97.5312 146.69C96.6508 146.743 95.7 146.778 94.6787 146.795C93.6575 146.813 92.513 146.822 91.2452 146.822C90.7346 146.822 90.1007 146.813 89.3435 146.795C88.5864 146.76 87.8116 146.716 87.0193 146.663C86.2445 146.611 85.5578 146.549 84.9591 146.479L84.9327 143.362ZM112.48 136.416C112.85 136.468 113.246 136.504 113.669 136.521C114.092 136.539 114.497 136.548 114.884 136.548C115.166 136.548 115.588 136.548 116.152 136.548C116.715 136.53 117.349 136.512 118.053 136.495C118.775 136.477 119.488 136.46 120.193 136.442C120.897 136.424 121.531 136.407 122.094 136.389C122.675 136.354 123.124 136.328 123.441 136.31C123.987 136.257 124.419 136.213 124.736 136.178C125.052 136.125 125.29 136.072 125.449 136.019L127.165 138.37C126.866 138.564 126.558 138.757 126.241 138.951C125.924 139.145 125.616 139.356 125.317 139.585C124.964 139.832 124.542 140.157 124.049 140.562C123.556 140.95 123.028 141.363 122.464 141.804C121.918 142.244 121.381 142.675 120.853 143.098C120.342 143.52 119.876 143.899 119.453 144.234C119.893 144.128 120.316 144.057 120.721 144.022C121.126 143.969 121.54 143.943 121.962 143.943C123.459 143.943 124.797 144.234 125.977 144.815C127.174 145.396 128.116 146.188 128.803 147.192C129.507 148.178 129.859 149.313 129.859 150.599C129.859 151.99 129.507 153.249 128.803 154.376C128.099 155.503 127.033 156.401 125.607 157.07C124.198 157.739 122.429 158.073 120.298 158.073C119.083 158.073 117.983 157.897 116.997 157.545C116.028 157.193 115.262 156.691 114.699 156.04C114.136 155.388 113.854 154.622 113.854 153.742C113.854 153.02 114.047 152.351 114.435 151.735C114.84 151.101 115.395 150.59 116.099 150.203C116.821 149.815 117.648 149.622 118.582 149.622C119.797 149.622 120.818 149.868 121.645 150.361C122.491 150.837 123.133 151.479 123.573 152.289C124.031 153.099 124.269 153.988 124.287 154.957L121.196 155.379C121.179 154.411 120.932 153.636 120.457 153.055C119.999 152.456 119.383 152.157 118.608 152.157C118.115 152.157 117.719 152.289 117.419 152.553C117.12 152.8 116.97 153.09 116.97 153.425C116.97 153.918 117.217 154.314 117.71 154.613C118.203 154.913 118.846 155.062 119.638 155.062C121.135 155.062 122.385 154.886 123.389 154.534C124.392 154.164 125.141 153.645 125.634 152.976C126.144 152.289 126.399 151.479 126.399 150.546C126.399 149.754 126.153 149.058 125.66 148.459C125.185 147.861 124.533 147.394 123.705 147.06C122.878 146.725 121.945 146.558 120.906 146.558C119.885 146.558 118.951 146.69 118.106 146.954C117.261 147.2 116.46 147.561 115.703 148.037C114.963 148.495 114.232 149.058 113.51 149.727C112.806 150.379 112.102 151.109 111.398 151.919L108.994 149.437C109.469 149.049 110.006 148.618 110.605 148.143C111.204 147.649 111.811 147.139 112.428 146.611C113.061 146.082 113.651 145.589 114.197 145.132C114.761 144.656 115.236 144.26 115.623 143.943C115.993 143.644 116.425 143.292 116.918 142.887C117.411 142.482 117.921 142.068 118.449 141.645C118.978 141.205 119.48 140.791 119.955 140.404C120.43 139.999 120.827 139.655 121.144 139.374C120.879 139.374 120.536 139.383 120.113 139.4C119.691 139.418 119.224 139.435 118.714 139.453C118.221 139.471 117.719 139.488 117.208 139.506C116.715 139.523 116.248 139.55 115.808 139.585C115.386 139.603 115.034 139.62 114.752 139.638C114.4 139.655 114.03 139.682 113.643 139.717C113.255 139.752 112.903 139.796 112.586 139.849L112.48 136.416ZM138.258 137.604C139.227 137.727 140.319 137.815 141.534 137.868C142.748 137.921 144.051 137.947 145.443 137.947C146.323 137.947 147.221 137.93 148.137 137.895C149.052 137.859 149.941 137.815 150.804 137.763C151.667 137.692 152.433 137.631 153.102 137.578V141.091C152.486 141.126 151.737 141.17 150.857 141.223C149.994 141.275 149.087 141.319 148.137 141.355C147.203 141.39 146.314 141.407 145.469 141.407C144.095 141.407 142.819 141.381 141.639 141.328C140.459 141.258 139.333 141.187 138.258 141.117V137.604ZM140.477 148.803C140.354 149.261 140.248 149.71 140.16 150.15C140.072 150.59 140.028 151.03 140.028 151.47C140.028 152.333 140.451 153.038 141.296 153.583C142.159 154.112 143.541 154.376 145.443 154.376C146.64 154.376 147.793 154.332 148.902 154.244C150.029 154.156 151.086 154.041 152.072 153.9C153.058 153.742 153.938 153.557 154.713 153.346L154.74 157.043C153.982 157.219 153.12 157.378 152.151 157.519C151.2 157.66 150.17 157.765 149.061 157.836C147.969 157.924 146.807 157.968 145.575 157.968C143.55 157.968 141.868 157.739 140.53 157.281C139.192 156.841 138.179 156.207 137.493 155.379C136.823 154.534 136.489 153.504 136.489 152.289C136.489 151.532 136.55 150.837 136.674 150.203C136.797 149.551 136.903 148.979 136.991 148.486L140.477 148.803ZM153.789 134.884C154.018 135.201 154.255 135.579 154.502 136.019C154.766 136.46 155.021 136.9 155.268 137.34C155.514 137.78 155.726 138.168 155.902 138.502L153.762 139.427C153.498 138.881 153.172 138.256 152.785 137.551C152.415 136.847 152.054 136.24 151.702 135.729L153.789 134.884ZM156.932 133.695C157.161 134.03 157.407 134.417 157.671 134.857C157.935 135.297 158.191 135.738 158.437 136.178C158.701 136.6 158.913 136.97 159.071 137.287L156.958 138.185C156.676 137.639 156.342 137.023 155.954 136.336C155.567 135.632 155.189 135.033 154.819 134.54L156.932 133.695ZM181.495 141.143C181.107 141.39 180.694 141.628 180.253 141.856C179.831 142.085 179.373 142.323 178.88 142.57C178.475 142.781 177.973 143.027 177.375 143.309C176.793 143.591 176.16 143.908 175.473 144.26C174.804 144.594 174.126 144.955 173.439 145.343C172.752 145.713 172.11 146.091 171.511 146.479C170.419 147.2 169.53 147.949 168.843 148.724C168.174 149.498 167.84 150.352 167.84 151.286C167.84 152.219 168.298 152.941 169.213 153.451C170.129 153.944 171.502 154.191 173.334 154.191C174.249 154.191 175.218 154.156 176.239 154.085C177.278 153.997 178.299 153.883 179.303 153.742C180.306 153.583 181.195 153.407 181.97 153.214L181.917 157.017C181.178 157.14 180.368 157.255 179.488 157.36C178.625 157.466 177.683 157.545 176.661 157.598C175.658 157.651 174.584 157.677 173.439 157.677C172.119 157.677 170.895 157.572 169.768 157.36C168.659 157.167 167.681 156.841 166.836 156.383C166.009 155.925 165.357 155.309 164.882 154.534C164.424 153.759 164.195 152.809 164.195 151.682C164.195 150.555 164.441 149.534 164.935 148.618C165.428 147.702 166.097 146.857 166.942 146.082C167.805 145.308 168.747 144.577 169.768 143.89C170.402 143.468 171.071 143.063 171.775 142.675C172.48 142.27 173.166 141.883 173.835 141.513C174.522 141.143 175.156 140.809 175.737 140.509C176.336 140.193 176.829 139.92 177.216 139.691C177.727 139.391 178.176 139.118 178.563 138.872C178.95 138.625 179.32 138.361 179.672 138.08L181.495 141.143ZM168.21 135.491C168.65 136.653 169.108 137.771 169.583 138.845C170.076 139.92 170.56 140.923 171.036 141.856C171.529 142.79 171.978 143.626 172.383 144.366L169.398 146.135C168.923 145.325 168.43 144.418 167.919 143.415C167.408 142.411 166.898 141.355 166.387 140.245C165.877 139.118 165.384 137.983 164.908 136.838L168.21 135.491ZM192.086 134.118L195.044 134.646C194.305 136.125 193.38 137.551 192.271 138.925C191.179 140.298 189.815 141.557 188.177 142.702C188.054 142.473 187.869 142.226 187.622 141.962C187.393 141.698 187.156 141.451 186.909 141.223C186.663 140.976 186.434 140.782 186.223 140.642C187.191 140.025 188.054 139.356 188.811 138.634C189.568 137.895 190.22 137.138 190.765 136.363C191.311 135.588 191.751 134.84 192.086 134.118ZM192.165 135.729H197.342V137.842H190.897L192.165 135.729ZM196.602 135.729H197.157L197.659 135.597L199.561 136.389C198.98 138.573 198.126 140.474 196.999 142.094C195.889 143.714 194.578 145.079 193.063 146.188C191.549 147.297 189.894 148.195 188.098 148.882C187.904 148.512 187.649 148.081 187.332 147.588C187.015 147.095 186.707 146.707 186.407 146.426C187.622 146.038 188.767 145.528 189.841 144.894C190.933 144.26 191.919 143.512 192.799 142.649C193.697 141.768 194.463 140.791 195.097 139.717C195.748 138.625 196.25 137.454 196.602 136.204V135.729ZM190.686 139.189L192.033 137.789C192.438 138 192.87 138.247 193.327 138.529C193.785 138.793 194.217 139.057 194.622 139.321C195.044 139.585 195.396 139.84 195.678 140.087L194.252 141.645C193.988 141.416 193.653 141.161 193.248 140.879C192.843 140.58 192.412 140.281 191.954 139.981C191.514 139.682 191.091 139.418 190.686 139.189ZM203.047 153.504L205.662 151.972C206.278 152.448 206.921 152.976 207.59 153.557C208.259 154.138 208.884 154.728 209.465 155.327C210.064 155.908 210.548 156.445 210.918 156.938L208.092 158.681C207.775 158.205 207.335 157.66 206.771 157.043C206.208 156.427 205.591 155.811 204.922 155.194C204.271 154.578 203.646 154.015 203.047 153.504ZM188.415 141.619L190.079 140.298C190.448 140.545 190.845 140.826 191.267 141.143C191.707 141.46 192.121 141.768 192.509 142.068C192.896 142.367 193.213 142.649 193.459 142.913L191.743 144.392C191.496 144.128 191.188 143.837 190.818 143.52C190.448 143.186 190.052 142.86 189.63 142.543C189.225 142.209 188.82 141.9 188.415 141.619ZM202.783 135.676H208.567V138.264H202.783V135.676ZM194.278 143.547H204.288V146.373H194.278V143.547ZM189.101 148.486H209.28V151.338H189.101V148.486ZM207.775 135.676H208.514L209.122 135.491L211.155 136.917C210.715 137.745 210.196 138.59 209.597 139.453C209.016 140.316 208.391 141.135 207.722 141.909C207.07 142.684 206.41 143.362 205.741 143.943C205.53 143.644 205.23 143.3 204.843 142.913C204.456 142.526 204.13 142.217 203.866 141.989C204.376 141.495 204.887 140.914 205.398 140.245C205.926 139.576 206.401 138.89 206.824 138.185C207.246 137.481 207.563 136.856 207.775 136.31V135.676ZM201.568 134.382C202.079 136.248 202.774 137.947 203.654 139.479C204.552 141.011 205.679 142.323 207.035 143.415C208.409 144.506 210.046 145.343 211.948 145.924C211.719 146.118 211.472 146.373 211.208 146.69C210.962 147.007 210.724 147.333 210.495 147.667C210.284 147.984 210.108 148.283 209.967 148.565C207.942 147.826 206.208 146.822 204.764 145.554C203.337 144.286 202.149 142.763 201.198 140.985C200.247 139.206 199.464 137.19 198.847 134.937L201.568 134.382ZM197.58 149.965H200.802V155.855C200.802 156.577 200.696 157.14 200.485 157.545C200.291 157.968 199.913 158.285 199.349 158.496C198.821 158.707 198.178 158.831 197.421 158.866C196.682 158.919 195.819 158.936 194.833 158.919C194.762 158.496 194.622 158.021 194.41 157.492C194.217 156.964 194.014 156.506 193.803 156.119C194.243 156.137 194.683 156.154 195.123 156.172C195.564 156.172 195.96 156.172 196.312 156.172C196.664 156.172 196.911 156.163 197.051 156.145C197.263 156.145 197.404 156.119 197.474 156.066C197.544 156.013 197.58 155.908 197.58 155.749V149.965ZM191.531 151.946L194.674 152.87C194.058 153.98 193.266 155.045 192.297 156.066C191.346 157.07 190.396 157.906 189.445 158.575C189.251 158.364 188.996 158.126 188.679 157.862C188.362 157.616 188.036 157.369 187.702 157.123C187.367 156.876 187.077 156.665 186.83 156.489C187.781 155.96 188.679 155.3 189.524 154.508C190.369 153.698 191.038 152.844 191.531 151.946ZM213.697 156.542V155.755L219.011 149.152C219.647 148.369 220.249 147.621 220.816 146.908C221.392 146.194 221.861 145.502 222.222 144.832C222.583 144.161 222.764 143.495 222.764 142.833C222.764 142.308 222.643 141.844 222.403 141.44C222.162 141.036 221.827 140.718 221.397 140.485C220.975 140.253 220.481 140.137 219.914 140.137C219.312 140.137 218.774 140.27 218.302 140.537C217.829 140.804 217.459 141.173 217.192 141.646C216.926 142.119 216.793 142.669 216.793 143.297H213.607C213.616 142.136 213.891 141.109 214.433 140.215C214.974 139.312 215.718 138.607 216.664 138.1C217.618 137.584 218.701 137.326 219.914 137.326C221.066 137.326 222.089 137.558 222.983 138.022C223.886 138.478 224.595 139.114 225.111 139.931C225.635 140.739 225.898 141.676 225.898 142.742C225.898 143.654 225.708 144.505 225.33 145.296C224.952 146.078 224.449 146.869 223.821 147.669C223.202 148.468 222.51 149.332 221.745 150.261L218.946 153.678V153.782L221.629 153.73H226.155V156.542H213.697ZM236.189 156.748C234.805 156.748 233.584 156.4 232.526 155.703C231.469 155.007 230.639 154.018 230.037 152.737C229.435 151.447 229.135 149.917 229.135 148.146V146.018C229.135 144.23 229.435 142.686 230.037 141.388C230.639 140.09 231.469 139.088 232.526 138.383C233.584 137.678 234.805 137.326 236.189 137.326C237.565 137.326 238.777 137.674 239.826 138.37C240.883 139.067 241.709 140.064 242.302 141.362C242.895 142.661 243.192 144.212 243.192 146.018V148.146C243.192 149.943 242.895 151.486 242.302 152.776C241.709 154.057 240.883 155.041 239.826 155.729C238.777 156.408 237.565 156.748 236.189 156.748ZM236.202 153.949C236.984 153.949 237.663 153.747 238.239 153.343C238.815 152.93 239.258 152.329 239.568 151.538C239.886 150.738 240.045 149.758 240.045 148.597V145.515C240.045 144.346 239.894 143.361 239.594 142.562C239.301 141.762 238.867 141.156 238.291 140.743C237.715 140.331 237.014 140.124 236.189 140.124C235.381 140.124 234.684 140.331 234.1 140.743C233.515 141.156 233.064 141.762 232.746 142.562C232.436 143.361 232.281 144.346 232.281 145.515V148.597C232.281 149.715 232.44 150.674 232.758 151.473C233.077 152.273 233.528 152.888 234.113 153.317C234.706 153.739 235.402 153.949 236.202 153.949ZM246.068 156.542V155.755L251.381 149.152C252.017 148.369 252.619 147.621 253.186 146.908C253.762 146.194 254.231 145.502 254.592 144.832C254.953 144.161 255.134 143.495 255.134 142.833C255.134 142.308 255.013 141.844 254.773 141.44C254.532 141.036 254.197 140.718 253.767 140.485C253.345 140.253 252.851 140.137 252.284 140.137C251.682 140.137 251.144 140.27 250.672 140.537C250.199 140.804 249.829 141.173 249.563 141.646C249.296 142.119 249.163 142.669 249.163 143.297H245.977C245.986 142.136 246.261 141.109 246.803 140.215C247.344 139.312 248.088 138.607 249.034 138.1C249.988 137.584 251.071 137.326 252.284 137.326C253.436 137.326 254.459 137.558 255.353 138.022C256.256 138.478 256.965 139.114 257.481 139.931C258.005 140.739 258.268 141.676 258.268 142.742C258.268 143.654 258.078 144.505 257.7 145.296C257.322 146.078 256.819 146.869 256.191 147.669C255.572 148.468 254.88 149.332 254.115 150.261L251.316 153.678V153.782L253.999 153.73H258.526V156.542H246.068ZM267.656 156.748C266.711 156.748 265.821 156.589 264.987 156.271C264.153 155.953 263.422 155.51 262.794 154.942C262.175 154.366 261.707 153.7 261.389 152.943L264.277 151.692C264.458 152.122 264.712 152.509 265.038 152.853C265.374 153.188 265.765 153.455 266.212 153.653C266.659 153.85 267.153 153.949 267.695 153.949C268.348 153.949 268.929 153.803 269.436 153.511C269.952 153.21 270.352 152.797 270.635 152.273C270.928 151.748 271.074 151.151 271.074 150.48C271.074 149.818 270.928 149.234 270.635 148.726C270.343 148.21 269.939 147.811 269.423 147.527C268.916 147.235 268.327 147.088 267.656 147.088C267.029 147.088 266.444 147.209 265.902 147.449C265.361 147.682 264.982 147.974 264.767 148.326L262.356 147.94V137.532H272.621V140.344H265.361V146.702L264.664 145.618C264.939 145.317 265.386 145.051 266.006 144.819C266.633 144.578 267.321 144.458 268.069 144.458C269.135 144.458 270.124 144.715 271.035 145.231C271.955 145.747 272.694 146.465 273.253 147.385C273.812 148.296 274.092 149.362 274.092 150.583C274.092 151.813 273.804 152.892 273.228 153.82C272.651 154.74 271.878 155.458 270.906 155.974C269.935 156.49 268.851 156.748 267.656 156.748Z" fill="white"/>
<path d="M87.646 281.919C88.1526 281.919 88.7993 281.921 89.586 281.922C90.3727 281.91 91.1994 281.884 92.0661 281.846C92.9329 281.794 93.733 281.715 94.4665 281.61C94.9733 281.544 95.4667 281.465 95.9469 281.372C96.4404 281.28 96.9072 281.187 97.3474 281.095C97.8009 280.989 98.2077 280.876 98.5679 280.757C98.9415 280.637 99.255 280.525 99.5085 280.418L101.145 282.621C100.798 282.7 100.498 282.773 100.244 282.84C99.991 282.906 99.7776 282.959 99.6042 282.998C99.1907 283.104 98.7438 283.21 98.2637 283.316C97.7835 283.409 97.29 283.495 96.7832 283.574C96.2764 283.653 95.763 283.732 95.2428 283.811C94.4827 283.917 93.6759 283.995 92.8224 284.047C91.969 284.099 91.1423 284.144 90.3422 284.183C89.5422 284.208 88.8488 284.227 88.2621 284.24L87.646 281.919ZM88.4831 295.7C89.6573 295.169 90.6184 294.524 91.3663 293.765C92.1276 292.993 92.6891 292.107 93.0507 291.108C93.4257 290.095 93.6143 288.962 93.6164 287.709C93.6164 287.709 93.6166 287.562 93.6171 287.269C93.6176 286.962 93.6184 286.509 93.6194 285.909C93.6204 285.295 93.6217 284.522 93.6232 283.589L96.2437 283.293C96.2431 283.64 96.2425 284.013 96.2418 284.413C96.2412 284.8 96.2406 285.186 96.2399 285.573C96.2393 285.96 96.2387 286.313 96.2382 286.633C96.2377 286.94 96.2372 287.193 96.2369 287.393C96.2366 287.58 96.2364 287.673 96.2364 287.673C96.2342 289.006 96.0655 290.273 95.7301 291.472C95.4081 292.672 94.8663 293.777 94.1046 294.789C93.343 295.788 92.3148 296.673 91.0202 297.444L88.4831 295.7ZM86.138 286.696C86.418 286.723 86.718 286.75 87.0379 286.778C87.3579 286.805 87.6712 286.819 87.9778 286.819C88.1645 286.819 88.5178 286.82 89.0378 286.821C89.5578 286.822 90.1845 286.823 90.9178 286.824C91.6645 286.825 92.4645 286.827 93.3178 286.828C94.1712 286.829 95.0245 286.831 95.8778 286.832C96.7312 286.834 97.5312 286.835 98.2778 286.836C99.0245 286.837 99.6645 286.839 100.198 286.839C100.731 286.84 101.091 286.841 101.278 286.841C101.424 286.841 101.611 286.835 101.838 286.822C102.065 286.809 102.291 286.796 102.518 286.783C102.758 286.757 102.951 286.737 103.098 286.724L103.094 289.304C102.827 289.277 102.534 289.257 102.214 289.243C101.907 289.229 101.614 289.222 101.334 289.221C101.147 289.221 100.787 289.22 100.254 289.22C99.7339 289.219 99.0939 289.218 98.3339 289.216C97.5872 289.215 96.7805 289.214 95.9139 289.212C95.0605 289.211 94.2005 289.209 93.3339 289.208C92.4805 289.207 91.6805 289.205 90.9339 289.204C90.1872 289.203 89.5539 289.202 89.0339 289.201C88.5139 289.2 88.1739 289.199 88.0139 289.199C87.7072 289.199 87.3805 289.205 87.0339 289.218C86.6872 289.23 86.3871 289.25 86.1338 289.276L86.138 286.696ZM112.848 280.27C112.739 280.528 112.632 280.813 112.525 281.125C112.419 281.436 112.33 281.7 112.26 281.917C112.154 282.255 112.024 282.635 111.869 283.055C111.727 283.475 111.572 283.902 111.404 284.337C111.249 284.757 111.086 285.145 110.915 285.499C110.684 286.016 110.388 286.576 110.027 287.179C109.679 287.769 109.304 288.339 108.901 288.89C108.497 289.428 108.077 289.9 107.641 290.307L105.077 288.897C105.426 288.628 105.753 288.314 106.057 287.953C106.375 287.593 106.672 287.219 106.949 286.833C107.239 286.447 107.503 286.069 107.74 285.698C107.977 285.314 108.182 284.958 108.354 284.63C108.601 284.165 108.807 283.683 108.972 283.182C109.15 282.68 109.291 282.24 109.394 281.862C109.5 281.524 109.578 281.173 109.629 280.811C109.692 280.434 109.724 280.093 109.724 279.786L112.848 280.27ZM109.826 283.485C110.052 283.475 110.385 283.46 110.825 283.441C111.264 283.422 111.777 283.399 112.363 283.374C112.949 283.348 113.562 283.322 114.201 283.294C114.854 283.265 115.5 283.237 116.14 283.209C116.792 283.18 117.398 283.154 117.958 283.129C118.531 283.104 119.024 283.083 119.437 283.065C119.863 283.046 120.176 283.033 120.376 283.024C120.642 283.012 120.975 282.991 121.374 282.96C121.772 282.916 122.13 282.86 122.448 282.793L122.567 285.531C122.192 285.507 121.805 285.504 121.406 285.521C121.019 285.525 120.712 285.532 120.486 285.541C120.259 285.551 119.879 285.568 119.347 285.591C118.814 285.615 118.194 285.642 117.488 285.672C116.782 285.703 116.036 285.736 115.251 285.77C114.478 285.804 113.725 285.837 112.993 285.869C112.26 285.901 111.607 285.929 111.035 285.954C110.462 285.979 110.022 285.999 109.716 286.012L109.826 283.485ZM117.681 284.583C117.719 286.063 117.625 287.428 117.4 288.679C117.173 289.917 116.822 291.047 116.346 292.068C115.884 293.089 115.297 294.023 114.587 294.868C113.876 295.7 113.054 296.436 112.121 297.077L109.344 295.377C109.697 295.215 110.036 295.033 110.361 294.832C110.686 294.618 110.963 294.405 111.194 294.195C111.748 293.731 112.252 293.208 112.707 292.628C113.175 292.033 113.579 291.355 113.92 290.593C114.273 289.817 114.535 288.944 114.706 287.976C114.891 287.007 114.963 285.916 114.924 284.703L117.681 284.583ZM133.529 282.694C133.641 282.898 133.789 283.192 133.971 283.577C134.165 283.948 134.369 284.351 134.582 284.787C134.794 285.21 134.985 285.614 135.153 286.001C135.322 286.387 135.457 286.69 135.557 286.908L133.242 287.961C133.166 287.713 133.044 287.403 132.877 287.03C132.709 286.657 132.527 286.265 132.329 285.854C132.13 285.431 131.933 285.027 131.737 284.643C131.542 284.259 131.373 283.939 131.229 283.684L133.529 282.694ZM141.011 283.484C140.933 283.812 140.865 284.093 140.806 284.326C140.76 284.557 140.712 284.776 140.664 284.981C140.503 286.013 140.249 287.053 139.902 288.102C139.554 289.138 139.08 290.124 138.482 291.062C137.661 292.341 136.697 293.452 135.59 294.396C134.496 295.324 133.385 296.061 132.256 296.605L129.972 294.662C130.684 294.397 131.428 294.035 132.203 293.577C132.977 293.105 133.717 292.557 134.424 291.931C135.13 291.304 135.725 290.628 136.209 289.902C136.609 289.29 136.948 288.603 137.227 287.842C137.519 287.066 137.74 286.249 137.89 285.392C138.052 284.521 138.136 283.67 138.141 282.839L141.011 283.484ZM129.003 284.167C129.159 284.407 129.335 284.719 129.53 285.103C129.738 285.486 129.949 285.889 130.161 286.311C130.373 286.734 130.578 287.144 130.774 287.541C130.984 287.937 131.148 288.27 131.266 288.541L128.919 289.677C128.815 289.418 128.664 289.084 128.467 288.673C128.282 288.262 128.076 287.832 127.848 287.384C127.619 286.922 127.4 286.5 127.192 286.118C126.996 285.734 126.829 285.441 126.691 285.239L129.003 284.167ZM150.404 290.852C150.368 290.601 150.31 290.192 150.229 289.624C150.147 289.043 150.052 288.376 149.945 287.624C149.837 286.858 149.723 286.06 149.605 285.228C149.487 284.396 149.374 283.598 149.265 282.832C149.155 282.053 149.057 281.367 148.973 280.773C148.889 280.179 148.827 279.743 148.788 279.466C148.739 279.122 148.663 278.729 148.56 278.286C148.47 277.841 148.367 277.451 148.252 277.118L151.342 276.679C151.351 277.028 151.365 277.416 151.386 277.845C151.404 278.259 151.442 278.671 151.501 279.081C151.553 279.45 151.624 279.952 151.714 280.586C151.804 281.219 151.904 281.926 152.015 282.704C152.123 283.47 152.235 284.255 152.349 285.061C152.462 285.853 152.57 286.618 152.675 287.358C152.78 288.097 152.872 288.744 152.951 289.298C153.027 289.84 153.083 290.229 153.116 290.467C153.143 290.651 153.187 290.914 153.249 291.256C153.309 291.584 153.384 291.923 153.474 292.274C153.564 292.625 153.635 292.938 153.688 293.214L150.599 293.652C150.596 293.248 150.576 292.78 150.541 292.246C150.505 291.712 150.46 291.248 150.404 290.852ZM151.297 281.917C151.981 281.995 152.753 282.115 153.61 282.276C154.466 282.424 155.332 282.591 156.206 282.776C157.081 282.962 157.903 283.155 158.672 283.355C159.453 283.541 160.105 283.724 160.629 283.906L159.888 286.799C159.293 286.587 158.637 286.384 157.923 286.189C157.207 285.981 156.479 285.788 155.74 285.61C155.014 285.43 154.298 285.269 153.591 285.127C152.897 284.983 152.266 284.857 151.699 284.749L151.297 281.917ZM169.344 274.041L179.752 271.933L180.086 273.579L169.677 275.687L169.344 274.041ZM169.987 278.828L181.082 276.581L181.415 278.228L170.32 280.475L169.987 278.828ZM171.374 286.179L182.586 283.909L182.924 285.575L171.711 287.846L171.374 286.179ZM170.295 276.317L179.939 274.364L180.256 275.932L170.612 277.886L170.295 276.317ZM171.175 272.099L173.213 271.686L174.623 278.645L172.584 279.058L171.175 272.099ZM175.232 271.277L177.31 270.856L178.72 277.815L176.642 278.236L175.232 271.277ZM174.631 278.684L176.669 278.271L178.095 285.308L176.056 285.721L174.631 278.684ZM178.528 279.588L180.664 279.155L182.213 286.8C182.311 287.284 182.329 287.675 182.267 287.973C182.22 288.282 182.05 288.547 181.755 288.77C181.447 288.996 181.06 289.17 180.595 289.291C180.145 289.423 179.594 289.555 178.941 289.687C178.843 289.408 178.7 289.103 178.511 288.774C178.322 288.445 178.135 288.163 177.952 287.929C178.333 287.865 178.707 287.796 179.073 287.722C179.452 287.645 179.7 287.595 179.818 287.571C179.936 287.547 180.01 287.512 180.041 287.465C180.083 287.402 180.093 287.318 180.072 287.213L178.528 279.588ZM171.412 281.029L179.449 279.402L179.783 281.048L173.843 282.251L175.495 290.406L173.397 290.83L171.412 281.029ZM172.963 283.348L179.942 281.934L180.239 283.404L173.261 284.818L172.963 283.348ZM166.062 287.255L168.196 287.313C168.114 288.187 167.945 289.064 167.688 289.946C167.429 290.815 167.118 291.565 166.756 292.196C166.615 292.102 166.418 292.006 166.167 291.907C165.916 291.808 165.665 291.71 165.413 291.611C165.162 291.512 164.95 291.439 164.777 291.393C165.126 290.832 165.41 290.183 165.628 289.445C165.859 288.705 166.003 287.975 166.062 287.255ZM168.498 287.497L170.092 286.398C170.519 286.829 170.95 287.313 171.386 287.85C171.831 288.372 172.184 288.838 172.444 289.248L170.796 290.48C170.644 290.198 170.438 289.886 170.178 289.544C169.929 289.186 169.66 288.833 169.371 288.483C169.08 288.12 168.789 287.791 168.498 287.497ZM165.615 279.612L165.989 281.454L167.929 281.061L167.556 279.219L165.615 279.612ZM166.338 283.179L166.711 285.022L168.652 284.629L168.279 282.786L166.338 283.179ZM164.897 276.064L165.262 277.867L167.203 277.474L166.837 275.671L164.897 276.064ZM162.52 274.607L168.519 273.392L171.091 286.094L165.093 287.309L162.52 274.607ZM183.998 270.329L189.469 268.803L190.125 271.153L184.653 272.679L183.998 270.329ZM188.332 269.12L190.721 268.454C190.893 269.07 191.114 269.763 191.384 270.532C191.65 271.288 191.991 272.086 192.405 272.926C192.815 273.753 193.316 274.582 193.908 275.414C194.5 276.245 195.199 277.04 196.006 277.798C196.822 278.539 197.77 279.209 198.85 279.807C199.931 280.406 201.16 280.893 202.539 281.27C202.408 281.445 202.254 281.689 202.078 282.001C201.902 282.313 201.735 282.629 201.575 282.951C201.432 283.281 201.319 283.569 201.235 283.814C199.82 283.406 198.54 282.863 197.396 282.185C196.248 281.495 195.227 280.714 194.334 279.842C193.436 278.957 192.653 278.034 191.983 277.072C191.31 276.097 190.735 275.129 190.259 274.168C189.78 273.194 189.385 272.273 189.074 271.405C188.762 270.537 188.515 269.775 188.332 269.12ZM188.686 273.589L191.46 273.335C191.553 275.358 191.451 277.248 191.152 279.006C190.854 280.764 190.355 282.377 189.657 283.846C188.972 285.31 188.075 286.633 186.965 287.815C186.777 287.687 186.521 287.537 186.196 287.365C185.874 287.206 185.538 287.043 185.188 286.878C184.854 286.722 184.564 286.602 184.319 286.518C186.052 284.941 187.26 283.068 187.942 280.898C188.621 278.715 188.869 276.279 188.686 273.589ZM206.059 267.227C206.614 267.073 207.166 266.913 207.716 266.746C208.274 266.563 208.834 266.364 209.395 266.151C210.541 265.715 211.663 265.232 212.759 264.701C213.855 264.17 214.843 263.617 215.722 263.04L216.61 265.377C215.69 265.883 214.68 266.396 213.579 266.914C212.473 267.42 211.353 267.889 210.219 268.32C209.67 268.528 209.12 268.731 208.567 268.926C208.021 269.105 207.467 269.28 206.905 269.451L206.059 267.227ZM211.962 261.367C212.003 261.551 212.052 261.753 212.108 261.975C212.176 262.191 212.244 262.408 212.312 262.625C212.375 262.829 212.465 263.101 212.58 263.443C212.695 263.784 212.834 264.166 212.995 264.59C213.151 265.001 213.317 265.438 213.492 265.899C213.814 266.746 214.13 267.539 214.439 268.278C214.744 269.003 215.035 269.677 215.314 270.298C215.589 270.907 215.838 271.469 216.062 271.983C216.298 272.492 216.501 272.971 216.672 273.42C216.857 273.906 216.959 274.381 216.978 274.844C217.01 275.303 216.941 275.742 216.773 276.163C216.605 276.583 216.315 276.965 215.903 277.307C215.508 277.656 214.974 277.959 214.301 278.215C213.005 278.708 211.883 278.834 210.937 278.595C209.99 278.356 209.329 277.744 208.955 276.76C208.714 276.124 208.671 275.505 208.827 274.904C208.979 274.29 209.317 273.734 209.841 273.235C210.36 272.724 211.043 272.307 211.89 271.985C212.775 271.649 213.615 271.437 214.408 271.349C215.202 271.261 215.958 271.259 216.674 271.343C217.391 271.428 218.051 271.569 218.654 271.768C219.265 271.949 219.822 272.137 220.324 272.331L219.78 274.785C218.814 274.382 217.902 274.065 217.044 273.835C216.186 273.604 215.371 273.486 214.598 273.481C213.838 273.47 213.103 273.6 212.393 273.87C211.869 274.069 211.477 274.332 211.216 274.659C210.968 274.982 210.913 275.324 211.05 275.685C211.192 276.059 211.465 276.269 211.868 276.316C212.27 276.362 212.715 276.293 213.201 276.109C213.587 275.962 213.869 275.783 214.046 275.573C214.218 275.351 214.3 275.099 214.293 274.816C214.293 274.517 214.225 274.186 214.087 273.825C213.964 273.501 213.79 273.082 213.567 272.568C213.343 272.054 213.089 271.48 212.805 270.846C212.534 270.207 212.253 269.544 211.963 268.855C211.668 268.154 211.392 267.467 211.137 266.794C210.867 266.084 210.616 265.444 210.386 264.876C210.163 264.29 209.998 263.854 209.889 263.567C209.836 263.43 209.751 263.242 209.631 263.002C209.511 262.762 209.397 262.556 209.289 262.383L211.962 261.367ZM202.917 265.04C202.927 265.179 202.937 265.375 202.948 265.628C202.971 265.876 202.998 266.115 203.028 266.346C203.071 266.572 203.102 266.746 203.12 266.868C203.157 267.153 203.223 267.534 203.319 268.011C203.41 268.476 203.519 269.005 203.644 269.599C203.778 270.176 203.919 270.772 204.067 271.386C204.21 271.988 204.362 272.557 204.524 273.095C204.681 273.62 204.83 274.07 204.972 274.444C205.043 274.631 205.122 274.836 205.207 275.061C205.3 275.268 205.401 275.458 205.509 275.63C205.511 275.373 205.515 275.122 205.522 274.877C205.541 274.627 205.56 274.377 205.58 274.127C205.599 273.877 205.612 273.63 205.618 273.385L207.114 273.886C207.134 274.464 207.157 275.068 207.183 275.7C207.222 276.327 207.261 276.919 207.301 277.474C207.353 278.025 207.406 278.482 207.459 278.847C207.482 278.981 207.514 279.14 207.555 279.324C207.609 279.504 207.657 279.649 207.7 279.761C207.738 279.861 207.783 279.98 207.835 280.117C207.904 280.262 207.969 280.394 208.029 280.514L205.98 281.485C205.53 280.9 205.035 280.125 204.497 279.16C203.954 278.183 203.441 277.058 202.958 275.787C202.693 275.089 202.447 274.348 202.22 273.564C201.989 272.768 201.776 272 201.58 271.261C201.397 270.518 201.238 269.836 201.103 269.217C200.963 268.586 200.849 268.08 200.761 267.7C200.699 267.424 200.625 267.117 200.54 266.778C200.449 266.428 200.353 266.1 200.252 265.797L202.917 265.04ZM218.918 259.477C219.604 259.208 220.365 258.877 221.198 258.486C222.032 258.095 222.915 257.655 223.848 257.166C224.427 256.863 225.018 256.539 225.619 256.194C226.233 255.843 226.82 255.498 227.38 255.159C227.941 254.821 228.433 254.51 228.857 254.228L230.091 256.585C229.696 256.837 229.212 257.135 228.64 257.479C228.08 257.818 227.487 258.166 226.862 258.524C226.242 258.863 225.648 259.181 225.081 259.478C224.16 259.961 223.294 260.391 222.484 260.77C221.674 261.149 220.894 261.498 220.142 261.816L218.918 259.477ZM224.339 266.21C224.418 266.561 224.504 266.899 224.6 267.225C224.695 267.552 224.821 267.862 224.975 268.158C225.272 268.725 225.8 269.043 226.558 269.112C227.329 269.175 228.352 268.873 229.628 268.205C230.431 267.784 231.189 267.35 231.903 266.901C232.616 266.452 233.275 266.002 233.881 265.549C234.499 265.09 235.03 264.654 235.476 264.24L236.802 266.729C236.344 267.119 235.818 267.523 235.223 267.939C234.635 268.368 233.981 268.801 233.261 269.237C232.56 269.68 231.796 270.118 230.969 270.551C229.622 271.256 228.417 271.699 227.353 271.879C226.288 272.06 225.387 271.991 224.647 271.671C223.901 271.339 223.315 270.765 222.888 269.95C222.616 269.43 222.41 268.936 222.27 268.468C222.13 267.999 222.009 267.581 221.907 267.213L224.339 266.21ZM237.139 246.93C237.262 247.271 237.396 247.604 237.541 247.928C237.689 248.235 237.836 248.541 237.984 248.847C238.123 249.143 238.28 249.484 238.455 249.87C238.64 250.248 238.83 250.656 239.026 251.092C239.224 251.511 239.416 251.942 239.601 252.387C239.797 252.824 239.984 253.259 240.161 253.693C240.33 254.117 240.484 254.51 240.624 254.872C241 254.02 241.452 253.279 241.978 252.648C242.496 252.007 243.112 251.417 243.825 250.879C244.688 250.229 245.546 249.807 246.402 249.612C247.268 249.41 248.069 249.432 248.806 249.678C249.553 249.916 250.184 250.376 250.698 251.057C251.372 251.951 251.735 252.863 251.785 253.794C251.846 254.716 251.626 255.642 251.125 256.572C250.634 257.493 249.892 258.403 248.9 259.302C247.918 260.192 246.731 261.054 245.339 261.887L243.227 260.249C244.212 259.74 245.12 259.172 245.95 258.546C246.791 257.911 247.487 257.262 248.037 256.596C248.587 255.931 248.927 255.274 249.055 254.625C249.187 253.958 249.032 253.332 248.59 252.747C248.229 252.268 247.718 252.01 247.056 251.975C246.387 251.929 245.664 252.198 244.886 252.785C243.96 253.483 243.229 254.285 242.693 255.191C242.167 256.088 241.894 257.021 241.873 257.989C241.886 258.162 241.896 258.33 241.902 258.493C241.918 258.647 241.936 258.826 241.955 259.029L239.565 259.779C239.43 258.979 239.213 258.116 238.914 257.189C238.616 256.262 238.287 255.349 237.927 254.451C237.567 253.554 237.21 252.737 236.856 252.002C236.494 251.257 236.187 250.661 235.935 250.217C235.732 249.836 235.547 249.525 235.381 249.282C235.207 249.029 235.013 248.783 234.799 248.544L237.139 246.93ZM232.975 253.001C233.55 252.701 234.16 252.358 234.804 251.972C235.44 251.575 236.009 251.189 236.509 250.811C237.02 250.426 237.567 249.988 238.15 249.499C238.743 249.001 239.356 248.464 239.989 247.886C240.622 247.308 241.243 246.714 241.852 246.105C242.464 245.476 243.048 244.844 243.603 244.208L245.068 246.084C244.622 246.555 244.106 247.077 243.521 247.652C242.946 248.219 242.336 248.805 241.689 249.409C241.035 250.003 240.383 250.578 239.734 251.135C239.085 251.691 238.473 252.186 237.898 252.62C237.281 253.085 236.682 253.52 236.101 253.924C235.524 254.31 234.979 254.662 234.468 254.981L232.975 253.001ZM247.523 237.561C247.946 237.29 248.452 236.933 249.041 236.489C249.629 236.044 250.24 235.575 250.872 235.08C251.493 234.576 252.07 234.095 252.6 233.636C253.14 233.167 253.573 232.783 253.899 232.483L255.367 234.522C255.067 234.792 254.695 235.114 254.253 235.49C253.808 235.847 253.333 236.231 252.826 236.64C252.329 237.039 251.835 237.433 251.346 237.822C250.847 238.203 250.387 238.547 249.967 238.855C249.548 239.163 249.203 239.413 248.935 239.604L247.523 237.561ZM250.661 240.076C250.821 240.3 251.037 240.581 251.31 240.918C251.581 241.237 251.868 241.569 252.17 241.913C252.472 242.258 252.758 242.59 253.03 242.909C253.31 243.217 253.543 243.478 253.731 243.69C253.821 242.576 254.07 241.544 254.476 240.594C254.891 239.634 255.436 238.758 256.11 237.966C256.871 237.073 257.682 236.45 258.543 236.098C259.404 235.745 260.237 235.631 261.041 235.756C261.854 235.871 262.57 236.192 263.19 236.719C263.88 237.307 264.394 237.999 264.732 238.795C265.07 239.591 265.161 240.501 265.007 241.525C264.852 242.55 264.399 243.678 263.646 244.911C262.893 246.144 261.777 247.496 260.296 248.967L257.809 247.847C259.309 246.497 260.428 245.244 261.168 244.088C261.898 242.923 262.269 241.891 262.283 240.991C262.294 240.073 261.98 239.341 261.341 238.797C261.006 238.511 260.63 238.357 260.212 238.334C259.783 238.302 259.351 238.398 258.915 238.622C258.469 238.837 258.06 239.163 257.688 239.599C256.962 240.452 256.436 241.388 256.111 242.407C255.784 243.407 255.707 244.392 255.879 245.362C255.929 245.633 255.986 245.874 256.05 246.086C256.113 246.28 256.19 246.477 256.282 246.678L254.349 248.053C254.107 247.741 253.813 247.386 253.469 246.988C253.115 246.581 252.736 246.153 252.331 245.703C251.916 245.244 251.497 244.791 251.073 244.342C250.649 243.894 250.227 243.454 249.804 243.025C249.382 242.595 248.992 242.21 248.634 241.87L250.661 240.076Z" fill="white"/>
<defs>
<filter id="filter0_d_418_31" x="0.3125" y="1" width="315.309" height="327.099" filterUnits="userSpaceOnUse" color-interpolation-filters="sRGB">
<feFlood flood-opacity="0" result="BackgroundImageFix"/>
<feColorMatrix in="SourceAlpha" type="matrix" values="0 0 0 0 0 0 0 0 0 0 0 0 0 0 0 0 0 0 127 0" result="hardAlpha"/>
<feMorphology radius="2" operator="erode" in="SourceAlpha" result="effect1_dropShadow_418_31"/>
<feOffset/>
<feGaussianBlur stdDeviation="8"/>
<feComposite in2="hardAlpha" operator="out"/>
<feColorMatrix type="matrix" values="0 0 0 0 0 0 0 0 0 0 0 0 0 0 0 0 0 0 0.25 0"/>
<feBlend mode="normal" in2="BackgroundImageFix" result="effect1_dropShadow_418_31"/>
<feBlend mode="normal" in="SourceGraphic" in2="effect1_dropShadow_418_31" result="shape"/>
</filter>
</defs>
</svg>
